<svg width="48" height="48" viewBox="0 0 48 48" fill="none" xmlns="http://www.w3.org/2000/svg">
<path d="M25.5 45C21.625 45 17.9844 44.0625 14.5781 42.1875L0 48L5.8125 33.4219C3.9375 30.0156 3 26.375 3 22.5C3 19.4375 3.59375 16.5234 4.78125 13.7578C5.96875 10.9922 7.57031 8.60156 9.58594 6.58594C11.6016 4.57031 13.9922 2.96875 16.7578 1.78125C19.5234 0.59375 22.4375 0 25.5 0C28.5625 0 31.4766 0.59375 34.2422 1.78125C37.0078 2.96875 39.3984 4.57031 41.4141 6.58594C43.4297 8.60156 45.0312 10.9922 46.2188 13.7578C47.4063 16.5234 48 19.4375 48 22.5C48 25.5625 47.4063 28.4766 46.2188 31.2422C45.0312 34.0078 43.4297 36.3984 41.4141 38.4141C39.3984 40.4297 37.0078 42.0312 34.2422 43.2188C31.4766 44.4063 28.5625 45 25.5 45ZM33 27H30L28.3125 28.5C26.9062 28.125 25.1797 26.9141 23.1328 24.8672C21.0859 22.8203 19.875 21.0938 19.5 19.6875L21 18V15C21 14.4688 20.8125 13.9375 20.4375 13.4062C20.0625 12.875 19.6484 12.4922 19.1953 12.2578C18.7422 12.0234 18.4219 12 18.2344 12.1875L16.0312 14.3906C14.8125 15.6094 14.6328 17.5078 15.4922 20.0859C16.3516 22.6641 17.9922 25.1641 20.4141 27.5859C22.8359 30.0078 25.3359 31.6484 27.9141 32.5078C30.4922 33.3672 32.3906 33.1875 33.6094 31.9688L35.8125 29.7656C36 29.5781 35.9766 29.2578 35.7422 28.8047C35.5078 28.3516 35.125 27.9375 34.5938 27.5625C34.0625 27.1875 33.5312 27 33 27Z" fill="white"/>
</svg>
