<svg width="64" height="64" viewBox="0 0 64 64" fill="none" xmlns="http://www.w3.org/2000/svg">
<path d="M43.75 15.1359C43.438 15.1359 43.23 15.1779 43.02 15.2299V15.2619H43.052C43.198 15.5319 43.438 15.7419 43.624 15.9919C43.77 16.2739 43.894 16.5639 44.03 16.8459L44.072 16.8039C44.322 16.6259 44.448 16.3459 44.448 15.9179C44.344 15.7919 44.322 15.6579 44.23 15.5419C44.126 15.3639 43.896 15.2719 43.75 15.1359ZM15.386 50.3219H12.918C12.8432 46.3936 12.6037 42.4701 12.2 38.5619H12.18L8.41995 50.3219H6.53395L2.80395 38.5619H2.77195C2.48209 42.4758 2.30868 46.3976 2.25195 50.3219H0.00195312C0.123785 45.3902 0.488896 40.4675 1.09595 35.5719H4.15795L7.71995 46.4059H7.73995L11.334 35.5719H14.25C14.896 40.9479 15.282 45.8639 15.396 50.3219H15.386ZM26.094 39.4379C25.094 44.8959 23.76 48.8659 22.126 51.3339C20.834 53.2399 19.428 54.1979 17.896 54.1979C17.49 54.1979 16.99 54.0719 16.386 53.8219V52.5099C16.688 52.5519 17.032 52.5819 17.418 52.5819C18.136 52.5819 18.71 52.3739 19.148 51.9879C19.668 51.5079 19.93 50.9679 19.93 50.3739C19.93 49.9579 19.732 49.1239 19.316 47.8539L16.618 39.4379H19.046L20.984 45.7299C21.422 47.1679 21.61 48.1579 21.526 48.7299C22.598 45.8959 23.338 42.7919 23.756 39.4379H26.094ZM58.968 50.3219H51.948V35.5719H54.312V48.5099H58.968V50.3219ZM50.114 50.6779L47.406 49.3439C47.646 49.1459 47.874 48.9279 48.084 48.6779C49.24 47.3339 49.814 45.3239 49.814 42.6779C49.814 37.7919 47.898 35.3559 44.064 35.3559C42.188 35.3559 40.72 35.9699 39.668 37.2099C38.522 38.5639 37.938 40.5639 37.938 43.1999C37.938 45.7939 38.448 47.6899 39.47 48.9079C40.408 49.9919 41.814 50.5439 43.7 50.5439C44.398 50.5439 45.044 50.4599 45.628 50.2839L49.16 52.3459L50.128 50.6799L50.114 50.6779ZM41.334 47.3639C40.73 46.4059 40.438 44.8639 40.438 42.7379C40.438 39.0199 41.564 37.1659 43.824 37.1659C45.002 37.1659 45.876 37.6139 46.428 38.4999C47.022 39.4679 47.324 40.9899 47.324 43.0939C47.324 46.8339 46.188 48.7199 43.938 48.7199C42.75 48.7199 41.886 48.2719 41.324 47.3859L41.334 47.3639ZM36.916 46.2399C36.916 47.4899 36.458 48.5219 35.53 49.3119C34.614 50.1139 33.394 50.5199 31.842 50.5199C30.394 50.5199 29.008 50.0619 27.644 49.1439L28.28 47.8739C29.446 48.4579 30.498 48.7499 31.458 48.7499C32.344 48.7499 33.042 48.5519 33.542 48.1659C34.042 47.7699 34.344 47.2179 34.344 46.5199C34.344 45.6439 33.73 44.8939 32.614 44.2699C31.582 43.6979 29.51 42.5199 29.51 42.5199C28.384 41.6979 27.832 40.8219 27.832 39.3739C27.832 38.1759 28.248 37.2179 29.082 36.4879C29.926 35.7379 30.998 35.3739 32.332 35.3739C33.6591 35.3623 34.9602 35.7429 36.072 36.4679L35.5 37.7379C34.6063 37.3443 33.6423 37.1355 32.666 37.1239C31.906 37.1239 31.322 37.3119 30.916 37.6759C30.51 38.0399 30.26 38.4979 30.26 39.0719C30.26 39.9479 30.886 40.6979 32.03 41.3419C33.082 41.9139 35.196 43.1239 35.196 43.1239C36.352 43.9359 36.926 44.8119 36.926 46.2379L36.916 46.2399ZM61.928 30.6259C60.5 30.5939 59.396 30.7399 58.47 31.1359C58.21 31.2399 57.782 31.2399 57.74 31.5739C57.886 31.7199 57.906 31.9499 58.032 32.1459C58.25 32.4999 58.616 32.9799 58.96 33.2299C59.336 33.5219 59.71 33.8139 60.096 34.0639C60.794 34.4919 61.576 34.7419 62.262 35.1679C62.648 35.4179 63.044 35.7399 63.428 36.0019C63.626 36.1379 63.75 36.3779 64 36.4599V36.4079C63.874 36.2519 63.844 36.0219 63.718 35.8359C63.54 35.6579 63.364 35.5019 63.186 35.3259C62.6644 34.6334 62.039 34.0256 61.332 33.5239C60.76 33.1379 59.51 32.5959 59.28 31.9399L59.248 31.8979C59.634 31.8659 60.092 31.7199 60.466 31.6159C61.07 31.4599 61.632 31.4899 62.258 31.3339C62.5451 31.2593 62.8299 31.176 63.112 31.0839V30.9279C62.79 30.6059 62.55 30.1679 62.216 29.8659C61.2956 29.0605 60.3132 28.3289 59.278 27.6779C58.716 27.3139 58.008 27.0839 57.414 26.7819C57.206 26.6779 56.842 26.6259 56.726 26.4479C56.404 26.0519 56.216 25.5419 55.986 25.0719C55.4628 24.0551 54.9765 23.0197 54.528 21.9679C54.206 21.2699 54.018 20.5819 53.622 19.9359C51.788 16.9039 49.788 15.0719 46.726 13.2699C46.07 12.8939 45.278 12.7379 44.444 12.5399C43.996 12.5199 43.558 12.4879 43.11 12.4679C42.818 12.3419 42.538 12.0099 42.288 11.8419C41.268 11.1959 38.642 9.80987 37.902 11.6439C37.422 12.8099 38.61 13.9459 39.028 14.5299C39.33 14.9459 39.716 15.4059 39.934 15.8639C40.06 16.1759 40.09 16.4999 40.216 16.8219C40.498 17.6039 40.768 18.4779 41.144 19.2079C41.342 19.5839 41.55 19.9779 41.8 20.3119C41.946 20.5099 42.196 20.5939 42.248 20.9159C41.998 21.2799 41.978 21.8119 41.842 22.2499C41.196 24.2699 41.446 26.7599 42.352 28.2499C42.644 28.6979 43.32 29.6779 44.228 29.3019C45.03 28.9799 44.854 27.9679 45.082 27.0719C45.134 26.8539 45.102 26.7179 45.208 26.5719V26.6139C45.468 27.1139 45.718 27.5939 45.948 28.0939C46.49 28.9699 47.458 29.8759 48.26 30.4799C48.688 30.8019 49.02 31.3559 49.552 31.5519V31.4999H49.51C49.396 31.3439 49.25 31.2699 49.104 31.1459C48.7662 30.8113 48.4527 30.4531 48.166 30.0739C47.426 29.0739 46.76 27.9699 46.176 26.8339C45.8946 26.2726 45.6377 25.6994 45.406 25.1159C45.302 24.9079 45.302 24.5839 45.124 24.4799C44.854 24.8659 44.458 25.1979 44.27 25.6879C43.926 26.4479 43.894 27.3959 43.76 28.3759C43.698 28.3959 43.728 28.3759 43.698 28.4179C43.126 28.2719 42.928 27.6879 42.718 27.1879C42.176 25.9179 42.092 23.8859 42.552 22.4279C42.678 22.0519 43.208 20.8759 43 20.5219C42.886 20.1779 42.532 19.9799 42.344 19.7099C42.104 19.3759 41.864 18.9499 41.698 18.5739C41.27 17.5739 41.062 16.4699 40.594 15.4699C40.386 15.0119 40.01 14.5319 39.708 14.1059C39.364 13.6259 38.99 13.2839 38.728 12.7199C38.634 12.5219 38.51 12.1999 38.656 11.9899C38.688 11.8439 38.76 11.7919 38.906 11.7499C39.136 11.5519 39.802 11.8019 40.032 11.9159C40.688 12.1759 41.24 12.4259 41.792 12.8019C42.042 12.9799 42.312 13.3119 42.636 13.4059H43.012C43.584 13.5319 44.22 13.4379 44.752 13.6039C45.7 13.9059 46.554 14.3439 47.324 14.8219C49.6787 16.3335 51.5937 18.4388 52.876 20.9259C53.094 21.3319 53.188 21.7079 53.386 22.1339C53.75 23.0199 54.22 23.9039 54.594 24.7479C54.968 25.5919 55.324 26.4459 55.864 27.1439C56.134 27.5199 57.198 27.7159 57.686 27.9039C58.04 28.0699 58.592 28.2159 58.904 28.4039C59.518 28.7799 60.122 29.2059 60.696 29.6219C60.988 29.8199 61.874 30.2679 61.926 30.6219L61.928 30.6259Z" fill="#C2C6C8"/>
</svg>
