<svg width="64" height="64" viewBox="0 0 64 64" fill="none" xmlns="http://www.w3.org/2000/svg">
<path d="M0 0H64V64H0V0ZM58.76 48.74C58.292 45.812 56.384 43.364 50.75 41.074C48.792 40.158 46.604 39.512 45.958 38.032C45.718 37.156 45.676 36.678 45.832 36.156C46.238 34.426 48.27 33.916 49.874 34.396C50.916 34.718 51.874 35.51 52.478 36.792C55.238 34.99 55.238 34.99 57.156 33.792C56.438 32.678 56.084 32.188 55.594 31.72C53.916 29.834 51.678 28.876 48.042 28.96L46.156 29.2C44.354 29.638 42.636 30.596 41.594 31.878C38.562 35.316 39.438 41.316 43.114 43.806C46.75 46.524 52.072 47.118 52.76 49.682C53.396 52.808 50.438 53.808 47.51 53.442C45.354 52.962 44.156 51.88 42.832 49.88L37.956 52.682C38.508 53.964 39.154 54.516 40.112 55.64C44.748 60.318 56.352 60.078 58.434 52.962C58.506 52.722 59.07 51.076 58.632 48.566L58.76 48.74ZM34.802 29.416H28.812C28.812 34.582 28.78 39.718 28.78 44.896C28.78 48.178 28.946 51.198 28.416 52.126C27.53 53.96 25.27 53.73 24.238 53.408C23.186 52.888 22.644 52.168 22.03 51.126C21.852 50.844 21.728 50.606 21.686 50.606L16.822 53.606C17.634 55.284 18.822 56.732 20.354 57.648C22.636 59.012 25.698 59.45 28.906 58.732C30.99 58.128 32.792 56.888 33.728 54.972C35.092 52.492 34.8 49.452 34.79 46.044C34.822 40.564 34.79 35.086 34.79 29.564L34.802 29.416Z" fill="#37474F" fill-opacity="0.29"/>
</svg>
