<svg width="64" height="64" viewBox="0 0 64 64" fill="none" xmlns="http://www.w3.org/2000/svg">
<path d="M23.6061 49.49C23.6061 49.49 21.1581 50.916 25.3441 51.394C30.4161 51.978 33.0101 51.896 38.5941 50.832C38.5941 50.832 40.0601 51.76 42.1141 52.562C29.5841 57.928 13.7601 52.24 23.6041 49.49H23.6061ZM22.0721 42.49C22.0721 42.49 19.3221 44.52 23.5101 44.946C28.9401 45.508 33.2081 45.562 40.6141 44.136C40.6141 44.136 41.6361 45.168 43.2521 45.738C28.1061 50.164 11.2301 46.082 22.0741 42.49H22.0721ZM34.9781 30.606C38.0601 34.158 34.1641 37.356 34.1641 37.356C34.1641 37.356 41.9981 33.302 38.4041 28.242C35.0421 23.512 32.4581 21.17 46.4141 13.074C46.4141 13.074 24.5081 18.544 34.9761 30.608L34.9781 30.606ZM51.5421 54.678C51.5421 54.678 53.3561 56.166 49.5521 57.324C42.3221 59.51 19.4581 60.166 13.1041 57.406C10.8241 56.416 15.1041 55.032 16.4481 54.75C17.8541 54.438 18.6561 54.502 18.6561 54.502C16.1141 52.71 2.24007 58.012 11.6061 59.532C37.1581 63.678 58.1761 57.668 51.5421 54.678ZM24.7821 35.23C24.7821 35.23 13.1481 37.99 20.6561 38.99C23.8341 39.416 30.1581 39.324 36.0541 38.824C40.8641 38.416 45.7001 37.552 45.7001 37.552C45.7001 37.552 44.0021 38.28 42.7721 39.126C30.9581 42.23 8.13807 40.782 14.7101 37.606C20.2621 34.928 24.7821 35.23 24.7821 35.23ZM45.6461 46.896C57.6461 40.646 52.0941 34.656 48.2301 35.47C47.2801 35.656 46.8541 35.836 46.8541 35.836C46.8541 35.836 47.1981 35.282 47.8761 35.044C55.5421 32.346 61.4381 42.99 45.4061 47.21C45.4061 47.2 45.5961 47.044 45.6461 46.898V46.896ZM38.4061 0C38.4061 0 45.0541 6.646 32.0941 16.874C21.7101 25.082 29.7281 29.76 32.0941 35.104C26.0321 29.634 21.5841 24.824 24.5641 20.344C28.9481 13.75 41.0841 10.562 38.4061 0ZM25.9581 63.802C37.4801 64.53 55.1761 63.386 55.6061 57.938C55.6061 57.938 54.7921 60 46.0721 61.644C36.2401 63.498 24.1041 63.278 16.9061 62.092C16.9061 62.092 18.3861 63.31 25.9561 63.802H25.9581Z" fill="#C2C6C8"/>
</svg>
