<svg width="64" height="64" viewBox="0 0 64 64" fill="none" xmlns="http://www.w3.org/2000/svg">
<g clip-path="url(#clip0)">
<path d="M33.3436 0C32.9276 0 32.5016 0.022 32.0616 0.054C20.7916 0.948 23.7816 12.876 23.6136 16.854C23.4056 19.76 22.8136 22.062 20.8136 24.908C18.4476 27.71 15.1356 32.242 13.5636 36.958C12.8256 39.176 12.4696 41.46 12.8036 43.606C12.6778 43.6992 12.5746 43.8195 12.5016 43.958C11.8136 44.678 11.3016 45.564 10.7396 46.198C10.2096 46.728 9.44961 46.908 8.61361 47.262C7.78161 47.624 6.85361 47.98 6.31161 49.084C6.07161 49.586 5.94561 50.126 5.95761 50.69C5.95761 51.21 6.03161 51.752 6.10361 52.116C6.26161 53.178 6.41561 54.054 6.20761 54.7C5.54161 56.51 5.46961 57.75 5.92761 58.658C6.39361 59.554 7.35361 59.908 8.42561 60.264C10.5936 60.794 13.5196 60.626 15.8336 61.856C18.2996 63.106 20.8116 63.648 22.8116 63.118C23.5015 62.9633 24.1482 62.6569 24.7049 62.221C25.2615 61.7851 25.714 61.2307 26.0296 60.598C27.5916 60.588 29.3096 59.878 32.0516 59.702C33.9156 59.544 36.2496 60.42 38.9256 60.232C38.9976 60.598 39.0916 60.762 39.2376 61.128V61.138C40.2776 63.21 42.2056 64.148 44.2696 63.992C46.3196 63.826 48.5076 62.566 50.2776 60.504C51.9656 58.472 54.7676 57.616 56.6216 56.504C57.5496 55.97 58.2996 55.254 58.3516 54.222C58.4136 53.16 57.8216 52.056 56.4556 50.556V50.294L56.4456 50.284C55.9876 49.754 55.7796 48.858 55.5396 47.818C55.3096 46.744 55.0596 45.724 54.2276 45.026C54.0596 44.88 53.8936 44.848 53.7176 44.672C53.5698 44.5679 53.396 44.5069 53.2156 44.496C54.3616 41.088 53.9136 37.704 52.7456 34.65C51.3296 30.89 48.8396 27.61 46.9536 25.36C44.8276 22.682 42.7456 20.142 42.7876 16.382C42.8596 10.64 43.4216 0.028 33.3396 0.006L33.3436 0ZM34.7496 9.082H34.7916C35.3536 9.082 35.8416 9.25 36.3436 9.604C36.8536 9.966 37.2296 10.49 37.5096 11.03C37.7916 11.718 37.9396 12.248 37.9576 12.956C37.9576 12.906 37.9676 12.852 37.9676 12.802V13.082C37.9676 13.06 37.9576 13.042 37.9576 13.02L37.9476 12.956C37.9476 13.604 37.8136 14.25 37.5536 14.842C37.4301 15.179 37.2341 15.4849 36.9796 15.738C36.9076 15.698 36.8336 15.656 36.7496 15.624C36.4696 15.498 36.2196 15.458 35.9896 15.272C35.8004 15.1962 35.605 15.1366 35.4056 15.094C35.5316 14.94 35.7916 14.74 35.8956 14.564C36.0316 14.23 36.1036 13.866 36.1256 13.492V13.438C36.1313 13.077 36.0744 12.7177 35.9576 12.376C35.8436 12.022 35.6996 11.842 35.4796 11.49C35.2496 11.312 35.0316 11.136 34.7596 11.136H34.7196C34.4696 11.136 34.2496 11.208 34.0216 11.49C33.7714 11.7367 33.5853 12.0409 33.4796 12.376C33.3343 12.712 33.2529 13.0722 33.2396 13.438V13.492C33.2396 13.73 33.2616 13.97 33.2896 14.21C32.7696 14.034 32.1236 13.844 31.6656 13.668C31.6407 13.4924 31.6267 13.3154 31.6236 13.138V13.084C31.6034 12.3797 31.7393 11.6796 32.0216 11.034C32.2396 10.45 32.6356 9.948 33.1676 9.616C33.6236 9.274 34.1756 9.086 34.7496 9.086V9.082ZM26.8536 9.24H26.9476C27.3236 9.24 27.6676 9.366 28.0116 9.594C28.4056 9.938 28.7216 10.364 28.9296 10.832C29.1696 11.366 29.3036 11.906 29.3456 12.614V12.624C29.3556 12.978 29.3556 13.168 29.3356 13.334V13.552L29.1176 13.614C28.7116 13.76 28.3896 13.968 28.0636 14.148C28.0956 13.908 28.0956 13.668 28.0736 13.438V13.396C28.0436 13.044 27.9696 12.866 27.8556 12.51C27.7702 12.2362 27.616 11.989 27.4076 11.792C27.2766 11.6752 27.1049 11.6148 26.9296 11.624H26.8656C26.6796 11.634 26.5216 11.728 26.3776 11.978C26.2013 12.1808 26.0892 12.4314 26.0556 12.698C25.9816 12.978 25.9596 13.28 25.9916 13.584V13.614C26.0236 13.98 26.0856 14.158 26.2096 14.51C26.2901 14.7813 26.4412 15.0264 26.6476 15.22C26.6796 15.252 26.7016 15.274 26.7416 15.282C26.5556 15.44 26.4296 15.472 26.2756 15.648C26.1696 15.722 26.0576 15.816 25.9216 15.838C25.6442 15.5044 25.3998 15.1447 25.1916 14.764C24.9364 14.2034 24.795 13.5977 24.7756 12.982C24.7352 12.3803 24.8057 11.7762 24.9836 11.2C25.1416 10.68 25.3916 10.19 25.7436 9.774C26.0876 9.42 26.4316 9.244 26.8576 9.244L26.8536 9.24ZM30.5096 13.792C31.3956 13.792 32.4596 13.958 33.7496 14.854C34.5316 15.388 35.1476 15.574 36.5636 16.094C37.2516 16.46 37.6456 16.814 37.8436 17.168V16.814C37.9386 17.0072 37.9914 17.2183 37.9987 17.4335C38.0059 17.6486 37.9674 17.8629 37.8856 18.062C37.5516 18.896 36.5096 19.782 35.0436 20.312V20.322C34.3336 20.676 33.7096 21.208 32.9796 21.562C32.2416 21.916 31.4056 22.344 30.2816 22.272C29.8746 22.2899 29.4679 22.2294 29.0836 22.094C28.7874 21.9367 28.502 21.7597 28.2296 21.564C27.7096 21.21 27.2616 20.678 26.5956 20.324V20.314H26.5856C25.5116 19.658 24.9396 18.948 24.7516 18.418C24.5756 17.7 24.7416 17.17 25.2736 16.816C25.8656 16.462 26.2816 16.096 26.5536 15.92C26.8336 15.722 26.9396 15.648 27.0236 15.576H27.0336V15.566C27.4816 15.024 28.1876 14.316 29.2736 13.96C29.6356 13.866 30.0556 13.794 30.5116 13.794L30.5096 13.792ZM37.9676 19.498C38.9276 23.28 41.1676 28.77 42.6056 31.426C43.3656 32.852 44.8856 35.852 45.5416 39.49C45.9576 39.48 46.4156 39.54 46.9076 39.666C48.6356 35.208 45.4596 30.416 44.0116 29.082C43.4176 28.552 43.3876 28.196 43.6776 28.196C45.2516 29.612 47.3116 32.386 48.0616 35.54C48.4056 36.966 48.4916 38.49 48.1256 39.998C48.3016 40.07 48.4796 40.164 48.6676 40.174C51.4176 41.604 52.4376 42.676 51.9476 44.278V44.164C51.7936 44.156 51.6256 44.164 51.4696 44.164H51.4276C51.8356 42.916 50.9396 41.956 48.5856 40.894C46.1476 39.832 44.1996 39.998 43.8656 42.134C43.842 42.2547 43.8287 42.3771 43.8256 42.5C43.6356 42.562 43.4496 42.634 43.2636 42.666C42.1176 43.386 41.5016 44.458 41.1496 45.834C40.8056 47.26 40.7016 48.916 40.6076 50.824C40.5436 51.72 40.1496 53.062 39.7516 54.426C35.7516 57.29 30.1996 58.53 25.4936 55.322C25.1896 54.802 24.8356 54.322 24.4196 53.896C24.2199 53.565 23.971 53.2663 23.6816 53.01C24.1696 53.01 24.5876 52.928 24.9216 52.832C25.3031 52.6482 25.603 52.3298 25.7636 51.938C26.0456 51.228 25.7636 50.082 24.8356 48.832C23.9216 47.594 22.3576 46.186 20.0756 44.782C18.3896 43.72 17.4416 42.46 17.0036 41.062C16.5656 39.636 16.6276 38.166 16.9616 36.678C17.6176 33.824 19.2956 31.044 20.3696 29.302C20.6496 29.136 20.4636 29.668 19.2756 31.908C18.2216 33.908 16.2336 38.564 18.9496 42.178C19.054 39.5386 19.6403 36.9405 20.6796 34.512C22.1776 31.106 25.3256 25.17 25.5756 20.462C25.7016 20.566 26.1496 20.828 26.3456 21.004C26.9196 21.358 27.3556 21.89 27.9196 22.244C28.4816 22.774 29.1896 23.14 30.2536 23.14C30.3576 23.15 30.4516 23.15 30.5436 23.15C31.6376 23.15 32.4936 22.796 33.1996 22.44C33.9696 22.074 34.5976 21.544 35.1776 21.368H35.1876C36.4276 21.014 37.4176 20.294 37.9696 19.502L37.9676 19.498ZM43.8016 43.386C43.9056 44.988 44.7196 46.708 46.1556 47.06C47.7176 47.414 49.9776 46.174 50.9256 45.02L51.4876 44.998C52.3296 44.976 53.0296 45.02 53.7456 45.708L53.7556 45.718C54.3076 46.248 54.5696 47.134 54.7976 48.052C55.0276 49.124 55.2036 50.134 55.8916 50.894C57.1816 52.3 57.6096 53.31 57.5896 53.936C57.5476 54.632 57.0876 54.986 56.2556 55.518C54.5776 56.592 51.5996 57.414 49.7036 59.708C48.0556 61.676 46.0476 62.748 44.2736 62.884C42.5036 63.03 40.9716 62.354 40.0756 60.49L40.0656 60.48C39.5036 59.416 39.7436 57.75 40.2116 55.978C40.6816 54.196 41.3576 52.386 41.4516 50.916C41.5456 49.01 41.6496 47.354 41.9616 46.07C42.2836 44.83 42.7856 43.944 43.6816 43.456L43.7956 43.392L43.8016 43.386ZM14.9576 43.52H14.9896C15.1356 43.52 15.2716 43.53 15.4056 43.562C16.4056 43.708 17.2916 44.448 18.1356 45.562L20.5616 50L20.5716 50.01C21.2176 51.426 22.5816 52.842 23.7376 54.376C24.8956 55.968 25.7916 57.394 25.6876 58.562V58.584C25.5296 60.562 24.4056 61.634 22.6876 62.032C20.9676 62.386 18.6336 62.032 16.3016 60.792C13.7196 59.366 10.6456 59.542 8.67761 59.186C7.69961 59.01 7.05361 58.644 6.74961 58.114C6.45961 57.584 6.44761 56.508 7.08361 54.832V54.824C7.39561 53.928 7.16961 52.814 7.01161 51.834C6.86561 50.77 6.79361 49.946 7.12561 49.332C7.55161 48.436 8.18761 48.27 8.96761 47.906C9.74961 47.552 10.6776 47.376 11.4056 46.656H11.4156V46.646C12.0936 45.94 12.6056 45.054 13.1976 44.416C13.6996 43.874 14.2076 43.52 14.9576 43.52ZM34.0536 19.322C32.8956 19.852 31.5316 20.748 30.0836 20.748C28.6356 20.748 27.4996 20.042 26.6776 19.508C26.2616 19.146 25.9276 18.79 25.6776 18.612C25.2396 18.26 25.2916 17.718 25.4796 17.718C25.7696 17.758 25.8236 18.08 26.0096 18.26C26.2716 18.436 26.5836 18.79 26.9676 19.146C27.7496 19.676 28.7916 20.394 30.0816 20.394C31.3756 20.394 32.8956 19.676 33.8116 19.146C34.3316 18.792 34.9976 18.26 35.5396 17.906C35.9556 17.54 35.9376 17.186 36.2776 17.186C36.6216 17.228 36.3736 17.54 35.8936 18.072C35.4036 18.438 34.6536 18.968 34.0516 19.322H34.0536ZM31.1676 15.094V15.044C31.1576 14.99 31.1976 14.93 31.2496 14.908C31.4356 14.794 31.7276 14.834 31.9376 14.918C32.1036 14.918 32.3636 15.094 32.3436 15.28C32.3216 15.406 32.1136 15.458 31.9776 15.458C31.8336 15.458 31.7276 15.344 31.6036 15.272C31.4676 15.23 31.2056 15.25 31.1656 15.094H31.1676ZM29.6976 15.094C29.6436 15.252 29.3936 15.23 29.2596 15.272C29.1336 15.344 29.0296 15.458 28.8836 15.458C28.7476 15.458 28.5296 15.404 28.5176 15.272C28.4996 15.094 28.7476 14.918 28.9156 14.918C29.1336 14.832 29.4036 14.792 29.6116 14.908C29.6536 14.93 29.7076 14.99 29.6856 15.044V15.094H29.6976Z" fill="#C2C6C8"/>
</g>
<defs>
<clipPath id="clip0">
<rect width="64" height="64" fill="white"/>
</clipPath>
</defs>
</svg>
