<svg width="64" height="64" viewBox="0 0 64 64" fill="none" xmlns="http://www.w3.org/2000/svg">
<g clip-path="url(#clip0)">
<path d="M53.3349 0H10.6689C7.84289 0.00896577 5.13516 1.13558 3.13683 3.1339C1.13851 5.13223 0.0118955 7.83996 0.00292969 10.666V53.332C0.00292969 59.196 4.80493 63.998 10.6689 63.998H53.3349C59.1989 63.998 64.0009 59.196 64.0009 53.332V10.666C64.0009 4.802 59.1989 0 53.3349 0ZM47.5009 44.948C46.9682 46.2327 46.1233 47.3642 45.0429 48.24C43.9169 49.146 42.5009 49.896 40.7509 50.428C39.0109 50.97 36.9389 51.24 34.5329 51.24H17.3869V13.906H35.5229C38.8769 13.906 41.5649 14.656 43.5749 16.198C45.6069 17.74 46.6069 20.052 46.6069 23.156C46.6069 25.042 46.1489 26.646 45.2309 27.978C44.3129 29.31 42.9909 30.342 41.2829 31.062V31.188C43.5649 31.668 45.3249 32.75 46.4809 34.428C47.6369 36.106 48.2409 38.23 48.2409 40.792C48.2424 42.1887 47.97 43.5722 47.4389 44.864L47.5009 44.936V44.948ZM40.0949 35.75C39.0109 34.75 37.4689 34.26 35.4909 34.26H23.9589V45.906H35.5209C37.4889 45.906 39.0409 45.396 40.1349 44.364C41.2289 43.332 41.7809 41.864 41.7809 39.988C41.7609 38.144 41.2289 36.718 40.1349 35.748H40.0829L40.0949 35.75ZM38.5009 28.218C39.5529 27.322 40.0729 26.04 40.0729 24.364C40.0729 22.488 39.6049 21.156 38.6569 20.396C37.7189 19.636 36.3649 19.24 34.5849 19.24H23.9189V29.542H34.5849C36.1369 29.542 37.4709 29.084 38.4909 28.22L38.5009 28.218Z" fill="#37474F" fill-opacity="0.29"/>
</g>
<defs>
<clipPath id="clip0">
<rect width="64" height="64" fill="white"/>
</clipPath>
</defs>
</svg>
