<svg width="64" height="64" viewBox="0 0 64 64" fill="none" xmlns="http://www.w3.org/2000/svg">
<path d="M63.0519 14.4795C63.0719 14.5635 63.0839 14.6575 63.0839 14.7395V28.4795C63.0844 28.6548 63.0384 28.8272 62.9505 28.979C62.8627 29.1307 62.7362 29.2565 62.5839 29.3435L51.0519 35.9895V49.1455C51.0524 49.3208 51.0064 49.4932 50.9185 49.645C50.8307 49.7967 50.7042 49.9225 50.5519 50.0095L26.4799 63.8635C26.4237 63.8946 26.364 63.9188 26.3019 63.9355L26.2399 63.9675C26.0725 64.0095 25.8973 64.0095 25.7299 63.9675C25.7047 63.9599 25.6805 63.9492 25.6579 63.9355C25.6001 63.9176 25.5445 63.8934 25.4919 63.8635L1.42992 50.0095C1.27661 49.9228 1.14878 49.7974 1.05926 49.6458C0.969746 49.4941 0.921691 49.3216 0.919922 49.1455V7.92748C0.919922 7.84348 0.939922 7.74948 0.961922 7.66748C0.971922 7.63548 0.981922 7.61548 0.993922 7.58348L1.05592 7.42748C1.06592 7.39548 1.09792 7.37548 1.11792 7.34348L1.21192 7.21748C1.24559 7.19669 1.27708 7.17257 1.30592 7.14548C1.34792 7.11348 1.37792 7.08348 1.41992 7.06148L13.4519 0.133481C13.6041 0.0461023 13.7765 0.00012207 13.9519 0.00012207C14.1274 0.00012207 14.2998 0.0461023 14.4519 0.133481L26.4939 7.06148C26.5359 7.08148 26.5659 7.11348 26.5979 7.14548L26.7019 7.21748C26.7327 7.25758 26.7607 7.29967 26.7859 7.34348C26.8059 7.36348 26.8379 7.39548 26.8579 7.42748L26.9199 7.58348C26.9299 7.61548 26.9519 7.63548 26.9519 7.66748C26.9822 7.75072 26.9965 7.83894 26.9939 7.92748V33.6675L37.0139 27.8975V14.7415C37.0177 14.6233 37.0427 14.5068 37.0879 14.3975L37.1499 14.2415C37.1699 14.1995 37.2019 14.1795 37.2219 14.1475C37.2539 14.1055 37.2739 14.0635 37.3059 14.0335C37.3379 14.0035 37.3779 13.9815 37.4099 13.9615C37.44 13.9282 37.4751 13.8998 37.5139 13.8775L49.5559 6.94948C49.7064 6.85717 49.8794 6.8083 50.0559 6.8083C50.2324 6.8083 50.4055 6.85717 50.5559 6.94948L62.5879 13.8775C62.6299 13.8975 62.6599 13.9295 62.7019 13.9615C62.7339 13.9815 62.7639 14.0035 62.7959 14.0335C62.8279 14.0635 62.8579 14.1055 62.8899 14.1475C62.9099 14.1795 62.9419 14.1995 62.9519 14.2415C62.9839 14.2935 62.9939 14.3455 63.0139 14.3975C63.0339 14.4175 63.0459 14.4495 63.0559 14.4815L63.0519 14.4795ZM61.0719 27.8955V16.4795L56.8639 18.8955L51.0519 22.2495V33.6655L61.0719 27.8955ZM49.0519 48.5615V37.1335L43.3219 40.3935L26.9879 49.7275V61.2595L49.0519 48.5615ZM2.91592 9.66548V48.5615L24.9779 61.2595V49.7275L13.4459 43.1955C13.4039 43.1755 13.3739 43.1435 13.3419 43.1115C13.3099 43.0915 13.2699 43.0695 13.2479 43.0395H13.2379C13.2059 43.0075 13.1859 42.9675 13.1539 42.9355C13.1339 42.9035 13.1019 42.8735 13.0819 42.8315C13.0586 42.7922 13.0411 42.7498 13.0299 42.7055C13.0099 42.6635 12.9879 42.6335 12.9779 42.5915C12.9679 42.5495 12.9579 42.4975 12.9579 42.4455C12.9479 42.4035 12.9379 42.3735 12.9379 42.3315V15.4355L7.12592 12.0815L2.91592 9.66548ZM13.9479 2.15548L3.92792 7.92548L13.9479 13.6955L23.9679 7.92548L13.9479 2.15548ZM19.1659 38.1775L24.9779 34.8235V9.66748L20.7699 12.0835L14.9479 15.4375V40.5935L19.1659 38.1775ZM50.0519 8.96748L40.0199 14.7375L50.0519 20.5075L60.0719 14.7375L50.0519 8.96748ZM49.0519 22.2495L39.0199 16.4795V27.8955L44.8319 31.2495L49.0499 33.6655L49.0519 22.2495ZM25.9799 47.9895L48.0319 35.4055L38.0219 29.6355L15.9799 42.3235L25.9799 47.9895Z" fill="#C2C6C8"/>
</svg>
