<svg width="64" height="64" viewBox="0 0 64 64" fill="none" xmlns="http://www.w3.org/2000/svg">
<g clip-path="url(#clip0)">
<path d="M38.158 0.479906L40.564 1.00991L42.51 1.70791L44.084 2.50791L45.282 3.36391L46.188 4.26991L46.854 5.17391L47.28 6.05191L47.542 6.85191L47.656 7.53991L47.71 8.08191L47.678 8.42591V22.6659L47.542 24.3439L47.198 25.8139L46.636 27.0439L45.948 28.0539L45.148 28.8759L44.274 29.5419L43.336 30.0539L42.398 30.4279L41.524 30.6999L40.724 30.8759L40.036 30.9899L39.474 31.0439H23.546L21.714 31.1779L20.14 31.5439L18.806 32.1379L17.712 32.8559L16.826 33.7119L16.106 34.6379L15.576 35.6079L15.178 36.5859L14.908 37.5219L14.722 38.3779L14.616 39.0959L14.566 39.6579V47.8159H8.61595L8.05595 47.7299L7.30395 47.5439L6.46195 47.2319L5.52395 46.7519L4.56595 46.0559L3.60795 45.0959L2.66995 43.8659L1.81595 42.2919L1.06395 40.3459L0.511953 38.0019L0.137953 35.1999L0.00195312 31.9199L0.159953 28.6699L0.585953 25.8999L1.23195 23.5779L2.08595 21.6819L3.04595 20.1619L4.10795 18.9939L5.23395 18.1079L6.34795 17.4739L7.41995 17.0479L8.37995 16.7759L9.23395 16.6399L9.86795 16.6179H10.294L10.462 16.6399H32.212V14.4319H16.638L16.616 7.09791L16.566 6.10791L16.702 5.20191L16.992 4.37991L17.44 3.62791L18.106 2.94191L18.94 2.32591L19.948 1.79591L21.126 1.30591L22.48 0.911906L24.032 0.589906L25.728 0.327906L27.624 0.161906L29.678 0.0579062L31.918 0.00390625L35.302 0.139906L38.158 0.479906ZM21.366 5.75991L20.75 6.63391L20.532 7.72791L20.75 8.82391L21.366 9.72791L22.24 10.3219L23.334 10.5619L24.428 10.3219L25.302 9.72791L25.918 8.82391L26.136 7.72791L25.918 6.63391L25.302 5.75991L24.428 5.17591L23.334 4.93791L22.24 5.17591L21.366 5.75991ZM56.272 16.2899L57.01 16.4579L57.864 16.7699L58.802 17.2499L59.76 17.9679L60.72 18.9059L61.656 20.1559L62.51 21.7259L63.252 23.6759L63.814 26.0299L64.188 28.7999L64.324 32.0799L64.158 35.3619L63.728 38.1319L63.094 40.4219L62.24 42.3179L61.28 43.8379L60.208 45.0379L59.094 45.9119L57.968 46.5579L56.906 46.9839L55.946 47.2239L55.092 47.3599L54.458 47.4099L54.032 47.3799H32.104V49.5659H47.678L47.71 56.9319L47.76 57.8899L47.624 58.7959L47.334 59.6179L46.876 60.3879L46.21 61.0539L45.388 61.7019L44.378 62.2319L43.2 62.6899L41.846 63.0839L40.294 63.4279L38.588 63.6679L36.702 63.8539L34.638 63.9579L32.398 63.9899L29.014 63.8859L26.16 63.5099L23.762 62.9799L21.816 62.3139L20.242 61.5119L19.044 60.6259L18.138 59.7199L17.472 58.8159L17.046 57.9379L16.774 57.1379L16.67 56.4719L16.616 55.9379L16.638 55.5959V41.3559L16.774 39.6459L17.128 38.1979L17.68 36.9799L18.378 35.9579L19.178 35.1159L20.056 34.4699L20.992 33.9359L21.92 33.5619L22.806 33.2899L23.608 33.1359L24.294 33.0319L25.2 32.9459H40.774L42.616 32.8119L44.19 32.4459L45.524 31.8839L46.618 31.1339L47.496 30.2779L48.214 29.3519L48.756 28.3819L49.154 27.4239L49.424 26.4959L49.614 25.6419L49.718 24.8919L49.768 24.3299V16.1719H55.342L55.718 16.1939L56.272 16.2899ZM39.01 54.2899L38.394 55.1759L38.186 56.2719L38.394 57.3659L39.01 58.2399L39.896 58.8539L40.99 59.0619L42.084 58.8539L42.958 58.2399L43.574 57.3659L43.792 56.2719L43.574 55.1759L42.958 54.2899L42.084 53.6759L40.99 53.4679L39.896 53.6759L39.01 54.2899Z" fill="#C2C6C8"/>
</g>
<defs>
<clipPath id="clip0">
<rect width="64" height="64" fill="white"/>
</clipPath>
</defs>
</svg>
