<svg width="64" height="64" viewBox="0 0 64 64" fill="none" xmlns="http://www.w3.org/2000/svg">
<g clip-path="url(#clip0)">
<path d="M59.7196 15.9996C59.2716 15.2296 58.6556 14.5516 57.9776 14.1576L34.4676 0.58357C33.1136 -0.19843 30.8936 -0.19843 29.5396 0.58357L6.02957 14.1576C4.67557 14.9396 3.55957 16.8636 3.55957 18.4276V45.5736C3.55957 46.3556 3.83957 47.2296 4.28757 47.9996C4.72557 48.7696 5.35157 49.4476 6.02957 49.8336L29.5276 63.4156C30.8936 64.1976 33.1016 64.1976 34.4556 63.4156L57.9656 49.8336C58.6436 49.4476 59.2596 48.7696 59.7076 47.9996C60.1556 47.2296 60.4256 46.3536 60.4256 45.5736V18.4276C60.4356 17.6456 60.1556 16.7716 59.7196 16.0016V15.9996ZM31.9996 50.9576C21.5416 50.9576 13.0416 42.4596 13.0416 31.9996C13.0416 21.5396 21.5396 13.0416 31.9996 13.0416C35.3244 13.0475 38.5896 13.9246 41.4699 15.5854C44.3502 17.2463 46.7449 19.6329 48.4156 22.5076L40.2076 27.2596C39.3729 25.8211 38.1758 24.6263 36.7357 23.7943C35.2956 22.9623 33.6627 22.5221 31.9996 22.5176C26.7696 22.5176 22.5196 26.7676 22.5196 31.9976C22.5196 37.2276 26.7696 41.4776 31.9996 41.4776C33.6628 41.4732 35.2958 41.0331 36.7359 40.2011C38.176 39.3691 39.373 38.1742 40.2076 36.7356L48.4156 41.4876C46.7449 44.3622 44.3502 46.7489 41.4699 48.4097C38.5896 50.0706 35.3244 50.9477 31.9996 50.9536V50.9576ZM50.9576 33.0536H48.8536V35.1576H46.7396V33.0536H44.6356V30.9476H46.7396V28.8436H48.8536V30.9476H50.9576V33.0536ZM58.8536 33.0536H56.7496V35.1576H54.6456V33.0536H52.5416V30.9476H54.6456V28.8436H56.7496V30.9476H58.8536V33.0536Z" fill="#C2C6C8"/>
</g>
<defs>
<clipPath id="clip0">
<rect width="64" height="64" fill="white"/>
</clipPath>
</defs>
</svg>
