<svg width="64" height="64" viewBox="0 0 64 64" fill="none" xmlns="http://www.w3.org/2000/svg">
<g clip-path="url(#clip0)">
<path d="M22.6336 64C20.6175 63.1114 18.8789 61.6947 17.6014 59.8997C16.3238 58.1047 15.5548 55.9979 15.3756 53.802C15.4944 51.5322 16.1492 49.3229 17.2863 47.355C18.4234 45.387 20.0105 43.7164 21.9176 42.48C21.6031 43.241 21.4748 44.0661 21.5433 44.8867C21.6119 45.7073 21.8752 46.4997 22.3116 47.198C22.8003 47.8839 23.4781 48.4127 24.2623 48.7199C25.0464 49.0271 25.9031 49.0994 26.7276 48.928C27.5119 48.7072 28.2221 48.2789 28.7833 47.6883C29.3445 47.0976 29.7359 46.3665 29.9163 45.572C30.0968 44.7774 30.0594 43.949 29.8083 43.1739C29.5572 42.3988 29.1017 41.7058 28.4896 41.168C27.1488 40.0807 26.112 38.665 25.4801 37.0585C24.8483 35.452 24.6428 33.7094 24.8836 32C25.3567 30.1541 26.3775 28.4947 27.8116 27.24C26.7256 30.126 29.7696 32.958 31.8216 34.366C35.448 36.5377 38.9397 38.9267 42.2776 41.52C44.0746 42.9364 45.4994 44.7694 46.4288 46.8602C47.3582 48.9511 47.7642 51.2369 47.6116 53.52C47.214 55.9258 46.1624 58.176 44.5719 60.0243C42.9814 61.8727 40.9133 63.248 38.5936 64C48.0516 61.896 57.8116 54.376 57.9996 43.71C57.9066 39.5303 56.6299 35.4628 54.3178 31.9797C52.0058 28.4966 48.7532 25.7407 44.9376 24.032H44.5936C44.7596 24.448 44.8416 24.896 44.8316 25.354C44.8536 25.059 44.8536 24.7629 44.8316 24.468C44.8736 24.822 44.8736 25.166 44.8316 25.508C44.546 26.6757 43.8089 27.6826 42.7819 28.3076C41.755 28.9326 40.5221 29.1248 39.3536 28.842C38.3839 28.6034 37.5199 28.0515 36.8956 27.272C33.7696 23.272 36.8956 18.72 37.4156 14.312C37.5743 11.5495 37.0334 8.79162 35.843 6.29373C34.6526 3.79584 32.8512 1.63867 30.6056 0.0219727C32.8856 3.82397 29.8436 8.82397 27.6356 11.668C25.4276 14.512 22.2296 16.626 19.6136 19.106C16.8022 21.7288 14.2269 24.5938 11.9176 27.668C9.44967 30.6832 7.68935 34.2136 6.76624 37.9992C5.84313 41.7847 5.78072 45.7291 6.58362 49.542C7.67627 53.1922 9.74967 56.4726 12.578 59.0259C15.4063 61.5791 18.881 63.3072 22.6236 64.022H22.6656L22.6336 64Z" fill="#C2C6C8"/>
</g>
<defs>
<clipPath id="clip0">
<rect width="64" height="64" fill="white"/>
</clipPath>
</defs>
</svg>
