<svg width="64" height="64" viewBox="0 0 64 64" fill="none" xmlns="http://www.w3.org/2000/svg">
<path d="M32 0C14.344 0 0 14.344 0 32C0 49.656 14.344 64 32 64C49.656 64 64 49.656 64 32C64 14.344 49.656 0 32 0ZM32 2C39.656 2 46.614 4.886 51.916 9.604H12.082C17.5574 4.70269 24.6493 1.99497 31.998 2H32ZM12.834 11.604H51.168L32.002 49.926L12.834 11.604ZM9.604 12.084V51.918C4.70269 46.4426 1.99497 39.3507 2 32.002C2 24.346 4.886 17.388 9.604 12.086V12.084ZM54.396 12.084C59.2973 17.5594 62.005 24.6513 62 32C62 39.656 59.114 46.614 54.396 51.916V12.084ZM11.604 13.604L31 52.396H11.604V13.604ZM52.396 13.604V52.396H33L52.406 13.604H52.396ZM12.084 54.396H51.918C46.438 59.302 39.346 62 32.002 62C24.658 62 17.564 59.302 12.086 54.396H12.084Z" fill="white"/>
</svg>
