<svg width="64" height="64" viewBox="0 0 64 64" fill="none" xmlns="http://www.w3.org/2000/svg">
<path d="M15.2 25.5617V40.0377C15.2 41.9617 13.688 43.4997 11.762 43.4997C9.85 43.4997 8 41.9497 8 40.0377V25.5617C8 23.6737 9.85 22.1237 11.762 22.1237C13.65 22.1237 15.2 23.6737 15.2 25.5617ZM16.55 45.1877C16.55 47.2377 18.2 48.8877 20.25 48.8877H22.738L22.776 56.5257C22.776 61.1377 29.676 61.1017 29.676 56.5257V48.8877H34.326V56.5257C34.326 61.1137 41.264 61.1257 41.264 56.5257V48.8877H43.788C44.2722 48.8862 44.7514 48.7892 45.1981 48.6024C45.6449 48.4156 46.0504 48.1425 46.3916 47.7989C46.7328 47.4553 47.0029 47.0479 47.1866 46.5998C47.3703 46.1518 47.4638 45.672 47.462 45.1877V22.7637H16.55V45.1877ZM47.55 21.5497H16.412C16.412 16.1997 19.612 11.5497 24.362 9.12573L21.974 4.71373C21.624 4.10173 22.512 3.71373 22.812 4.23773L25.236 8.68773C29.598 6.74973 34.612 6.84973 38.774 8.68773L41.186 4.24973C41.498 3.71173 42.374 4.11173 42.024 4.72573L39.636 9.12573C44.348 11.5497 47.548 16.2017 47.548 21.5497H47.55ZM26.212 14.6117C26.212 14.2638 26.0738 13.9301 25.8277 13.684C25.5817 13.438 25.248 13.2997 24.9 13.2997C24.188 13.2997 23.626 13.8997 23.626 14.6117C23.626 15.3237 24.202 15.9237 24.9 15.9237C25.638 15.9237 26.212 15.3237 26.212 14.6117ZM40.388 14.6117C40.3897 14.2695 40.2569 13.9402 40.0183 13.6948C39.7796 13.4495 39.4542 13.3076 39.112 13.2997C38.764 13.2997 38.4303 13.438 38.1843 13.684C37.9382 13.9301 37.8 14.2638 37.8 14.6117C37.8 14.9597 37.9382 15.2934 38.1843 15.5395C38.4303 15.7855 38.764 15.9237 39.112 15.9237C39.812 15.9237 40.388 15.3237 40.388 14.6117ZM52.238 22.1257C50.35 22.1257 48.8 23.6377 48.8 25.5637V40.0397C48.8 41.9637 50.35 43.5017 52.238 43.5017C54.164 43.5017 56 41.9517 56 40.0397V25.5637C56 23.6397 54.15 22.1257 52.238 22.1257Z" fill="white"/>
</svg>
