<svg width="64" height="64" viewBox="0 0 64 64" fill="none" xmlns="http://www.w3.org/2000/svg">
<g clip-path="url(#clip0)">
<path d="M60.5304 11.4704C56.5304 7.47044 50.3944 7.47044 46.3944 11.1984C46.1364 11.4704 46.1364 11.7284 46.1364 12.0004C46.1364 12.2724 46.1364 12.5304 46.3944 12.8024L47.7284 14.1364C48.0004 14.3944 48.5304 14.3944 49.0624 14.1364C50.1364 13.3344 51.1984 13.0624 52.5324 13.0624C55.7304 13.0624 58.3964 15.7284 58.3964 18.9404C58.3964 20.5324 57.8664 21.8664 56.8044 22.9404C48.8044 30.9404 37.8664 8.53244 13.6064 20.0024C12.0004 20.8044 11.1984 22.6684 12.0004 24.2744V24.5324L16.0004 31.7304C16.8024 33.3364 18.9384 33.8664 20.5304 33.0644L22.3944 32.0024C24.4601 30.7309 26.4252 29.3027 28.2724 27.7304C28.5304 27.4724 29.3344 27.4724 29.6064 27.7304C30.1364 28.0024 30.1364 28.5324 29.8644 29.0644L29.6064 29.3364C27.7284 30.9424 25.6064 32.5344 23.4704 33.8664L21.6064 34.6684C20.8235 35.208 19.8911 35.4885 18.9404 35.4704C17.0624 35.4704 15.1984 34.3964 14.3964 32.8044L10.3964 25.8664C2.9404 31.2004 -1.8616 41.6084 0.804402 54.6684C0.804402 55.1984 1.3344 55.4704 1.8664 55.4704H6.3964C6.9404 55.4704 7.1984 55.1984 7.4704 54.6684C8.0004 50.9404 11.1984 48.5324 14.9404 49.0624C17.8664 49.3344 20.2744 51.7284 20.5324 54.6684C20.5324 55.1984 21.0624 55.4704 21.6064 55.4704H25.8644C26.3944 55.4704 26.6664 55.1984 26.9384 54.6684C27.4684 50.9404 30.6664 48.5324 34.3944 49.0624C35.8322 49.2066 37.1758 49.8436 38.1975 50.8653C39.2193 51.887 39.8562 53.2307 40.0004 54.6684C40.0004 55.1984 40.5304 55.4704 41.0624 55.4704H45.3344C45.8644 55.4704 46.3964 54.9404 46.3964 54.3964C46.3964 48.2744 48.2744 41.3344 52.8044 37.8664C68.5324 25.6084 64.2744 15.2004 60.5324 11.4724L60.5304 11.4704ZM44.0004 29.8644L40.8024 28.2724C40.8024 27.1984 41.6044 26.3944 42.6664 26.3944C43.7284 26.3944 44.5304 27.1964 44.5304 28.2724C44.8024 29.0624 44.5304 29.6064 44.0004 29.8644Z" fill="white"/>
</g>
<defs>
<clipPath id="clip0">
<rect width="64" height="64" fill="white"/>
</clipPath>
</defs>
</svg>
