<svg width="64" height="64" viewBox="0 0 64 64" fill="none" xmlns="http://www.w3.org/2000/svg">
<path d="M18.698 27.218H16.176L14.802 34.28H17.042C18.52 34.28 19.624 34 20.354 33.438C21.072 32.886 21.562 31.948 21.812 30.646C22.06 29.396 21.946 28.51 21.49 27.99C21.02 27.48 20.092 27.22 18.698 27.22V27.218ZM32 15.168C14.322 15.168 0 22.71 0 32C0 41.29 14.322 48.832 32 48.832C49.678 48.832 64 41.29 64 32C64 22.71 49.678 15.168 32 15.168ZM23.302 35.042C22.6096 35.7074 21.7764 36.2085 20.864 36.508C19.968 36.79 18.824 36.946 17.438 36.946H14.28L13.416 41.426H9.738L13.02 24.562H20.082C22.208 24.562 23.76 25.114 24.738 26.228C25.708 27.342 26.01 28.906 25.612 30.906C25.4631 31.698 25.1897 32.4614 24.802 33.168C24.4031 33.8678 23.8962 34.5002 23.3 35.042H23.302ZM34.042 36.946L35.49 29.48C35.656 28.634 35.594 28.054 35.3 27.738C35.02 27.436 34.404 27.28 33.468 27.28H30.562L28.688 36.946H25.032L28.312 20.072H31.958L31.084 24.562H34.334C36.388 24.562 37.792 24.916 38.564 25.624C39.346 26.344 39.574 27.498 39.274 29.094L37.74 36.948L34.042 36.946ZM54.29 30.906C54.1456 31.6992 53.872 32.4634 53.48 33.168C53.0848 33.867 52.582 34.4994 51.99 35.042C51.2914 35.7042 50.4556 36.2047 49.542 36.508C48.646 36.79 47.5 36.946 46.116 36.946H42.97L42.096 41.426H38.418L41.7 24.562H48.762C50.888 24.562 52.44 25.114 53.418 26.24C54.388 27.344 54.69 28.906 54.292 30.906H54.29ZM47.376 27.218H44.864L43.49 34.28H45.72C47.208 34.28 48.312 34 49.032 33.438C49.76 32.886 50.25 31.948 50.502 30.646C50.75 29.396 50.636 28.51 50.166 27.99C49.71 27.48 48.772 27.22 47.376 27.22V27.218Z" fill="#37474F" fill-opacity="0.29"/>
</svg>
