<svg width="77" height="77" viewBox="0 0 77 77" fill="none" xmlns="http://www.w3.org/2000/svg">
<path d="M44.9166 27.2708C43.6402 27.2708 42.4162 27.7779 41.5136 28.6804C40.6111 29.5829 40.1041 30.807 40.1041 32.0833C40.1041 33.3597 40.6111 34.5838 41.5136 35.4863C42.4162 36.3888 43.6402 36.8958 44.9166 36.8958C46.1929 36.8958 47.417 36.3888 48.3195 35.4863C49.2221 34.5838 49.7291 33.3597 49.7291 32.0833C49.7291 30.807 49.2221 29.5829 48.3195 28.6804C47.417 27.7779 46.1929 27.2708 44.9166 27.2708ZM44.9166 40.1042C43.6402 40.1042 42.4162 40.6112 41.5136 41.5137C40.6111 42.4162 40.1041 43.6403 40.1041 44.9167C40.1041 46.193 40.6111 47.4171 41.5136 48.3196C42.4162 49.2221 43.6402 49.7292 44.9166 49.7292C46.1929 49.7292 47.417 49.2221 48.3195 48.3196C49.2221 47.4171 49.7291 46.193 49.7291 44.9167C49.7291 43.6403 49.2221 42.4162 48.3195 41.5137C47.417 40.6112 46.1929 40.1042 44.9166 40.1042ZM32.0833 54.5417C31.2323 54.5417 30.4163 54.8797 29.8146 55.4814C29.2129 56.083 28.8749 56.8991 28.8749 57.75C28.8749 58.6009 29.2129 59.417 29.8146 60.0186C30.4163 60.6203 31.2323 60.9583 32.0833 60.9583C32.9342 60.9583 33.7502 60.6203 34.3519 60.0186C34.9536 59.417 35.2916 58.6009 35.2916 57.75C35.2916 56.8991 34.9536 56.083 34.3519 55.4814C33.7502 54.8797 32.9342 54.5417 32.0833 54.5417ZM32.0833 27.2708C30.8069 27.2708 29.5828 27.7779 28.6803 28.6804C27.7778 29.5829 27.2708 30.807 27.2708 32.0833C27.2708 33.3597 27.7778 34.5838 28.6803 35.4863C29.5828 36.3888 30.8069 36.8958 32.0833 36.8958C33.3596 36.8958 34.5837 36.3888 35.4862 35.4863C36.3887 34.5838 36.8958 33.3597 36.8958 32.0833C36.8958 30.807 36.3887 29.5829 35.4862 28.6804C34.5837 27.7779 33.3596 27.2708 32.0833 27.2708ZM44.9166 65.7708C44.4911 65.7708 44.0831 65.9398 43.7823 66.2407C43.4814 66.5415 43.3124 66.9495 43.3124 67.375C43.3124 67.8004 43.4814 68.2085 43.7823 68.5093C44.0831 68.8102 44.4911 68.9792 44.9166 68.9792C45.342 68.9792 45.7501 68.8102 46.0509 68.5093C46.3517 68.2085 46.5208 67.8004 46.5208 67.375C46.5208 66.9495 46.3517 66.5415 46.0509 66.2407C45.7501 65.9398 45.342 65.7708 44.9166 65.7708ZM44.9166 54.5417C44.0657 54.5417 43.2496 54.8797 42.6479 55.4814C42.0463 56.083 41.7083 56.8991 41.7083 57.75C41.7083 58.6009 42.0463 59.417 42.6479 60.0186C43.2496 60.6203 44.0657 60.9583 44.9166 60.9583C45.7675 60.9583 46.5835 60.6203 47.1852 60.0186C47.7869 59.417 48.1249 58.6009 48.1249 57.75C48.1249 56.8991 47.7869 56.083 47.1852 55.4814C46.5835 54.8797 45.7675 54.5417 44.9166 54.5417ZM67.3749 43.3125C66.9495 43.3125 66.5414 43.4815 66.2406 43.7823C65.9398 44.0832 65.7708 44.4912 65.7708 44.9167C65.7708 45.3421 65.9398 45.7501 66.2406 46.051C66.5414 46.3518 66.9495 46.5208 67.3749 46.5208C67.8004 46.5208 68.2084 46.3518 68.5092 46.051C68.8101 45.7501 68.9791 45.3421 68.9791 44.9167C68.9791 44.4912 68.8101 44.0832 68.5092 43.7823C68.2084 43.4815 67.8004 43.3125 67.3749 43.3125ZM57.7499 16.0417C56.899 16.0417 56.083 16.3797 55.4813 16.9814C54.8796 17.583 54.5416 18.3991 54.5416 19.25C54.5416 20.1009 54.8796 20.9169 55.4813 21.5186C56.083 22.1203 56.899 22.4583 57.7499 22.4583C58.6008 22.4583 59.4169 22.1203 60.0186 21.5186C60.6202 20.9169 60.9583 20.1009 60.9583 19.25C60.9583 18.3991 60.6202 17.583 60.0186 16.9814C59.4169 16.3797 58.6008 16.0417 57.7499 16.0417ZM57.7499 28.875C56.899 28.875 56.083 29.213 55.4813 29.8147C54.8796 30.4164 54.5416 31.2324 54.5416 32.0833C54.5416 32.9342 54.8796 33.7503 55.4813 34.352C56.083 34.9536 56.899 35.2917 57.7499 35.2917C58.6008 35.2917 59.4169 34.9536 60.0186 34.352C60.6202 33.7503 60.9583 32.9342 60.9583 32.0833C60.9583 31.2324 60.6202 30.4164 60.0186 29.8147C59.4169 29.213 58.6008 28.875 57.7499 28.875ZM57.7499 54.5417C56.899 54.5417 56.083 54.8797 55.4813 55.4814C54.8796 56.083 54.5416 56.8991 54.5416 57.75C54.5416 58.6009 54.8796 59.417 55.4813 60.0186C56.083 60.6203 56.899 60.9583 57.7499 60.9583C58.6008 60.9583 59.4169 60.6203 60.0186 60.0186C60.6202 59.417 60.9583 58.6009 60.9583 57.75C60.9583 56.8991 60.6202 56.083 60.0186 55.4814C59.4169 54.8797 58.6008 54.5417 57.7499 54.5417ZM57.7499 41.7083C56.899 41.7083 56.083 42.0463 55.4813 42.648C54.8796 43.2497 54.5416 44.0658 54.5416 44.9167C54.5416 45.7676 54.8796 46.5836 55.4813 47.1853C56.083 47.787 56.899 48.125 57.7499 48.125C58.6008 48.125 59.4169 47.787 60.0186 47.1853C60.6202 46.5836 60.9583 45.7676 60.9583 44.9167C60.9583 44.0658 60.6202 43.2497 60.0186 42.648C59.4169 42.0463 58.6008 41.7083 57.7499 41.7083ZM32.0833 40.1042C30.8069 40.1042 29.5828 40.6112 28.6803 41.5137C27.7778 42.4162 27.2708 43.6403 27.2708 44.9167C27.2708 46.193 27.7778 47.4171 28.6803 48.3196C29.5828 49.2221 30.8069 49.7292 32.0833 49.7292C33.3596 49.7292 34.5837 49.2221 35.4862 48.3196C36.3887 47.4171 36.8958 46.193 36.8958 44.9167C36.8958 43.6403 36.3887 42.4162 35.4862 41.5137C34.5837 40.6112 33.3596 40.1042 32.0833 40.1042ZM32.0833 22.4583C32.9342 22.4583 33.7502 22.1203 34.3519 21.5186C34.9536 20.9169 35.2916 20.1009 35.2916 19.25C35.2916 18.3991 34.9536 17.583 34.3519 16.9814C33.7502 16.3797 32.9342 16.0417 32.0833 16.0417C31.2323 16.0417 30.4163 16.3797 29.8146 16.9814C29.2129 17.583 28.8749 18.3991 28.8749 19.25C28.8749 20.1009 29.2129 20.9169 29.8146 21.5186C30.4163 22.1203 31.2323 22.4583 32.0833 22.4583ZM32.0833 11.2292C32.5087 11.2292 32.9167 11.0602 33.2176 10.7593C33.5184 10.4585 33.6874 10.0504 33.6874 9.62499C33.6874 9.19954 33.5184 8.79152 33.2176 8.49068C32.9167 8.18984 32.5087 8.02083 32.0833 8.02083C31.6578 8.02083 31.2498 8.18984 30.9489 8.49068C30.6481 8.79152 30.4791 9.19954 30.4791 9.62499C30.4791 10.0504 30.6481 10.4585 30.9489 10.7593C31.2498 11.0602 31.6578 11.2292 32.0833 11.2292ZM32.0833 65.7708C31.6578 65.7708 31.2498 65.9398 30.9489 66.2407C30.6481 66.5415 30.4791 66.9495 30.4791 67.375C30.4791 67.8004 30.6481 68.2085 30.9489 68.5093C31.2498 68.8102 31.6578 68.9792 32.0833 68.9792C32.5087 68.9792 32.9167 68.8102 33.2176 68.5093C33.5184 68.2085 33.6874 67.8004 33.6874 67.375C33.6874 66.9495 33.5184 66.5415 33.2176 66.2407C32.9167 65.9398 32.5087 65.7708 32.0833 65.7708ZM9.62492 43.3125C9.19947 43.3125 8.79144 43.4815 8.4906 43.7823C8.18976 44.0832 8.02075 44.4912 8.02075 44.9167C8.02075 45.3421 8.18976 45.7501 8.4906 46.051C8.79144 46.3518 9.19947 46.5208 9.62492 46.5208C10.0504 46.5208 10.4584 46.3518 10.7592 46.051C11.0601 45.7501 11.2291 45.3421 11.2291 44.9167C11.2291 44.4912 11.0601 44.0832 10.7592 43.7823C10.4584 43.4815 10.0504 43.3125 9.62492 43.3125ZM44.9166 11.2292C45.342 11.2292 45.7501 11.0602 46.0509 10.7593C46.3517 10.4585 46.5208 10.0504 46.5208 9.62499C46.5208 9.19954 46.3517 8.79152 46.0509 8.49068C45.7501 8.18984 45.342 8.02083 44.9166 8.02083C44.4911 8.02083 44.0831 8.18984 43.7823 8.49068C43.4814 8.79152 43.3124 9.19954 43.3124 9.62499C43.3124 10.0504 43.4814 10.4585 43.7823 10.7593C44.0831 11.0602 44.4911 11.2292 44.9166 11.2292ZM44.9166 22.4583C45.7675 22.4583 46.5835 22.1203 47.1852 21.5186C47.7869 20.9169 48.1249 20.1009 48.1249 19.25C48.1249 18.3991 47.7869 17.583 47.1852 16.9814C46.5835 16.3797 45.7675 16.0417 44.9166 16.0417C44.0657 16.0417 43.2496 16.3797 42.6479 16.9814C42.0463 17.583 41.7083 18.3991 41.7083 19.25C41.7083 20.1009 42.0463 20.9169 42.6479 21.5186C43.2496 22.1203 44.0657 22.4583 44.9166 22.4583ZM67.3749 33.6875C67.8004 33.6875 68.2084 33.5185 68.5092 33.2176C68.8101 32.9168 68.9791 32.5088 68.9791 32.0833C68.9791 31.6579 68.8101 31.2498 68.5092 30.949C68.2084 30.6482 67.8004 30.4792 67.3749 30.4792C66.9495 30.4792 66.5414 30.6482 66.2406 30.949C65.9398 31.2498 65.7708 31.6579 65.7708 32.0833C65.7708 32.5088 65.9398 32.9168 66.2406 33.2176C66.5414 33.5185 66.9495 33.6875 67.3749 33.6875ZM19.2499 16.0417C18.399 16.0417 17.583 16.3797 16.9813 16.9814C16.3796 17.583 16.0416 18.3991 16.0416 19.25C16.0416 20.1009 16.3796 20.9169 16.9813 21.5186C17.583 22.1203 18.399 22.4583 19.2499 22.4583C20.1008 22.4583 20.9169 22.1203 21.5186 21.5186C22.1202 20.9169 22.4583 20.1009 22.4583 19.25C22.4583 18.3991 22.1202 17.583 21.5186 16.9814C20.9169 16.3797 20.1008 16.0417 19.2499 16.0417ZM9.62492 30.4792C9.19947 30.4792 8.79144 30.6482 8.4906 30.949C8.18976 31.2498 8.02075 31.6579 8.02075 32.0833C8.02075 32.5088 8.18976 32.9168 8.4906 33.2176C8.79144 33.5185 9.19947 33.6875 9.62492 33.6875C10.0504 33.6875 10.4584 33.5185 10.7592 33.2176C11.0601 32.9168 11.2291 32.5088 11.2291 32.0833C11.2291 31.6579 11.0601 31.2498 10.7592 30.949C10.4584 30.6482 10.0504 30.4792 9.62492 30.4792ZM19.2499 28.875C18.399 28.875 17.583 29.213 16.9813 29.8147C16.3796 30.4164 16.0416 31.2324 16.0416 32.0833C16.0416 32.9342 16.3796 33.7503 16.9813 34.352C17.583 34.9536 18.399 35.2917 19.2499 35.2917C20.1008 35.2917 20.9169 34.9536 21.5186 34.352C22.1202 33.7503 22.4583 32.9342 22.4583 32.0833C22.4583 31.2324 22.1202 30.4164 21.5186 29.8147C20.9169 29.213 20.1008 28.875 19.2499 28.875ZM19.2499 54.5417C18.399 54.5417 17.583 54.8797 16.9813 55.4814C16.3796 56.083 16.0416 56.8991 16.0416 57.75C16.0416 58.6009 16.3796 59.417 16.9813 60.0186C17.583 60.6203 18.399 60.9583 19.2499 60.9583C20.1008 60.9583 20.9169 60.6203 21.5186 60.0186C22.1202 59.417 22.4583 58.6009 22.4583 57.75C22.4583 56.8991 22.1202 56.083 21.5186 55.4814C20.9169 54.8797 20.1008 54.5417 19.2499 54.5417ZM19.2499 41.7083C18.399 41.7083 17.583 42.0463 16.9813 42.648C16.3796 43.2497 16.0416 44.0658 16.0416 44.9167C16.0416 45.7676 16.3796 46.5836 16.9813 47.1853C17.583 47.787 18.399 48.125 19.2499 48.125C20.1008 48.125 20.9169 47.787 21.5186 47.1853C22.1202 46.5836 22.4583 45.7676 22.4583 44.9167C22.4583 44.0658 22.1202 43.2497 21.5186 42.648C20.9169 42.0463 20.1008 41.7083 19.2499 41.7083Z" fill="#02A4FF" fill-opacity="0.33"/>
<rect x="27" y="22" width="24" height="35" fill="white"/>
<path d="M49 53H29V25H49V53ZM49 17H29C26.78 17 25 18.78 25 21V57C25 58.0609 25.4214 59.0783 26.1716 59.8284C26.9217 60.5786 27.9391 61 29 61H49C50.0609 61 51.0783 60.5786 51.8284 59.8284C52.5786 59.0783 53 58.0609 53 57V21C53 19.9391 52.5786 18.9217 51.8284 18.1716C51.0783 17.4214 50.0609 17 49 17Z" fill="#02A4FF"/>
<path d="M39 29C40.8565 29 42.637 29.7375 43.9497 31.0503C45.2625 32.363 46 34.1435 46 36C46 38.38 44.81 40.47 43 41.74V44C43 44.2652 42.8946 44.5196 42.7071 44.7071C42.5196 44.8946 42.2652 45 42 45H36C35.7348 45 35.4804 44.8946 35.2929 44.7071C35.1054 44.5196 35 44.2652 35 44V41.74C33.19 40.47 32 38.38 32 36C32 34.1435 32.7375 32.363 34.0503 31.0503C35.363 29.7375 37.1435 29 39 29ZM36 48V47H42V48C42 48.2652 41.8946 48.5196 41.7071 48.7071C41.5196 48.8946 41.2652 49 41 49H37C36.7348 49 36.4804 48.8946 36.2929 48.7071C36.1054 48.5196 36 48.2652 36 48ZM39 31C37.6739 31 36.4021 31.5268 35.4645 32.4645C34.5268 33.4021 34 34.6739 34 36C34 38.05 35.23 39.81 37 40.58V43H41V40.58C42.77 39.81 44 38.05 44 36C44 34.6739 43.4732 33.4021 42.5355 32.4645C41.5979 31.5268 40.3261 31 39 31Z" fill="#02A4FF"/>
</svg>
