<?xml version="1.0" standalone="no"?>
<!DOCTYPE svg PUBLIC "-//W3C//DTD SVG 1.1//EN" "http://www.w3.org/Graphics/SVG/1.1/DTD/svg11.dtd" >
<svg xmlns="http://www.w3.org/2000/svg">
<metadata>Generated by IcoMoon</metadata>
<defs>
<font id="nse-iconfont" horiz-adv-x="1024">
<font-face units-per-em="1024" ascent="960" descent="-64" />
<missing-glyph horiz-adv-x="1024" />
<glyph unicode="&#x20;" horiz-adv-x="512" d="" />
<glyph unicode="&#xe900;" d="M1024 192c0-30.176-11.987-59.115-33.325-80.452s-50.276-33.325-80.452-33.325h-796.445c-30.176 0-59.116 11.987-80.453 33.325s-33.325 50.276-33.325 80.452v512c0 30.176 11.987 59.116 33.325 80.453s50.277 33.325 80.453 33.325h796.445c30.176 0 59.115-11.987 80.452-33.325s33.325-50.277 33.325-80.453v-512z" />
<glyph unicode="&#xe901;" d="M0 618.667h1024v-341.333h-1024v341.333z" />
<glyph unicode="&#xe902;" d="M256 476.444v-85.333c0-22.63 8.99-44.337 24.994-60.339 16.002-16.002 37.707-24.994 60.339-24.994s44.337 8.992 60.339 24.994c16.004 16.002 24.994 37.709 24.994 60.339v85.333h-170.667z" />
<glyph unicode="&#xe903;" d="M341.333 504.89h85.333v-85.333h-85.333v85.333z" />
<glyph unicode="&#xe904;" d="M256 504.89h85.333v-85.333h-85.333v85.333z" />
<glyph unicode="&#xe905;" d="M341.333 504.89c47.127 0 85.333 19.102 85.333 42.667 0 23.563-38.206 42.667-85.333 42.667s-85.333-19.104-85.333-42.667c0-23.565 38.206-42.667 85.333-42.667z" />
<glyph unicode="&#xe906;" d="M341.333 547.556c47.127 0 85.333 9.551 85.333 21.333 0 11.78-38.206 21.333-85.333 21.333s-85.333-9.553-85.333-21.333c0-11.782 38.206-21.333 85.333-21.333z" />
<glyph unicode="&#xe907;" d="M199.111 504.89h28.444v-199.113h-28.444v199.113zM455.11 504.89h28.444v-199.113h-28.444v199.113z" />
<glyph unicode="&#xe908;" d="M170.667 334.223h85.333v-28.446h-85.333v28.446zM426.667 334.223h85.333v-28.446h-85.333v28.446zM199.111 533.333h28.445v-28.444h-28.445v28.444zM455.11 533.333h28.446v-28.444h-28.446v28.444z" />
<glyph unicode="&#xe909;" d="M1024 192c0-30.176-11.987-59.115-33.325-80.452s-50.276-33.325-80.452-33.325h-796.445c-30.176 0-59.116 11.987-80.453 33.325s-33.325 50.276-33.325 80.452v512c0 30.176 11.987 59.116 33.325 80.453s50.277 33.325 80.453 33.325h796.445c30.176 0 59.115-11.987 80.452-33.325s33.325-50.277 33.325-80.453v-512z" />
<glyph unicode="&#xe90a;" d="M930.929 448l-418.929-316.416-418.93 316.416 418.93 316.445 418.929-316.445z" />
<glyph unicode="&#xe90b;" d="M511.317 266.468c101.451 0 183.693 82.242 183.693 183.693 0 101.453-82.242 183.695-183.693 183.695-101.453 0-183.695-82.242-183.695-183.695 0-101.451 82.242-183.693 183.695-183.693z" />
<glyph unicode="&#xe90c;" d="M349.212 536.548c-9.54-17.98-16-37.429-19.115-57.545 113.636 8.25 267.861-53.788 334.052-130.701 11.435 17.18 19.91 36.407 25.116 57.003-81.692 79.872-225.195 131.697-340.053 131.243z" />
<glyph unicode="&#xe90d;" d="M341.333 441.374h28.444v-28.446h-28.444v28.446zM369.777 384.484h28.446v-28.444h-28.446v28.444z" />
<glyph unicode="&#xe90e;" d="M426.667 441.374h28.444v-28.446h-28.444v28.446zM483.556 412.928h28.444v-28.444h-28.444v28.444zM597.333 356.041h28.444v-28.446h-28.444v28.446zM512 327.595h28.444v-28.444h-28.444v28.444zM597.333 498.261h28.444v-28.444h-28.444v28.444z" />
<glyph unicode="&#xe90f;" d="M540.444 384.484h28.444v-28.444h-28.444v28.444z" />
<glyph unicode="&#xe910;" glyph-name="instagram" d="M618.061 436.886c0 55.341-45.232 100.371-100.826 100.371-55.587 0-100.819-45.030-100.819-100.371 0-55.357 45.232-100.381 100.819-100.381 55.594 0 100.826 45.024 100.826 100.381zM767.853 959.384h-511.708c-140.981 0-255.678-114.199-255.678-254.563v-70.929h376.231c39.699 28.157 88.186 44.789 140.538 44.789 52.349 0 100.842-16.633 140.544-44.789h365.75v70.929c0 140.366-114.698 254.563-255.677 254.563zM871.398 717.274c0-15.556-12.781-28.285-28.41-28.285h-87.776c-15.629 0-28.41 12.729-28.41 28.285v87.401c0 15.555 12.781 28.285 28.41 28.285h87.776c15.629 0 28.41-12.728 28.41-28.285v-87.401zM760.102 436.886c0-133.341-108.957-241.802-242.87-241.802s-242.86 108.461-242.86 241.802c0 36.707 8.305 71.52 23.073 102.726h-296.977v-348.432c0-140.374 114.697-254.563 255.678-254.563h511.708c140.979 0 255.677 114.189 255.677 254.563v348.432h-286.499c14.768-31.206 23.072-66.019 23.072-102.726z" />
<glyph unicode="&#xe911;" glyph-name="facebook" d="M186.976 960c-103.577 0-186.976-83.4-186.976-186.976v-650.048c0-103.578 83.4-186.976 186.976-186.976h352.32v400.32h-105.856v144.128h105.856v123.136c0 96.742 62.547 185.568 206.624 185.568 58.336 0 101.472-5.6 101.472-5.6l-3.392-134.592c0 0-43.994 0.416-92 0.416-51.955 0-60.288-23.938-60.288-63.682v-105.245h156.416l-6.816-144.128h-149.6v-400.323h145.312c103.578 0 186.976 83.402 186.976 186.976v650.050c0 103.577-83.398 186.976-186.976 186.976l-650.048 0.001z" />
<glyph unicode="&#xe912;" glyph-name="whatsapp" d="M544 0c-82.666 0-160.333 20-233 60l-311-124 124 311.002c-40 72.666-60 150.333-60 232.998 0 65.334 12.667 127.501 38 186.5s59.5 110 102.5 153 94 77.166 153.001 102.5c58.998 25.333 121.165 38 186.499 38s127.501-12.667 186.499-38c59.002-25.333 110-59.5 153.002-102.5 42.998-43 77.165-94 102.499-153s38-121.165 38-186.5-12.666-127.501-38-186.499c-25.334-59.002-59.501-110-102.499-153.002-43.002-42.998-94-77.165-153.002-102.499-58.998-25.334-121.165-38-186.499-38zM704 384h-64l-36-32c-30 8-66.832 33.834-110.499 77.501s-69.501 80.499-77.501 110.499l32 36v64c0 11.333-4 22.667-12 34s-16.832 19.5-26.499 24.5c-9.667 5-16.502 5.5-20.502 1.5l-46.998-47c-26-25.998-29.833-66.501-11.501-121.499 18.333-55.002 53.334-108.333 105.002-160s104.998-86.669 160-105.002c54.998-18.333 95.501-14.499 121.498 11.501l47.002 46.998c4 4 3.501 10.835-1.501 20.502-4.998 9.667-13.165 18.499-24.499 26.499s-22.666 12-34 12z" />
<glyph unicode="&#xe913;" glyph-name="envelope" d="M3.2 732.48c6.452 28.272 22.314 53.516 44.987 71.596s50.814 27.926 79.813 27.924h768c28.998 0.002 57.139-9.844 79.814-27.924 22.672-18.080 38.534-43.324 44.986-71.596l-508.8-310.976-508.8 310.976zM0 659.392v-454.656l371.392 227.712-371.392 226.944zM432.704 394.88l-420.48-257.728c10.389-21.907 26.786-40.413 47.282-53.363s44.249-19.811 68.494-19.789h768c24.24-0.006 47.984 6.874 68.47 19.834 20.483 12.963 36.867 31.475 47.242 53.382l-420.48 257.728-79.232-48.448-79.296 48.384zM652.608 432.384l371.392-227.648v454.656l-371.392-227.008z" />
<glyph unicode="&#xe914;" glyph-name="results" d="M286.239 483.778c-14.263 29.328-21.676 61.514-21.678 94.126 0 17.848 2.58 36.188 7.864 55.992 2.365 8.909 5.335 17.428 8.673 25.692-12.81 6.994-26.89 11.295-41.994 11.295-56.013 0-101.356-52.767-101.356-117.934 0-45.588 22.282-85.043 54.825-104.673l-137.37-63.939c-8.561-4.024-14.203-13.691-14.203-24.494v-108.421c0-14.531 10.148-26.307 22.63-26.307h81.193v113.766c0 33.147 18.452 63.201 47.094 76.605l105.083 48.937c-3.93 6.255-7.523 12.716-10.762 19.354zM615.803 603.639h349.164c9.967 0 18.031 8.079 18.031 18.033v65.853c0 9.964-8.081 18.033-18.031 18.033l-0.060-0.010v0.051h-390.105c17.179-22.604 29.475-48.53 36.106-76.134 2.202-9.103 3.799-17.613 4.895-25.825zM982.997 279.695c0 9.964-8.081 18.033-18.031 18.033l-0.060-0.010v0.051h-227.555v-93.071c0-3-0.164-5.96-0.461-8.878h228.076c9.967 0 18.031 8.079 18.031 18.033v65.843zM964.966 501.636l-0.060-0.010v0.051h-361.32c-1.628-4.291-3.348-8.561-5.263-12.79-3.669-8.102-7.856-15.958-12.534-23.521l105.349-50.258c7.907-3.9 15.1-9.103 21.279-15.391h252.549c9.967 0 18.031 8.079 18.031 18.033v65.853c0 9.964-8.081 18.033-18.031 18.033zM668.908 369.131l-168.305 80.282c21.852 13.763 39.588 35 51.2 60.59 9.682 21.327 14.692 44.479 14.694 67.901 0 13.804-2.181 26.9-5.243 39.557-14.879 61.266-62.73 106.414-120.177 106.414-56.361 0-103.485-43.53-119.276-103.066-3.645-13.65-6.164-27.853-6.164-42.895 0-26.132 6.103-50.483 16.476-71.68 11.991-24.576 29.757-44.841 51.384-57.866l-170.025-79.176c-10.619-4.966-17.582-16.937-17.582-30.3v-134.195c0-17.981 12.534-32.573 28.006-32.573h434.35c15.473 0 28.006 14.582 28.006 32.573v134.185c0.020 13.322-6.84 25.17-17.347 30.249z" />
<glyph unicode="&#xe915;" glyph-name="ranking" d="M256 64.001h-128c-11.316 0-22.169 4.495-30.17 12.497s-12.497 18.854-12.497 30.169v341.334c0 11.316 4.495 22.169 12.497 30.17s18.854 12.496 30.17 12.496h128c11.316 0 22.169-4.494 30.17-12.496s12.497-18.854 12.497-30.17v-341.334c0-11.315-4.495-22.168-12.497-30.169s-18.854-12.497-30.17-12.497zM554.667 64.001h-128c-11.316 0-22.169 4.495-30.17 12.497s-12.497 18.854-12.497 30.169v725.334c0 11.316 4.495 22.169 12.497 30.17s18.854 12.497 30.17 12.497h128c11.315 0 22.168-4.495 30.169-12.497s12.497-18.853 12.497-30.17v-725.334c0-11.315-4.495-22.168-12.497-30.169s-18.854-12.497-30.169-12.497zM853.333 64.001h-128c-11.315 0-22.168 4.495-30.169 12.497s-12.497 18.854-12.497 30.169v469.334c0 11.316 4.495 22.169 12.497 30.17s18.854 12.496 30.169 12.496h128c11.316 0 22.169-4.494 30.17-12.496s12.497-18.854 12.497-30.17v-469.334c0-11.315-4.495-22.168-12.497-30.169s-18.854-12.497-30.17-12.497z" />
<glyph unicode="&#xe916;" glyph-name="records" d="M374.682 627.2c8.602 44.698 20.326 84.838 34.304 118.784 15.411 37.53 33.178 66.253 51.61 85.146 18.33 18.842 35.686 26.47 51.405 26.47s33.075-7.629 51.405-26.47c18.432-18.944 36.198-47.616 51.61-85.146 13.978-33.946 25.702-74.086 34.304-118.784h-274.637zM361.626 765.44c10.929 27.552 25.146 53.682 42.342 77.824-56.264-15.447-108.589-42.706-153.491-79.963-44.901-37.256-81.349-83.654-106.912-136.101h179.046c9.318 51.558 22.579 98.406 39.014 138.24zM662.374 765.44c-10.933 27.533-25.15 53.646-42.342 77.773 56.26-15.441 108.582-42.693 153.484-79.94 44.901-37.248 81.351-83.635 106.919-136.073h-179.046c-9.318 51.558-22.579 98.406-39.014 138.24zM709.12 576h192.102c14.915-45.462 21.742-93.185 20.173-141.005-28.456 23.523-61.278 41.194-96.581 52.002s-72.393 14.537-109.141 10.974c-1.188 26.083-3.373 52.112-6.554 78.029zM664.832 488.397c-1.118 29.297-3.561 58.528-7.322 87.603h-291.021c-5.446-42.448-8.148-85.204-8.090-128 0-44.8 2.867-87.757 8.090-128h113.51c15.807 40.378 40.703 76.573 72.757 105.776s70.403 50.632 112.075 62.621zM465.408 268.8h-90.726c8.602-44.698 20.326-84.838 34.304-118.784 15.411-37.53 33.178-66.253 51.61-85.146 18.33-18.842 35.686-26.47 51.405-26.47 3.891 0 7.885 0.512 11.981 1.485-40.948 50.167-63.272 112.958-63.181 177.715 0 17.459 1.587 34.611 4.608 51.2zM143.514 268.8c25.574-52.443 62.032-98.834 106.942-136.081 44.911-37.248 97.244-64.497 153.512-79.931-17.207 24.107-31.442 50.203-42.394 77.722-16.384 39.936-29.696 86.733-39.014 138.291h-179.046zM314.829 320h-192.051c-13.55 41.313-20.428 84.522-20.378 128 0 44.698 7.168 87.706 20.378 128h192.102c-5.018-40.704-7.68-83.661-7.68-128s2.662-87.296 7.68-128h-0.051zM742.4-12.8c61.106 0 119.71 24.274 162.917 67.483 43.209 43.209 67.483 101.811 67.483 162.917s-24.274 119.709-67.483 162.917c-43.208 43.209-101.811 67.483-162.917 67.483s-119.709-24.274-162.917-67.483c-43.208-43.209-67.483-101.811-67.483-162.917s24.275-119.709 67.483-162.917c43.209-43.209 101.812-67.483 162.917-67.483zM791.245 274.33h79.053c24.832 0 35.174-33.126 15.104-48.333l-64-48.486 24.422-78.438c7.68-24.576-19.354-45.056-39.424-29.85l-64 48.486-64-48.486c-20.070-15.206-47.104 5.274-39.424 29.85l24.422 78.438-64 48.486c-20.070 15.206-9.728 48.333 15.053 48.333h79.155l24.422 78.387c7.68 24.627 41.062 24.627 48.742 0l24.422-78.387h0.051z" />
<glyph unicode="&#xe917;" glyph-name="pic-rounded" d="M853.333 128v-32c0-53.020-38.204-96-85.333-96h-682.667c-47.129 0-85.333 42.98-85.333 96v512c0 53.020 38.204 96 85.333 96h28.444v-96h-17.778c-2.829 0-5.542-1.265-7.542-3.514-2-2.251-3.124-5.303-3.124-8.486v-487.999c0-3.183 1.124-6.235 3.124-8.486s4.713-3.514 7.542-3.514h661.333c2.829 0 5.543 1.265 7.543 3.514 2.001 2.251 3.124 5.303 3.124 8.486v20h85.333zM928 800h-661.333c-2.829 0-5.543-1.265-7.543-3.514-2.001-2.251-3.124-5.303-3.124-8.486v-487.999c0-3.183 1.123-6.235 3.124-8.486 2-2.25 4.713-3.514 7.543-3.514h661.333c2.829 0 5.542 1.265 7.543 3.514 2 2.251 3.124 5.303 3.124 8.486v487.999c0 3.183-1.124 6.235-3.124 8.486s-4.713 3.514-7.543 3.514zM938.667 896c47.129 0 85.333-42.98 85.333-96v-512c0-53.020-38.204-96-85.333-96h-682.667c-47.129 0-85.333 42.98-85.333 96v512c0 53.020 38.204 96 85.333 96h682.667zM469.333 672c0-44.182-31.838-80-71.111-80s-71.112 35.818-71.112 80 31.838 80 71.112 80c39.272 0 71.111-35.818 71.111-80zM341.333 480l70.249 79.030c8.33 9.372 21.838 9.372 30.17 0l70.247-79.030 184.027 207.030c8.33 9.372 21.838 9.372 30.17 0l127.136-143.030v-160h-512v96z" />
<glyph unicode="&#xe918;" glyph-name="south-america" d="M512 874.668c-235.52 0-426.667-191.146-426.667-426.666s191.147-426.667 426.667-426.667c235.52 0 426.667 191.147 426.667 426.667s-191.147 426.666-426.667 426.666zM170.667 448.001c0 83.2 29.866 159.573 79.786 218.88l133.547-133.547v-42.667c0-46.933 38.4-85.333 85.333-85.333v-238.507c0-11.52 4.694-22.186 12.374-30.293l30.293-29.867c-188.587 0-341.333 152.747-341.333 341.334zM554.667 109.227v82.774l160 239.786c6.826 10.667 10.666 23.040 10.666 35.414v44.8c0 23.466-19.2 42.666-42.666 42.666h-64l-59.734 74.667c-16.213 20.053-40.533 32-66.56 32h-151.040v82.347c51.875 29.986 110.75 45.735 170.667 45.653 188.16 0 341.333-153.173 341.333-341.333 0-173.654-130.56-317.44-298.666-338.774z" />
<glyph unicode="&#xe919;" glyph-name="uruguay-mono" d="M129.936 605.328l82.879-15.056c-21.504-10.064-29.344-20.224-34.992-27.808-0.647-0.896-1.309-1.782-1.983-2.656l-27.792-11.52 1.552-0.8c7.231-3.664 13.152-5.376 18.623-5.376 7.489 0 13.121 3.28 19.649 7.072 8.544 4.976 19.232 10.912 37.984 11.824l-48.497-70.081 68.144 47.169c-7.264-21.12-5.68-33.36-4.336-42.416 0.16-1.104 0.336-2.192 0.447-3.232l-10.815-26.177-0.673-1.616 1.664 0.528c20.129 6.591 22.656 16.16 25.856 28.272 2.593 9.808 5.953 21.424 18.593 35.28l14.72-80.896 0.783-4.336 14.48 79.679c9.648-19.423 19.248-26.752 26.496-32.128l2.64-1.983 11.52-27.776 0.8 1.551c9.585 18.897 4.608 27.44-1.696 38.257-5.232 9.008-11.216 19.952-11.824 39.648l71.984-49.825-48.24 69.68c12.272-4.656 23.135-7.088 32.959-7.088 5.408 0 9.824 0.656 13.712 1.232 1.136 0.161 2.256 0.337 3.312 0.449l27.761-11.488-0.528 1.664c-6.576 20.128-16.144 22.656-28.256 25.841-9.984 2.64-21.792 5.888-36 19.072l82.672 15.023-80.959 14.736c22.879 10.352 30.928 20.864 36.704 28.656 0.655 0.912 1.295 1.777 1.935 2.608l27.761 11.488-1.552 0.8c-7.136 3.632-13.232 5.376-18.625 5.376-7.472 0-13.103-3.263-19.647-7.055-9.056-5.264-20.336-11.761-41.392-12.032l48.336 69.872-68.912-47.76c8.16 22.513 6.48 35.281 5.105 44.657-1.504 10.112-2.497 16.8 10.207 29.168l2.448 2.4-3.263-1.056c-20.129-6.593-22.656-16.161-25.856-28.273-2.625-9.936-5.873-21.647-18.849-35.696l-14.464 79.616-0.783 4.336-15.072-82.879c-10.416 23.152-20.992 31.232-28.816 37.024-0.879 0.646-1.753 1.296-2.623 1.952l-10.832 26.208-0.656 1.616-0.8-1.568c-9.585-18.912-4.608-27.457 1.679-38.288 5.248-9.008 11.329-19.775 11.969-39.424l-69.248 47.968 48-69.36c-11.841 4.4-22.4 6.736-31.92 6.736-5.408 0-9.824-0.656-13.728-1.232-1.104-0.161-2.192-0.336-3.232-0.449l-27.809 11.488 0.528-1.664c6.576-20.128 16.144-22.656 28.256-25.856 9.968-2.64 21.712-5.888 35.824-18.944l-83.312-15.152zM240.080 605.328c0 28.481 23.168 51.664 51.664 51.664s51.664-23.168 51.664-51.664c0-28.496-23.168-51.664-51.664-51.664s-51.664 23.184-51.664 51.664zM313.184 629.168c11.919 0 13.824-6.656 17.167-2.848-4.304 4.272-15.264 8.080-19.072 7.617-3.807-0.449-15.728-9.056-13.824-10.464 1.905-1.456 3.808 5.695 15.729 5.695zM313.663 624.415c-7.647 0-12.4-0.959-12.88-6.704v-0.464c2.816 2.56 4.177 3.697 5.968 4.257-1.119-3.168 2.272-6.88 5.313-8.017-0.128 0-0.193-0.047-0.321-0.047-5.248 0-7.647 5.712-9.552 2.863-1.423-1.887 5.697-4.751 10.976-4.751 5.248 0 13.328 8.112 10.016 5.695-0.607-0.416-1.2-0.64-1.792-1.008 0.279 0.624 0.393 1.308 0.334 1.988s-0.289 1.333-0.67 1.901c2.608-1.345 4.48-2.896 6.385-2.896-2.832 1.471-6.144 7.183-13.777 7.183v0zM320.096 615.519c-1.269-0.633-2.613-1.101-4.001-1.393 1.84 1.792 2.593 5.248 0.688 7.424 1.057-0.223 2.064-0.416 2.912-0.783 0.848-1.424 1.36-3.36 0.4-5.248zM307.504 580.161c-4.528-1.471-8.336-2.944-15.76-2.944s-11.248 1.473-15.759 2.944c-2.625-0.208-4.337 0.128-9.297 2.032l-0.015-0.047c14.928-6.416 13.344-8.737 25.072-8.737s10.16 2.32 25.073 8.737l-0.033 0.047c-4.944-1.904-6.656-2.239-9.279-2.032zM314.144 585.777c1.217-1.679 1.936-2.64 2.497-3.391-5.328-1.2-13.648 3.391-17.28 3.391-3.808 0-4.769-0.944-7.632-0.944s-3.808 0.944-7.633 0.944c-3.647 0-11.951-4.592-17.28-3.391l2.497 3.391c-3.808-2.848-4.801-4.304-5.248-7.615 0.748 1.392 1.61 2.719 2.576 3.968l-0.673 0.304 0.688-0.256 0.080 0.095c3.84-0.527 6.672-1.312 9.216-2.128 2.673 0.193 6.368 0.881 15.76 0.881 9.376 0 13.072-0.688 15.76-0.881 2.994 0.991 6.074 1.704 9.2 2.128 0.031-0.028 0.058-0.059 0.080-0.095l0.705 0.256-0.673-0.304c1.024-1.376 1.36-1.857 2.576-3.968-0.449 3.328-1.424 4.784-5.216 7.615zM270.288 629.168c11.92 0 13.824-7.152 15.728-5.695 1.905 1.408-10.016 10.016-13.824 10.464-3.807 0.464-14.783-3.344-19.071-7.617 3.327-3.808 5.232 2.848 17.167 2.848zM281.248 616.303c-1.935 2.864-4.304-2.863-9.552-2.863-0.128 0-0.191 0.047-0.319 0.047 3.024 1.137 6.4 4.849 5.28 8.017 1.792-0.545 3.168-1.68 6-4.257v0.464c-0.464 5.745-5.263 6.704-12.88 6.704-7.632 0-10.976-5.712-13.824-7.168 1.92 0 3.792 1.536 6.4 2.881-0.38-0.564-0.611-1.215-0.67-1.892-0.058-0.678 0.056-1.359 0.334-1.979-0.575 0.368-1.184 0.575-1.776 1.008-3.344 2.4 4.768-5.697 10.016-5.697 5.264-0.015 12.416 2.832 10.992 4.736v0zM263.376 615.503c-0.976 1.905-0.447 3.84 0.4 5.264 0.848 0.352 1.84 0.56 2.912 0.783-1.936-2.176-1.152-5.632 0.687-7.424-1.386 0.287-2.73 0.75-4 1.376zM282.208 597.713c0.464 2.848 1.904 2.352 1.904 4.272-4.304-0.928-2.864-7.12-6.704-7.632-3.792-0.449-5.695-4.768-5.215-4.272 2.367 1.904 7.632 3.312 11.439 3.312s4.769-2.352 8.112-2.352c3.313 0 4.272 2.352 8.112 2.352 3.808 0 9.025-1.408 11.44-3.312 0.48-0.496-1.424 3.808-5.248 4.272-3.808 0.496-2.367 6.704-6.672 7.632 0-1.904 1.441-1.424 1.905-4.272 0-2.4-4.289-2.4-5.264 0 0.992-3.808-1.872-3.808-4.272-3.808s-5.248 0-4.304 3.808c-0.959-2.4-5.232-2.4-5.232 0zM291.728 567.664c8.576 0 2.384 1.456 0 1.456s-8.576-1.456 0-1.456zM512 928c-265.088 0-480-214.912-480-480s214.912-480 480-480c265.088 0 480 214.912 480 480s-214.912 480-480 480zM512 896c88.528 0 171.056-25.92 240.624-70.4h-240.624v-94.401h346.832c30.88-37.728 55.393-80.245 72.576-125.871h-419.408v-94.384h443.504c2.897-20.593 4.496-41.568 4.496-62.944s-1.599-42.352-4.496-62.944h-887.008c-2.965 20.851-4.468 41.884-4.496 62.944 0 247.024 200.976 448 448 448zM165.168 164.799c-30.88 37.729-55.393 80.246-72.576 125.872h838.816c-17.183-45.626-41.696-88.143-72.576-125.872h-693.664zM271.376 70.4h481.247c-69.567-44.479-152.096-70.4-240.624-70.4s-171.056 25.921-240.624 70.4z" />
<glyph unicode="&#xe91a;" glyph-name="menu" d="M40.959 366.080h1146.881v163.841h-1146.881v-163.841zM40.959-43.52h1146.881v163.84h-1146.881v-163.84zM40.959 939.52v-163.84h1146.881v163.84h-1146.881z" />
<glyph unicode="&#xe91b;" glyph-name="close" d="M768 659.2l-44.8 44.8-211.2-211.2-211.2 211.2-44.8-44.8 211.2-211.2-211.2-211.2 44.8-44.8 211.2 211.2 211.2-211.2 44.8 44.8-211.2 211.2 211.2 211.2z" />
</font>
</defs>
</svg>
