<svg width="471" height="459" viewBox="0 0 471 459" fill="none" xmlns="http://www.w3.org/2000/svg">
<path d="M372.727 28.1589C372.796 28.1589 374.878 22.6694 374.971 22.3437C376.03 18.122 375.576 9.34111 371.482 6.77082C370.783 6.37504 370.009 6.12844 369.21 6.0466C368.411 5.96476 367.603 6.04945 366.838 6.29532C366.073 6.54119 365.368 6.94291 364.766 7.47514C364.164 8.00737 363.679 8.65856 363.341 9.38763C361.817 12.4813 362.887 16.5868 364.353 19.4943C366.004 22.8439 372.727 28.1473 372.727 28.1589Z" fill="#02A4FF"/>
<path d="M469.223 68.4111C465.815 64.922 457.151 66.3642 453.255 68.3065C452.917 68.4693 447.951 71.6909 448.021 71.7955L448.091 71.8653C446.73 72.0863 445.253 72.3305 443.66 72.6329C440.717 73.2261 437.391 73.9122 433.832 74.959C429.976 75.9805 426.185 77.235 422.481 78.7155C418.319 80.342 414.311 82.3347 410.502 84.6702L410.374 84.7633C411.304 83.6817 413.793 80.5531 413.968 80.2973C416.294 76.6105 418.62 68.132 415.468 64.3987C414.923 63.8028 414.26 63.3269 413.521 63.0013C412.782 62.6758 411.984 62.5076 411.176 62.5076C410.369 62.5076 409.57 62.6758 408.831 63.0013C408.093 63.3269 407.43 63.8028 406.885 64.3987C404.477 66.8643 404.21 71.0861 404.698 74.3077C405.256 77.9247 409.595 84.5888 409.943 85.1238C406.127 87.5875 402.482 90.3075 399.034 93.265C397.011 94.9863 395.033 96.7541 393.068 98.5917C393.836 97.6263 394.522 96.7657 394.603 96.6261C396.929 92.9393 399.255 84.4609 396.115 80.7276C395.57 80.1317 394.907 79.6558 394.168 79.3302C393.43 79.0046 392.631 78.8365 391.824 78.8365C391.016 78.8365 390.218 79.0046 389.479 79.3302C388.74 79.6558 388.077 80.1317 387.532 80.7276C385.125 83.1932 384.857 87.4266 385.345 90.6366C385.834 93.8465 389.428 99.65 390.393 101.104L388.16 103.209C384.59 106.605 381.042 110.013 377.46 113.246C376.204 114.409 374.913 115.467 373.634 116.549C374.32 115.688 374.89 114.967 374.971 114.851C377.297 111.164 379.623 102.686 376.472 98.9406C375.931 98.341 375.271 97.8606 374.534 97.53C373.798 97.1994 373 97.0258 372.193 97.0204C371.385 97.0149 370.586 97.1776 369.845 97.4982C369.104 97.8188 368.437 98.2902 367.888 98.8824C365.493 101.348 365.213 105.581 365.702 108.791C366.19 112.001 369.447 117.247 370.587 119.049C369.249 120.119 367.9 121.189 366.551 122.166C365.609 122.806 364.748 123.492 363.771 124.085L360.934 125.9C359.084 126.981 357.189 128.109 355.363 129.133C354.095 129.842 352.874 130.493 351.653 131.168C352.92 130.005 355.351 127.795 355.537 127.586C357.943 124.601 359.545 121.049 360.189 117.27C360.473 116.952 360.723 116.605 360.934 116.235C361.359 115.549 361.637 114.782 361.749 113.983C361.862 113.184 361.807 112.371 361.589 111.594C361.37 110.817 360.992 110.095 360.478 109.472C359.965 108.849 359.328 108.34 358.607 107.977C355.246 106.43 350.082 108.629 346.5 111.176C346.652 108.698 346.582 107.175 346.582 107.175L345.64 107.268L346.326 105.628C346.791 104.605 347.14 103.465 347.547 102.371C348.454 99.8128 349.245 97.1728 349.989 94.5094C351.676 95.3236 357.689 98.173 360.957 98.2893C364.225 98.4056 368.377 97.6612 370.552 94.9863C371.078 94.3735 371.471 93.6576 371.706 92.8844C371.941 92.1112 372.011 91.2976 371.914 90.4955C371.817 89.6935 371.553 88.9205 371.14 88.2259C370.728 87.5313 370.175 86.9303 369.517 86.4613C365.446 83.7863 357.282 87.0544 353.886 89.7759C353.676 89.9504 351.455 92.1834 350.269 93.4278C350.699 91.8228 351.141 90.2179 351.525 88.5664C352.63 83.8329 353.606 78.9947 354.607 74.1797C354.909 72.7027 355.235 71.2373 355.549 69.7602C356.142 70.0626 363.225 73.5982 366.877 73.7262C370.133 73.8425 374.297 73.0981 376.472 70.4232C376.996 69.8106 377.388 69.0955 377.621 68.3235C377.855 67.5515 377.925 66.7394 377.827 65.9387C377.73 65.1381 377.467 64.3664 377.056 63.6728C376.644 62.9792 376.093 62.3788 375.436 61.9098C371.366 59.2232 363.201 62.4913 359.805 65.2244C359.55 65.4221 356.316 68.6321 355.607 69.4927C356.293 66.2595 357.026 63.0379 357.863 59.8861C358.974 55.6352 360.365 51.4624 362.027 47.3952C362.306 47.5348 369.68 51.2565 373.424 51.3844C376.669 51.5123 380.845 50.7564 383.019 48.0814C383.543 47.4681 383.934 46.7524 384.167 45.9799C384.399 45.2074 384.468 44.395 384.37 43.5943C384.271 42.7937 384.008 42.0222 383.595 41.3291C383.182 40.6359 382.63 40.0362 381.973 39.5681C377.902 36.8815 369.749 40.1496 366.353 42.8827C366.086 43.092 362.666 46.5462 362.085 47.2208C362.19 46.9882 362.259 46.7323 362.364 46.4997C364.131 42.4397 366.26 38.5472 368.726 34.8694C370.063 32.8341 371.447 30.95 372.843 29.159C374.146 29.9964 380.135 33.7413 383.496 34.2414C386.857 34.7415 390.94 34.4158 393.394 32.0084C393.983 31.4563 394.451 30.7875 394.767 30.0447C395.084 29.3018 395.242 28.5012 395.233 27.6938C395.223 26.8863 395.045 26.0898 394.71 25.3549C394.376 24.62 393.892 23.9628 393.289 23.4252C389.544 20.3083 381.077 22.6693 377.402 25.007C377.204 25.1233 375.309 26.6468 373.913 27.7633C374.553 26.9725 375.192 26.1351 375.82 25.3791C378.146 22.5413 380.472 20.0874 382.589 17.9358C383.752 16.7727 384.915 15.6097 385.927 14.6444C387.637 14.7956 394.51 15.319 397.662 14.2373C400.814 13.1557 404.361 10.9692 405.419 7.6895C405.688 6.92868 405.796 6.12019 405.736 5.31545C405.675 4.51071 405.448 3.72735 405.069 3.01521C404.689 2.30306 404.165 1.67772 403.531 1.17896C402.897 0.680205 402.165 0.318953 401.384 0.118194C396.615 -0.9169 390.184 5.08432 387.997 8.84089C387.811 9.16654 385.45 14.5979 385.532 14.656H385.636C384.613 15.5864 383.531 16.6099 382.368 17.7381C380.228 19.8548 377.844 22.2622 375.39 25.0651C372.744 28.0511 370.274 31.1889 367.993 34.4624C365.423 38.1331 363.185 42.0252 361.306 46.0926L361.236 46.2438C361.422 44.8249 361.783 40.8474 361.771 40.5334C361.678 36.1837 358.933 27.8331 354.258 26.4375C353.478 26.2343 352.664 26.1954 351.868 26.3233C351.073 26.4512 350.312 26.7432 349.635 27.1806C348.958 27.618 348.38 28.1914 347.936 28.8643C347.493 29.5373 347.194 30.295 347.059 31.0896C346.419 34.4624 348.524 38.1375 350.711 40.5566C353.165 43.2781 360.468 46.3718 361.05 46.6858C359.228 50.8404 357.694 55.1148 356.456 59.4791C355.712 62.0261 355.049 64.608 354.409 67.2132C354.525 65.9804 354.618 64.8872 354.607 64.7243C354.514 60.3746 351.769 52.0241 347.094 50.6284C346.314 50.4271 345.502 50.3896 344.708 50.5184C343.913 50.6472 343.154 50.9395 342.479 51.3768C341.803 51.814 341.226 52.3868 340.783 53.0587C340.34 53.7307 340.041 54.4873 339.906 55.2806C339.255 58.6533 341.371 62.3285 343.546 64.7476C345.721 67.1667 351.932 70.0045 353.572 70.7372C353.339 71.7374 353.095 72.726 352.862 73.7262C351.757 78.5295 350.687 83.3327 349.478 87.9965C349.059 89.648 348.582 91.253 348.117 92.8579C348.21 91.7763 348.28 90.8459 348.28 90.7063C348.187 86.3566 345.442 78.0061 340.767 76.6105C339.988 76.4091 339.175 76.3716 338.381 76.5004C337.586 76.6292 336.827 76.9215 336.152 77.3588C335.476 77.7961 334.899 78.3688 334.456 79.0408C334.013 79.7127 333.715 80.4693 333.579 81.2626C332.928 84.647 335.033 88.3221 337.219 90.7412C339.406 93.1603 345 95.719 346.942 96.5564C346.419 98.1962 345.884 99.8245 345.291 101.383C344.872 102.441 344.535 103.488 344.046 104.523L342.709 107.524C341.674 107.698 340.476 107.931 339.138 108.233C338.79 103.849 337.15 98.4986 333.812 96.9169C333.069 96.5976 332.267 96.4367 331.459 96.4447C330.65 96.4526 329.852 96.6291 329.115 96.9629C328.379 97.2968 327.72 97.7805 327.181 98.3834C326.642 98.9863 326.234 99.6949 325.985 100.464C324.822 103.709 326.368 107.663 328.159 110.373C328.421 110.785 328.717 111.174 329.043 111.536C323.328 113.867 318.188 117.415 313.982 121.934C301.922 135.425 302.829 155.917 302.829 155.917C302.829 155.917 319.937 154.754 332.09 144.287C335.824 142.519 340.65 140.17 346.175 137.204C348.245 136.111 350.431 134.878 352.664 133.61C353.258 134.343 358.061 140.298 361.259 141.914C364.167 143.391 368.237 144.45 371.354 142.938C372.084 142.601 372.737 142.117 373.27 141.516C373.804 140.914 374.207 140.209 374.454 139.444C374.701 138.679 374.786 137.871 374.705 137.071C374.624 136.271 374.378 135.497 373.983 134.797C371.412 130.656 362.632 130.214 358.41 131.308C358.166 131.377 355.537 132.354 353.886 132.994C354.793 132.471 355.688 131.971 356.619 131.412C358.468 130.331 360.282 129.203 362.236 127.993L365.039 126.12C365.981 125.516 366.912 124.76 367.854 124.074C370.017 122.445 372.134 120.678 374.227 118.863C375.181 120.48 378.635 126.167 381.287 128.063C383.938 129.958 387.823 131.633 391.114 130.61C391.891 130.388 392.613 130.006 393.234 129.49C393.855 128.973 394.362 128.333 394.722 127.61C395.082 126.886 395.288 126.096 395.325 125.289C395.363 124.482 395.232 123.676 394.94 122.922C393.033 118.445 384.415 116.665 380.089 117.107C379.809 117.107 376.739 117.77 375.053 118.154C376.297 117.049 377.553 115.944 378.786 114.793C382.275 111.443 385.764 107.954 389.253 104.488C390.323 103.418 391.405 102.372 392.475 101.325C392.8 101.895 396.766 108.757 399.744 110.885C402.384 112.781 406.28 114.444 409.56 113.42C410.336 113.199 411.058 112.819 411.68 112.304C412.301 111.789 412.809 111.15 413.17 110.428C413.531 109.706 413.737 108.916 413.777 108.11C413.816 107.304 413.687 106.498 413.398 105.744C411.479 101.255 402.93 99.4872 398.534 99.9291C398.209 99.9291 393.789 100.883 392.719 101.174C395.045 98.8475 397.464 96.5215 399.895 94.4164C403.172 91.48 406.638 88.7605 410.269 86.2752C410.42 86.5427 414.526 93.7186 417.573 95.8934C420.213 97.7892 424.109 99.4639 427.389 98.4288C428.165 98.2079 428.887 97.8278 429.509 97.3125C430.13 96.7973 430.638 96.1583 430.999 95.4363C431.36 94.7142 431.567 93.9249 431.606 93.1186C431.645 92.3123 431.516 91.5066 431.227 90.7529C429.308 86.2636 420.701 84.4958 416.363 84.9377C416.026 84.9377 411.269 85.9728 410.409 86.2171C410.63 86.0659 410.827 85.903 411.037 85.7635C414.746 83.3714 418.661 81.3163 422.737 79.6227C424.97 78.6574 427.156 77.8549 429.308 77.1338C429.936 78.5411 432.867 84.9726 435.402 87.2405C437.938 89.5084 441.508 91.4972 444.881 90.8459C445.678 90.7112 446.438 90.4117 447.113 89.9666C447.788 89.5216 448.363 88.9407 448.8 88.2611C449.238 87.5814 449.529 86.818 449.655 86.0195C449.782 85.221 449.74 84.405 449.533 83.6235C448.114 78.9714 439.752 76.2499 435.402 76.1801C435.158 76.1801 432.75 76.3895 430.994 76.5872C431.971 76.2732 432.971 75.9243 433.913 75.6451C437.403 74.5752 440.74 73.8192 443.671 73.1679C445.334 72.8074 446.846 72.5166 448.323 72.2724C449.661 73.3307 455.115 77.5641 458.337 78.4015C461.559 79.2389 465.722 79.3668 468.42 77.2385C469.11 76.753 469.685 76.1234 470.107 75.3933C470.529 74.6632 470.787 73.8502 470.864 73.0104C470.94 72.1707 470.833 71.3244 470.549 70.5302C470.266 69.736 469.814 69.013 469.223 68.4111V68.4111ZM344.895 134.576C342.36 135.867 339.964 137.041 337.754 138.065C341.496 132.637 344.067 126.49 345.302 120.015C345.965 120.177 346.64 120.317 347.315 120.445C347.512 124.108 350.431 130.621 350.804 131.459C348.78 132.575 346.791 133.669 344.895 134.576Z" fill="#02A4FF"/>
<path d="M434.879 72.3887C438.089 69.4462 442.566 61.9215 440.531 57.4554C440.168 56.7348 439.659 56.0976 439.036 55.5844C438.414 55.0712 437.691 54.6932 436.914 54.4744C436.138 54.2556 435.324 54.2009 434.525 54.3137C433.726 54.4264 432.959 54.7042 432.274 55.1294C429.308 56.8739 427.924 60.8747 427.552 64.1079C427.11 67.8994 429.785 76.029 429.785 76.029C429.785 76.029 434.611 72.6446 434.879 72.3887Z" fill="#02A4FF"/>
<path d="M294.036 36.1953C294.036 36.1953 269.206 61.3865 269.078 92.6021C268.95 123.818 293.501 149.207 293.501 149.207C293.501 149.207 318.355 124.015 318.46 92.8114C318.564 61.6074 294.036 36.1953 294.036 36.1953Z" fill="#02A4FF"/>
<path d="M239.455 107.582C239.455 107.582 239.304 128.098 251.853 141.135C264.402 154.173 284.895 154.801 284.895 154.801C284.895 154.801 285.058 134.285 272.509 121.247C259.96 108.21 239.455 107.582 239.455 107.582Z" fill="#02A4FF"/>
<g opacity="0.5">
<path opacity="0.5" d="M372.727 28.1589C372.796 28.1589 374.878 22.6694 374.971 22.3437C376.03 18.122 375.576 9.34111 371.482 6.77082C370.783 6.37504 370.009 6.12844 369.21 6.0466C368.411 5.96476 367.603 6.04945 366.838 6.29532C366.073 6.54119 365.368 6.94291 364.766 7.47514C364.164 8.00737 363.679 8.65856 363.341 9.38763C361.817 12.4813 362.887 16.5868 364.353 19.4943C366.004 22.8439 372.727 28.1473 372.727 28.1589Z" fill="white"/>
<path opacity="0.5" d="M469.223 68.4111C465.815 64.922 457.151 66.3642 453.255 68.3065C452.917 68.4693 447.951 71.6909 448.021 71.7955L448.091 71.8653C446.73 72.0863 445.253 72.3305 443.66 72.6329C440.717 73.2261 437.391 73.9122 433.832 74.959C429.976 75.9805 426.185 77.235 422.481 78.7155C418.319 80.342 414.311 82.3347 410.502 84.6702L410.374 84.7633C411.304 83.6817 413.793 80.5531 413.968 80.2973C416.294 76.6105 418.62 68.132 415.468 64.3987C414.923 63.8028 414.26 63.3269 413.521 63.0013C412.782 62.6758 411.984 62.5076 411.176 62.5076C410.369 62.5076 409.57 62.6758 408.831 63.0013C408.093 63.3269 407.43 63.8028 406.885 64.3987C404.477 66.8643 404.21 71.0861 404.698 74.3077C405.256 77.9247 409.595 84.5888 409.943 85.1238C406.127 87.5875 402.482 90.3075 399.034 93.265C397.011 94.9863 395.033 96.7541 393.068 98.5917C393.836 97.6263 394.522 96.7657 394.603 96.6261C396.929 92.9393 399.255 84.4609 396.115 80.7276C395.57 80.1317 394.907 79.6558 394.168 79.3302C393.43 79.0046 392.631 78.8365 391.824 78.8365C391.016 78.8365 390.218 79.0046 389.479 79.3302C388.74 79.6558 388.077 80.1317 387.532 80.7276C385.125 83.1932 384.857 87.4266 385.345 90.6366C385.834 93.8465 389.428 99.65 390.393 101.104L388.16 103.209C384.59 106.605 381.042 110.013 377.46 113.246C376.204 114.409 374.913 115.467 373.634 116.549C374.32 115.688 374.89 114.967 374.971 114.851C377.297 111.164 379.623 102.686 376.472 98.9406C375.931 98.341 375.271 97.8606 374.534 97.53C373.798 97.1994 373 97.0258 372.193 97.0204C371.385 97.0149 370.586 97.1776 369.845 97.4982C369.104 97.8188 368.437 98.2902 367.888 98.8824C365.493 101.348 365.213 105.581 365.702 108.791C366.19 112.001 369.447 117.247 370.587 119.049C369.249 120.119 367.9 121.189 366.551 122.166C365.609 122.806 364.748 123.492 363.771 124.085L360.934 125.9C359.084 126.981 357.189 128.109 355.363 129.133C354.095 129.842 352.874 130.493 351.653 131.168C352.92 130.005 355.351 127.795 355.537 127.586C357.943 124.601 359.545 121.049 360.189 117.27C360.473 116.952 360.723 116.605 360.934 116.235C361.359 115.549 361.637 114.782 361.749 113.983C361.862 113.184 361.807 112.371 361.589 111.594C361.37 110.817 360.992 110.095 360.478 109.472C359.965 108.849 359.328 108.34 358.607 107.977C355.246 106.43 350.082 108.629 346.5 111.176C346.652 108.698 346.582 107.175 346.582 107.175L345.64 107.268L346.326 105.628C346.791 104.605 347.14 103.465 347.547 102.371C348.454 99.8128 349.245 97.1728 349.989 94.5094C351.676 95.3236 357.689 98.173 360.957 98.2893C364.225 98.4056 368.377 97.6612 370.552 94.9863C371.078 94.3735 371.471 93.6576 371.706 92.8844C371.941 92.1112 372.011 91.2976 371.914 90.4955C371.817 89.6935 371.553 88.9205 371.14 88.2259C370.728 87.5313 370.175 86.9303 369.517 86.4613C365.446 83.7863 357.282 87.0544 353.886 89.7759C353.676 89.9504 351.455 92.1834 350.269 93.4278C350.699 91.8228 351.141 90.2179 351.525 88.5664C352.63 83.8329 353.606 78.9947 354.607 74.1797C354.909 72.7027 355.235 71.2373 355.549 69.7602C356.142 70.0626 363.225 73.5982 366.877 73.7262C370.133 73.8425 374.297 73.0981 376.472 70.4232C376.996 69.8106 377.388 69.0955 377.621 68.3235C377.855 67.5515 377.925 66.7394 377.827 65.9387C377.73 65.1381 377.467 64.3664 377.056 63.6728C376.644 62.9792 376.093 62.3788 375.436 61.9098C371.366 59.2232 363.201 62.4913 359.805 65.2244C359.55 65.4221 356.316 68.6321 355.607 69.4927C356.293 66.2595 357.026 63.0379 357.863 59.8861C358.974 55.6352 360.365 51.4624 362.027 47.3952C362.306 47.5348 369.68 51.2565 373.424 51.3844C376.669 51.5123 380.845 50.7564 383.019 48.0814C383.543 47.4681 383.934 46.7524 384.167 45.9799C384.399 45.2074 384.468 44.395 384.37 43.5943C384.271 42.7937 384.008 42.0222 383.595 41.3291C383.182 40.6359 382.63 40.0362 381.973 39.5681C377.902 36.8815 369.749 40.1496 366.353 42.8827C366.086 43.092 362.666 46.5462 362.085 47.2208C362.19 46.9882 362.259 46.7323 362.364 46.4997C364.131 42.4397 366.26 38.5472 368.726 34.8694C370.063 32.8341 371.447 30.95 372.843 29.159C374.146 29.9964 380.135 33.7413 383.496 34.2414C386.857 34.7415 390.94 34.4158 393.394 32.0084C393.983 31.4563 394.451 30.7875 394.767 30.0447C395.084 29.3018 395.242 28.5012 395.233 27.6938C395.223 26.8863 395.045 26.0898 394.71 25.3549C394.376 24.62 393.892 23.9628 393.289 23.4252C389.544 20.3083 381.077 22.6693 377.402 25.007C377.204 25.1233 375.309 26.6468 373.913 27.7633C374.553 26.9725 375.192 26.1351 375.82 25.3791C378.146 22.5413 380.472 20.0874 382.589 17.9358C383.752 16.7727 384.915 15.6097 385.927 14.6444C387.637 14.7956 394.51 15.319 397.662 14.2373C400.814 13.1557 404.361 10.9692 405.419 7.6895C405.688 6.92868 405.796 6.12019 405.736 5.31545C405.675 4.51071 405.448 3.72735 405.069 3.01521C404.689 2.30306 404.165 1.67772 403.531 1.17896C402.897 0.680205 402.165 0.318953 401.384 0.118194C396.615 -0.9169 390.184 5.08432 387.997 8.84089C387.811 9.16654 385.45 14.5979 385.532 14.656H385.636C384.613 15.5864 383.531 16.6099 382.368 17.7381C380.228 19.8548 377.844 22.2622 375.39 25.0651C372.744 28.0511 370.274 31.1889 367.993 34.4624C365.423 38.1331 363.185 42.0252 361.306 46.0926L361.236 46.2438C361.422 44.8249 361.783 40.8474 361.771 40.5334C361.678 36.1837 358.933 27.8331 354.258 26.4375C353.478 26.2343 352.664 26.1954 351.868 26.3233C351.073 26.4512 350.312 26.7432 349.635 27.1806C348.958 27.618 348.38 28.1914 347.936 28.8643C347.493 29.5373 347.194 30.295 347.059 31.0896C346.419 34.4624 348.524 38.1375 350.711 40.5566C353.165 43.2781 360.468 46.3718 361.05 46.6858C359.228 50.8404 357.694 55.1148 356.456 59.4791C355.712 62.0261 355.049 64.608 354.409 67.2132C354.525 65.9804 354.618 64.8872 354.607 64.7243C354.514 60.3746 351.769 52.0241 347.094 50.6284C346.314 50.4271 345.502 50.3896 344.708 50.5184C343.913 50.6472 343.154 50.9395 342.479 51.3768C341.803 51.814 341.226 52.3868 340.783 53.0587C340.34 53.7307 340.041 54.4873 339.906 55.2806C339.255 58.6533 341.371 62.3285 343.546 64.7476C345.721 67.1667 351.932 70.0045 353.572 70.7372C353.339 71.7374 353.095 72.726 352.862 73.7262C351.757 78.5295 350.687 83.3327 349.478 87.9965C349.059 89.648 348.582 91.253 348.117 92.8579C348.21 91.7763 348.28 90.8459 348.28 90.7063C348.187 86.3566 345.442 78.0061 340.767 76.6105C339.988 76.4091 339.175 76.3716 338.381 76.5004C337.586 76.6292 336.827 76.9215 336.152 77.3588C335.476 77.7961 334.899 78.3688 334.456 79.0408C334.013 79.7127 333.715 80.4693 333.579 81.2626C332.928 84.647 335.033 88.3221 337.219 90.7412C339.406 93.1603 345 95.719 346.942 96.5564C346.419 98.1962 345.884 99.8245 345.291 101.383C344.872 102.441 344.535 103.488 344.046 104.523L342.709 107.524C341.674 107.698 340.476 107.931 339.138 108.233C338.79 103.849 337.15 98.4986 333.812 96.9169C333.069 96.5976 332.267 96.4367 331.459 96.4447C330.65 96.4526 329.852 96.6291 329.115 96.9629C328.379 97.2968 327.72 97.7805 327.181 98.3834C326.642 98.9863 326.234 99.6949 325.985 100.464C324.822 103.709 326.368 107.663 328.159 110.373C328.421 110.785 328.717 111.174 329.043 111.536C323.328 113.867 318.188 117.415 313.982 121.934C301.922 135.425 302.829 155.917 302.829 155.917C302.829 155.917 319.937 154.754 332.09 144.287C335.824 142.519 340.65 140.17 346.175 137.204C348.245 136.111 350.431 134.878 352.664 133.61C353.258 134.343 358.061 140.298 361.259 141.914C364.167 143.391 368.237 144.45 371.354 142.938C372.084 142.601 372.737 142.117 373.27 141.516C373.804 140.914 374.207 140.209 374.454 139.444C374.701 138.679 374.786 137.871 374.705 137.071C374.624 136.271 374.378 135.497 373.983 134.797C371.412 130.656 362.632 130.214 358.41 131.308C358.166 131.377 355.537 132.354 353.886 132.994C354.793 132.471 355.688 131.971 356.619 131.412C358.468 130.331 360.282 129.203 362.236 127.993L365.039 126.12C365.981 125.516 366.912 124.76 367.854 124.074C370.017 122.445 372.134 120.678 374.227 118.863C375.181 120.48 378.635 126.167 381.287 128.063C383.938 129.958 387.823 131.633 391.114 130.61C391.891 130.388 392.613 130.006 393.234 129.49C393.855 128.973 394.362 128.333 394.722 127.61C395.082 126.886 395.288 126.096 395.325 125.289C395.363 124.482 395.232 123.676 394.94 122.922C393.033 118.445 384.415 116.665 380.089 117.107C379.809 117.107 376.739 117.77 375.053 118.154C376.297 117.049 377.553 115.944 378.786 114.793C382.275 111.443 385.764 107.954 389.253 104.488C390.323 103.418 391.405 102.372 392.475 101.325C392.8 101.895 396.766 108.757 399.744 110.885C402.384 112.781 406.28 114.444 409.56 113.42C410.336 113.199 411.058 112.819 411.68 112.304C412.301 111.789 412.809 111.15 413.17 110.428C413.531 109.706 413.737 108.916 413.777 108.11C413.816 107.304 413.687 106.498 413.398 105.744C411.479 101.255 402.93 99.4872 398.534 99.9291C398.209 99.9291 393.789 100.883 392.719 101.174C395.045 98.8475 397.464 96.5215 399.895 94.4164C403.172 91.48 406.638 88.7605 410.269 86.2752C410.42 86.5427 414.526 93.7186 417.573 95.8934C420.213 97.7892 424.109 99.4639 427.389 98.4288C428.165 98.2079 428.887 97.8278 429.509 97.3125C430.13 96.7973 430.638 96.1583 430.999 95.4363C431.36 94.7142 431.567 93.9249 431.606 93.1186C431.645 92.3123 431.516 91.5066 431.227 90.7529C429.308 86.2636 420.701 84.4958 416.363 84.9377C416.026 84.9377 411.269 85.9728 410.409 86.2171C410.63 86.0659 410.827 85.903 411.037 85.7635C414.746 83.3714 418.661 81.3163 422.737 79.6227C424.97 78.6574 427.156 77.8549 429.308 77.1338C429.936 78.5411 432.867 84.9726 435.402 87.2405C437.938 89.5084 441.508 91.4972 444.881 90.8459C445.678 90.7112 446.438 90.4117 447.113 89.9666C447.788 89.5216 448.363 88.9407 448.8 88.2611C449.238 87.5814 449.529 86.818 449.655 86.0195C449.782 85.221 449.74 84.405 449.533 83.6235C448.114 78.9714 439.752 76.2499 435.402 76.1801C435.158 76.1801 432.75 76.3895 430.994 76.5872C431.971 76.2732 432.971 75.9243 433.913 75.6451C437.403 74.5752 440.74 73.8192 443.671 73.1679C445.334 72.8074 446.846 72.5166 448.323 72.2724C449.661 73.3307 455.115 77.5641 458.337 78.4015C461.559 79.2389 465.722 79.3668 468.42 77.2385C469.11 76.753 469.685 76.1234 470.107 75.3933C470.529 74.6632 470.787 73.8502 470.864 73.0104C470.94 72.1707 470.833 71.3244 470.549 70.5302C470.266 69.736 469.814 69.013 469.223 68.4111V68.4111ZM344.895 134.576C342.36 135.867 339.964 137.041 337.754 138.065C341.496 132.637 344.067 126.49 345.302 120.015C345.965 120.177 346.64 120.317 347.315 120.445C347.512 124.108 350.431 130.621 350.804 131.459C348.78 132.575 346.791 133.669 344.895 134.576Z" fill="white"/>
<path opacity="0.5" d="M434.879 72.3887C438.089 69.4462 442.566 61.9215 440.531 57.4554C440.168 56.7348 439.659 56.0976 439.036 55.5844C438.414 55.0712 437.691 54.6932 436.914 54.4744C436.138 54.2556 435.324 54.2009 434.525 54.3137C433.726 54.4264 432.959 54.7042 432.274 55.1294C429.308 56.8739 427.924 60.8747 427.552 64.1079C427.11 67.8994 429.785 76.029 429.785 76.029C429.785 76.029 434.611 72.6446 434.879 72.3887Z" fill="white"/>
<path opacity="0.5" d="M294.036 36.1953C294.036 36.1953 269.206 61.3865 269.078 92.6021C268.95 123.818 293.501 149.207 293.501 149.207C293.501 149.207 318.355 124.015 318.46 92.8114C318.564 61.6074 294.036 36.1953 294.036 36.1953Z" fill="white"/>
<path opacity="0.5" d="M239.455 107.582C239.455 107.582 239.304 128.098 251.853 141.135C264.402 154.173 284.895 154.801 284.895 154.801C284.895 154.801 285.058 134.285 272.509 121.247C259.96 108.21 239.455 107.582 239.455 107.582Z" fill="white"/>
</g>
<path d="M309.644 120.887L308.853 119.863L294.246 131.331L294.362 106.105L314.657 88.1477L313.796 87.1824L294.362 104.372L294.49 76.6686L308.155 64.829L307.318 63.8521L294.49 74.9474L294.664 36.1953H293.373L293.117 93.2883L277.044 69.7835L275.974 70.5046L293.013 95.405L293.117 95.3352L293.013 119.061L273.73 101.72L272.869 102.686L293.001 120.794V120.782L292.885 149.207L294.176 149.218L294.246 132.971L309.644 120.887Z" fill="white"/>
<path d="M347.047 107.466L346.093 106.605L324.601 130.633L326.554 115.107L325.275 114.956L323.089 132.308H323.1L314.459 141.973L312.831 127.633L311.551 127.772L313.308 143.264L302.398 155.452L303.364 156.313L309.563 149.393L320.763 150.067L320.832 148.776L310.656 148.16L319.949 137.774L335.545 137.786V136.495L321.1 136.472L331.323 125.051L341.685 125.179L341.709 123.888L332.474 123.771L347.047 107.466Z" fill="white"/>
<path d="M280.429 136.541L279.15 136.367L277.777 146.473L268.112 136.425L269.299 120.875L268.008 120.782L266.914 135.18L256.273 124.132L257.18 113.804L255.889 113.699L255.087 122.899L239.921 107.14L238.99 108.035L261.344 131.261L246.015 128.144L245.759 129.412L262.902 132.889V132.866L271.892 142.217L257.471 142.763L257.517 144.054L273.09 143.461L284.43 155.243L285.36 154.347L278.929 147.66L280.429 136.541Z" fill="white"/>
<path d="M289.861 444.976L438.368 389.255L439.438 377.381L292.024 433.09L289.861 444.976Z" fill="#02A4FF" stroke="#2E353A" stroke-width="1.13593" stroke-linecap="round" stroke-linejoin="round"/>
<path d="M264.856 248.006C262.246 247.986 259.724 247.066 257.715 245.401C255.19 243.318 253.532 240.37 253.063 237.131C253.004 236.553 253.17 235.974 253.526 235.514C253.882 235.054 254.401 234.749 254.975 234.661C255.55 234.573 256.137 234.709 256.614 235.041C257.092 235.373 257.423 235.876 257.54 236.445C257.844 238.569 258.926 240.505 260.576 241.877C261.294 242.496 262.137 242.951 263.048 243.213C263.959 243.474 264.916 243.534 265.853 243.389C266.79 243.244 267.684 242.898 268.473 242.373C269.263 241.849 269.929 241.16 270.427 240.353C270.769 239.878 271.282 239.554 271.858 239.449C272.434 239.344 273.029 239.465 273.517 239.788C274.005 240.112 274.35 240.611 274.478 241.182C274.607 241.754 274.509 242.352 274.206 242.854C273.358 244.185 272.235 245.32 270.914 246.185C269.592 247.049 268.102 247.622 266.542 247.866C265.985 247.959 265.421 248.006 264.856 248.006V248.006Z" fill="#2E353A"/>
<path d="M243.421 254.623C237.688 254.623 232.559 250.064 231.593 243.761C231.547 243.468 231.559 243.168 231.629 242.879C231.698 242.591 231.824 242.319 231.999 242.079C232.174 241.839 232.395 241.636 232.649 241.481C232.902 241.327 233.184 241.224 233.477 241.179C234.071 241.101 234.671 241.254 235.154 241.607C235.637 241.96 235.965 242.486 236.071 243.075C236.746 247.506 240.479 250.623 244.375 250.053C245.31 249.9 246.202 249.551 246.992 249.028C247.782 248.504 248.452 247.819 248.957 247.017C249.3 246.542 249.813 246.218 250.389 246.113C250.965 246.008 251.559 246.13 252.048 246.453C252.536 246.776 252.881 247.275 253.009 247.847C253.138 248.418 253.04 249.017 252.737 249.518C251.888 250.849 250.766 251.985 249.444 252.849C248.123 253.713 246.633 254.286 245.073 254.53C244.526 254.607 243.973 254.638 243.421 254.623Z" fill="#2E353A"/>
<path d="M223.812 262.148C221.205 262.13 218.683 261.214 216.672 259.555C214.15 257.47 212.492 254.523 212.019 251.285C211.961 250.707 212.126 250.128 212.482 249.668C212.838 249.208 213.357 248.903 213.932 248.815C214.507 248.727 215.094 248.863 215.571 249.195C216.048 249.527 216.38 250.03 216.497 250.599C216.8 252.723 217.882 254.659 219.533 256.031C220.258 256.638 221.103 257.087 222.012 257.347C222.922 257.608 223.876 257.674 224.813 257.543C225.746 257.39 226.637 257.04 227.425 256.517C228.213 255.994 228.881 255.308 229.383 254.507C229.764 254.139 230.258 253.911 230.785 253.862C231.312 253.812 231.841 253.944 232.283 254.236C232.724 254.527 233.054 254.961 233.216 255.465C233.378 255.969 233.364 256.513 233.175 257.008C232.322 258.338 231.198 259.473 229.874 260.337C228.551 261.201 227.06 261.775 225.499 262.02C224.941 262.11 224.377 262.152 223.812 262.148V262.148Z" fill="#2E353A"/>
<path d="M202.378 268.289C196.645 268.289 191.516 263.718 190.55 257.426C190.49 257.126 190.492 256.817 190.554 256.518C190.617 256.218 190.74 255.935 190.915 255.684C191.09 255.433 191.314 255.22 191.574 255.058C191.833 254.896 192.123 254.788 192.425 254.741C192.727 254.694 193.036 254.709 193.333 254.784C193.629 254.859 193.907 254.994 194.15 255.179C194.394 255.365 194.597 255.598 194.748 255.864C194.898 256.13 194.994 256.424 195.028 256.728C195.714 261.16 199.436 264.276 203.332 263.707C204.266 263.554 205.157 263.206 205.946 262.685C206.736 262.164 207.407 261.481 207.914 260.683C208.067 260.412 208.274 260.177 208.522 259.99C208.77 259.803 209.054 259.669 209.356 259.596C209.658 259.523 209.972 259.513 210.278 259.566C210.584 259.62 210.875 259.736 211.135 259.906C211.394 260.077 211.616 260.299 211.786 260.559C211.956 260.819 212.07 261.111 212.123 261.418C212.175 261.724 212.164 262.037 212.091 262.339C212.017 262.641 211.882 262.924 211.694 263.172C210.844 264.503 209.721 265.638 208.4 266.504C207.079 267.37 205.59 267.947 204.03 268.196C203.482 268.267 202.93 268.298 202.378 268.289Z" fill="#2E353A"/>
<path d="M180.432 277.012C174.71 277.012 169.581 272.452 168.604 266.149C168.639 265.621 168.854 265.121 169.212 264.731C169.57 264.341 170.05 264.085 170.573 264.005C171.096 263.925 171.631 264.026 172.089 264.291C172.547 264.556 172.902 264.969 173.093 265.463C173.768 269.894 177.501 272.999 181.397 272.441C182.332 272.286 183.223 271.936 184.013 271.413C184.802 270.89 185.473 270.206 185.979 269.405C186.322 268.93 186.835 268.606 187.411 268.501C187.987 268.396 188.581 268.518 189.07 268.841C189.558 269.164 189.903 269.663 190.031 270.235C190.16 270.806 190.062 271.405 189.759 271.906C188.909 273.236 187.786 274.37 186.465 275.234C185.144 276.098 183.654 276.672 182.095 276.918C181.543 276.989 180.988 277.02 180.432 277.012Z" fill="#2E353A"/>
<path d="M159.183 284.792C156.575 284.776 154.053 283.86 152.042 282.199C149.52 280.114 147.863 277.167 147.39 273.93C147.332 273.351 147.497 272.772 147.853 272.312C148.209 271.852 148.728 271.547 149.303 271.459C149.878 271.371 150.464 271.507 150.942 271.839C151.419 272.171 151.751 272.674 151.868 273.243C152.171 275.368 153.253 277.303 154.903 278.675C155.621 279.294 156.465 279.749 157.376 280.011C158.287 280.272 159.244 280.332 160.181 280.187C161.117 280.042 162.011 279.696 162.801 279.172C163.591 278.647 164.257 277.958 164.754 277.151C165.134 276.783 165.629 276.555 166.156 276.506C166.683 276.456 167.211 276.588 167.653 276.88C168.095 277.171 168.425 277.605 168.587 278.109C168.749 278.613 168.735 279.157 168.546 279.652C167.693 280.982 166.568 282.117 165.245 282.981C163.922 283.845 162.431 284.419 160.87 284.664C160.312 284.754 159.748 284.797 159.183 284.792Z" fill="#2E353A"/>
<path d="M293.932 437.73L416.829 392.454" stroke="#2E353A" stroke-width="0.567964" stroke-linecap="round" stroke-linejoin="round"/>
<path d="M290.698 441.51L369.389 412.399" stroke="#2E353A" stroke-width="0.567964" stroke-linecap="round" stroke-linejoin="round"/>
<path d="M141.889 279.57V293.608L289.861 444.976L292.024 433.09L141.889 279.57Z" fill="#02A4FF" stroke="#2E353A" stroke-width="1.13593" stroke-linecap="round" stroke-linejoin="round"/>
<path d="M144.087 290.584L231.954 378.439" stroke="#2E353A" stroke-width="0.567964" stroke-linecap="round" stroke-linejoin="round"/>
<path d="M185.596 328.313L277.219 422.099" stroke="#2E353A" stroke-width="0.567964" stroke-linecap="round" stroke-linejoin="round"/>
<path d="M141.889 279.57L292.024 433.09L439.438 377.381L286.651 230.956L141.889 279.57Z" fill="white" stroke="#2E353A" stroke-width="1.13593" stroke-linecap="round" stroke-linejoin="round"/>
<path d="M140.051 277.151L1 147.369L143.436 102.953L285.558 228.641L140.051 277.151Z" fill="#02A4FF" stroke="#2E353A" stroke-width="1.13593" stroke-linecap="round" stroke-linejoin="round"/>
<path d="M22.2834 148.229L62.9894 135.552" stroke="#2E353A" stroke-width="1.21052" stroke-linecap="round" stroke-linejoin="round"/>
<path d="M28.2961 152.905L69.0021 140.228" stroke="#2E353A" stroke-width="1.21052" stroke-linecap="round" stroke-linejoin="round"/>
<path d="M166.638 280.664C166.196 280.666 165.762 280.537 165.394 280.291C164.903 279.951 164.562 279.436 164.441 278.851C164.319 278.267 164.428 277.658 164.743 277.151C165.905 275.347 166.352 273.174 165.999 271.057C165.801 269.452 165.131 267.943 164.072 266.721C163.014 265.499 161.616 264.619 160.056 264.195C159.492 264.041 159.01 263.675 158.71 263.175C158.41 262.674 158.314 262.077 158.443 261.507C158.572 260.938 158.915 260.44 159.402 260.117C159.889 259.795 160.481 259.672 161.056 259.776C163.504 260.403 165.709 261.746 167.389 263.634C169.069 265.521 170.148 267.867 170.488 270.371C171.019 273.607 170.323 276.926 168.534 279.675C168.32 279.979 168.036 280.228 167.707 280.4C167.377 280.572 167.01 280.662 166.638 280.664Z" fill="#2E353A"/>
<path d="M187.863 272.883C187.421 272.886 186.987 272.756 186.619 272.511C186.37 272.347 186.155 272.136 185.988 271.89C185.821 271.643 185.704 271.366 185.645 271.074C185.585 270.782 185.584 270.481 185.642 270.189C185.699 269.897 185.814 269.618 185.979 269.371C187.136 267.564 187.583 265.393 187.235 263.276C187.038 261.672 186.367 260.162 185.309 258.94C184.251 257.718 182.852 256.839 181.292 256.415C180.988 256.364 180.697 256.252 180.438 256.085C180.178 255.919 179.955 255.701 179.783 255.445C179.61 255.189 179.492 254.901 179.434 254.598C179.377 254.295 179.382 253.983 179.45 253.682C179.517 253.381 179.645 253.097 179.826 252.847C180.007 252.597 180.237 252.387 180.502 252.229C180.767 252.071 181.061 251.969 181.367 251.929C181.673 251.888 181.984 251.911 182.281 251.995C184.729 252.622 186.934 253.966 188.614 255.853C190.294 257.74 191.373 260.086 191.713 262.59C192.245 265.827 191.548 269.145 189.759 271.894C189.545 272.199 189.261 272.447 188.932 272.619C188.602 272.791 188.235 272.882 187.863 272.883V272.883Z" fill="#2E353A"/>
<path d="M272.311 243.877C271.913 243.857 271.526 243.735 271.189 243.523C270.852 243.31 270.574 243.015 270.384 242.664C270.194 242.314 270.097 241.921 270.102 241.522C270.107 241.124 270.215 240.733 270.415 240.388C271.578 238.588 272.026 236.419 271.671 234.305C271.476 232.699 270.806 231.187 269.748 229.962C268.689 228.738 267.29 227.857 265.728 227.432C265.438 227.369 265.163 227.248 264.919 227.078C264.676 226.908 264.469 226.691 264.31 226.44C264.15 226.189 264.043 225.909 263.993 225.616C263.943 225.323 263.952 225.023 264.018 224.734C264.162 224.154 264.524 223.651 265.029 223.331C265.533 223.01 266.142 222.896 266.728 223.012C269.176 223.64 271.381 224.983 273.061 226.87C274.742 228.758 275.821 231.104 276.16 233.608C276.693 236.846 275.992 240.166 274.195 242.912C273.985 243.215 273.703 243.462 273.374 243.631C273.045 243.799 272.68 243.884 272.311 243.877V243.877Z" fill="#2E353A"/>
<path d="M250.841 250.471C250.399 250.474 249.965 250.344 249.597 250.099C249.348 249.936 249.133 249.725 248.966 249.478C248.799 249.232 248.682 248.954 248.623 248.662C248.563 248.37 248.562 248.07 248.62 247.777C248.677 247.485 248.792 247.207 248.957 246.959C250.115 245.153 250.563 242.982 250.213 240.865C250.016 239.26 249.345 237.751 248.287 236.529C247.229 235.307 245.83 234.427 244.27 234.003C243.966 233.952 243.675 233.84 243.416 233.674C243.156 233.507 242.933 233.289 242.761 233.033C242.588 232.778 242.47 232.489 242.412 232.186C242.355 231.883 242.36 231.571 242.428 231.27C242.495 230.969 242.623 230.685 242.804 230.435C242.985 230.185 243.215 229.975 243.48 229.817C243.745 229.659 244.039 229.557 244.345 229.517C244.651 229.477 244.962 229.499 245.259 229.583C247.708 230.208 249.915 231.55 251.596 233.438C253.276 235.326 254.354 237.673 254.691 240.179C255.223 243.415 254.526 246.733 252.737 249.483C252.523 249.787 252.239 250.036 251.91 250.208C251.58 250.38 251.213 250.47 250.841 250.471V250.471Z" fill="#2E353A"/>
<path d="M231.233 258.031C230.789 258.03 230.356 257.896 229.988 257.647C229.498 257.307 229.156 256.792 229.035 256.207C228.914 255.623 229.022 255.014 229.337 254.507C230.505 252.705 230.957 250.531 230.605 248.413C230.407 246.808 229.737 245.299 228.678 244.077C227.62 242.855 226.222 241.975 224.662 241.551C224.357 241.501 224.066 241.389 223.807 241.222C223.547 241.055 223.324 240.837 223.152 240.582C222.979 240.326 222.861 240.037 222.804 239.734C222.747 239.431 222.752 239.12 222.819 238.819C222.886 238.517 223.014 238.233 223.195 237.983C223.376 237.734 223.606 237.523 223.871 237.365C224.136 237.207 224.431 237.105 224.737 237.065C225.043 237.025 225.353 237.047 225.65 237.131C228.098 237.759 230.303 239.102 231.983 240.989C233.664 242.877 234.743 245.223 235.082 247.727C235.614 250.963 234.917 254.282 233.129 257.031C232.916 257.337 232.633 257.588 232.303 257.762C231.973 257.936 231.606 258.029 231.233 258.031V258.031Z" fill="#2E353A"/>
<path d="M209.798 264.16C209.356 264.157 208.925 264.028 208.554 263.788C208.304 263.625 208.09 263.414 207.923 263.167C207.756 262.92 207.639 262.643 207.579 262.351C207.52 262.059 207.519 261.758 207.576 261.466C207.634 261.174 207.748 260.896 207.914 260.648C209.071 258.841 209.518 256.67 209.17 254.554C208.973 252.949 208.302 251.439 207.244 250.217C206.185 248.995 204.787 248.116 203.227 247.692C202.878 247.692 202.534 247.614 202.22 247.463C201.906 247.312 201.629 247.093 201.411 246.821C201.193 246.549 201.039 246.231 200.96 245.892C200.881 245.552 200.88 245.199 200.956 244.859C201.032 244.519 201.183 244.2 201.399 243.926C201.614 243.652 201.889 243.431 202.202 243.277C202.515 243.124 202.858 243.043 203.207 243.04C203.555 243.037 203.9 243.112 204.215 243.261C206.666 243.884 208.873 245.226 210.554 247.114C212.235 249.002 213.312 251.35 213.648 253.856C214.18 257.092 213.483 260.411 211.694 263.16C211.481 263.466 211.198 263.717 210.868 263.891C210.538 264.065 210.171 264.158 209.798 264.16V264.16Z" fill="#2E353A"/>
<path d="M411.06 373.834L416.782 371.729" stroke="#2E353A" stroke-width="0.567964" stroke-linecap="round" stroke-linejoin="round"/>
<path d="M298.095 415.563L405.861 375.764" stroke="#2E353A" stroke-width="0.567964" stroke-linecap="round" stroke-linejoin="round"/>
<path d="M301.119 397.571L403.966 359.586" stroke="#2E353A" stroke-width="0.567964" stroke-linecap="round" stroke-linejoin="round"/>
<path d="M285.279 403.421L294.28 400.095" stroke="#2E353A" stroke-width="0.567964" stroke-linecap="round" stroke-linejoin="round"/>
<path d="M272.462 391.279L391.161 347.444" stroke="#2E353A" stroke-width="0.567964" stroke-linecap="round" stroke-linejoin="round"/>
<path d="M259.657 379.149L378.344 335.314" stroke="#2E353A" stroke-width="0.567964" stroke-linecap="round" stroke-linejoin="round"/>
<path d="M360.55 325.01L365.528 323.172" stroke="#2E353A" stroke-width="0.567964" stroke-linecap="round" stroke-linejoin="round"/>
<path d="M246.841 367.007L353.432 327.638" stroke="#2E353A" stroke-width="0.567964" stroke-linecap="round" stroke-linejoin="round"/>
<path d="M234.024 354.865L352.722 311.03" stroke="#2E353A" stroke-width="0.567964" stroke-linecap="round" stroke-linejoin="round"/>
<path d="M221.208 342.734L339.906 298.9" stroke="#2E353A" stroke-width="0.567964" stroke-linecap="round" stroke-linejoin="round"/>
<path d="M208.402 330.592L327.089 286.758" stroke="#2E353A" stroke-width="0.567964" stroke-linecap="round" stroke-linejoin="round"/>
<path d="M195.586 318.45L314.273 274.616" stroke="#2E353A" stroke-width="0.567964" stroke-linecap="round" stroke-linejoin="round"/>
<path d="M297.258 264.032L301.468 262.474" stroke="#2E353A" stroke-width="0.567964" stroke-linecap="round" stroke-linejoin="round"/>
<path d="M182.77 306.308L293.606 265.381" stroke="#2E353A" stroke-width="0.567964" stroke-linecap="round" stroke-linejoin="round"/>
<path d="M205.39 281.082L288.651 250.344" stroke="#2E353A" stroke-width="0.567964" stroke-linecap="round" stroke-linejoin="round"/>
<path d="M169.965 294.178L192.888 285.711" stroke="#2E353A" stroke-width="0.567964" stroke-linecap="round" stroke-linejoin="round"/>
<g style="mix-blend-mode:multiply">
<path d="M211.136 325.568C223.15 327.138 222.091 306.576 219.044 299.679C216.821 302.227 215.165 305.218 214.184 308.454C213.204 311.69 212.922 315.097 213.357 318.45C213.484 320.016 214.03 321.519 214.939 322.8C215.399 323.434 216.037 323.918 216.771 324.191C217.506 324.464 218.305 324.514 219.068 324.335C220.161 323.871 221.087 323.084 221.719 322.079C223.929 319.148 225.394 315.519 227.72 312.833C230.942 315.008 242.386 318.729 240.735 310.728C239.828 306.308 242.026 306.808 244.387 308.971C245.364 309.855 246.899 309.379 248.108 308.844L259.739 303.726C261.219 302.971 262.822 302.487 264.472 302.296C270.055 302.017 273.707 307.204 279.184 303.54C281.51 302.005 282.045 297.841 285 296.26C287.105 295.097 289.582 295.027 291.978 294.701C300.212 293.608 304.422 289.258 312.028 285.327" stroke="#02A4FF" stroke-width="1.13593" stroke-linecap="round" stroke-linejoin="round"/>
</g>
<g style="mix-blend-mode:multiply">
<path d="M220.463 338.419C224.964 339.187 228.814 335.081 232.791 333.767C237.874 332.069 240.083 329.999 244.968 327.894C251.423 325.126 259.006 323.847 257.657 314.089C256.738 317.578 256.633 321.416 255.924 325.068C261.157 327.661 262.565 323.207 263.1 319.253C264.856 319.208 266.592 318.858 268.229 318.218C268.229 318.95 268.461 319.776 268.45 320.474C270.962 321.486 271.939 320.799 272.462 318.578C275.242 318.055 276.23 315.45 278.58 314.81C279.173 321.334 280.836 327.045 280.452 333.721C275.998 334.884 275.3 327.196 276.428 324.009C277.591 320.637 280.94 318.834 282.173 315.31C282.429 315.74 282.231 316.24 282.371 316.706C287.977 313.356 295.164 314.263 300.724 310.344C302.468 309.111 303.713 306.645 305.562 305.785C309.586 303.924 310.784 306.11 313.784 301.726" stroke="#02A4FF" stroke-width="1.13593" stroke-linecap="round" stroke-linejoin="round"/>
</g>
<g style="mix-blend-mode:multiply">
<path d="M260.983 376.741C269.066 374.415 272.613 354.33 270.287 346.956C267.566 338.036 263.821 347.817 262.948 352.608C262.251 356.446 261.134 366.565 264.716 369.484C272.66 375.927 277.51 362.68 278.486 356.691C278.835 360.436 276.579 365.053 277.498 369.088C283.929 369.844 287.116 364.494 286.709 358.97C287.508 359.734 288.049 360.728 288.257 361.814C288.466 362.9 288.331 364.024 287.872 365.029C294.013 364.599 293.001 354.237 293.687 350.061C293.338 352.98 293.606 356.4 295.571 358.761C297.211 360.715 300.34 361.575 302.398 360.063C304.457 358.551 304.05 354.574 301.549 354.05V379.23C301.628 379.958 301.482 380.693 301.131 381.335C300.305 382.498 298.281 382.254 297.339 381.137C296.509 379.919 296.12 378.455 296.234 376.985C296.118 368.739 298.665 357.447 305.05 351.817C305.378 352.62 305.486 353.495 305.364 354.353C305.975 354.115 306.528 353.747 306.983 353.275C307.439 352.804 307.787 352.239 308.004 351.62C308.423 353.469 309.516 355.795 311.389 355.469C312.01 355.306 312.579 354.986 313.04 354.539C316.11 352.004 319.437 350.329 321.495 346.723C321.786 347.631 322.088 348.538 322.391 349.457C322.879 347.7 324.554 346.549 326.194 345.758C328.696 344.582 331.4 343.899 334.161 343.746C336.487 343.63 339.022 343.874 341.139 342.874C342.076 342.373 342.974 341.801 343.825 341.164C346.235 339.576 349.026 338.661 351.908 338.512" stroke="#02A4FF" stroke-width="1.13593" stroke-linecap="round" stroke-linejoin="round"/>
</g>
<path d="M165.161 155.871C165.161 155.871 183.712 132.494 189.992 124.132C196.272 115.769 200.82 109.338 200.82 109.338C200.82 109.338 204.169 111.978 203.146 114.979C202.122 117.979 180.06 148.113 175.152 155.766C170.244 163.419 170.93 173.107 171.29 176.445C171.651 179.782 161.916 168.873 165.161 155.871Z" fill="white" stroke="#2E353A" stroke-width="1.27267" stroke-linecap="round" stroke-linejoin="round"/>
<path d="M200.82 109.338C200.82 109.338 212.369 93.2766 220.94 79.9018C229.512 66.527 242.026 46.4415 245.003 43.7665C247.98 41.0916 248.702 48.0697 247.736 52.7451C246.771 57.4205 236.525 70.4696 229.605 81.1695C222.685 91.8693 218.405 99.5686 212.45 106.593C206.495 113.618 206.844 113.955 203.146 114.979C199.447 116.002 200.168 112.339 200.82 109.338Z" fill="#2E353A" stroke="#2E353A" stroke-width="1.27267" stroke-linecap="round" stroke-linejoin="round"/>
<path d="M161.172 158.22C162.451 149.555 165.347 133.552 171.965 128.516C178.583 123.48 198.61 127.353 200.273 127.656C201.936 127.958 228.29 133.796 236.327 138.739C244.363 143.682 249.76 157.964 251.818 166.233C253.877 174.502 258.296 188.505 258.959 189.494C258.959 189.494 265.647 192.436 269.31 192.087C272.974 191.738 277.847 174.712 288.105 164.651C298.363 154.591 303.689 153.219 315.017 154.184C326.345 155.15 369.377 166.815 373.738 171.106C378.1 175.398 380.821 185.063 379.879 192.041C378.937 199.019 380.31 206.695 380.31 208.021C380.31 209.347 384.345 213.661 383.368 217.325C382.391 220.988 381.787 228.955 378.798 230.014C375.809 231.072 353.816 230.514 337.487 228.292C321.158 226.071 298.444 216.22 283.406 209.335C268.368 202.45 261.03 199.484 250.039 199.565C239.048 199.647 217.742 200.112 198.063 195.576C178.385 191.041 165.01 182.783 161.312 179.166C157.613 175.549 159.904 166.896 161.172 158.22ZM279.01 199.065C284.395 207.032 306.097 214.883 317.774 218.127C329.45 221.372 357.456 227.187 364.76 223.152C372.064 219.116 375.902 195.099 375.227 186.772C374.553 178.445 371.145 173.816 371.145 173.816C356.758 164.919 311.738 155.557 302.433 159.29C293.129 163.023 284.232 175.061 280.964 184.737C277.696 194.413 279.01 199.065 279.01 199.065V199.065ZM185.003 185.377C199.378 193.936 222.045 196.449 231.035 196.728C240.025 197.007 248.655 192.285 248.922 181.957C249.19 171.63 243.747 154.347 241.712 149.393C239.676 144.438 233.001 141.461 233.001 141.461C223.987 137.192 186.619 127.783 180.292 128.83C173.965 129.877 168.429 139.484 167.138 153.521C165.848 167.559 170.628 176.817 185.003 185.377Z" fill="#2E353A" stroke="#2E353A" stroke-width="1.27267" stroke-linecap="round" stroke-linejoin="round"/>
<path d="M379.309 207.73C379.309 207.73 383.008 213.371 385.648 209.358C388.288 205.346 422.341 167.152 422.341 167.152C422.341 167.152 423.667 166.803 423.353 169.478C423.039 172.153 387.392 220.012 386.066 222.349C384.741 224.687 379.088 225.397 377.762 224.408C376.437 223.419 379.309 207.73 379.309 207.73Z" fill="white" stroke="#2E353A" stroke-width="1.27267" stroke-linecap="round" stroke-linejoin="round"/>
<path d="M420.015 168.49C421.961 165.025 423.716 161.457 425.272 157.801C428.877 149.788 431.087 134.122 431.669 117.793C432.25 101.464 432.832 91.8112 435.844 94.7885C438.856 97.7659 436.274 113.781 435.716 126.423C435.158 139.065 431.227 151.765 430.273 158.441C429.552 163.477 425.691 171.455 423.027 171.467C420.364 171.478 420.701 170.816 420.015 168.49Z" fill="#2E353A" stroke="#2E353A" stroke-width="1.27267" stroke-linecap="round" stroke-linejoin="round"/>
<path d="M200.273 377.253L214.916 393.826L193.144 388.918L38.2285 294.143L45.3695 282.478L200.273 377.253Z" fill="white" stroke="#2E353A" stroke-width="1.4364" stroke-linecap="round" stroke-linejoin="round"/>
<g style="mix-blend-mode:multiply" opacity="0.5">
<path d="M200.273 377.253L214.916 393.826L193.144 388.918L38.2285 294.143L45.3695 282.478L200.273 377.253Z" fill="#02A4FF"/>
<path d="M200.273 377.253L214.916 393.826L193.144 388.918L38.2285 294.143L45.3695 282.478L200.273 377.253Z" stroke="#2E353A" stroke-width="1.4364" stroke-linecap="round" stroke-linejoin="round"/>
</g>
<path d="M43.7477 285.133L39.8569 291.492L194.768 386.273L198.659 379.914L43.7477 285.133Z" stroke="#2E353A" stroke-width="0.718198" stroke-linecap="round" stroke-linejoin="round"/>
<path d="M200.308 377.288L193.178 388.93L214.915 393.826L200.308 377.288Z" fill="white" stroke="#2E353A" stroke-width="1.4364" stroke-linecap="round" stroke-linejoin="round"/>
<path d="M204.041 391.372L214.916 393.826L207.612 385.557L204.041 391.372Z" fill="#02A4FF" stroke="#2E353A" stroke-width="1.4364" stroke-linecap="round" stroke-linejoin="round"/>
<path d="M24.4582 277.698C23.9884 278.463 23.6741 279.313 23.5333 280.199C23.3924 281.086 23.4278 281.991 23.6374 282.864C23.847 283.737 24.2266 284.56 24.7546 285.286C25.2826 286.012 25.9486 286.627 26.7145 287.095L38.2285 294.143L45.3694 282.513L33.8555 275.465C32.3126 274.517 30.4568 274.22 28.6952 274.638C26.9336 275.057 25.4098 276.157 24.4582 277.698V277.698Z" fill="white" stroke="#2E353A" stroke-width="1.4364" stroke-linecap="round" stroke-linejoin="round"/>
<path d="M24.4582 277.698C23.9884 278.463 23.6741 279.313 23.5333 280.199C23.3924 281.086 23.4278 281.991 23.6374 282.864C23.847 283.737 24.2266 284.56 24.7546 285.286C25.2826 286.012 25.9486 286.627 26.7145 287.095L32.2272 290.468L39.3682 278.837L33.8555 275.465C32.3126 274.517 30.4568 274.22 28.6952 274.638C26.9336 275.057 25.4098 276.157 24.4582 277.698V277.698Z" fill="#2E353A" stroke="#2E353A" stroke-width="1.4364" stroke-linecap="round" stroke-linejoin="round"/>
<path d="M337.068 222.163L332.986 219.291C332.354 218.847 331.631 218.553 330.87 218.428C330.109 218.303 329.329 218.351 328.59 218.569C324.275 219.826 316.134 223.024 313.808 225.548C310.784 228.665 309.83 234.305 311.284 236.957C312.738 239.609 318.704 242.993 318.704 242.993L343.697 227.781L337.068 222.163Z" fill="white" stroke="#2E353A" stroke-width="0.9473" stroke-miterlimit="10"/>
<g style="mix-blend-mode:multiply" opacity="0.5">
<path d="M337.068 222.163L332.986 219.291C332.354 218.847 331.631 218.553 330.87 218.428C330.109 218.303 329.329 218.351 328.59 218.569C324.275 219.826 316.134 223.024 313.808 225.548C310.784 228.665 309.83 234.305 311.284 236.957C312.738 239.609 318.704 242.993 318.704 242.993L343.697 227.781L337.068 222.163Z" fill="#02A4FF"/>
<path d="M337.068 222.163L332.986 219.291C332.354 218.847 331.631 218.553 330.87 218.428C330.109 218.303 329.329 218.351 328.59 218.569C324.275 219.826 316.134 223.024 313.808 225.548C310.784 228.665 309.83 234.305 311.284 236.957C312.738 239.609 318.704 242.993 318.704 242.993L343.697 227.781L337.068 222.163Z" stroke="#2E353A" stroke-width="0.9473" stroke-miterlimit="10"/>
</g>
<path d="M339.615 220.989L319.844 230.025C319.844 230.025 313.156 233.805 315.273 245.377L431.052 330.627C431.052 330.627 435.077 333.558 442.345 331.081C449.614 328.603 457.058 320.032 458.628 312.786C460.198 305.541 455.139 303.261 454.197 302.459C453.255 301.656 343.523 221.849 343.523 221.849C342.363 221.109 340.979 220.804 339.615 220.989V220.989Z" fill="white" stroke="#2E353A" stroke-width="0.9473" stroke-miterlimit="10"/>
<g style="mix-blend-mode:multiply" opacity="0.5">
<path d="M339.615 220.989L319.844 230.025C319.844 230.025 313.156 233.805 315.273 245.377L431.052 330.627C431.052 330.627 435.077 333.558 442.345 331.081C449.614 328.603 457.058 320.032 458.628 312.786C460.198 305.541 455.139 303.261 454.197 302.459C453.255 301.656 343.523 221.849 343.523 221.849C342.363 221.109 340.979 220.804 339.615 220.989V220.989Z" fill="#02A4FF"/>
<path d="M339.615 220.989L319.844 230.025C319.844 230.025 313.156 233.805 315.273 245.377L431.052 330.627C431.052 330.627 435.077 333.558 442.345 331.081C449.614 328.603 457.058 320.032 458.628 312.786C460.198 305.541 455.139 303.261 454.197 302.459C453.255 301.656 343.523 221.849 343.523 221.849C342.363 221.109 340.979 220.804 339.615 220.989V220.989Z" stroke="#2E353A" stroke-width="0.9473" stroke-miterlimit="10"/>
</g>
<path d="M450.835 325.068C443.543 331.871 434.716 334.267 431.064 330.406C427.412 326.545 430.424 317.88 437.716 311.065C445.009 304.25 453.836 301.865 457.488 305.727C461.14 309.588 458.116 318.252 450.835 325.068Z" fill="white" stroke="#2E353A" stroke-width="0.9473" stroke-miterlimit="10"/>
<g style="mix-blend-mode:multiply">
<path d="M450.835 325.068C443.543 331.871 434.716 334.267 431.064 330.406C427.412 326.545 430.424 317.88 437.716 311.065C445.009 304.25 453.836 301.865 457.488 305.727C461.14 309.588 458.116 318.252 450.835 325.068Z" fill="#02A4FF"/>
<path d="M450.835 325.068C443.543 331.871 434.716 334.267 431.064 330.406C427.412 326.545 430.424 317.88 437.716 311.065C445.009 304.25 453.836 301.865 457.488 305.727C461.14 309.588 458.116 318.252 450.835 325.068Z" stroke="#2E353A" stroke-width="0.9473" stroke-miterlimit="10"/>
</g>
<path d="M343.511 221.849C342.355 221.112 340.975 220.807 339.615 220.988L319.844 230.025C319.844 230.025 313.156 233.805 315.273 245.377L395.336 304.331C394.766 301.609 394.871 297.632 397.929 292.91C400.767 288.502 413.514 281.396 420.399 277.791C387.811 254.077 343.511 221.849 343.511 221.849Z" fill="#2E353A" stroke="#2E353A" stroke-width="1.27267" stroke-linecap="round" stroke-linejoin="round"/>
<path d="M435.379 310.856L393.091 280.21C392.458 279.752 391.951 279.142 391.616 278.436C391.281 277.731 391.129 276.952 391.174 276.172C391.219 275.392 391.46 274.636 391.875 273.974C392.289 273.312 392.863 272.765 393.545 272.383L400.093 268.812C400.861 268.396 401.731 268.205 402.603 268.26C403.475 268.316 404.314 268.616 405.024 269.126L449.73 301.505" fill="white"/>
<path d="M435.379 310.856L393.091 280.21C392.458 279.752 391.951 279.142 391.616 278.436C391.281 277.731 391.129 276.952 391.174 276.172C391.219 275.392 391.46 274.636 391.875 273.974C392.289 273.312 392.863 272.765 393.545 272.383L400.093 268.812C400.861 268.396 401.731 268.205 402.603 268.26C403.475 268.316 404.314 268.616 405.024 269.126L449.73 301.505" stroke="#2E353A" stroke-width="0.9473" stroke-miterlimit="10"/>
<g style="mix-blend-mode:multiply" opacity="0.5">
<path d="M435.379 310.856L393.091 280.21C392.458 279.752 391.951 279.142 391.616 278.436C391.281 277.731 391.129 276.952 391.174 276.172C391.219 275.392 391.46 274.636 391.875 273.974C392.289 273.312 392.863 272.765 393.545 272.383L400.093 268.812C400.861 268.396 401.731 268.205 402.603 268.26C403.475 268.316 404.314 268.616 405.024 269.126L449.73 301.505" fill="#02A4FF"/>
<path d="M435.379 310.856L393.091 280.21C392.458 279.752 391.951 279.142 391.616 278.436C391.281 277.731 391.129 276.952 391.174 276.172C391.219 275.392 391.46 274.636 391.875 273.974C392.289 273.312 392.863 272.765 393.545 272.383L400.093 268.812C400.861 268.396 401.731 268.205 402.603 268.26C403.475 268.316 404.314 268.616 405.024 269.126L449.73 301.505" stroke="#2E353A" stroke-width="0.9473" stroke-miterlimit="10"/>
</g>
</svg>
