<svg width="393" height="383" viewBox="0 0 393 383" fill="none" xmlns="http://www.w3.org/2000/svg">
<path d="M311.11 24.4186C311.168 24.4186 312.905 19.8414 312.983 19.5698C313.865 16.0496 313.487 8.72804 310.072 6.5849C309.488 6.25488 308.843 6.04927 308.176 5.98103C307.509 5.91279 306.836 5.9834 306.198 6.18841C305.559 6.39342 304.971 6.72838 304.469 7.17216C303.966 7.61594 303.562 8.15892 303.28 8.76683C302.009 11.3464 302.902 14.7696 304.124 17.1939C305.502 19.9868 311.11 24.4089 311.11 24.4186Z" fill="#02A4FF"/>
<path d="M391.611 57.9816C388.769 55.0724 381.54 56.2749 378.29 57.8943C378.009 58.0301 373.866 60.7163 373.924 60.8036L373.982 60.8618C372.847 61.046 371.615 61.2497 370.285 61.5018C367.831 61.9964 365.056 62.5685 362.087 63.4413C358.87 64.2931 355.708 65.3391 352.617 66.5736C349.146 67.9297 345.801 69.5913 342.624 71.5387L342.517 71.6163C343.293 70.7144 345.37 68.1058 345.515 67.8924C347.456 64.8183 349.396 57.7489 346.767 54.636C346.312 54.1391 345.759 53.7423 345.143 53.4709C344.526 53.1994 343.86 53.0592 343.186 53.0592C342.513 53.0592 341.847 53.1994 341.23 53.4709C340.614 53.7423 340.061 54.1391 339.606 54.636C337.598 56.6919 337.375 60.212 337.782 62.8982C338.248 65.9142 341.867 71.4708 342.158 71.9169C338.974 73.9712 335.934 76.2391 333.057 78.7051C331.369 80.1404 329.719 81.6144 328.08 83.1466C328.72 82.3417 329.293 81.6241 329.36 81.5077C331.301 78.4336 333.241 71.3641 330.622 68.2513C330.167 67.7544 329.614 67.3576 328.998 67.0861C328.381 66.8146 327.715 66.6744 327.042 66.6744C326.368 66.6744 325.702 66.8146 325.085 67.0861C324.469 67.3576 323.916 67.7544 323.461 68.2513C321.453 70.3071 321.23 73.837 321.637 76.5135C322.045 79.19 325.043 84.0291 325.848 85.2412L323.985 86.9965C321.007 89.8281 318.047 92.6695 315.059 95.3654C314.011 96.3352 312.934 97.2176 311.867 98.1195C312.439 97.4019 312.915 96.8006 312.983 96.7037C314.923 93.6296 316.864 86.5601 314.234 83.4375C313.783 82.9376 313.233 82.537 312.618 82.2613C312.004 81.9857 311.338 81.841 310.665 81.8364C309.991 81.8318 309.324 81.9675 308.706 82.2349C308.088 82.5022 307.532 82.8952 307.074 83.389C305.075 85.4449 304.842 88.9748 305.25 91.6513C305.657 94.3278 308.374 98.7013 309.325 100.204C308.209 101.097 307.084 101.989 305.958 102.803C305.172 103.337 304.454 103.909 303.639 104.403L301.272 105.916C299.729 106.818 298.148 107.759 296.624 108.612C295.567 109.204 294.548 109.747 293.529 110.309C294.587 109.339 296.615 107.497 296.77 107.322C298.777 104.834 300.113 101.872 300.651 98.7207C300.888 98.4559 301.096 98.1666 301.272 97.8577C301.627 97.2858 301.858 96.6465 301.952 95.9803C302.046 95.3141 302.001 94.6357 301.818 93.9881C301.636 93.3405 301.32 92.7379 300.892 92.2187C300.464 91.6996 299.932 91.2752 299.331 90.9725C296.527 89.6827 292.219 91.5155 289.231 93.6393C289.357 91.5737 289.299 90.3033 289.299 90.3033L288.513 90.3809L289.086 89.0136C289.474 88.1602 289.765 87.2098 290.104 86.2983C290.861 84.1648 291.521 81.9635 292.142 79.7428C293.549 80.4216 298.565 82.7975 301.291 82.8945C304.018 82.9914 307.481 82.3708 309.296 80.1404C309.735 79.6294 310.063 79.0325 310.259 78.3878C310.454 77.7431 310.513 77.0647 310.432 76.3959C310.351 75.7271 310.131 75.0826 309.787 74.5034C309.442 73.9243 308.981 73.4232 308.432 73.0321C305.036 70.8017 298.225 73.5267 295.392 75.7959C295.217 75.9413 293.364 77.8033 292.375 78.8409C292.734 77.5026 293.102 76.1644 293.423 74.7874C294.344 70.8405 295.159 66.8063 295.994 62.7916C296.246 61.56 296.518 60.3381 296.78 59.1065C297.274 59.3587 303.183 62.3067 306.23 62.4134C308.946 62.5103 312.42 61.8897 314.234 59.6593C314.672 59.1485 314.999 58.5523 315.193 57.9086C315.388 57.2648 315.447 56.5877 315.365 55.9201C315.284 55.2525 315.065 54.6091 314.722 54.0308C314.378 53.4524 313.918 52.9518 313.371 52.5607C309.975 50.3206 303.164 53.0456 300.331 55.3245C300.117 55.4894 297.42 58.1659 296.828 58.8835C297.401 56.1876 298.012 53.5014 298.71 50.8734C299.637 47.3289 300.797 43.8495 302.184 40.4583C302.417 40.5746 308.568 43.6778 311.692 43.7845C314.399 43.8912 317.882 43.2608 319.697 41.0304C320.134 40.519 320.46 39.9223 320.654 39.2782C320.848 38.6341 320.906 37.9567 320.823 37.289C320.741 36.6214 320.521 35.9782 320.177 35.4002C319.833 34.8222 319.372 34.3222 318.824 33.9319C315.428 31.6917 308.626 34.4167 305.793 36.6957C305.57 36.8702 302.718 39.7504 302.232 40.3128C302.32 40.1189 302.378 39.9055 302.465 39.7116C303.939 36.3262 305.715 33.0806 307.772 30.0141C308.888 28.317 310.043 26.746 311.207 25.2526C312.294 25.9508 317.291 29.0734 320.095 29.4904C322.899 29.9074 326.304 29.6359 328.351 27.6285C328.843 27.1682 329.233 26.6105 329.497 25.9911C329.762 25.3717 329.894 24.7042 329.886 24.0309C329.877 23.3576 329.729 22.6935 329.45 22.0807C329.171 21.4679 328.767 20.92 328.264 20.4718C325.14 17.8728 318.076 19.8414 315.011 21.7906C314.846 21.8876 313.264 23.158 312.1 24.0889C312.633 23.4295 313.167 22.7313 313.691 22.1009C315.631 19.7348 317.572 17.6886 319.338 15.8945C320.308 14.9248 321.278 13.9551 322.122 13.1502C323.549 13.2762 329.283 13.7126 331.912 12.8107C334.542 11.9089 337.501 10.0858 338.384 7.35107C338.608 6.71669 338.698 6.04255 338.648 5.37155C338.597 4.70055 338.408 4.04737 338.091 3.45357C337.775 2.85978 337.338 2.33836 336.808 1.92249C336.279 1.50662 335.669 1.2054 335.017 1.038C331.039 0.174929 325.674 5.17883 323.849 8.31112C323.694 8.58265 321.725 13.1114 321.793 13.1599H321.88C321.026 13.9357 320.124 14.789 319.153 15.7297C317.368 17.4946 315.379 19.502 313.332 21.8391C311.124 24.3289 309.064 26.9452 307.161 29.6747C305.017 32.7354 303.15 35.9807 301.582 39.3722L301.524 39.4982C301.679 38.3151 301.98 34.9986 301.97 34.7368C301.893 31.1099 299.603 24.1471 295.703 22.9834C295.052 22.814 294.373 22.7815 293.709 22.8882C293.045 22.9949 292.411 23.2383 291.846 23.603C291.282 23.9678 290.799 24.4458 290.429 25.0069C290.059 25.568 289.81 26.1999 289.697 26.8624C289.163 29.6747 290.919 32.7391 292.743 34.7562C294.791 37.0254 300.884 39.6049 301.369 39.8667C299.849 43.3309 298.569 46.895 297.536 50.534C296.915 52.6577 296.362 54.8105 295.829 56.9828C295.926 55.9548 296.003 55.0433 295.994 54.9075C295.916 51.2807 293.626 44.3179 289.726 43.1542C289.076 42.9863 288.398 42.955 287.735 43.0624C287.073 43.1698 286.44 43.4135 285.876 43.7781C285.312 44.1427 284.831 44.6203 284.461 45.1806C284.092 45.7409 283.843 46.3717 283.73 47.0332C283.186 49.8454 284.952 52.9098 286.767 54.9269C288.581 56.944 293.762 59.3102 295.13 59.9211C294.936 60.7551 294.732 61.5794 294.538 62.4134C293.617 66.4184 292.724 70.4235 291.715 74.3122C291.366 75.6892 290.968 77.0275 290.58 78.3657C290.657 77.4639 290.716 76.6881 290.716 76.5717C290.638 72.9448 288.348 65.982 284.448 64.8183C283.798 64.6504 283.12 64.6192 282.457 64.7266C281.795 64.834 281.161 65.0777 280.598 65.4423C280.034 65.8069 279.552 66.2845 279.183 66.8448C278.814 67.4051 278.565 68.0359 278.452 68.6973C277.908 71.5193 279.664 74.5837 281.489 76.6008C283.313 78.6179 287.979 80.7513 289.6 81.4495C289.163 82.8169 288.717 84.1745 288.222 85.474C287.873 86.3565 287.591 87.2292 287.184 88.0923L286.068 90.5943C285.205 90.7397 284.205 90.9337 283.089 91.1858C282.798 87.5299 281.43 83.069 278.646 81.7501C278.026 81.4839 277.357 81.3498 276.683 81.3564C276.008 81.363 275.342 81.5102 274.728 81.7885C274.113 82.0669 273.563 82.4703 273.114 82.9729C272.664 83.4756 272.324 84.0665 272.116 84.7079C271.146 87.4135 272.436 90.7106 273.93 92.9701C274.149 93.3132 274.395 93.6376 274.668 93.9399C269.899 95.8836 265.612 98.842 262.103 102.609C252.042 113.859 252.798 130.945 252.798 130.945C252.798 130.945 267.071 129.976 277.21 121.248C280.324 119.774 284.351 117.815 288.959 115.342C290.686 114.431 292.511 113.403 294.373 112.346C294.868 112.957 298.875 117.922 301.543 119.27C303.969 120.501 307.365 121.384 309.965 120.123C310.574 119.842 311.118 119.439 311.564 118.937C312.009 118.436 312.345 117.847 312.551 117.209C312.757 116.572 312.828 115.898 312.761 115.231C312.693 114.564 312.488 113.918 312.158 113.335C310.014 109.883 302.688 109.514 299.166 110.426C298.963 110.484 296.77 111.298 295.392 111.832C296.149 111.395 296.896 110.978 297.672 110.513C299.215 109.611 300.729 108.67 302.359 107.662L304.697 106.101C305.483 105.596 306.259 104.966 307.045 104.394C308.849 103.036 310.615 101.562 312.362 100.049C313.157 101.397 316.039 106.139 318.251 107.72C320.463 109.301 323.704 110.697 326.45 109.844C327.098 109.659 327.7 109.341 328.218 108.91C328.737 108.479 329.159 107.945 329.46 107.342C329.76 106.739 329.931 106.08 329.963 105.407C329.994 104.734 329.885 104.062 329.642 103.434C328.051 99.7002 320.861 98.2165 317.252 98.585C317.019 98.585 314.457 99.1377 313.051 99.4578C314.089 98.5365 315.137 97.6152 316.165 96.6552C319.076 93.8623 321.987 90.9531 324.897 88.0632C325.79 87.171 326.692 86.2983 327.585 85.4255C327.857 85.9007 331.165 91.6222 333.649 93.3968C335.851 94.9775 339.102 96.3642 341.838 95.5109C342.486 95.3267 343.088 95.0097 343.606 94.5801C344.125 94.1505 344.548 93.6177 344.849 93.0156C345.151 92.4136 345.323 91.7554 345.356 91.0831C345.389 90.4108 345.281 89.739 345.04 89.1105C343.439 85.3673 336.307 83.8933 332.64 84.2618C332.368 84.2618 328.681 85.057 327.789 85.2994C329.729 83.3599 331.747 81.4204 333.775 79.6652C336.509 77.2168 339.4 74.9492 342.43 72.877C342.556 73.1 345.981 79.0833 348.523 80.8968C350.725 82.4775 353.976 83.8739 356.712 83.0108C357.359 82.8266 357.962 82.5096 358.48 82.08C358.999 81.6504 359.422 81.1176 359.723 80.5156C360.024 79.9135 360.197 79.2554 360.23 78.5831C360.262 77.9107 360.155 77.239 359.913 76.6105C358.313 72.8673 351.133 71.3932 347.514 71.7617C347.232 71.7617 343.264 72.6248 342.546 72.8285C342.73 72.7024 342.895 72.5666 343.07 72.4503C346.164 70.4557 349.431 68.7421 352.831 67.33C354.694 66.5251 356.518 65.856 358.313 65.2547C358.837 66.4281 361.282 71.7908 363.397 73.6818C365.512 75.5729 368.49 77.2311 371.304 76.6881C371.969 76.5757 372.603 76.326 373.166 75.9549C373.729 75.5838 374.209 75.0995 374.574 74.5328C374.939 73.9661 375.182 73.3295 375.287 72.6637C375.393 71.9979 375.358 71.3175 375.185 70.6659C374.001 66.7869 367.025 64.5177 363.397 64.4595C363.193 64.4595 361.185 64.6341 359.719 64.7989C360.534 64.5371 361.369 64.2462 362.155 64.0135C365.065 63.1213 367.85 62.491 370.295 61.9479C371.683 61.6473 372.944 61.4048 374.176 61.2012C375.292 62.0837 379.842 65.6135 382.53 66.3118C385.218 67.01 388.691 67.1166 390.942 65.342C391.517 64.9372 391.997 64.4122 392.349 63.8035C392.701 63.1947 392.916 62.5168 392.98 61.8166C393.044 61.1164 392.954 60.4108 392.718 59.7486C392.482 59.0864 392.104 58.4834 391.611 57.9816V57.9816ZM287.892 113.151C285.777 114.227 283.778 115.206 281.935 116.06C285.057 111.534 287.201 106.409 288.232 101.009C288.785 101.145 289.348 101.261 289.91 101.368C290.075 104.423 292.511 109.853 292.821 110.552C291.133 111.483 289.474 112.394 287.892 113.151Z" fill="#02A4FF"/>
<path d="M362.96 61.2982C365.638 58.8448 369.373 52.5705 367.675 48.8467C367.373 48.2458 366.948 47.7145 366.429 47.2866C365.909 46.8587 365.306 46.5435 364.658 46.3611C364.01 46.1787 363.332 46.133 362.665 46.227C361.999 46.321 361.359 46.5527 360.787 46.9072C358.313 48.3618 357.158 51.6977 356.848 54.3936C356.479 57.555 358.71 64.3336 358.71 64.3336C358.71 64.3336 362.737 61.5116 362.96 61.2982Z" fill="#02A4FF"/>
<path d="M245.463 31.1199C245.463 31.1199 224.749 52.1246 224.642 78.1527C224.535 104.181 245.017 125.35 245.017 125.35C245.017 125.35 265.751 104.346 265.838 78.3272C265.926 52.3089 245.463 31.1199 245.463 31.1199Z" fill="#02A4FF"/>
<path d="M199.93 90.6426C199.93 90.6426 199.803 107.749 210.272 118.62C220.741 129.491 237.837 130.014 237.837 130.014C237.837 130.014 237.973 112.908 227.504 102.037C217.035 91.1662 199.93 90.6426 199.93 90.6426Z" fill="#02A4FF"/>
<g opacity="0.5">
<path opacity="0.5" d="M311.11 24.4186C311.168 24.4186 312.905 19.8414 312.983 19.5698C313.865 16.0496 313.487 8.72804 310.072 6.5849C309.488 6.25488 308.843 6.04927 308.176 5.98103C307.509 5.91279 306.836 5.9834 306.198 6.18841C305.559 6.39342 304.971 6.72838 304.469 7.17216C303.966 7.61594 303.562 8.15892 303.28 8.76683C302.009 11.3464 302.902 14.7696 304.124 17.1939C305.502 19.9868 311.11 24.4089 311.11 24.4186Z" fill="white"/>
<path opacity="0.5" d="M391.611 57.9816C388.769 55.0724 381.54 56.2749 378.29 57.8943C378.009 58.0301 373.866 60.7163 373.924 60.8036L373.982 60.8618C372.847 61.046 371.615 61.2497 370.285 61.5018C367.831 61.9964 365.056 62.5685 362.087 63.4413C358.87 64.2931 355.708 65.3391 352.617 66.5736C349.146 67.9297 345.801 69.5913 342.624 71.5387L342.517 71.6163C343.293 70.7144 345.37 68.1058 345.515 67.8924C347.456 64.8183 349.396 57.7489 346.767 54.636C346.312 54.1391 345.759 53.7423 345.143 53.4709C344.526 53.1994 343.86 53.0592 343.186 53.0592C342.513 53.0592 341.847 53.1994 341.23 53.4709C340.614 53.7423 340.061 54.1391 339.606 54.636C337.598 56.6919 337.375 60.212 337.782 62.8982C338.248 65.9142 341.867 71.4708 342.158 71.9169C338.974 73.9712 335.934 76.2391 333.057 78.7051C331.369 80.1404 329.719 81.6144 328.08 83.1466C328.72 82.3417 329.293 81.6241 329.36 81.5077C331.301 78.4336 333.241 71.3641 330.622 68.2513C330.167 67.7544 329.614 67.3576 328.998 67.0861C328.381 66.8146 327.715 66.6744 327.042 66.6744C326.368 66.6744 325.702 66.8146 325.085 67.0861C324.469 67.3576 323.916 67.7544 323.461 68.2513C321.453 70.3071 321.23 73.837 321.637 76.5135C322.045 79.19 325.043 84.0291 325.848 85.2412L323.985 86.9965C321.007 89.8281 318.047 92.6695 315.059 95.3654C314.011 96.3352 312.934 97.2176 311.867 98.1195C312.439 97.4019 312.915 96.8006 312.983 96.7037C314.923 93.6296 316.864 86.5601 314.234 83.4375C313.783 82.9376 313.233 82.537 312.618 82.2613C312.004 81.9857 311.338 81.841 310.665 81.8364C309.991 81.8318 309.324 81.9675 308.706 82.2349C308.088 82.5022 307.532 82.8952 307.074 83.389C305.075 85.4449 304.842 88.9748 305.25 91.6513C305.657 94.3278 308.374 98.7013 309.325 100.204C308.209 101.097 307.084 101.989 305.958 102.803C305.172 103.337 304.454 103.909 303.639 104.403L301.272 105.916C299.729 106.818 298.148 107.759 296.624 108.612C295.567 109.204 294.548 109.747 293.529 110.309C294.587 109.339 296.615 107.497 296.77 107.322C298.777 104.834 300.113 101.872 300.651 98.7207C300.888 98.4559 301.096 98.1666 301.272 97.8577C301.627 97.2858 301.858 96.6465 301.952 95.9803C302.046 95.3141 302.001 94.6357 301.818 93.9881C301.636 93.3405 301.32 92.7379 300.892 92.2187C300.464 91.6996 299.932 91.2752 299.331 90.9725C296.527 89.6827 292.219 91.5155 289.231 93.6393C289.357 91.5737 289.299 90.3033 289.299 90.3033L288.513 90.3809L289.086 89.0136C289.474 88.1602 289.765 87.2098 290.104 86.2983C290.861 84.1648 291.521 81.9635 292.142 79.7428C293.549 80.4216 298.565 82.7975 301.291 82.8945C304.018 82.9914 307.481 82.3708 309.296 80.1404C309.735 79.6294 310.063 79.0325 310.259 78.3878C310.454 77.7431 310.513 77.0647 310.432 76.3959C310.351 75.7271 310.131 75.0826 309.787 74.5034C309.442 73.9243 308.981 73.4232 308.432 73.0321C305.036 70.8017 298.225 73.5267 295.392 75.7959C295.217 75.9413 293.364 77.8033 292.375 78.8409C292.734 77.5026 293.102 76.1644 293.423 74.7874C294.344 70.8405 295.159 66.8063 295.994 62.7916C296.246 61.56 296.518 60.3381 296.78 59.1065C297.274 59.3587 303.183 62.3067 306.23 62.4134C308.946 62.5103 312.42 61.8897 314.234 59.6593C314.672 59.1485 314.999 58.5523 315.193 57.9086C315.388 57.2648 315.447 56.5877 315.365 55.9201C315.284 55.2525 315.065 54.6091 314.722 54.0308C314.378 53.4524 313.918 52.9518 313.371 52.5607C309.975 50.3206 303.164 53.0456 300.331 55.3245C300.117 55.4894 297.42 58.1659 296.828 58.8835C297.401 56.1876 298.012 53.5014 298.71 50.8734C299.637 47.3289 300.797 43.8495 302.184 40.4583C302.417 40.5746 308.568 43.6778 311.692 43.7845C314.399 43.8912 317.882 43.2608 319.697 41.0304C320.134 40.519 320.46 39.9223 320.654 39.2782C320.848 38.6341 320.906 37.9567 320.823 37.289C320.741 36.6214 320.521 35.9782 320.177 35.4002C319.833 34.8222 319.372 34.3222 318.824 33.9319C315.428 31.6917 308.626 34.4167 305.793 36.6957C305.57 36.8702 302.718 39.7504 302.232 40.3128C302.32 40.1189 302.378 39.9055 302.465 39.7116C303.939 36.3262 305.715 33.0806 307.772 30.0141C308.888 28.317 310.043 26.746 311.207 25.2526C312.294 25.9508 317.291 29.0734 320.095 29.4904C322.899 29.9074 326.304 29.6359 328.351 27.6285C328.843 27.1682 329.233 26.6105 329.497 25.9911C329.762 25.3717 329.894 24.7042 329.886 24.0309C329.877 23.3576 329.729 22.6935 329.45 22.0807C329.171 21.4679 328.767 20.92 328.264 20.4718C325.14 17.8728 318.076 19.8414 315.011 21.7906C314.846 21.8876 313.264 23.158 312.1 24.0889C312.633 23.4295 313.167 22.7313 313.691 22.1009C315.631 19.7348 317.572 17.6886 319.338 15.8945C320.308 14.9248 321.278 13.9551 322.122 13.1502C323.549 13.2762 329.283 13.7126 331.912 12.8107C334.542 11.9089 337.501 10.0858 338.384 7.35107C338.608 6.71669 338.698 6.04255 338.648 5.37155C338.597 4.70055 338.408 4.04737 338.091 3.45357C337.775 2.85978 337.338 2.33836 336.808 1.92249C336.279 1.50662 335.669 1.2054 335.017 1.038C331.039 0.174929 325.674 5.17883 323.849 8.31112C323.694 8.58265 321.725 13.1114 321.793 13.1599H321.88C321.026 13.9357 320.124 14.789 319.153 15.7297C317.368 17.4946 315.379 19.502 313.332 21.8391C311.124 24.3289 309.064 26.9452 307.161 29.6747C305.017 32.7354 303.15 35.9807 301.582 39.3722L301.524 39.4982C301.679 38.3151 301.98 34.9986 301.97 34.7368C301.893 31.1099 299.603 24.1471 295.703 22.9834C295.052 22.814 294.373 22.7815 293.709 22.8882C293.045 22.9949 292.411 23.2383 291.846 23.603C291.282 23.9678 290.799 24.4458 290.429 25.0069C290.059 25.568 289.81 26.1999 289.697 26.8624C289.163 29.6747 290.919 32.7391 292.743 34.7562C294.791 37.0254 300.884 39.6049 301.369 39.8667C299.849 43.3309 298.569 46.895 297.536 50.534C296.915 52.6577 296.362 54.8105 295.829 56.9828C295.926 55.9548 296.003 55.0433 295.994 54.9075C295.916 51.2807 293.626 44.3179 289.726 43.1542C289.076 42.9863 288.398 42.955 287.735 43.0624C287.073 43.1698 286.44 43.4135 285.876 43.7781C285.312 44.1427 284.831 44.6203 284.461 45.1806C284.092 45.7409 283.843 46.3717 283.73 47.0332C283.186 49.8454 284.952 52.9098 286.767 54.9269C288.581 56.944 293.762 59.3102 295.13 59.9211C294.936 60.7551 294.732 61.5794 294.538 62.4134C293.617 66.4184 292.724 70.4235 291.715 74.3122C291.366 75.6892 290.968 77.0275 290.58 78.3657C290.657 77.4639 290.716 76.6881 290.716 76.5717C290.638 72.9448 288.348 65.982 284.448 64.8183C283.798 64.6504 283.12 64.6192 282.457 64.7266C281.795 64.834 281.161 65.0777 280.598 65.4423C280.034 65.8069 279.552 66.2845 279.183 66.8448C278.814 67.4051 278.565 68.0359 278.452 68.6973C277.908 71.5193 279.664 74.5837 281.489 76.6008C283.313 78.6179 287.979 80.7513 289.6 81.4495C289.163 82.8169 288.717 84.1745 288.222 85.474C287.873 86.3565 287.591 87.2292 287.184 88.0923L286.068 90.5943C285.205 90.7397 284.205 90.9337 283.089 91.1858C282.798 87.5299 281.43 83.069 278.646 81.7501C278.026 81.4839 277.357 81.3498 276.683 81.3564C276.008 81.363 275.342 81.5102 274.728 81.7885C274.113 82.0669 273.563 82.4703 273.114 82.9729C272.664 83.4756 272.324 84.0665 272.116 84.7079C271.146 87.4135 272.436 90.7106 273.93 92.9701C274.149 93.3132 274.395 93.6376 274.668 93.9399C269.899 95.8836 265.612 98.842 262.103 102.609C252.042 113.859 252.798 130.945 252.798 130.945C252.798 130.945 267.071 129.976 277.21 121.248C280.324 119.774 284.351 117.815 288.959 115.342C290.686 114.431 292.511 113.403 294.373 112.346C294.868 112.957 298.875 117.922 301.543 119.27C303.969 120.501 307.365 121.384 309.965 120.123C310.574 119.842 311.118 119.439 311.564 118.937C312.009 118.436 312.345 117.847 312.551 117.209C312.757 116.572 312.828 115.898 312.761 115.231C312.693 114.564 312.488 113.918 312.158 113.335C310.014 109.883 302.688 109.514 299.166 110.426C298.963 110.484 296.77 111.298 295.392 111.832C296.149 111.395 296.896 110.978 297.672 110.513C299.215 109.611 300.729 108.67 302.359 107.662L304.697 106.101C305.483 105.596 306.259 104.966 307.045 104.394C308.849 103.036 310.615 101.562 312.362 100.049C313.157 101.397 316.039 106.139 318.251 107.72C320.463 109.301 323.704 110.697 326.45 109.844C327.098 109.659 327.7 109.341 328.218 108.91C328.737 108.479 329.159 107.945 329.46 107.342C329.76 106.739 329.931 106.08 329.963 105.407C329.994 104.734 329.885 104.062 329.642 103.434C328.051 99.7002 320.861 98.2165 317.252 98.585C317.019 98.585 314.457 99.1377 313.051 99.4578C314.089 98.5365 315.137 97.6152 316.165 96.6552C319.076 93.8623 321.987 90.9531 324.897 88.0632C325.79 87.171 326.692 86.2983 327.585 85.4255C327.857 85.9007 331.165 91.6222 333.649 93.3968C335.851 94.9775 339.102 96.3642 341.838 95.5109C342.486 95.3267 343.088 95.0097 343.606 94.5801C344.125 94.1505 344.548 93.6177 344.849 93.0156C345.151 92.4136 345.323 91.7554 345.356 91.0831C345.389 90.4108 345.281 89.739 345.04 89.1105C343.439 85.3673 336.307 83.8933 332.64 84.2618C332.368 84.2618 328.681 85.057 327.789 85.2994C329.729 83.3599 331.747 81.4204 333.775 79.6652C336.509 77.2168 339.4 74.9492 342.43 72.877C342.556 73.1 345.981 79.0833 348.523 80.8968C350.725 82.4775 353.976 83.8739 356.712 83.0108C357.359 82.8266 357.962 82.5096 358.48 82.08C358.999 81.6504 359.422 81.1176 359.723 80.5156C360.024 79.9135 360.197 79.2554 360.23 78.5831C360.262 77.9107 360.155 77.239 359.913 76.6105C358.313 72.8673 351.133 71.3932 347.514 71.7617C347.232 71.7617 343.264 72.6248 342.546 72.8285C342.73 72.7024 342.895 72.5666 343.07 72.4503C346.164 70.4557 349.431 68.7421 352.831 67.33C354.694 66.5251 356.518 65.856 358.313 65.2547C358.837 66.4281 361.282 71.7908 363.397 73.6818C365.512 75.5729 368.49 77.2311 371.304 76.6881C371.969 76.5757 372.603 76.326 373.166 75.9549C373.729 75.5838 374.209 75.0995 374.574 74.5328C374.939 73.9661 375.182 73.3295 375.287 72.6637C375.393 71.9979 375.358 71.3175 375.185 70.6659C374.001 66.7869 367.025 64.5177 363.397 64.4595C363.193 64.4595 361.185 64.6341 359.719 64.7989C360.534 64.5371 361.369 64.2462 362.155 64.0135C365.065 63.1213 367.85 62.491 370.295 61.9479C371.683 61.6473 372.944 61.4048 374.176 61.2012C375.292 62.0837 379.842 65.6135 382.53 66.3118C385.218 67.01 388.691 67.1166 390.942 65.342C391.517 64.9372 391.997 64.4122 392.349 63.8035C392.701 63.1947 392.916 62.5168 392.98 61.8166C393.044 61.1164 392.954 60.4108 392.718 59.7486C392.482 59.0864 392.104 58.4834 391.611 57.9816V57.9816ZM287.892 113.151C285.777 114.227 283.778 115.206 281.935 116.06C285.057 111.534 287.201 106.409 288.232 101.009C288.785 101.145 289.348 101.261 289.91 101.368C290.075 104.423 292.511 109.853 292.821 110.552C291.133 111.483 289.474 112.394 287.892 113.151Z" fill="white"/>
<path opacity="0.5" d="M362.96 61.2982C365.638 58.8448 369.373 52.5705 367.675 48.8467C367.373 48.2458 366.948 47.7145 366.429 47.2866C365.909 46.8587 365.306 46.5435 364.658 46.3611C364.01 46.1787 363.332 46.133 362.665 46.227C361.999 46.321 361.359 46.5527 360.787 46.9072C358.313 48.3618 357.158 51.6977 356.848 54.3936C356.479 57.555 358.71 64.3336 358.71 64.3336C358.71 64.3336 362.737 61.5116 362.96 61.2982Z" fill="white"/>
<path opacity="0.5" d="M245.463 31.1199C245.463 31.1199 224.749 52.1246 224.642 78.1527C224.535 104.181 245.017 125.35 245.017 125.35C245.017 125.35 265.751 104.346 265.838 78.3272C265.926 52.3089 245.463 31.1199 245.463 31.1199Z" fill="white"/>
<path opacity="0.5" d="M199.93 90.6426C199.93 90.6426 199.803 107.749 210.272 118.62C220.741 129.491 237.837 130.014 237.837 130.014C237.837 130.014 237.973 112.908 227.504 102.037C217.035 91.1662 199.93 90.6426 199.93 90.6426Z" fill="white"/>
</g>
<path d="M258.484 101.737L257.824 100.884L245.638 110.445L245.735 89.4114L262.666 74.4385L261.948 73.6336L245.735 87.9665L245.842 64.8671L257.242 54.9951L256.543 54.1805L245.842 63.4319L245.987 31.1199H244.91L244.697 78.7248L231.288 59.1262L230.395 59.7274L244.609 80.4898L244.697 80.4316L244.609 100.214L228.523 85.7555L227.805 86.5604L244.6 101.659V101.65L244.503 125.35L245.58 125.36L245.638 111.813L258.484 101.737Z" fill="white"/>
<path d="M289.687 90.5457L288.892 89.8281L270.961 109.863L272.591 96.917L271.524 96.7909L269.7 111.26H269.71L262.501 119.318L261.143 107.361L260.075 107.478L261.54 120.395L252.439 130.558L253.245 131.275L258.416 125.505L267.76 126.068L267.818 124.991L259.328 124.477L267.08 115.817L280.091 115.827V114.751L268.041 114.731L276.569 105.208L285.214 105.315L285.234 104.239L277.53 104.142L289.687 90.5457Z" fill="white"/>
<path d="M234.111 114.789L233.044 114.644L231.899 123.071L223.836 114.692L224.826 101.727L223.749 101.649L222.837 113.655L213.959 104.442L214.716 95.8308L213.639 95.7435L212.97 103.414L200.318 90.2742L199.542 91.0209L218.19 110.387L205.402 107.788L205.188 108.845L219.49 111.744V111.725L226.99 119.522L214.959 119.978L214.998 121.054L227.989 120.559L237.449 130.383L238.225 129.636L232.86 124.06L234.111 114.789Z" fill="white"/>
<path d="M241.98 371.967L365.871 325.506L366.763 315.605L243.785 362.056L241.98 371.967Z" fill="#02A4FF" stroke="#2E353A" stroke-width="1.13593" stroke-linecap="round" stroke-linejoin="round"/>
<path d="M221.12 207.73C218.943 207.714 216.839 206.946 215.162 205.558C213.056 203.822 211.673 201.364 211.281 198.663C211.232 198.181 211.371 197.698 211.668 197.315C211.965 196.931 212.398 196.677 212.877 196.603C213.357 196.53 213.846 196.643 214.244 196.92C214.642 197.197 214.919 197.616 215.017 198.091C215.27 199.862 216.172 201.476 217.549 202.62C218.148 203.136 218.852 203.516 219.612 203.734C220.372 203.951 221.17 204.002 221.952 203.881C222.733 203.76 223.479 203.471 224.138 203.034C224.796 202.597 225.352 202.022 225.767 201.349C226.053 200.954 226.481 200.683 226.962 200.596C227.442 200.508 227.938 200.609 228.345 200.879C228.753 201.148 229.04 201.565 229.147 202.041C229.255 202.517 229.173 203.017 228.92 203.434C228.212 204.545 227.276 205.491 226.174 206.212C225.071 206.933 223.828 207.411 222.527 207.614C222.062 207.692 221.591 207.731 221.12 207.73V207.73Z" fill="#2E353A"/>
<path d="M203.238 213.248C198.455 213.248 194.176 209.447 193.371 204.191C193.332 203.946 193.342 203.696 193.4 203.456C193.458 203.215 193.563 202.988 193.709 202.788C193.855 202.588 194.04 202.419 194.251 202.29C194.463 202.161 194.698 202.076 194.943 202.038C195.437 201.973 195.938 202.101 196.341 202.395C196.744 202.689 197.018 203.128 197.106 203.619C197.669 207.313 200.783 209.912 204.034 209.437C204.814 209.31 205.558 209.019 206.217 208.582C206.876 208.146 207.435 207.575 207.856 206.906C208.142 206.51 208.57 206.24 209.051 206.152C209.531 206.064 210.027 206.166 210.435 206.435C210.842 206.705 211.129 207.121 211.237 207.597C211.344 208.074 211.263 208.573 211.01 208.991C210.302 210.101 209.365 211.048 208.263 211.769C207.16 212.489 205.917 212.967 204.616 213.171C204.16 213.234 203.699 213.26 203.238 213.248Z" fill="#2E353A"/>
<path d="M186.88 219.522C184.704 219.508 182.6 218.744 180.922 217.36C178.818 215.622 177.435 213.165 177.041 210.465C176.992 209.983 177.131 209.5 177.428 209.116C177.725 208.733 178.158 208.478 178.637 208.405C179.117 208.331 179.606 208.445 180.004 208.722C180.402 208.999 180.679 209.418 180.777 209.893C181.03 211.664 181.932 213.278 183.309 214.422C183.914 214.928 184.619 215.302 185.378 215.519C186.137 215.737 186.933 215.792 187.714 215.682C188.493 215.555 189.236 215.264 189.893 214.827C190.551 214.391 191.108 213.819 191.527 213.151C191.844 212.844 192.257 212.654 192.697 212.613C193.136 212.572 193.577 212.682 193.946 212.925C194.314 213.168 194.589 213.53 194.725 213.95C194.86 214.37 194.848 214.824 194.69 215.236C193.979 216.346 193.041 217.292 191.937 218.012C190.833 218.733 189.589 219.211 188.287 219.416C187.821 219.49 187.351 219.526 186.88 219.522V219.522Z" fill="#2E353A"/>
<path d="M168.998 224.643C164.215 224.643 159.936 220.831 159.131 215.585C159.081 215.335 159.082 215.077 159.134 214.828C159.187 214.578 159.289 214.341 159.435 214.132C159.581 213.923 159.768 213.746 159.985 213.61C160.201 213.475 160.443 213.386 160.695 213.346C160.947 213.307 161.205 213.319 161.452 213.382C161.699 213.445 161.931 213.557 162.134 213.712C162.337 213.867 162.507 214.061 162.632 214.283C162.758 214.505 162.838 214.75 162.866 215.003C163.439 218.698 166.544 221.297 169.794 220.822C170.573 220.695 171.316 220.404 171.975 219.97C172.634 219.535 173.193 218.966 173.617 218.3C173.744 218.075 173.917 217.878 174.124 217.722C174.331 217.567 174.568 217.455 174.819 217.394C175.071 217.333 175.333 217.325 175.588 217.37C175.844 217.414 176.087 217.511 176.303 217.653C176.52 217.796 176.705 217.981 176.846 218.198C176.988 218.414 177.084 218.658 177.128 218.913C177.171 219.168 177.162 219.43 177.101 219.682C177.039 219.933 176.927 220.169 176.77 220.376C176.06 221.486 175.124 222.433 174.022 223.155C172.92 223.877 171.677 224.357 170.376 224.565C169.919 224.624 169.459 224.65 168.998 224.643Z" fill="#2E353A"/>
<path d="M150.69 231.916C145.916 231.916 141.637 228.114 140.822 222.858C140.852 222.418 141.031 222.001 141.329 221.676C141.628 221.351 142.029 221.137 142.465 221.071C142.902 221.004 143.348 221.088 143.73 221.309C144.112 221.53 144.408 221.875 144.567 222.286C145.13 225.981 148.245 228.57 151.495 228.105C152.275 227.976 153.018 227.684 153.677 227.247C154.336 226.811 154.895 226.241 155.318 225.573C155.604 225.178 156.032 224.907 156.512 224.82C156.993 224.732 157.489 224.833 157.896 225.103C158.303 225.372 158.591 225.789 158.698 226.265C158.805 226.741 158.724 227.241 158.471 227.658C157.761 228.767 156.825 229.713 155.723 230.434C154.62 231.154 153.378 231.633 152.077 231.838C151.617 231.897 151.153 231.923 150.69 231.916Z" fill="#2E353A"/>
<path d="M132.963 238.403C130.787 238.39 128.683 237.626 127.006 236.241C124.902 234.503 123.519 232.045 123.125 229.346C123.076 228.863 123.214 228.381 123.511 227.997C123.808 227.614 124.241 227.359 124.721 227.286C125.2 227.212 125.69 227.326 126.088 227.603C126.486 227.88 126.763 228.299 126.86 228.774C127.113 230.545 128.016 232.159 129.393 233.302C129.991 233.819 130.695 234.199 131.455 234.416C132.215 234.634 133.014 234.684 133.795 234.563C134.577 234.443 135.322 234.154 135.981 233.717C136.64 233.28 137.196 232.705 137.611 232.032C137.928 231.725 138.34 231.535 138.78 231.494C139.22 231.453 139.661 231.563 140.029 231.806C140.398 232.049 140.673 232.41 140.808 232.831C140.943 233.251 140.931 233.705 140.774 234.117C140.063 235.227 139.124 236.173 138.02 236.893C136.917 237.614 135.672 238.092 134.37 238.297C133.905 238.371 133.434 238.407 132.963 238.403Z" fill="#2E353A"/>
<path d="M245.376 365.925L347.902 328.173" stroke="#2E353A" stroke-width="0.567964" stroke-linecap="round" stroke-linejoin="round"/>
<path d="M242.678 369.077L308.325 344.804" stroke="#2E353A" stroke-width="0.567964" stroke-linecap="round" stroke-linejoin="round"/>
<path d="M118.536 234.049V245.754L241.98 371.967L243.785 362.056L118.536 234.049Z" fill="#02A4FF" stroke="#2E353A" stroke-width="1.13593" stroke-linecap="round" stroke-linejoin="round"/>
<path d="M120.369 243.233L193.671 316.488" stroke="#2E353A" stroke-width="0.567964" stroke-linecap="round" stroke-linejoin="round"/>
<path d="M154.998 274.691L231.434 352.892" stroke="#2E353A" stroke-width="0.567964" stroke-linecap="round" stroke-linejoin="round"/>
<path d="M118.536 234.049L243.785 362.056L366.763 315.605L239.302 193.514L118.536 234.049Z" fill="white" stroke="#2E353A" stroke-width="1.13593" stroke-linecap="round" stroke-linejoin="round"/>
<path d="M117.003 232.032L1 123.818L119.826 86.7832L238.39 191.584L117.003 232.032Z" fill="#02A4FF" stroke="#2E353A" stroke-width="1.13593" stroke-linecap="round" stroke-linejoin="round"/>
<path d="M18.7556 124.535L52.7142 113.965" stroke="#2E353A" stroke-width="1.21052" stroke-linecap="round" stroke-linejoin="round"/>
<path d="M23.7715 128.434L57.7301 117.864" stroke="#2E353A" stroke-width="1.21052" stroke-linecap="round" stroke-linejoin="round"/>
<path d="M139.182 234.961C138.813 234.963 138.452 234.855 138.144 234.651C137.735 234.367 137.45 233.937 137.349 233.45C137.248 232.963 137.338 232.455 137.601 232.032C138.57 230.528 138.944 228.716 138.649 226.951C138.484 225.613 137.925 224.354 137.042 223.335C136.159 222.316 134.992 221.583 133.691 221.229C133.221 221.101 132.819 220.796 132.568 220.378C132.318 219.961 132.238 219.463 132.345 218.988C132.453 218.513 132.739 218.098 133.146 217.829C133.552 217.56 134.046 217.458 134.525 217.544C136.567 218.067 138.407 219.187 139.809 220.761C141.21 222.335 142.111 224.291 142.394 226.379C142.837 229.077 142.256 231.844 140.764 234.137C140.585 234.39 140.349 234.598 140.074 234.741C139.798 234.885 139.493 234.96 139.182 234.961Z" fill="#2E353A"/>
<path d="M156.889 228.473C156.52 228.475 156.159 228.367 155.851 228.163C155.643 228.027 155.464 227.851 155.325 227.645C155.186 227.439 155.088 227.208 155.039 226.965C154.989 226.721 154.988 226.471 155.036 226.227C155.084 225.983 155.18 225.751 155.318 225.544C156.283 224.038 156.656 222.228 156.365 220.463C156.201 219.125 155.641 217.866 154.758 216.847C153.875 215.828 152.709 215.095 151.408 214.741C151.154 214.699 150.911 214.606 150.694 214.467C150.478 214.328 150.292 214.146 150.148 213.933C150.004 213.72 149.905 213.479 149.858 213.227C149.81 212.974 149.814 212.714 149.87 212.463C149.927 212.212 150.033 211.975 150.184 211.767C150.335 211.558 150.527 211.383 150.748 211.251C150.969 211.12 151.215 211.035 151.47 211.001C151.725 210.967 151.985 210.986 152.232 211.056C154.274 211.579 156.114 212.7 157.516 214.273C158.917 215.847 159.817 217.803 160.101 219.891C160.544 222.59 159.963 225.356 158.471 227.649C158.292 227.903 158.056 228.11 157.781 228.253C157.505 228.397 157.2 228.472 156.889 228.473V228.473Z" fill="#2E353A"/>
<path d="M227.339 204.288C227.007 204.271 226.684 204.169 226.403 203.992C226.121 203.815 225.89 203.569 225.731 203.277C225.573 202.985 225.492 202.657 225.496 202.324C225.501 201.992 225.591 201.666 225.757 201.379C226.728 199.878 227.102 198.069 226.805 196.307C226.642 194.967 226.084 193.706 225.201 192.686C224.318 191.665 223.15 190.93 221.847 190.576C221.605 190.523 221.376 190.423 221.173 190.281C220.969 190.139 220.797 189.958 220.664 189.749C220.531 189.539 220.441 189.306 220.4 189.061C220.358 188.817 220.365 188.567 220.421 188.326C220.541 187.842 220.843 187.423 221.264 187.156C221.685 186.889 222.193 186.794 222.682 186.891C224.724 187.414 226.563 188.534 227.965 190.107C229.367 191.681 230.267 193.637 230.55 195.725C230.995 198.425 230.41 201.193 228.911 203.483C228.735 203.736 228.5 203.942 228.226 204.082C227.952 204.223 227.647 204.293 227.339 204.288V204.288Z" fill="#2E353A"/>
<path d="M209.428 209.786C209.059 209.788 208.697 209.68 208.39 209.476C208.182 209.34 208.003 209.164 207.864 208.958C207.724 208.752 207.627 208.521 207.577 208.278C207.528 208.034 207.527 207.783 207.575 207.54C207.623 207.296 207.718 207.064 207.856 206.857C208.822 205.351 209.196 203.541 208.904 201.776C208.74 200.438 208.18 199.179 207.297 198.16C206.414 197.141 205.248 196.408 203.946 196.054C203.692 196.012 203.45 195.919 203.233 195.78C203.017 195.641 202.831 195.459 202.687 195.246C202.543 195.033 202.444 194.792 202.396 194.54C202.349 194.287 202.353 194.027 202.409 193.776C202.465 193.525 202.572 193.288 202.723 193.08C202.874 192.871 203.066 192.696 203.287 192.564C203.508 192.433 203.754 192.348 204.009 192.314C204.264 192.28 204.523 192.299 204.771 192.369C206.814 192.89 208.655 194.009 210.057 195.584C211.46 197.158 212.359 199.115 212.64 201.204C213.083 203.902 212.502 206.669 211.01 208.962C210.831 209.216 210.595 209.423 210.319 209.566C210.044 209.71 209.739 209.785 209.428 209.786V209.786Z" fill="#2E353A"/>
<path d="M193.07 216.089C192.7 216.088 192.338 215.977 192.032 215.769C191.622 215.486 191.338 215.056 191.237 214.569C191.135 214.081 191.226 213.574 191.489 213.151C192.463 211.649 192.84 209.836 192.546 208.07C192.382 206.732 191.822 205.473 190.939 204.454C190.056 203.435 188.89 202.702 187.588 202.348C187.334 202.306 187.092 202.213 186.875 202.074C186.659 201.935 186.473 201.753 186.329 201.54C186.185 201.327 186.086 201.086 186.038 200.833C185.99 200.581 185.995 200.321 186.051 200.07C186.107 199.819 186.214 199.582 186.365 199.373C186.516 199.165 186.708 198.99 186.929 198.858C187.15 198.726 187.396 198.641 187.651 198.608C187.906 198.574 188.165 198.593 188.413 198.663C190.455 199.186 192.295 200.306 193.696 201.88C195.098 203.454 195.998 205.41 196.282 207.498C196.725 210.196 196.144 212.963 194.652 215.256C194.474 215.511 194.238 215.72 193.963 215.865C193.687 216.011 193.381 216.087 193.07 216.089V216.089Z" fill="#2E353A"/>
<path d="M175.188 221.2C174.82 221.197 174.459 221.09 174.15 220.89C173.942 220.753 173.763 220.578 173.624 220.372C173.484 220.166 173.387 219.935 173.337 219.692C173.288 219.448 173.287 219.197 173.335 218.954C173.383 218.71 173.478 218.478 173.616 218.271C174.581 216.765 174.955 214.955 174.664 213.19C174.5 211.852 173.94 210.593 173.057 209.574C172.174 208.555 171.008 207.822 169.706 207.468C169.415 207.468 169.128 207.403 168.866 207.278C168.604 207.152 168.373 206.969 168.191 206.742C168.01 206.515 167.881 206.251 167.815 205.968C167.749 205.684 167.748 205.39 167.811 205.107C167.875 204.823 168.001 204.557 168.181 204.329C168.361 204.1 168.59 203.915 168.851 203.787C169.112 203.659 169.399 203.592 169.689 203.589C169.98 203.587 170.268 203.65 170.531 203.774C172.575 204.293 174.416 205.412 175.819 206.986C177.221 208.561 178.12 210.519 178.4 212.608C178.844 215.307 178.263 218.074 176.77 220.366C176.592 220.622 176.356 220.831 176.081 220.976C175.805 221.121 175.499 221.198 175.188 221.2V221.2Z" fill="#2E353A"/>
<path d="M343.089 312.648L347.863 310.892" stroke="#2E353A" stroke-width="0.567964" stroke-linecap="round" stroke-linejoin="round"/>
<path d="M248.849 347.442L338.752 314.257" stroke="#2E353A" stroke-width="0.567964" stroke-linecap="round" stroke-linejoin="round"/>
<path d="M251.372 332.44L337.171 300.768" stroke="#2E353A" stroke-width="0.567964" stroke-linecap="round" stroke-linejoin="round"/>
<path d="M238.157 337.318L245.667 334.544" stroke="#2E353A" stroke-width="0.567964" stroke-linecap="round" stroke-linejoin="round"/>
<path d="M227.465 327.193L326.489 290.644" stroke="#2E353A" stroke-width="0.567964" stroke-linecap="round" stroke-linejoin="round"/>
<path d="M216.783 317.079L315.796 280.529" stroke="#2E353A" stroke-width="0.567964" stroke-linecap="round" stroke-linejoin="round"/>
<path d="M300.952 271.938L305.104 270.405" stroke="#2E353A" stroke-width="0.567964" stroke-linecap="round" stroke-linejoin="round"/>
<path d="M206.091 306.955L295.014 274.129" stroke="#2E353A" stroke-width="0.567964" stroke-linecap="round" stroke-linejoin="round"/>
<path d="M195.398 296.831L294.422 260.281" stroke="#2E353A" stroke-width="0.567964" stroke-linecap="round" stroke-linejoin="round"/>
<path d="M184.707 286.716L283.73 250.167" stroke="#2E353A" stroke-width="0.567964" stroke-linecap="round" stroke-linejoin="round"/>
<path d="M174.024 276.592L273.038 240.042" stroke="#2E353A" stroke-width="0.567964" stroke-linecap="round" stroke-linejoin="round"/>
<path d="M163.332 266.468L262.345 229.918" stroke="#2E353A" stroke-width="0.567964" stroke-linecap="round" stroke-linejoin="round"/>
<path d="M248.151 221.094L251.663 219.794" stroke="#2E353A" stroke-width="0.567964" stroke-linecap="round" stroke-linejoin="round"/>
<path d="M152.64 256.344L245.104 222.218" stroke="#2E353A" stroke-width="0.567964" stroke-linecap="round" stroke-linejoin="round"/>
<path d="M171.511 235.31L240.971 209.679" stroke="#2E353A" stroke-width="0.567964" stroke-linecap="round" stroke-linejoin="round"/>
<path d="M141.958 246.229L161.081 239.169" stroke="#2E353A" stroke-width="0.567964" stroke-linecap="round" stroke-linejoin="round"/>
<g style="mix-blend-mode:multiply">
<path d="M176.304 272.403C186.327 273.712 185.444 256.567 182.902 250.816C181.047 252.94 179.665 255.434 178.847 258.133C178.03 260.831 177.794 263.672 178.157 266.468C178.263 267.773 178.719 269.026 179.477 270.095C179.861 270.623 180.393 271.027 181.006 271.255C181.618 271.482 182.285 271.524 182.921 271.375C183.834 270.988 184.606 270.332 185.133 269.493C186.977 267.05 188.199 264.024 190.14 261.784C192.827 263.597 202.375 266.701 200.997 260.029C200.24 256.344 202.074 256.761 204.044 258.564C204.859 259.301 206.139 258.904 207.148 258.458L216.851 254.191C218.086 253.561 219.423 253.157 220.8 252.998C225.457 252.765 228.503 257.09 233.073 254.036C235.014 252.756 235.46 249.284 237.925 247.965C239.681 246.995 241.747 246.937 243.746 246.666C250.615 245.754 254.128 242.127 260.473 238.849" stroke="#02A4FF" stroke-width="1.13593" stroke-linecap="round" stroke-linejoin="round"/>
</g>
<g style="mix-blend-mode:multiply">
<path d="M184.085 283.118C187.84 283.758 191.052 280.335 194.37 279.239C198.61 277.823 200.453 276.097 204.529 274.342C209.913 272.034 216.239 270.967 215.114 262.831C214.347 265.74 214.26 268.941 213.668 271.986C218.034 274.148 219.208 270.434 219.655 267.137C221.12 267.1 222.568 266.808 223.933 266.274C223.933 266.885 224.127 267.573 224.118 268.155C226.214 268.999 227.029 268.427 227.465 266.574C229.784 266.138 230.609 263.966 232.569 263.432C233.063 268.873 234.451 273.634 234.131 279.2C230.415 280.17 229.833 273.76 230.774 271.103C231.744 268.291 234.538 266.788 235.567 263.849C235.78 264.208 235.615 264.625 235.732 265.013C240.408 262.22 246.404 262.977 251.042 259.709C252.497 258.681 253.536 256.625 255.078 255.907C258.435 254.356 259.435 256.179 261.938 252.523" stroke="#02A4FF" stroke-width="1.13593" stroke-linecap="round" stroke-linejoin="round"/>
</g>
<g style="mix-blend-mode:multiply">
<path d="M217.889 315.071C224.632 313.132 227.591 296.384 225.651 290.236C223.38 282.798 220.256 290.954 219.528 294.949C218.946 298.149 218.015 306.586 221.003 309.02C227.63 314.393 231.676 303.347 232.491 298.353C232.782 301.476 230.9 305.325 231.666 308.69C237.032 309.321 239.69 304.86 239.351 300.254C240.017 300.891 240.468 301.72 240.642 302.625C240.816 303.53 240.704 304.467 240.321 305.306C245.444 304.947 244.6 296.307 245.172 292.825C244.881 295.259 245.104 298.111 246.744 300.079C248.112 301.708 250.722 302.426 252.439 301.165C254.156 299.905 253.817 296.588 251.731 296.152V317.147C251.797 317.754 251.675 318.366 251.382 318.902C250.693 319.872 249.004 319.668 248.219 318.737C247.526 317.721 247.201 316.5 247.297 315.275C247.2 308.4 249.325 298.983 254.651 294.29C254.925 294.959 255.015 295.688 254.913 296.404C255.423 296.205 255.884 295.899 256.264 295.505C256.644 295.112 256.935 294.641 257.116 294.125C257.465 295.667 258.377 297.606 259.939 297.335C260.458 297.199 260.932 296.932 261.317 296.559C263.878 294.445 266.653 293.048 268.371 290.042C268.613 290.799 268.865 291.555 269.118 292.321C269.525 290.857 270.922 289.897 272.29 289.237C274.377 288.257 276.634 287.687 278.937 287.56C280.877 287.463 282.992 287.666 284.758 286.832C285.54 286.415 286.29 285.938 286.999 285.407C289.01 284.083 291.338 283.319 293.743 283.196" stroke="#02A4FF" stroke-width="1.13593" stroke-linecap="round" stroke-linejoin="round"/>
</g>
<path d="M137.95 130.906C137.95 130.906 153.426 111.414 158.665 104.442C163.904 97.4694 167.698 92.1067 167.698 92.1067C167.698 92.1067 170.492 94.308 169.639 96.81C168.785 99.3119 150.379 124.438 146.285 130.819C142.19 137.2 142.763 145.278 143.063 148.061C143.364 150.844 135.243 141.748 137.95 130.906Z" fill="white" stroke="#2E353A" stroke-width="1.27267" stroke-linecap="round" stroke-linejoin="round"/>
<path d="M167.698 92.1069C167.698 92.1069 177.332 78.7146 184.483 67.5625C191.634 56.4104 202.074 39.6629 204.558 37.4324C207.041 35.202 207.643 41.0205 206.838 44.9189C206.032 48.8173 197.484 59.6979 191.711 68.6196C185.938 77.5412 182.368 83.961 177.4 89.8183C172.433 95.6755 172.724 95.9568 169.638 96.8101C166.553 97.6635 167.155 94.6088 167.698 92.1069Z" fill="#2E353A" stroke="#2E353A" stroke-width="1.27267" stroke-linecap="round" stroke-linejoin="round"/>
<path d="M134.622 132.865C135.69 125.641 138.105 112.297 143.626 108.098C149.147 103.899 165.854 107.128 167.242 107.38C168.629 107.632 190.615 112.501 197.32 116.622C204.024 120.743 208.526 132.652 210.243 139.547C211.961 146.442 215.647 158.117 216.201 158.942C216.201 158.942 221.779 161.395 224.836 161.104C227.892 160.813 231.957 146.616 240.515 138.228C249.072 129.84 253.516 128.695 262.966 129.5C272.417 130.305 308.316 140.032 311.954 143.61C315.593 147.188 317.863 155.247 317.077 161.066C316.291 166.884 317.436 173.284 317.436 174.39C317.436 175.495 320.803 179.093 319.988 182.148C319.173 185.203 318.668 191.845 316.175 192.728C313.681 193.61 295.334 193.145 281.712 191.293C268.089 189.44 249.14 181.227 236.595 175.486C224.05 169.745 217.928 167.272 208.759 167.34C199.59 167.408 181.815 167.796 165.398 164.014C148.982 160.232 137.824 153.346 134.739 150.33C131.653 147.314 133.565 140.1 134.622 132.865ZM232.928 166.923C237.42 173.566 255.525 180.111 265.266 182.817C275.007 185.523 298.371 190.371 304.464 187.006C310.557 183.641 313.759 163.616 313.196 156.673C312.633 149.729 309.79 145.87 309.79 145.87C297.788 138.451 260.23 130.645 252.468 133.757C244.706 136.87 237.284 146.907 234.558 154.975C231.831 163.044 232.928 166.923 232.928 166.923V166.923ZM154.503 155.509C166.495 162.646 185.405 164.741 192.905 164.974C200.405 165.206 207.604 161.269 207.827 152.658C208.05 144.046 203.51 129.636 201.812 125.505C200.114 121.374 194.545 118.891 194.545 118.891C187.025 115.332 155.851 107.487 150.573 108.36C145.295 109.232 140.677 117.243 139.6 128.947C138.523 140.652 142.51 148.372 154.503 155.509Z" fill="#2E353A" stroke="#2E353A" stroke-width="1.27267" stroke-linecap="round" stroke-linejoin="round"/>
<path d="M316.601 174.148C316.601 174.148 319.687 178.851 321.889 175.505C324.092 172.16 352.5 140.313 352.5 140.313C352.5 140.313 353.607 140.022 353.345 142.253C353.083 144.483 323.345 184.388 322.238 186.337C321.132 188.287 316.417 188.878 315.311 188.054C314.205 187.23 316.601 174.148 316.601 174.148Z" fill="white" stroke="#2E353A" stroke-width="1.27267" stroke-linecap="round" stroke-linejoin="round"/>
<path d="M350.56 141.428C352.183 138.54 353.647 135.565 354.946 132.516C357.953 125.835 359.797 112.772 360.282 99.1571C360.767 85.5418 361.252 77.4929 363.765 79.9755C366.278 82.458 364.124 95.8115 363.658 106.353C363.193 116.894 359.913 127.483 359.118 133.05C358.516 137.249 355.295 143.901 353.073 143.911C350.851 143.921 351.133 143.368 350.56 141.428Z" fill="#2E353A" stroke="#2E353A" stroke-width="1.27267" stroke-linecap="round" stroke-linejoin="round"/>
<path d="M167.242 315.498L179.457 329.317L161.294 325.225L32.0574 246.2L38.0147 236.474L167.242 315.498Z" fill="white" stroke="#2E353A" stroke-width="1.4364" stroke-linecap="round" stroke-linejoin="round"/>
<g style="mix-blend-mode:multiply" opacity="0.5">
<path d="M167.242 315.498L179.457 329.317L161.294 325.225L32.0574 246.2L38.0147 236.474L167.242 315.498Z" fill="#02A4FF"/>
<path d="M167.242 315.498L179.457 329.317L161.294 325.225L32.0574 246.2L38.0147 236.474L167.242 315.498Z" stroke="#2E353A" stroke-width="1.4364" stroke-linecap="round" stroke-linejoin="round"/>
</g>
<path d="M36.6619 238.687L33.416 243.99L162.65 323.02L165.895 317.717L36.6619 238.687Z" stroke="#2E353A" stroke-width="0.718198" stroke-linecap="round" stroke-linejoin="round"/>
<path d="M167.271 315.527L161.323 325.235L179.457 329.317L167.271 315.527Z" fill="white" stroke="#2E353A" stroke-width="1.4364" stroke-linecap="round" stroke-linejoin="round"/>
<path d="M170.385 327.271L179.457 329.317L173.364 322.422L170.385 327.271Z" fill="#02A4FF" stroke="#2E353A" stroke-width="1.4364" stroke-linecap="round" stroke-linejoin="round"/>
<path d="M20.5697 232.488C20.1778 233.126 19.9156 233.834 19.7981 234.574C19.6806 235.313 19.7101 236.068 19.8849 236.796C20.0598 237.524 20.3765 238.21 20.817 238.815C21.2575 239.42 21.8131 239.933 22.452 240.323L32.0574 246.2L38.0147 236.503L28.4093 230.626C27.1221 229.836 25.574 229.588 24.1044 229.937C22.6347 230.286 21.3636 231.203 20.5697 232.488V232.488Z" fill="white" stroke="#2E353A" stroke-width="1.4364" stroke-linecap="round" stroke-linejoin="round"/>
<path d="M20.5697 232.488C20.1778 233.126 19.9156 233.834 19.7981 234.574C19.6806 235.313 19.7101 236.068 19.8849 236.796C20.0598 237.524 20.3765 238.21 20.817 238.815C21.2575 239.42 21.8131 239.933 22.452 240.323L27.0509 243.136L33.0082 233.438L28.4093 230.626C27.1221 229.836 25.574 229.588 24.1044 229.937C22.6347 230.286 21.3636 231.203 20.5697 232.488V232.488Z" fill="#2E353A" stroke="#2E353A" stroke-width="1.4364" stroke-linecap="round" stroke-linejoin="round"/>
<path d="M281.362 186.182L277.957 183.787C277.43 183.418 276.826 183.172 276.191 183.068C275.556 182.964 274.906 183.004 274.289 183.186C270.689 184.233 263.898 186.9 261.957 189.004C259.435 191.603 258.639 196.306 259.852 198.517C261.065 200.729 266.042 203.55 266.042 203.55L286.892 190.866L281.362 186.182Z" fill="white" stroke="#2E353A" stroke-width="0.9473" stroke-miterlimit="10"/>
<g style="mix-blend-mode:multiply" opacity="0.5">
<path d="M281.362 186.182L277.957 183.787C277.43 183.418 276.826 183.172 276.191 183.068C275.556 182.964 274.906 183.004 274.289 183.186C270.689 184.233 263.898 186.9 261.957 189.004C259.435 191.603 258.639 196.306 259.852 198.517C261.065 200.729 266.042 203.55 266.042 203.55L286.892 190.866L281.362 186.182Z" fill="#02A4FF"/>
<path d="M281.362 186.182L277.957 183.787C277.43 183.418 276.826 183.172 276.191 183.068C275.556 182.964 274.906 183.004 274.289 183.186C270.689 184.233 263.898 186.9 261.957 189.004C259.435 191.603 258.639 196.306 259.852 198.517C261.065 200.729 266.042 203.55 266.042 203.55L286.892 190.866L281.362 186.182Z" stroke="#2E353A" stroke-width="0.9473" stroke-miterlimit="10"/>
</g>
<path d="M283.487 185.203L266.993 192.738C266.993 192.738 261.414 195.89 263.18 205.539L359.768 276.621C359.768 276.621 363.125 279.065 369.189 276.999C375.253 274.934 381.463 267.787 382.772 261.745C384.082 255.704 379.862 253.803 379.076 253.134C378.29 252.465 286.747 185.921 286.747 185.921C285.78 185.303 284.625 185.049 283.487 185.203V185.203Z" fill="white" stroke="#2E353A" stroke-width="0.9473" stroke-miterlimit="10"/>
<g style="mix-blend-mode:multiply" opacity="0.5">
<path d="M283.487 185.203L266.993 192.738C266.993 192.738 261.414 195.89 263.18 205.539L359.768 276.621C359.768 276.621 363.125 279.065 369.189 276.999C375.253 274.934 381.463 267.787 382.772 261.745C384.082 255.704 379.862 253.803 379.076 253.134C378.29 252.465 286.747 185.921 286.747 185.921C285.78 185.303 284.625 185.049 283.487 185.203V185.203Z" fill="#02A4FF"/>
<path d="M283.487 185.203L266.993 192.738C266.993 192.738 261.414 195.89 263.18 205.539L359.768 276.621C359.768 276.621 363.125 279.065 369.189 276.999C375.253 274.934 381.463 267.787 382.772 261.745C384.082 255.704 379.862 253.803 379.076 253.134C378.29 252.465 286.747 185.921 286.747 185.921C285.78 185.303 284.625 185.049 283.487 185.203V185.203Z" stroke="#2E353A" stroke-width="0.9473" stroke-miterlimit="10"/>
</g>
<path d="M376.272 271.986C370.188 277.659 362.824 279.656 359.777 276.437C356.731 273.217 359.244 265.993 365.327 260.31C371.411 254.627 378.775 252.639 381.821 255.859C384.868 259.078 382.345 266.303 376.272 271.986Z" fill="white" stroke="#2E353A" stroke-width="0.9473" stroke-miterlimit="10"/>
<g style="mix-blend-mode:multiply">
<path d="M376.272 271.986C370.188 277.659 362.824 279.656 359.777 276.437C356.731 273.217 359.244 265.993 365.327 260.31C371.411 254.627 378.775 252.639 381.821 255.859C384.868 259.078 382.345 266.303 376.272 271.986Z" fill="#02A4FF"/>
<path d="M376.272 271.986C370.188 277.659 362.824 279.656 359.777 276.437C356.731 273.217 359.244 265.993 365.327 260.31C371.411 254.627 378.775 252.639 381.821 255.859C384.868 259.078 382.345 266.303 376.272 271.986Z" stroke="#2E353A" stroke-width="0.9473" stroke-miterlimit="10"/>
</g>
<path d="M286.737 185.92C285.773 185.306 284.621 185.051 283.487 185.203L266.993 192.738C266.993 192.738 261.414 195.889 263.18 205.538L329.972 254.695C329.496 252.426 329.584 249.109 332.135 245.172C334.503 241.497 345.137 235.572 350.88 232.565C323.694 212.792 286.737 185.92 286.737 185.92Z" fill="#2E353A" stroke="#2E353A" stroke-width="1.27267" stroke-linecap="round" stroke-linejoin="round"/>
<path d="M363.377 260.135L328.099 234.583C327.571 234.201 327.148 233.692 326.868 233.104C326.589 232.515 326.462 231.866 326.5 231.216C326.537 230.566 326.738 229.935 327.084 229.383C327.429 228.831 327.909 228.375 328.477 228.056L333.94 225.079C334.581 224.732 335.307 224.573 336.034 224.619C336.762 224.665 337.462 224.915 338.053 225.341L375.35 252.339" fill="white"/>
<path d="M363.377 260.135L328.099 234.583C327.571 234.201 327.148 233.692 326.868 233.104C326.589 232.515 326.462 231.866 326.5 231.216C326.537 230.566 326.738 229.935 327.084 229.383C327.429 228.831 327.909 228.375 328.477 228.056L333.94 225.079C334.581 224.732 335.307 224.573 336.034 224.619C336.762 224.665 337.462 224.915 338.053 225.341L375.35 252.339" stroke="#2E353A" stroke-width="0.9473" stroke-miterlimit="10"/>
<g style="mix-blend-mode:multiply" opacity="0.5">
<path d="M363.377 260.135L328.099 234.583C327.571 234.201 327.148 233.692 326.868 233.104C326.589 232.515 326.462 231.866 326.5 231.216C326.537 230.566 326.738 229.935 327.084 229.383C327.429 228.831 327.909 228.375 328.477 228.056L333.94 225.079C334.581 224.732 335.307 224.573 336.034 224.619C336.762 224.665 337.462 224.915 338.053 225.341L375.35 252.339" fill="#02A4FF"/>
<path d="M363.377 260.135L328.099 234.583C327.571 234.201 327.148 233.692 326.868 233.104C326.589 232.515 326.462 231.866 326.5 231.216C326.537 230.566 326.738 229.935 327.084 229.383C327.429 228.831 327.909 228.375 328.477 228.056L333.94 225.079C334.581 224.732 335.307 224.573 336.034 224.619C336.762 224.665 337.462 224.915 338.053 225.341L375.35 252.339" stroke="#2E353A" stroke-width="0.9473" stroke-miterlimit="10"/>
</g>
</svg>
