<svg width="727" height="436" viewBox="0 0 727 436" fill="none" xmlns="http://www.w3.org/2000/svg">
<path d="M5.78125 330.442L95.2298 330.178L184.678 330.078L363.576 329.891L542.473 330.078L631.921 330.178L721.37 330.442L631.921 330.718L542.473 330.806L363.576 330.994L184.678 330.806L95.2298 330.707L5.78125 330.442Z" fill="#263238"/>
<path d="M577.316 59.2943H149.007V345.801H577.316V59.2943Z" fill="#DBDBDB"/>
<path d="M574.205 62.7919H152.118V342.304H574.205V62.7919Z" fill="#263238"/>
<path d="M633.102 367.283H93.2217V386.945H633.102V367.283Z" fill="#C7C7C7"/>
<path d="M93.2217 367.283L149.007 345.801H577.316L633.102 367.283H93.2217Z" fill="#DBDBDB"/>
<path d="M153.994 359.67L189.996 345.801H536.338L572.34 359.67H153.994Z" fill="#263238"/>
<path d="M550.35 84.0312H175.973V321.075H550.35V84.0312Z" fill="white"/>
<path d="M550.361 84.0312H175.664V93.156H550.361V84.0312Z" fill="#455A64"/>
<path d="M182.913 88.5992C182.913 89.0489 182.779 89.4883 182.528 89.8614C182.276 90.2344 181.92 90.5242 181.503 90.6937C181.087 90.8631 180.629 90.9046 180.189 90.8127C179.749 90.7209 179.346 90.4999 179.032 90.1781C178.718 89.8562 178.507 89.448 178.426 89.0057C178.345 88.5634 178.398 88.1069 178.578 87.6947C178.757 87.2825 179.056 86.9332 179.435 86.6914C179.814 86.4497 180.257 86.3264 180.706 86.3373C181.296 86.3517 181.858 86.5964 182.27 87.019C182.682 87.4417 182.913 88.0088 182.913 88.5992Z" fill="#C7C7C7"/>
<path d="M192.148 88.5992C192.148 89.0489 192.014 89.4883 191.763 89.8614C191.512 90.2344 191.155 90.5242 190.738 90.6937C190.322 90.8631 189.864 90.9046 189.424 90.8127C188.984 90.7209 188.581 90.4999 188.267 90.1781C187.953 89.8562 187.742 89.448 187.661 89.0057C187.58 88.5634 187.633 88.1069 187.813 87.6947C187.992 87.2825 188.291 86.9332 188.67 86.6914C189.049 86.4497 189.492 86.3264 189.941 86.3373C190.532 86.3517 191.093 86.5964 191.505 87.019C191.917 87.4417 192.148 88.0088 192.148 88.5992Z" fill="white"/>
<path d="M201.383 88.5993C201.383 89.0466 201.25 89.4839 201.002 89.8559C200.753 90.2279 200.4 90.5178 199.987 90.689C199.573 90.8602 199.118 90.9049 198.68 90.8177C198.241 90.7304 197.838 90.515 197.522 90.1987C197.205 89.8823 196.99 89.4793 196.903 89.0405C196.815 88.6018 196.86 88.147 197.031 87.7337C197.202 87.3204 197.492 86.9671 197.864 86.7186C198.236 86.4701 198.674 86.3374 199.121 86.3374C199.721 86.3374 200.296 86.5757 200.72 86.9999C201.145 87.4241 201.383 87.9994 201.383 88.5993Z" fill="#02A4FF"/>
<path d="M193.957 214.282L339.544 214.282V112.321L193.957 112.321V214.282Z" fill="#EBEBEB"/>
<path d="M210.971 141.306C210.971 143.692 211.678 146.023 213.004 148.006C214.329 149.99 216.212 151.535 218.416 152.448C220.619 153.361 223.044 153.6 225.384 153.134C227.723 152.669 229.872 151.52 231.558 149.834C233.245 148.147 234.393 145.999 234.859 143.659C235.324 141.32 235.085 138.895 234.172 136.691C233.26 134.488 231.714 132.604 229.731 131.279C227.748 129.954 225.416 129.247 223.031 129.247C219.832 129.247 216.765 130.517 214.503 132.779C212.242 135.041 210.971 138.108 210.971 141.306Z" fill="#DBDBDB"/>
<path d="M258.58 192.314H339.555L299.062 137.444L258.58 192.314Z" fill="#C7C7C7"/>
<path d="M226.87 192.369H293.711L260.291 156.632L226.87 192.369Z" fill="#DBDBDB"/>
<path d="M339.545 192.314H193.958V214.282H339.545V192.314Z" fill="#DBDBDB"/>
<path d="M360.254 301.546H441.604V227.941H360.254V301.546Z" fill="#EBEBEB"/>
<path d="M370.769 244.028C370.403 245.863 370.637 247.766 371.435 249.457C372.234 251.149 373.556 252.538 375.205 253.421C376.855 254.303 378.744 254.632 380.594 254.358C382.445 254.083 384.158 253.221 385.481 251.899C386.803 250.576 387.665 248.863 387.939 247.012C388.214 245.162 387.885 243.273 387.003 241.623C386.12 239.974 384.731 238.652 383.039 237.853C381.348 237.055 379.444 236.821 377.61 237.187C375.922 237.525 374.371 238.354 373.154 239.572C371.936 240.789 371.107 242.34 370.769 244.028Z" fill="#DBDBDB"/>
<path d="M383.16 285.68H441.616L412.388 246.069L383.16 285.68Z" fill="#C7C7C7"/>
<path d="M360.265 285.713H408.526L384.396 259.916L360.265 285.713Z" fill="#DBDBDB"/>
<path d="M441.615 285.68H360.265V301.535H441.615V285.68Z" fill="#DBDBDB"/>
<path d="M490.759 112.333H360.265V118.92H490.759V112.333Z" fill="#A6A6A6"/>
<path d="M519.137 125.959H360.265V132.546H519.137V125.959Z" fill="#DBDBDB"/>
<path d="M519.137 139.585H360.265V146.172H519.137V139.585Z" fill="#DBDBDB"/>
<path d="M519.137 153.223H360.265V159.81H519.137V153.223Z" fill="#DBDBDB"/>
<path d="M519.137 166.849H360.265V173.436H519.137V166.849Z" fill="#DBDBDB"/>
<path d="M465.735 180.475H360.265V187.062H465.735V180.475Z" fill="#DBDBDB"/>
<path d="M506.581 227.93H448.865V234.418H506.581V227.93Z" fill="#A6A6A6"/>
<path d="M519.126 241.358H448.865V247.846H519.126V241.358Z" fill="#DBDBDB"/>
<path d="M519.126 254.786H448.865V261.274H519.126V254.786Z" fill="#DBDBDB"/>
<path d="M519.126 268.203H448.865V274.69H519.126V268.203Z" fill="#DBDBDB"/>
<path d="M519.126 281.63H448.865V288.118H519.126V281.63Z" fill="#DBDBDB"/>
<path d="M496.551 295.058H448.865V301.546H496.551V295.058Z" fill="#DBDBDB"/>
<path d="M519.137 194.929H360.265V214.282H519.137V194.929Z" fill="#02A4FF"/>
<path d="M339.545 227.93H193.958V247.283H339.545V227.93Z" fill="#A6A6A6"/>
<path d="M339.545 254.333H193.958V260.876H339.545V254.333Z" fill="#DBDBDB"/>
<path d="M339.545 267.883H193.958V274.425H339.545V267.883Z" fill="#DBDBDB"/>
<path d="M339.545 281.443H193.958V287.985H339.545V281.443Z" fill="#DBDBDB"/>
<path d="M293.711 294.992H193.958V301.535H293.711V294.992Z" fill="#DBDBDB"/>
<path d="M550.35 93.145H540.343V321.064H550.35V93.145Z" fill="#DBDBDB"/>
<path d="M545.341 212.428C544.657 212.428 544 212.156 543.516 211.672C543.032 211.188 542.76 210.531 542.76 209.846V97.9888C542.76 97.3041 543.032 96.6474 543.516 96.1632C544 95.679 544.657 95.407 545.341 95.407C546.026 95.407 546.683 95.679 547.167 96.1632C547.651 96.6474 547.923 97.3041 547.923 97.9888V209.846C547.923 210.531 547.651 211.188 547.167 211.672C546.683 212.156 546.026 212.428 545.341 212.428Z" fill="#A6A6A6"/>
<path d="M319.508 212.174V373.903C319.476 377.387 318.064 380.715 315.582 383.16C313.1 385.604 309.751 386.966 306.267 386.945H52.0556C48.5722 386.966 45.2226 385.604 42.7408 383.16C40.259 380.715 38.8475 377.387 38.8154 373.903V212.174C38.8475 208.692 40.2594 205.364 42.7415 202.922C45.2236 200.479 48.5732 199.12 52.0556 199.144H306.201C307.931 199.123 309.648 199.444 311.254 200.089C312.859 200.733 314.322 201.688 315.558 202.898C316.794 204.108 317.779 205.551 318.457 207.143C319.135 208.734 319.492 210.444 319.508 212.174Z" fill="#455A64"/>
<path d="M300.233 207.033H58.6101V378.802H300.233V207.033Z" fill="white"/>
<path d="M72.9865 294.065H180.177V219.004H72.9865L72.9865 294.065Z" fill="#EBEBEB"/>
<path d="M85.5312 240.354C85.5421 242.097 86.069 243.798 87.0455 245.243C88.022 246.687 89.4043 247.81 91.0182 248.469C92.632 249.129 94.405 249.296 96.1136 248.949C97.8221 248.602 99.3898 247.757 100.619 246.521C101.848 245.284 102.683 243.711 103.019 242.001C103.355 240.29 103.177 238.518 102.507 236.908C101.838 235.299 100.706 233.923 99.2561 232.956C97.8058 231.988 96.1014 231.472 94.358 231.472C93.1942 231.472 92.0418 231.702 90.9673 232.149C89.8928 232.596 88.9173 233.251 88.0969 234.077C87.2765 234.902 86.6275 235.882 86.1872 236.959C85.7468 238.036 85.5239 239.19 85.5312 240.354Z" fill="#DBDBDB"/>
<path d="M120.563 277.901H180.177L150.364 237.508L120.563 277.901Z" fill="#C7C7C7"/>
<path d="M97.2158 277.934H146.425L121.821 251.63L97.2158 277.934Z" fill="#DBDBDB"/>
<path d="M180.177 277.901H72.9861V294.076H180.177V277.901Z" fill="#DBDBDB"/>
<path d="M214.182 365.385H285.855V315.194H214.182V365.385Z" fill="#EBEBEB"/>
<path d="M222.556 329.471C222.554 330.648 222.901 331.799 223.553 332.778C224.205 333.758 225.133 334.522 226.22 334.974C227.306 335.425 228.503 335.545 229.657 335.317C230.811 335.088 231.872 334.523 232.705 333.692C233.538 332.86 234.105 331.801 234.335 330.647C234.566 329.493 234.449 328.297 233.999 327.209C233.549 326.122 232.787 325.192 231.809 324.538C230.83 323.884 229.68 323.535 228.503 323.535C227.723 323.534 226.95 323.686 226.228 323.984C225.507 324.282 224.851 324.719 224.299 325.27C223.747 325.821 223.308 326.476 223.009 327.197C222.71 327.918 222.556 328.691 222.556 329.471Z" fill="#DBDBDB"/>
<path d="M246.003 354.573H285.856L265.929 327.563L246.003 354.573Z" fill="#C7C7C7"/>
<path d="M230.39 354.606H263.292L246.841 337.007L230.39 354.606Z" fill="#DBDBDB"/>
<path d="M285.855 354.584H214.182V365.397H285.855V354.584Z" fill="#DBDBDB"/>
<path d="M285.866 219.015H189.423V237.353H285.866V219.015Z" fill="#02A4FF"/>
<path d="M285.866 244.315H189.423V246.886H285.866V244.315Z" fill="#DBDBDB"/>
<path d="M285.866 250.35H189.423V252.921H285.866V250.35Z" fill="#DBDBDB"/>
<path d="M285.866 256.386H189.423V258.956H285.866V256.386Z" fill="#DBDBDB"/>
<path d="M285.866 262.421H189.423V264.992H285.866V262.421Z" fill="#DBDBDB"/>
<path d="M285.866 268.456H189.423V271.027H285.866V268.456Z" fill="#DBDBDB"/>
<path d="M285.866 274.491H189.423V277.062H285.866V274.491Z" fill="#DBDBDB"/>
<path d="M244.866 280.527H189.423V283.098H244.866V280.527Z" fill="#DBDBDB"/>
<path d="M203.987 351.417H107.543V353.988H203.987V351.417Z" fill="#DBDBDB"/>
<path d="M203.987 315.205H107.543V317.776H203.987V315.205Z" fill="#DBDBDB"/>
<path d="M203.987 321.241H107.543V323.811H203.987V321.241Z" fill="#DBDBDB"/>
<path d="M203.987 327.276H107.543V329.847H203.987V327.276Z" fill="#DBDBDB"/>
<path d="M173.314 333.311H107.543V335.882H173.314V333.311Z" fill="#DBDBDB"/>
<path d="M203.987 345.382H107.543V347.953H203.987V345.382Z" fill="#DBDBDB"/>
<path d="M173.314 357.453H107.543V360.023H173.314V357.453Z" fill="#DBDBDB"/>
<path d="M285.866 302.45H72.9861V308.519H285.866V302.45Z" fill="#455A64"/>
<path d="M100.548 315.205H72.9861V365.397H100.548V315.205Z" fill="#02A4FF"/>
<path d="M50.4443 272.594H50.2788C49.5171 272.594 48.8997 273.211 48.8997 273.973V312.094C48.8997 312.856 49.5171 313.473 50.2788 313.473H50.4443C51.206 313.473 51.8235 312.856 51.8235 312.094V273.973C51.8235 273.211 51.206 272.594 50.4443 272.594Z" fill="#37474F"/>
<path d="M316.131 293.028C316.134 294.076 315.825 295.102 315.243 295.974C314.662 296.847 313.835 297.527 312.867 297.93C311.899 298.332 310.833 298.438 309.805 298.234C308.777 298.03 307.832 297.525 307.091 296.784C306.349 296.042 305.845 295.098 305.641 294.069C305.437 293.041 305.542 291.975 305.945 291.007C306.347 290.039 307.027 289.212 307.9 288.631C308.773 288.05 309.798 287.741 310.846 287.743C312.247 287.746 313.59 288.303 314.58 289.294C315.571 290.284 316.129 291.627 316.131 293.028Z" fill="#37474F"/>
<path d="M671.532 164.51H573.212C570.553 164.539 568.014 165.621 566.153 167.52C564.291 169.419 563.259 171.979 563.282 174.638V376.993C563.262 379.651 564.295 382.209 566.156 384.107C568.017 386.006 570.554 387.089 573.212 387.121H671.51C674.168 387.089 676.705 386.006 678.566 384.107C680.427 382.209 681.461 379.651 681.44 376.993V174.66C681.469 172.001 680.443 169.439 678.585 167.536C676.728 165.633 674.191 164.544 671.532 164.51ZM675.272 370.737C675.272 376.066 671.278 380.369 666.357 380.369H578.42C573.488 380.369 569.505 376.066 569.505 370.737V182.307C569.505 171.461 573.488 170.931 578.42 170.931H596.074C597.1 170.931 597.938 172.034 597.938 173.535V174.153C597.938 177.54 599.792 177.551 602.065 177.551H642.723C645.007 177.551 646.839 177.551 646.839 174.153V173.557C646.839 172.112 647.666 170.953 648.715 170.953H666.368C671.289 170.953 675.283 172.398 675.283 182.329L675.272 370.737Z" fill="#455A64"/>
<path d="M627.938 173.325H616.827C616.646 173.325 616.472 173.253 616.343 173.125C616.215 172.997 616.143 172.823 616.143 172.641C616.143 172.46 616.215 172.286 616.343 172.158C616.472 172.029 616.646 171.957 616.827 171.957H627.938C628.12 171.957 628.296 172.029 628.426 172.157C628.556 172.285 628.63 172.459 628.633 172.641C628.63 172.824 628.556 172.998 628.426 173.126C628.296 173.254 628.12 173.325 627.938 173.325Z" fill="white"/>
<path d="M675.272 182.307V370.737C675.272 376.066 671.278 380.369 666.357 380.369H578.42C573.488 380.369 569.505 376.066 569.505 370.737V182.307C569.505 171.461 573.488 170.931 578.42 170.931H596.074C597.1 170.931 597.938 172.035 597.938 173.535V174.153C597.938 177.54 599.792 177.551 602.065 177.551H642.723C645.007 177.551 646.839 177.551 646.839 174.153V173.557C646.839 172.112 647.666 170.953 648.715 170.953H666.368C671.278 170.931 675.272 172.377 675.272 182.307Z" fill="white"/>
<path d="M675.272 182.307V196.363H569.494V182.307C569.494 171.461 573.488 170.931 578.42 170.931H596.074C597.089 170.931 597.927 172.035 597.927 173.535V174.153C597.927 177.54 599.781 177.551 602.043 177.551H642.723C645.007 177.551 646.85 177.551 646.85 174.153V173.557C646.85 172.112 647.677 170.953 648.714 170.953H666.368C671.278 170.931 675.272 172.377 675.272 182.307Z" fill="#02A4FF"/>
<path d="M579.523 189.5L576.401 186.576L579.523 183.653L580.009 184.16L577.438 186.576L580.009 188.993L579.523 189.5Z" fill="white"/>
<path d="M665.728 189.765H663.521V189.004C663.521 188.983 663.514 188.962 663.503 188.944C663.491 188.927 663.474 188.913 663.455 188.905L663.212 188.761C663.193 188.753 663.172 188.749 663.152 188.749C663.131 188.749 663.11 188.753 663.091 188.761L662.418 189.158L661.314 187.25L661.988 186.863C662.001 186.846 662.008 186.825 662.008 186.803C662.008 186.781 662.001 186.759 661.988 186.742V186.477C662.001 186.46 662.008 186.438 662.008 186.416C662.008 186.395 662.001 186.373 661.988 186.356L661.314 185.97L662.418 184.061L663.091 184.447C663.109 184.458 663.13 184.463 663.152 184.463C663.173 184.463 663.194 184.458 663.212 184.447L663.455 184.304C663.474 184.295 663.491 184.281 663.503 184.264C663.514 184.246 663.521 184.225 663.521 184.204V183.421H665.728V184.204C665.728 184.225 665.735 184.246 665.746 184.264C665.758 184.281 665.775 184.295 665.794 184.304L666.037 184.447C666.055 184.458 666.076 184.463 666.098 184.463C666.119 184.463 666.14 184.458 666.158 184.447L666.831 184.061L667.935 185.97L667.262 186.356C667.248 186.373 667.241 186.395 667.241 186.416C667.241 186.438 667.248 186.46 667.262 186.477V186.742C667.248 186.759 667.241 186.781 667.241 186.803C667.241 186.825 667.248 186.846 667.262 186.863L667.935 187.25L666.831 189.158L666.158 188.772C666.14 188.761 666.119 188.756 666.098 188.756C666.076 188.756 666.055 188.761 666.037 188.772L665.794 188.916C665.775 188.924 665.758 188.938 665.746 188.956C665.735 188.973 665.728 188.994 665.728 189.015V189.765ZM664.073 189.213H665.176V189.004C665.178 188.881 665.212 188.761 665.277 188.656C665.341 188.551 665.432 188.466 665.54 188.408C665.606 188.378 665.669 188.341 665.728 188.298C665.835 188.236 665.957 188.203 666.081 188.203C666.205 188.203 666.327 188.236 666.434 188.298L666.633 188.419L667.184 187.459L666.986 187.338C666.879 187.278 666.792 187.189 666.733 187.082C666.674 186.975 666.647 186.853 666.655 186.731V186.51C666.648 186.387 666.675 186.264 666.733 186.155C666.792 186.046 666.879 185.955 666.986 185.892L667.184 185.782L666.633 184.822L666.434 184.944C666.329 185.006 666.209 185.038 666.086 185.038C665.964 185.038 665.844 185.006 665.739 184.944L665.54 184.833C665.432 184.776 665.341 184.69 665.277 184.585C665.212 184.48 665.178 184.36 665.176 184.237V184.006H664.073V184.237C664.071 184.36 664.037 184.48 663.973 184.585C663.908 184.69 663.817 184.776 663.709 184.833C663.643 184.864 663.58 184.901 663.521 184.944C663.414 185.006 663.292 185.038 663.168 185.038C663.044 185.038 662.922 185.006 662.815 184.944L662.616 184.822L662.065 185.782L662.263 185.892C662.37 185.955 662.457 186.046 662.516 186.155C662.574 186.264 662.601 186.387 662.594 186.51V186.731C662.601 186.854 662.574 186.977 662.516 187.086C662.457 187.195 662.37 187.286 662.263 187.349L662.065 187.459L662.616 188.419L662.815 188.298C662.922 188.236 663.044 188.203 663.168 188.203C663.292 188.203 663.414 188.236 663.521 188.298C663.58 188.341 663.643 188.378 663.709 188.408C663.817 188.466 663.908 188.551 663.973 188.656C664.037 188.761 664.071 188.881 664.073 189.004V189.213ZM664.625 188.209C664.302 188.209 663.986 188.114 663.717 187.934C663.449 187.755 663.239 187.5 663.116 187.201C662.992 186.903 662.96 186.575 663.023 186.258C663.086 185.941 663.241 185.65 663.47 185.422C663.698 185.193 663.989 185.038 664.306 184.975C664.623 184.912 664.951 184.944 665.249 185.068C665.548 185.191 665.803 185.401 665.982 185.669C666.162 185.938 666.258 186.254 666.258 186.576C666.255 187.009 666.082 187.422 665.776 187.728C665.47 188.034 665.057 188.207 664.625 188.209ZM664.625 185.495C664.406 185.495 664.193 185.56 664.012 185.681C663.83 185.802 663.689 185.975 663.605 186.176C663.522 186.378 663.5 186.6 663.542 186.814C663.585 187.028 663.69 187.224 663.844 187.379C663.999 187.533 664.195 187.638 664.409 187.681C664.623 187.723 664.845 187.701 665.047 187.618C665.248 187.534 665.421 187.393 665.542 187.212C665.663 187.03 665.728 186.817 665.728 186.599C665.728 186.306 665.612 186.025 665.405 185.818C665.198 185.611 664.917 185.495 664.625 185.495Z" fill="white"/>
<path d="M592.995 175.157L592.829 175.333L592.73 175.433C592.514 175.213 592.257 175.038 591.972 174.918C591.688 174.799 591.383 174.737 591.075 174.737C590.767 174.737 590.461 174.799 590.177 174.918C589.893 175.038 589.635 175.213 589.42 175.433L589.331 175.333L589.166 175.168C589.231 175.1 589.301 175.037 589.376 174.98C589.527 174.853 589.694 174.746 589.872 174.66C590.083 174.559 590.305 174.485 590.534 174.44H590.865H591.373C591.58 174.465 591.783 174.513 591.98 174.583C592.121 174.638 592.257 174.705 592.388 174.782C592.528 174.857 592.661 174.946 592.785 175.047L592.962 175.212L592.995 175.157Z" fill="white"/>
<path d="M589.983 175.962L589.718 175.698C589.898 175.518 590.111 175.375 590.346 175.277C590.58 175.179 590.832 175.129 591.086 175.129C591.341 175.129 591.592 175.179 591.827 175.277C592.062 175.375 592.275 175.518 592.455 175.698L592.19 175.973C591.896 175.682 591.5 175.519 591.086 175.519C590.673 175.519 590.277 175.682 589.983 175.973V175.962Z" fill="white"/>
<path d="M591.969 176.227L591.704 176.503C591.632 176.43 591.547 176.371 591.452 176.332C591.357 176.292 591.255 176.271 591.153 176.271C591.05 176.271 590.948 176.292 590.853 176.332C590.759 176.371 590.673 176.43 590.601 176.503L590.336 176.227C590.555 176.014 590.848 175.895 591.153 175.895C591.458 175.895 591.751 176.014 591.969 176.227Z" fill="white"/>
<path d="M591.329 176.746C591.329 176.794 591.315 176.841 591.288 176.881C591.261 176.921 591.223 176.952 591.179 176.97C591.135 176.988 591.086 176.993 591.039 176.984C590.992 176.975 590.949 176.951 590.915 176.917C590.881 176.884 590.858 176.84 590.848 176.793C590.839 176.746 590.844 176.697 590.862 176.653C590.88 176.609 590.911 176.571 590.951 176.544C590.991 176.517 591.038 176.503 591.086 176.503C591.119 176.502 591.151 176.507 591.181 176.518C591.211 176.53 591.239 176.548 591.261 176.571C591.284 176.594 591.302 176.621 591.314 176.651C591.325 176.681 591.331 176.714 591.329 176.746Z" fill="white"/>
<path d="M576.401 175.676C576.401 175.491 576.474 175.314 576.604 175.184C576.735 175.054 576.911 174.98 577.096 174.98C577.281 174.98 577.459 175.053 577.591 175.183C577.723 175.313 577.799 175.49 577.802 175.676C577.802 175.863 577.727 176.042 577.595 176.175C577.463 176.307 577.283 176.382 577.096 176.382C576.91 176.379 576.734 176.303 576.604 176.171C576.473 176.039 576.401 175.861 576.401 175.676Z" fill="white"/>
<path d="M578.607 175.676C578.607 175.491 578.681 175.314 578.811 175.184C578.941 175.054 579.118 174.98 579.303 174.98C579.488 174.98 579.666 175.053 579.798 175.183C579.93 175.313 580.006 175.49 580.009 175.676C580.009 175.863 579.934 176.042 579.802 176.175C579.669 176.307 579.49 176.382 579.303 176.382C579.117 176.379 578.94 176.303 578.81 176.171C578.68 176.039 578.607 175.861 578.607 175.676Z" fill="white"/>
<path d="M580.814 175.675C580.835 175.505 580.918 175.348 581.047 175.234C581.176 175.12 581.342 175.057 581.515 175.057C581.687 175.057 581.853 175.12 581.982 175.234C582.111 175.348 582.194 175.505 582.215 175.675C582.228 175.775 582.219 175.876 582.189 175.971C582.16 176.067 582.11 176.156 582.044 176.231C581.978 176.306 581.896 176.366 581.805 176.407C581.714 176.448 581.615 176.47 581.515 176.47C581.414 176.47 581.315 176.448 581.224 176.407C581.133 176.366 581.051 176.306 580.985 176.231C580.919 176.156 580.869 176.067 580.84 175.971C580.81 175.876 580.801 175.775 580.814 175.675Z" fill="white"/>
<path d="M583.021 175.676C583.021 175.536 583.063 175.399 583.14 175.283C583.218 175.167 583.328 175.077 583.457 175.023C583.586 174.97 583.728 174.956 583.865 174.983C584.002 175.01 584.128 175.078 584.227 175.176C584.325 175.275 584.393 175.401 584.42 175.538C584.447 175.675 584.433 175.817 584.38 175.946C584.326 176.075 584.236 176.185 584.12 176.263C584.004 176.34 583.867 176.382 583.727 176.382C583.54 176.382 583.36 176.307 583.228 176.175C583.096 176.043 583.021 175.863 583.021 175.676Z" fill="white"/>
<path d="M585.228 175.676C585.231 175.49 585.306 175.313 585.438 175.183C585.571 175.053 585.749 174.98 585.934 174.98C586.118 174.98 586.295 175.054 586.425 175.184C586.556 175.314 586.629 175.491 586.629 175.676C586.629 175.861 586.556 176.039 586.426 176.171C586.296 176.303 586.119 176.379 585.934 176.382C585.747 176.382 585.567 176.307 585.435 176.175C585.302 176.042 585.228 175.863 585.228 175.676Z" fill="white"/>
<path d="M667.328 177.198H661.635V174.572H667.328V177.198ZM661.911 176.922H667.052V174.848H661.911V176.922Z" fill="white"/>
<path d="M665.772 175.014H662.098V176.757H665.772V175.014Z" fill="white"/>
<path d="M667.847 175.179H667.339V176.591H667.847V175.179Z" fill="white"/>
<path d="M585.57 368.85H584.764V372.546H583.264V370.66H580.605V372.546H579.104V368.85H578.299L581.94 365.099L585.57 368.85Z" fill="#EBEBEB"/>
<path d="M666.489 365.099H657.718V366.357H666.489V365.099Z" fill="#EBEBEB"/>
<path d="M666.489 368.188H657.718V369.446H666.489V368.188Z" fill="#EBEBEB"/>
<path d="M666.489 371.288H657.718V372.546H666.489V371.288Z" fill="#EBEBEB"/>
<path d="M585.404 214.866C584.473 215.447 583.397 215.755 582.298 215.755C581.2 215.755 580.124 215.447 579.193 214.866C578.101 214.191 577.259 213.178 576.795 211.98C576.33 210.783 576.269 209.467 576.621 208.232C576.972 206.997 577.716 205.91 578.741 205.136C579.765 204.362 581.014 203.944 582.298 203.944C583.582 203.944 584.831 204.362 585.856 205.136C586.881 205.91 587.625 206.997 587.976 208.232C588.327 209.467 588.266 210.783 587.802 211.98C587.338 213.178 586.496 214.191 585.404 214.866Z" fill="#DBDBDB"/>
<path d="M584.091 209.173C584.091 209.529 583.985 209.877 583.787 210.173C583.589 210.469 583.308 210.7 582.978 210.836C582.649 210.972 582.287 211.006 581.938 210.936C581.588 210.866 581.268 210.694 581.017 210.441C580.766 210.188 580.596 209.867 580.527 209.517C580.459 209.168 580.496 208.806 580.634 208.477C580.772 208.149 581.004 207.869 581.301 207.672C581.599 207.476 581.947 207.372 582.304 207.375C582.779 207.378 583.233 207.568 583.568 207.905C583.903 208.242 584.091 208.698 584.091 209.173Z" fill="white"/>
<path d="M585.404 214.127V214.867C584.472 215.448 583.396 215.756 582.298 215.756C581.2 215.756 580.124 215.448 579.192 214.867V214.127C579.239 213.336 579.587 212.592 580.164 212.048C580.742 211.504 581.505 211.201 582.298 211.201C583.091 211.201 583.854 211.504 584.432 212.048C585.009 212.592 585.357 213.336 585.404 214.127Z" fill="white"/>
<path d="M633.113 204.286H595.599V207.375H633.113V204.286Z" fill="#EBEBEB"/>
<path d="M628.347 209.438H595.599V211.49H628.347V209.438Z" fill="#EBEBEB"/>
<path d="M649.741 213.388H595.599V215.441H649.741V213.388Z" fill="#EBEBEB"/>
<path d="M569.505 294.694H675.272V220.637H569.505V294.694Z" fill="#EBEBEB"/>
<path d="M581.863 241.689C581.863 243.422 582.376 245.115 583.339 246.556C584.302 247.997 585.67 249.119 587.271 249.783C588.871 250.446 590.633 250.619 592.332 250.281C594.032 249.943 595.593 249.109 596.818 247.884C598.043 246.658 598.877 245.097 599.215 243.398C599.553 241.699 599.38 239.937 598.717 238.336C598.054 236.735 596.931 235.367 595.49 234.405C594.05 233.442 592.356 232.928 590.623 232.928C588.3 232.928 586.071 233.851 584.428 235.494C582.786 237.137 581.863 239.365 581.863 241.689Z" fill="#DBDBDB"/>
<path d="M616.464 278.739H675.272L645.868 238.875L616.464 278.739Z" fill="#C7C7C7"/>
<path d="M593.403 278.772H641.962L617.677 252.822L593.403 278.772Z" fill="#DBDBDB"/>
<path d="M675.272 278.74H569.505V294.694H675.272V278.74Z" fill="#DBDBDB"/>
<path d="M585.404 333.741C584.473 334.322 583.397 334.63 582.298 334.63C581.2 334.63 580.124 334.322 579.193 333.741C578.101 333.066 577.259 332.053 576.795 330.855C576.33 329.658 576.269 328.342 576.621 327.107C576.972 325.872 577.716 324.785 578.741 324.011C579.765 323.237 581.014 322.819 582.298 322.819C583.582 322.819 584.831 323.237 585.856 324.011C586.881 324.785 587.625 325.872 587.976 327.107C588.327 328.342 588.266 329.658 587.802 330.855C587.338 332.053 586.496 333.066 585.404 333.741Z" fill="#DBDBDB"/>
<path d="M582.304 329.847C583.297 329.847 584.102 329.041 584.102 328.048C584.102 327.055 583.297 326.25 582.304 326.25C581.31 326.25 580.505 327.055 580.505 328.048C580.505 329.041 581.31 329.847 582.304 329.847Z" fill="white"/>
<path d="M585.404 333.002V333.741C584.472 334.322 583.396 334.63 582.298 334.63C581.2 334.63 580.124 334.322 579.192 333.741V333.002C579.239 332.21 579.587 331.467 580.164 330.923C580.742 330.379 581.505 330.076 582.298 330.076C583.091 330.076 583.854 330.379 584.432 330.923C585.009 331.467 585.357 332.21 585.404 333.002Z" fill="white"/>
<path d="M643.838 323.16H595.599V326.25H643.838V323.16Z" fill="#EBEBEB"/>
<path d="M657.188 328.313H595.599V330.365H657.188V328.313Z" fill="#EBEBEB"/>
<path d="M616.574 332.263H595.599V334.315H616.574V332.263Z" fill="#EBEBEB"/>
<path d="M675.25 339.512H569.505V357.596H675.25V339.512Z" fill="#EBEBEB"/>
<path d="M598.865 357.607H582.381C582.987 355.906 584.105 354.434 585.58 353.394C587.056 352.353 588.817 351.794 590.623 351.794C592.429 351.794 594.19 352.353 595.666 353.394C597.142 354.434 598.259 355.906 598.865 357.607Z" fill="#DBDBDB"/>
<path d="M576.61 303.366C576.446 302.694 576.485 301.988 576.723 301.339C576.96 300.689 577.385 300.124 577.943 299.716C578.501 299.307 579.168 299.074 579.859 299.044C580.551 299.015 581.235 299.191 581.826 299.551C582.417 299.91 582.888 300.437 583.18 301.064C583.471 301.691 583.57 302.391 583.464 303.075C583.358 303.758 583.052 304.395 582.584 304.905C582.116 305.414 581.508 305.773 580.836 305.937C580.389 306.047 579.926 306.068 579.471 305.998C579.017 305.929 578.581 305.77 578.188 305.531C577.795 305.292 577.454 304.978 577.183 304.606C576.912 304.235 576.717 303.813 576.61 303.366Z" fill="#EBEBEB"/>
<path fill-rule="evenodd" clip-rule="evenodd" d="M579.535 303.929C579.436 303.874 579.358 303.786 579.237 303.797C579.116 303.808 579.237 303.797 579.237 303.741V302.34C579.229 302.329 579.225 302.315 579.225 302.301C579.225 302.288 579.229 302.274 579.237 302.263C579.59 302.086 579.745 301.733 579.965 301.424C580.082 301.268 580.165 301.089 580.209 300.899C580.252 300.709 580.256 300.512 580.219 300.321C580.219 300.222 580.219 300.178 580.351 300.155C580.398 300.136 580.449 300.134 580.497 300.148C580.546 300.162 580.587 300.192 580.616 300.233C580.72 300.425 580.787 300.634 580.815 300.851C580.837 301.023 580.837 301.197 580.815 301.369C580.815 301.502 580.76 301.623 580.738 301.755C580.716 301.888 580.804 301.755 580.837 301.755H582.017C582.183 301.755 582.271 301.755 582.293 301.91C582.305 301.978 582.294 302.049 582.262 302.11C582.23 302.172 582.179 302.222 582.117 302.252C582.117 302.252 582.04 302.252 582.04 302.307C582.04 302.362 582.04 302.307 582.117 302.362C582.194 302.417 582.227 302.66 582.117 302.781C582.006 302.903 582.006 302.781 582.006 302.848C582.006 302.914 582.073 302.848 582.106 302.936C582.131 302.968 582.148 303.006 582.156 303.046C582.164 303.086 582.163 303.128 582.152 303.168C582.142 303.207 582.122 303.244 582.095 303.274C582.067 303.305 582.033 303.329 581.995 303.344H581.918C581.918 303.344 581.918 303.344 581.918 303.399C581.958 303.418 581.992 303.448 582.015 303.485C582.039 303.522 582.051 303.565 582.051 303.609C582.051 303.653 582.039 303.696 582.015 303.733C581.992 303.77 581.958 303.8 581.918 303.819C581.85 303.841 581.777 303.841 581.709 303.819H579.855C579.848 303.852 579.832 303.882 579.809 303.908C579.787 303.933 579.758 303.952 579.726 303.963C579.694 303.974 579.659 303.977 579.626 303.971C579.592 303.965 579.561 303.95 579.535 303.929Z" fill="white"/>
<path fill-rule="evenodd" clip-rule="evenodd" d="M577.769 303.112C577.769 302.814 577.769 302.517 577.769 302.219C577.769 302.163 577.769 302.13 577.857 302.13C578.21 302.13 578.575 302.13 578.961 302.13C579.027 302.13 579.038 302.13 579.038 302.219V304.006C579.038 304.083 579.038 304.105 578.939 304.105H577.89C577.802 304.105 577.791 304.105 577.791 303.995C577.78 303.752 577.769 303.41 577.769 303.112Z" fill="white"/>
<path d="M583.959 303.366C583.796 302.695 583.835 301.99 584.072 301.341C584.31 300.691 584.734 300.127 585.292 299.719C585.85 299.311 586.516 299.077 587.206 299.047C587.897 299.017 588.581 299.193 589.172 299.551C589.763 299.91 590.234 300.435 590.527 301.062C590.819 301.688 590.919 302.387 590.815 303.07C590.71 303.753 590.406 304.39 589.94 304.901C589.473 305.411 588.867 305.772 588.195 305.937C587.748 306.049 587.283 306.071 586.828 306.002C586.372 305.933 585.935 305.775 585.541 305.536C585.147 305.297 584.804 304.982 584.532 304.609C584.261 304.237 584.066 303.815 583.959 303.366Z" fill="#02A4FF"/>
<path d="M589.144 302.98C589.144 303.454 588.956 303.909 588.621 304.244C588.285 304.579 587.831 304.768 587.357 304.768C586.883 304.768 586.428 304.579 586.093 304.244C585.758 303.909 585.569 303.454 585.569 302.98C585.455 302.813 585.378 302.624 585.344 302.424C585.309 302.225 585.318 302.021 585.369 301.825C585.42 301.63 585.513 301.447 585.641 301.291C585.769 301.134 585.929 301.006 586.11 300.917C587.103 300.619 587.357 302.351 587.357 302.351C587.357 302.351 587.611 300.619 588.615 300.917C589.31 301.127 589.586 302.086 589.144 302.98Z" fill="white"/>
<path d="M645.868 302.086H596.184V304.105H645.868V302.086Z" fill="#EBEBEB"/>
<path d="M569.505 314.146L582.723 313.947L595.941 313.837L622.378 313.738L648.814 313.837L662.032 313.947L675.25 314.146L662.032 314.356L648.814 314.466L622.378 314.565L595.941 314.466L582.723 314.356L569.505 314.146Z" fill="#EBEBEB"/>
</svg>
