<svg width="321" height="313" viewBox="0 0 321 313" fill="none" xmlns="http://www.w3.org/2000/svg">
<path d="M254.151 20.1063C254.198 20.1063 255.616 16.3698 255.679 16.1482C256.4 13.2745 256.091 7.29771 253.303 5.54821C252.827 5.27881 252.3 5.11096 251.756 5.05526C251.211 4.99955 250.661 5.05719 250.14 5.22455C249.62 5.3919 249.139 5.66534 248.729 6.02761C248.319 6.38988 247.989 6.83312 247.759 7.32938C246.721 9.43512 247.45 12.2296 248.448 14.2087C249.573 16.4886 254.151 20.0984 254.151 20.1063Z" fill="#02A4FF"/>
<path d="M319.866 47.5045C317.546 45.1296 311.645 46.1112 308.992 47.4333C308.762 47.5441 305.38 49.7369 305.427 49.8082L305.475 49.8557C304.548 50.0061 303.542 50.1723 302.457 50.3781C300.453 50.7819 298.188 51.2489 295.765 51.9614C293.138 52.6567 290.557 53.5106 288.034 54.5184C285.2 55.6254 282.47 56.9818 279.876 58.5715L279.789 58.6348C280.423 57.8986 282.118 55.7691 282.237 55.595C283.821 53.0855 285.405 47.3145 283.258 44.7734C282.887 44.3678 282.436 44.0439 281.933 43.8223C281.429 43.6006 280.885 43.4862 280.336 43.4862C279.786 43.4862 279.242 43.6006 278.739 43.8223C278.236 44.0439 277.784 44.3678 277.413 44.7734C275.773 46.4516 275.591 49.3253 275.924 51.5181C276.304 53.98 279.258 58.5161 279.496 58.8802C276.897 60.5572 274.415 62.4086 272.067 64.4217C270.689 65.5933 269.342 66.7966 268.004 68.0473C268.526 67.3903 268.994 66.8045 269.049 66.7095C270.633 64.2 272.217 58.429 270.079 55.8879C269.708 55.4823 269.256 55.1584 268.753 54.9368C268.25 54.7151 267.706 54.6007 267.156 54.6007C266.606 54.6007 266.062 54.7151 265.559 54.9368C265.056 55.1584 264.605 55.4823 264.234 55.8879C262.594 57.5661 262.412 60.4477 262.744 62.6326C263.077 64.8175 265.525 68.7677 266.182 69.7573L264.661 71.1901C262.23 73.5017 259.814 75.8212 257.374 78.0219C256.519 78.8135 255.64 79.5339 254.769 80.2701C255.236 79.6843 255.624 79.1935 255.679 79.1144C257.264 76.6049 258.848 70.8339 256.701 68.2848C256.333 67.8767 255.884 67.5497 255.382 67.3247C254.88 67.0997 254.337 66.9815 253.787 66.9778C253.237 66.9741 252.693 67.0849 252.188 67.3031C251.683 67.5213 251.23 67.8421 250.856 68.2452C249.224 69.9235 249.034 72.805 249.367 74.9899C249.7 77.1748 251.917 80.7451 252.694 81.9721C251.783 82.7004 250.864 83.4287 249.945 84.0937C249.304 84.5291 248.717 84.9962 248.052 85.3999L246.12 86.6349C244.86 87.3711 243.569 88.1389 242.326 88.8356C241.462 89.3185 240.631 89.7618 239.799 90.2209C240.662 89.4293 242.318 87.9252 242.445 87.7827C244.083 85.751 245.174 83.3335 245.613 80.7609C245.806 80.5447 245.976 80.3086 246.12 80.0564C246.409 79.5896 246.598 79.0677 246.675 78.5239C246.752 77.98 246.715 77.4262 246.566 76.8975C246.417 76.3689 246.159 75.877 245.81 75.4532C245.46 75.0294 245.026 74.6829 244.536 74.4358C242.247 73.3829 238.73 74.8791 236.29 76.6128C236.393 74.9266 236.346 73.8896 236.346 73.8896L235.704 73.9529L236.172 72.8367C236.488 72.1401 236.726 71.3643 237.003 70.6201C237.621 68.8785 238.16 67.0815 238.667 65.2687C239.815 65.8229 243.91 67.7624 246.135 67.8415C248.361 67.9207 251.189 67.414 252.67 65.5933C253.028 65.1762 253.296 64.6889 253.456 64.1626C253.615 63.6363 253.664 63.0826 253.597 62.5366C253.531 61.9906 253.352 61.4645 253.071 60.9917C252.789 60.5189 252.413 60.1099 251.965 59.7906C249.193 57.9699 243.633 60.1944 241.32 62.0468C241.177 62.1655 239.664 63.6854 238.857 64.5325C239.15 63.44 239.451 62.3476 239.712 61.2235C240.464 58.0015 241.13 54.7084 241.811 51.431C242.017 50.4256 242.239 49.4282 242.452 48.4228C242.856 48.6286 247.68 51.0352 250.167 51.1223C252.385 51.2014 255.22 50.6948 256.701 48.874C257.059 48.4571 257.325 47.9704 257.484 47.4449C257.643 46.9194 257.691 46.3666 257.625 45.8216C257.558 45.2766 257.379 44.7514 257.099 44.2793C256.819 43.8072 256.443 43.3985 255.996 43.0793C253.224 41.2506 247.664 43.4751 245.351 45.3354C245.177 45.47 242.975 47.6549 242.492 48.2407C242.959 46.04 243.458 43.8472 244.029 41.7018C244.785 38.8084 245.732 35.9681 246.864 33.1997C247.054 33.2947 252.076 35.8279 254.626 35.915C256.836 36.0021 259.679 35.4875 261.16 33.6668C261.517 33.2493 261.783 32.7622 261.942 32.2364C262.1 31.7106 262.147 31.1576 262.08 30.6126C262.013 30.0676 261.833 29.5425 261.552 29.0707C261.271 28.5989 260.895 28.1907 260.448 27.872C257.675 26.0434 252.123 28.2679 249.81 30.1282C249.628 30.2707 247.3 32.6218 246.904 33.081C246.975 32.9227 247.023 32.7485 247.094 32.5902C248.297 29.8266 249.747 27.1771 251.426 24.6739C252.337 23.2885 253.28 22.0061 254.23 20.7869C255.117 21.3569 259.196 23.906 261.485 24.2464C263.774 24.5868 266.554 24.3651 268.225 22.7264C268.627 22.3507 268.945 21.8955 269.161 21.3898C269.377 20.8842 269.484 20.3392 269.478 19.7896C269.471 19.24 269.35 18.6978 269.122 18.1976C268.894 17.6974 268.564 17.2501 268.154 16.8842C265.604 14.7626 259.838 16.3696 257.335 17.9608C257.2 18.04 255.909 19.077 254.959 19.837C255.394 19.2987 255.83 18.7287 256.258 18.2141C257.842 16.2826 259.426 14.6122 260.867 13.1477C261.659 12.3561 262.451 11.5644 263.14 10.9074C264.305 11.0103 268.986 11.3665 271.132 10.6303C273.279 9.89409 275.694 8.40583 276.415 6.17343C276.598 5.65557 276.672 5.10525 276.631 4.55749C276.589 4.00974 276.435 3.47653 276.176 2.9918C275.918 2.50706 275.561 2.08142 275.129 1.74193C274.697 1.40245 274.199 1.15655 273.667 1.0199C270.419 0.315352 266.039 4.40017 264.55 6.95714C264.424 7.1788 262.816 10.8757 262.871 10.9153H262.942C262.245 11.5486 261.509 12.2452 260.717 13.0131C259.26 14.4539 257.636 16.0926 255.965 18.0004C254.163 20.0329 252.481 22.1686 250.927 24.3968C249.177 26.8953 247.653 29.5445 246.373 32.3131L246.326 32.416C246.452 31.4502 246.698 28.7428 246.69 28.5291C246.626 25.5684 244.757 19.8845 241.573 18.9345C241.042 18.7962 240.488 18.7697 239.946 18.8568C239.404 18.9439 238.886 19.1426 238.425 19.4403C237.964 19.7381 237.57 20.1284 237.268 20.5864C236.966 21.0444 236.763 21.5602 236.671 22.1011C236.235 24.3968 237.669 26.8983 239.158 28.5449C240.829 30.3974 245.803 32.5031 246.199 32.7168C244.958 35.5447 243.913 38.4542 243.07 41.4248C242.563 43.1584 242.112 44.9159 241.676 46.6891C241.755 45.85 241.819 45.1059 241.811 44.995C241.748 42.0343 239.878 36.3504 236.694 35.4005C236.164 35.2634 235.61 35.2379 235.069 35.3256C234.528 35.4132 234.012 35.6122 233.551 35.9098C233.091 36.2075 232.698 36.5973 232.397 37.0547C232.095 37.5121 231.892 38.027 231.8 38.567C231.356 40.8627 232.798 43.3643 234.279 45.0109C235.76 46.6575 239.989 48.589 241.106 49.0878C240.948 49.7686 240.781 50.4415 240.623 51.1223C239.87 54.3917 239.142 57.6611 238.318 60.8356C238.033 61.9597 237.708 63.0521 237.391 64.1446C237.455 63.4084 237.502 62.7751 237.502 62.6801C237.439 59.7194 235.57 54.0355 232.386 53.0855C231.855 52.9484 231.302 52.9229 230.761 53.0106C230.22 53.0983 229.703 53.2972 229.243 53.5949C228.783 53.8925 228.389 54.2823 228.088 54.7397C227.786 55.1971 227.583 55.7121 227.491 56.252C227.047 58.5557 228.481 61.0572 229.97 62.7038C231.459 64.3504 235.269 66.092 236.591 66.662C236.235 67.7782 235.871 68.8865 235.467 69.9473C235.182 70.6676 234.952 71.3801 234.619 72.0847L233.708 74.1271C233.003 74.2458 232.188 74.4041 231.277 74.61C231.039 71.6255 229.922 67.984 227.649 66.9074C227.143 66.69 226.597 66.5806 226.047 66.586C225.496 66.5913 224.953 66.7115 224.451 66.9387C223.949 67.1659 223.501 67.4952 223.133 67.9056C222.766 68.3159 222.489 68.7983 222.319 69.3219C221.527 71.5305 222.58 74.2221 223.8 76.0666C223.978 76.3467 224.18 76.6114 224.402 76.8582C220.509 78.4449 217.009 80.86 214.145 83.9354C205.932 93.1183 206.549 107.067 206.549 107.067C206.549 107.067 218.2 106.275 226.477 99.1505C229.019 97.9473 232.306 96.3482 236.069 94.3295C237.478 93.5854 238.967 92.7462 240.488 91.8834C240.892 92.3821 244.163 96.4352 246.341 97.5356C248.321 98.541 251.094 99.2614 253.216 98.2322C253.713 98.0032 254.158 97.6735 254.521 97.2641C254.884 96.8547 255.159 96.3745 255.327 95.8538C255.495 95.3331 255.553 94.7831 255.498 94.2387C255.443 93.6943 255.276 93.1673 255.006 92.6908C253.256 89.8726 247.276 89.5718 244.401 90.3159C244.235 90.3634 242.445 91.0284 241.32 91.4638C241.938 91.1076 242.548 90.7672 243.181 90.3872C244.44 89.651 245.676 88.8831 247.007 88.0598L248.915 86.7853C249.557 86.3736 250.191 85.859 250.832 85.392C252.305 84.2837 253.747 83.0804 255.173 81.8455C255.822 82.9458 258.174 86.8169 259.98 88.1073C261.786 89.3976 264.432 90.5376 266.673 89.8409C267.202 89.6898 267.694 89.4302 268.117 89.0786C268.54 88.727 268.885 88.2912 269.13 87.7988C269.375 87.3065 269.515 86.7685 269.541 86.2192C269.566 85.6699 269.477 85.1212 269.279 84.6083C267.98 81.5605 262.111 80.3493 259.164 80.6501C258.974 80.6501 256.883 81.1013 255.735 81.3626C256.582 80.6105 257.438 79.8585 258.277 79.0748C260.653 76.7949 263.03 74.42 265.406 72.0609C266.134 71.3326 266.871 70.6201 267.6 69.9077C267.821 70.2956 270.522 74.9662 272.55 76.4149C274.348 77.7052 277.001 78.8373 279.235 78.1406C279.763 77.9903 280.255 77.7315 280.678 77.3808C281.102 77.0301 281.447 76.5952 281.693 76.1037C281.939 75.6122 282.08 75.075 282.106 74.5261C282.133 73.9773 282.045 73.4289 281.848 72.9159C280.542 69.8602 274.72 68.6569 271.726 68.9577C271.504 68.9577 268.495 69.6069 267.766 69.8048C269.35 68.2215 270.997 66.6382 272.653 65.2054C274.885 63.2067 277.245 61.3556 279.718 59.664C279.821 59.846 282.617 64.7304 284.692 66.2108C286.49 67.5011 289.143 68.6411 291.377 67.9365C291.905 67.7861 292.397 67.5274 292.82 67.1767C293.244 66.826 293.589 66.3911 293.835 65.8996C294.081 65.4081 294.222 64.8708 294.248 64.322C294.275 63.7732 294.187 63.2248 293.99 62.7117C292.683 59.6561 286.822 58.4528 283.868 58.7536C283.638 58.7536 280.399 59.4581 279.813 59.6244C279.963 59.5215 280.098 59.4106 280.241 59.3156C282.766 57.6874 285.433 56.2886 288.208 55.1358C289.729 54.4788 291.218 53.9325 292.683 53.4417C293.111 54.3996 295.107 58.7773 296.834 60.321C298.56 61.8647 300.992 63.2184 303.289 62.7751C303.832 62.6834 304.349 62.4795 304.809 62.1766C305.269 61.8736 305.66 61.4783 305.958 61.0157C306.256 60.5531 306.455 60.0334 306.54 59.4899C306.626 58.9464 306.598 58.391 306.457 57.859C305.491 54.6925 299.796 52.8401 296.834 52.7926C296.667 52.7926 295.028 52.9351 293.832 53.0697C294.497 52.8559 295.178 52.6184 295.82 52.4285C298.196 51.7001 300.469 51.1856 302.465 50.7423C303.598 50.4969 304.627 50.299 305.633 50.1327C306.544 50.8531 310.259 53.7346 312.453 54.3046C314.647 54.8746 317.482 54.9617 319.32 53.513C319.789 53.1825 320.181 52.754 320.469 52.257C320.756 51.7601 320.932 51.2067 320.984 50.6351C321.036 50.0635 320.963 49.4875 320.77 48.9469C320.577 48.4063 320.268 47.9142 319.866 47.5045V47.5045ZM235.197 92.5404C233.471 93.4191 231.839 94.2187 230.334 94.9153C232.883 91.2211 234.633 87.0368 235.475 82.6292C235.926 82.74 236.385 82.835 236.845 82.9221C236.979 85.4157 238.967 89.8489 239.221 90.4188C237.843 91.1788 236.488 91.9229 235.197 92.5404Z" fill="#02A4FF"/>
<path d="M296.478 50.212C298.664 48.2092 301.713 43.0873 300.327 40.0475C300.08 39.557 299.733 39.1233 299.309 38.7739C298.885 38.4246 298.393 38.1673 297.864 38.0184C297.335 37.8695 296.781 37.8322 296.237 37.909C295.693 37.9857 295.17 38.1748 294.703 38.4642C292.684 39.6516 291.741 42.3749 291.488 44.5756C291.187 47.1563 293.008 52.6898 293.008 52.6898C293.008 52.6898 296.295 50.3862 296.478 50.212Z" fill="#02A4FF"/>
<path d="M200.562 25.5764C200.562 25.5764 183.652 42.7232 183.565 63.9705C183.477 85.2179 200.197 102.499 200.197 102.499C200.197 102.499 217.123 85.3525 217.194 64.113C217.266 42.8736 200.562 25.5764 200.562 25.5764Z" fill="#02A4FF"/>
<path d="M163.391 74.1665C163.391 74.1665 163.288 88.1309 171.834 97.0051C180.38 105.879 194.336 106.307 194.336 106.307C194.336 106.307 194.447 92.3424 185.901 83.4682C177.355 74.594 163.391 74.1665 163.391 74.1665Z" fill="#02A4FF"/>
<g opacity="0.5">
<path opacity="0.5" d="M254.151 20.1063C254.198 20.1063 255.616 16.3698 255.679 16.1482C256.4 13.2745 256.091 7.29771 253.303 5.54821C252.827 5.27881 252.3 5.11096 251.756 5.05526C251.212 4.99955 250.662 5.05719 250.141 5.22455C249.62 5.3919 249.139 5.66534 248.729 6.02761C248.319 6.38988 247.989 6.83312 247.759 7.32938C246.722 9.43512 247.45 12.2296 248.448 14.2087C249.573 16.4886 254.151 20.0984 254.151 20.1063Z" fill="white"/>
<path opacity="0.5" d="M319.866 47.5045C317.546 45.1296 311.645 46.1112 308.992 47.4333C308.762 47.5441 305.38 49.7369 305.427 49.8082L305.475 49.8557C304.548 50.0061 303.542 50.1723 302.457 50.3781C300.453 50.7819 298.188 51.2489 295.765 51.9614C293.138 52.6567 290.557 53.5106 288.034 54.5184C285.2 55.6254 282.47 56.9818 279.876 58.5715L279.789 58.6348C280.423 57.8986 282.118 55.7691 282.237 55.595C283.821 53.0855 285.405 47.3145 283.258 44.7734C282.887 44.3678 282.436 44.0439 281.933 43.8223C281.429 43.6006 280.885 43.4862 280.336 43.4862C279.786 43.4862 279.242 43.6006 278.739 43.8223C278.236 44.0439 277.784 44.3678 277.413 44.7734C275.773 46.4516 275.591 49.3253 275.924 51.5181C276.304 53.98 279.258 58.5161 279.496 58.8802C276.897 60.5572 274.415 62.4086 272.067 64.4217C270.689 65.5933 269.342 66.7966 268.004 68.0473C268.526 67.3903 268.994 66.8045 269.049 66.7095C270.633 64.2 272.217 58.429 270.079 55.8879C269.708 55.4823 269.256 55.1584 268.753 54.9368C268.25 54.7151 267.706 54.6007 267.156 54.6007C266.606 54.6007 266.062 54.7151 265.559 54.9368C265.056 55.1584 264.605 55.4823 264.234 55.8879C262.594 57.5661 262.412 60.4477 262.744 62.6326C263.077 64.8175 265.525 68.7677 266.182 69.7573L264.661 71.1901C262.23 73.5017 259.814 75.8212 257.374 78.0219C256.519 78.8135 255.64 79.5339 254.769 80.2701C255.236 79.6843 255.624 79.1935 255.679 79.1144C257.264 76.6049 258.848 70.8339 256.701 68.2848C256.333 67.8767 255.884 67.5497 255.382 67.3247C254.88 67.0997 254.337 66.9815 253.787 66.9778C253.237 66.9741 252.693 67.0849 252.188 67.3031C251.683 67.5213 251.23 67.8421 250.856 68.2452C249.224 69.9235 249.034 72.805 249.367 74.9899C249.7 77.1748 251.917 80.7451 252.694 81.9721C251.783 82.7004 250.864 83.4287 249.945 84.0937C249.304 84.5291 248.717 84.9962 248.052 85.3999L246.12 86.6349C244.86 87.3711 243.569 88.1389 242.326 88.8356C241.462 89.3185 240.631 89.7618 239.799 90.2209C240.662 89.4293 242.318 87.9252 242.445 87.7827C244.083 85.751 245.174 83.3335 245.613 80.7609C245.806 80.5447 245.976 80.3086 246.12 80.0564C246.409 79.5896 246.598 79.0677 246.675 78.5239C246.752 77.98 246.715 77.4262 246.566 76.8975C246.417 76.3689 246.159 75.877 245.81 75.4532C245.46 75.0294 245.026 74.6829 244.536 74.4358C242.247 73.3829 238.73 74.8791 236.29 76.6128C236.393 74.9266 236.346 73.8896 236.346 73.8896L235.704 73.9529L236.172 72.8367C236.488 72.1401 236.726 71.3643 237.003 70.6201C237.621 68.8785 238.16 67.0815 238.667 65.2687C239.815 65.8229 243.91 67.7624 246.135 67.8415C248.361 67.9207 251.189 67.414 252.67 65.5933C253.028 65.1762 253.296 64.6889 253.456 64.1626C253.615 63.6363 253.664 63.0826 253.597 62.5366C253.531 61.9906 253.352 61.4645 253.071 60.9917C252.789 60.5189 252.413 60.1099 251.965 59.7906C249.193 57.9699 243.633 60.1944 241.32 62.0468C241.177 62.1655 239.664 63.6854 238.857 64.5325C239.15 63.44 239.451 62.3476 239.712 61.2235C240.464 58.0015 241.13 54.7084 241.811 51.431C242.017 50.4256 242.239 49.4282 242.452 48.4228C242.856 48.6286 247.68 51.0352 250.167 51.1223C252.385 51.2014 255.22 50.6948 256.701 48.874C257.059 48.4571 257.325 47.9704 257.484 47.4449C257.643 46.9194 257.691 46.3666 257.625 45.8216C257.558 45.2766 257.379 44.7514 257.099 44.2793C256.819 43.8072 256.443 43.3985 255.996 43.0793C253.224 41.2506 247.664 43.4751 245.351 45.3354C245.177 45.47 242.975 47.6549 242.492 48.2407C242.959 46.04 243.458 43.8472 244.029 41.7018C244.785 38.8084 245.732 35.9681 246.864 33.1997C247.054 33.2947 252.076 35.8279 254.626 35.915C256.836 36.0021 259.679 35.4875 261.16 33.6668C261.517 33.2493 261.783 32.7622 261.942 32.2364C262.1 31.7106 262.147 31.1576 262.08 30.6126C262.013 30.0676 261.833 29.5425 261.552 29.0707C261.271 28.5989 260.895 28.1907 260.448 27.872C257.675 26.0434 252.123 28.2679 249.81 30.1282C249.628 30.2707 247.3 32.6218 246.904 33.081C246.975 32.9227 247.023 32.7485 247.094 32.5902C248.297 29.8266 249.747 27.1771 251.426 24.6739C252.337 23.2885 253.28 22.0061 254.23 20.7869C255.117 21.3569 259.196 23.906 261.485 24.2464C263.774 24.5868 266.554 24.3651 268.225 22.7264C268.627 22.3507 268.945 21.8955 269.161 21.3898C269.377 20.8842 269.484 20.3392 269.478 19.7896C269.471 19.24 269.35 18.6978 269.122 18.1976C268.894 17.6974 268.564 17.2501 268.154 16.8842C265.604 14.7626 259.838 16.3696 257.335 17.9608C257.2 18.04 255.909 19.077 254.959 19.837C255.394 19.2987 255.83 18.7287 256.258 18.2141C257.842 16.2826 259.426 14.6122 260.867 13.1477C261.659 12.3561 262.451 11.5644 263.14 10.9074C264.305 11.0103 268.986 11.3665 271.132 10.6303C273.279 9.89409 275.694 8.40583 276.415 6.17343C276.598 5.65557 276.672 5.10525 276.631 4.55749C276.589 4.00974 276.435 3.47653 276.176 2.9918C275.918 2.50706 275.561 2.08142 275.129 1.74193C274.697 1.40245 274.199 1.15655 273.667 1.0199C270.419 0.315352 266.039 4.40017 264.55 6.95714C264.424 7.1788 262.816 10.8757 262.871 10.9153H262.942C262.245 11.5486 261.509 12.2452 260.717 13.0131C259.26 14.4539 257.636 16.0926 255.965 18.0004C254.163 20.0329 252.481 22.1686 250.927 24.3968C249.177 26.8953 247.653 29.5445 246.373 32.3131L246.326 32.416C246.452 31.4502 246.698 28.7428 246.69 28.5291C246.626 25.5684 244.757 19.8845 241.573 18.9345C241.042 18.7962 240.488 18.7697 239.946 18.8568C239.404 18.9439 238.886 19.1426 238.425 19.4403C237.964 19.7381 237.57 20.1284 237.268 20.5864C236.966 21.0444 236.763 21.5602 236.671 22.1011C236.235 24.3968 237.669 26.8983 239.158 28.5449C240.829 30.3974 245.803 32.5031 246.199 32.7168C244.958 35.5447 243.913 38.4542 243.07 41.4248C242.563 43.1584 242.112 44.9159 241.676 46.6891C241.755 45.85 241.819 45.1059 241.811 44.995C241.748 42.0343 239.878 36.3504 236.694 35.4005C236.164 35.2634 235.61 35.2379 235.069 35.3256C234.528 35.4132 234.012 35.6122 233.551 35.9098C233.091 36.2075 232.698 36.5973 232.397 37.0547C232.095 37.5121 231.892 38.027 231.8 38.567C231.356 40.8627 232.798 43.3643 234.279 45.0109C235.76 46.6575 239.989 48.589 241.106 49.0878C240.948 49.7686 240.781 50.4415 240.623 51.1223C239.87 54.3917 239.142 57.6611 238.318 60.8356C238.033 61.9597 237.708 63.0521 237.391 64.1446C237.455 63.4084 237.502 62.7751 237.502 62.6801C237.439 59.7194 235.57 54.0355 232.386 53.0855C231.855 52.9484 231.302 52.9229 230.761 53.0106C230.22 53.0983 229.703 53.2972 229.243 53.5949C228.783 53.8925 228.389 54.2823 228.088 54.7397C227.786 55.1971 227.583 55.7121 227.491 56.252C227.047 58.5557 228.481 61.0572 229.97 62.7038C231.459 64.3504 235.269 66.092 236.591 66.662C236.235 67.7782 235.871 68.8865 235.467 69.9473C235.182 70.6676 234.952 71.3801 234.619 72.0847L233.708 74.1271C233.003 74.2458 232.188 74.4041 231.277 74.61C231.039 71.6255 229.922 67.984 227.649 66.9074C227.143 66.69 226.597 66.5806 226.047 66.586C225.496 66.5913 224.953 66.7115 224.451 66.9387C223.949 67.1659 223.501 67.4952 223.133 67.9056C222.766 68.3159 222.489 68.7983 222.319 69.3219C221.527 71.5305 222.58 74.2221 223.8 76.0666C223.978 76.3467 224.18 76.6114 224.402 76.8582C220.509 78.4449 217.009 80.86 214.145 83.9354C205.932 93.1183 206.549 107.067 206.549 107.067C206.549 107.067 218.2 106.275 226.477 99.1505C229.019 97.9473 232.306 96.3482 236.069 94.3295C237.478 93.5854 238.967 92.7462 240.488 91.8834C240.892 92.3821 244.163 96.4352 246.341 97.5356C248.321 98.541 251.094 99.2614 253.216 98.2322C253.713 98.0032 254.158 97.6735 254.521 97.2641C254.884 96.8547 255.159 96.3745 255.327 95.8538C255.495 95.3331 255.553 94.7831 255.498 94.2387C255.443 93.6943 255.276 93.1673 255.006 92.6908C253.256 89.8726 247.276 89.5718 244.401 90.3159C244.235 90.3634 242.445 91.0284 241.32 91.4638C241.938 91.1076 242.548 90.7672 243.181 90.3872C244.44 89.651 245.676 88.8831 247.007 88.0598L248.915 86.7853C249.557 86.3736 250.191 85.859 250.832 85.392C252.305 84.2837 253.747 83.0804 255.173 81.8455C255.822 82.9458 258.174 86.8169 259.98 88.1073C261.786 89.3976 264.432 90.5376 266.673 89.8409C267.202 89.6898 267.694 89.4302 268.117 89.0786C268.54 88.727 268.885 88.2912 269.13 87.7988C269.375 87.3065 269.515 86.7685 269.541 86.2192C269.566 85.6699 269.477 85.1212 269.279 84.6083C267.98 81.5605 262.111 80.3493 259.164 80.6501C258.974 80.6501 256.883 81.1013 255.735 81.3626C256.582 80.6105 257.438 79.8585 258.277 79.0748C260.653 76.7949 263.03 74.42 265.406 72.0609C266.134 71.3326 266.871 70.6201 267.6 69.9077C267.821 70.2956 270.522 74.9662 272.55 76.4149C274.348 77.7052 277.001 78.8373 279.235 78.1406C279.763 77.9903 280.255 77.7315 280.678 77.3808C281.102 77.0301 281.447 76.5952 281.693 76.1037C281.939 75.6122 282.08 75.075 282.106 74.5261C282.133 73.9773 282.045 73.4289 281.848 72.9159C280.542 69.8602 274.72 68.6569 271.726 68.9577C271.504 68.9577 268.495 69.6069 267.766 69.8048C269.35 68.2215 270.997 66.6382 272.653 65.2054C274.885 63.2067 277.245 61.3556 279.718 59.664C279.821 59.846 282.617 64.7304 284.692 66.2108C286.49 67.5011 289.143 68.6411 291.377 67.9365C291.905 67.7861 292.397 67.5274 292.82 67.1767C293.244 66.826 293.589 66.3911 293.835 65.8996C294.081 65.4081 294.222 64.8708 294.248 64.322C294.275 63.7732 294.187 63.2248 293.99 62.7117C292.683 59.6561 286.822 58.4528 283.868 58.7536C283.638 58.7536 280.399 59.4581 279.813 59.6244C279.963 59.5215 280.098 59.4106 280.241 59.3156C282.766 57.6874 285.433 56.2886 288.208 55.1358C289.729 54.4788 291.218 53.9325 292.683 53.4417C293.111 54.3996 295.107 58.7773 296.834 60.321C298.56 61.8647 300.992 63.2184 303.289 62.7751C303.832 62.6834 304.349 62.4795 304.809 62.1766C305.269 61.8736 305.66 61.4783 305.958 61.0157C306.256 60.5531 306.455 60.0334 306.54 59.4899C306.626 58.9464 306.598 58.391 306.457 57.859C305.491 54.6925 299.796 52.8401 296.834 52.7926C296.667 52.7926 295.028 52.9351 293.832 53.0697C294.497 52.8559 295.178 52.6184 295.82 52.4285C298.196 51.7001 300.469 51.1856 302.465 50.7423C303.598 50.4969 304.627 50.299 305.633 50.1327C306.544 50.8531 310.259 53.7346 312.453 54.3046C314.647 54.8746 317.482 54.9617 319.32 53.513C319.789 53.1825 320.181 52.754 320.469 52.257C320.756 51.7601 320.932 51.2067 320.984 50.6351C321.036 50.0635 320.963 49.4875 320.77 48.9469C320.577 48.4063 320.268 47.9142 319.866 47.5045V47.5045ZM235.197 92.5404C233.471 93.4191 231.839 94.2187 230.334 94.9153C232.883 91.2211 234.633 87.0368 235.475 82.6292C235.926 82.74 236.385 82.835 236.845 82.9221C236.979 85.4157 238.967 89.8489 239.221 90.4188C237.843 91.1788 236.488 91.9229 235.197 92.5404Z" fill="white"/>
<path opacity="0.5" d="M296.478 50.212C298.664 48.2092 301.713 43.0873 300.327 40.0475C300.08 39.557 299.733 39.1233 299.309 38.7739C298.885 38.4246 298.393 38.1673 297.864 38.0184C297.335 37.8695 296.781 37.8322 296.237 37.909C295.693 37.9857 295.17 38.1748 294.703 38.4642C292.684 39.6516 291.741 42.3749 291.488 44.5756C291.187 47.1563 293.008 52.6898 293.008 52.6898C293.008 52.6898 296.295 50.3862 296.478 50.212Z" fill="white"/>
<path opacity="0.5" d="M200.562 25.5764C200.562 25.5764 183.652 42.7232 183.565 63.9705C183.477 85.2179 200.197 102.499 200.197 102.499C200.197 102.499 217.123 85.3525 217.194 64.113C217.266 42.8736 200.562 25.5764 200.562 25.5764Z" fill="white"/>
<path opacity="0.5" d="M163.391 74.1665C163.391 74.1665 163.288 88.1309 171.834 97.0051C180.38 105.879 194.336 106.307 194.336 106.307C194.336 106.307 194.447 92.3424 185.901 83.4682C177.355 74.594 163.391 74.1665 163.391 74.1665Z" fill="white"/>
</g>
<path d="M211.191 83.223L210.652 82.5264L200.704 90.3319L200.783 73.1614L214.604 60.9386L214.018 60.2815L200.783 71.9818L200.87 53.1252L210.177 45.0664L209.607 44.4014L200.87 51.9536L200.989 25.5764H200.11L199.936 64.4376L188.99 48.4387L188.261 48.9295L199.865 65.8784L199.936 65.8309L199.865 81.9802L186.733 70.1769L186.146 70.834L199.857 83.1597V83.1518L199.777 102.499L200.657 102.507L200.704 91.4481L211.191 83.223Z" fill="white"/>
<path d="M236.663 74.0875L236.013 73.5017L221.377 89.8568L222.707 79.2885L221.836 79.1856L220.347 90.9968H220.355L214.47 97.5752L213.361 87.8144L212.49 87.9094L213.686 98.4539L206.257 106.75L206.914 107.336L211.136 102.626L218.763 103.085L218.81 102.206L211.88 101.787L218.208 94.7174L228.83 94.7253V93.8466L218.993 93.8308L225.955 86.057L233.012 86.1441L233.027 85.2654L226.739 85.1862L236.663 74.0875Z" fill="white"/>
<path d="M191.295 93.8782L190.424 93.7594L189.489 100.639L182.907 93.799L183.715 83.2149L182.836 83.1516L182.091 92.952L174.844 85.4315L175.462 78.4018L174.583 78.3305L174.036 84.5923L163.708 73.8657L163.074 74.4753L178.297 90.2842L167.858 88.1626L167.684 89.0255L179.359 91.3924V91.3766L185.481 97.7413L175.66 98.1134L175.692 98.9921L186.297 98.5884L194.019 106.608L194.653 105.998L190.273 101.446L191.295 93.8782Z" fill="white"/>
<path d="M197.718 303.819L298.854 265.892L299.582 257.81L199.191 295.729L197.718 303.819Z" fill="#02A4FF" stroke="#2E353A" stroke-width="1.13593" stroke-linecap="round" stroke-linejoin="round"/>
<path d="M180.69 169.748C178.913 169.735 177.195 169.108 175.827 167.975C174.107 166.558 172.978 164.551 172.659 162.347C172.619 161.953 172.731 161.559 172.974 161.246C173.216 160.933 173.57 160.725 173.961 160.665C174.353 160.605 174.752 160.697 175.077 160.924C175.402 161.15 175.628 161.492 175.708 161.879C175.915 163.325 176.651 164.643 177.775 165.576C178.264 165.998 178.838 166.308 179.459 166.486C180.079 166.663 180.731 166.704 181.369 166.606C182.007 166.507 182.616 166.271 183.153 165.915C183.691 165.558 184.145 165.089 184.484 164.539C184.717 164.216 185.066 163.996 185.459 163.924C185.851 163.852 186.256 163.935 186.588 164.155C186.921 164.375 187.156 164.715 187.243 165.104C187.331 165.493 187.264 165.9 187.058 166.241C186.48 167.148 185.715 167.92 184.815 168.509C183.915 169.097 182.901 169.487 181.838 169.653C181.459 169.717 181.075 169.749 180.69 169.748V169.748Z" fill="#2E353A"/>
<path d="M166.092 174.253C162.188 174.253 158.695 171.15 158.037 166.859C158.006 166.659 158.014 166.455 158.061 166.259C158.109 166.062 158.195 165.877 158.314 165.714C158.433 165.551 158.583 165.413 158.756 165.307C158.929 165.202 159.121 165.132 159.32 165.101C159.724 165.048 160.133 165.153 160.462 165.393C160.791 165.633 161.015 165.991 161.087 166.392C161.546 169.408 164.089 171.53 166.742 171.142C167.379 171.038 167.986 170.8 168.524 170.444C169.062 170.088 169.518 169.621 169.862 169.075C170.096 168.752 170.445 168.532 170.837 168.46C171.23 168.388 171.635 168.471 171.967 168.691C172.3 168.911 172.534 169.251 172.622 169.64C172.709 170.029 172.643 170.436 172.437 170.777C171.859 171.684 171.094 172.457 170.194 173.045C169.294 173.633 168.279 174.023 167.217 174.189C166.845 174.241 166.468 174.262 166.092 174.253Z" fill="#2E353A"/>
<path d="M152.739 179.375C150.963 179.363 149.245 178.739 147.876 177.609C146.158 176.19 145.029 174.185 144.707 171.981C144.667 171.587 144.78 171.193 145.023 170.88C145.265 170.567 145.619 170.359 146.01 170.299C146.401 170.239 146.801 170.332 147.126 170.558C147.451 170.784 147.677 171.126 147.757 171.514C147.963 172.96 148.7 174.277 149.824 175.211C150.318 175.624 150.893 175.93 151.513 176.107C152.132 176.284 152.782 176.329 153.42 176.24C154.056 176.136 154.662 175.898 155.199 175.542C155.735 175.185 156.19 174.719 156.532 174.174C156.791 173.923 157.128 173.768 157.487 173.734C157.846 173.701 158.206 173.791 158.507 173.989C158.808 174.187 159.032 174.483 159.143 174.826C159.253 175.169 159.243 175.539 159.115 175.876C158.534 176.781 157.768 177.554 156.867 178.142C155.966 178.73 154.95 179.121 153.887 179.288C153.507 179.348 153.123 179.378 152.739 179.375V179.375Z" fill="#2E353A"/>
<path d="M138.142 183.554C134.237 183.554 130.744 180.443 130.087 176.16C130.046 175.956 130.047 175.746 130.089 175.542C130.132 175.338 130.215 175.145 130.335 174.974C130.454 174.804 130.607 174.659 130.783 174.549C130.96 174.438 131.157 174.365 131.363 174.333C131.569 174.301 131.779 174.311 131.981 174.362C132.183 174.413 132.373 174.505 132.538 174.631C132.704 174.758 132.842 174.916 132.945 175.097C133.048 175.278 133.113 175.479 133.136 175.686C133.603 178.702 136.138 180.823 138.791 180.435C139.427 180.331 140.034 180.094 140.572 179.74C141.109 179.385 141.566 178.921 141.912 178.377C142.016 178.193 142.157 178.033 142.326 177.905C142.495 177.778 142.688 177.687 142.894 177.637C143.099 177.588 143.313 177.581 143.521 177.617C143.73 177.654 143.928 177.732 144.105 177.849C144.282 177.965 144.432 178.116 144.548 178.293C144.664 178.47 144.742 178.669 144.778 178.877C144.813 179.086 144.806 179.299 144.756 179.505C144.706 179.71 144.614 179.903 144.486 180.071C143.907 180.977 143.142 181.75 142.242 182.34C141.343 182.929 140.329 183.322 139.266 183.491C138.893 183.539 138.518 183.56 138.142 183.554Z" fill="#2E353A"/>
<path d="M123.196 189.492C119.299 189.492 115.806 186.388 115.141 182.098C115.165 181.738 115.311 181.398 115.555 181.133C115.798 180.867 116.126 180.693 116.482 180.639C116.838 180.584 117.202 180.653 117.514 180.833C117.826 181.014 118.067 181.295 118.198 181.631C118.657 184.647 121.2 186.761 123.853 186.381C124.489 186.275 125.097 186.037 125.634 185.681C126.172 185.325 126.629 184.859 126.974 184.314C127.207 183.991 127.556 183.771 127.949 183.699C128.341 183.627 128.746 183.71 129.078 183.93C129.411 184.15 129.646 184.49 129.733 184.879C129.821 185.268 129.754 185.675 129.548 186.016C128.969 186.922 128.204 187.694 127.304 188.282C126.404 188.87 125.39 189.261 124.328 189.428C123.953 189.476 123.574 189.498 123.196 189.492Z" fill="#2E353A"/>
<path d="M108.725 194.787C106.949 194.777 105.231 194.153 103.862 193.022C102.145 191.603 101.016 189.597 100.694 187.394C100.654 187 100.767 186.606 101.009 186.293C101.252 185.98 101.605 185.772 101.997 185.712C102.388 185.652 102.788 185.745 103.113 185.971C103.438 186.197 103.663 186.539 103.743 186.927C103.95 188.372 104.687 189.69 105.81 190.623C106.299 191.045 106.874 191.355 107.494 191.533C108.115 191.711 108.766 191.751 109.404 191.653C110.042 191.554 110.651 191.318 111.189 190.962C111.727 190.605 112.18 190.136 112.519 189.586C112.778 189.336 113.115 189.181 113.474 189.147C113.833 189.114 114.192 189.204 114.493 189.402C114.794 189.6 115.019 189.895 115.129 190.238C115.24 190.581 115.23 190.952 115.101 191.288C114.521 192.194 113.755 192.967 112.853 193.555C111.952 194.143 110.937 194.533 109.874 194.7C109.494 194.761 109.11 194.79 108.725 194.787Z" fill="#2E353A"/>
<path d="M200.491 298.887L284.185 268.069" stroke="#2E353A" stroke-width="0.567964" stroke-linecap="round" stroke-linejoin="round"/>
<path d="M198.289 301.46L251.878 281.646" stroke="#2E353A" stroke-width="0.567964" stroke-linecap="round" stroke-linejoin="round"/>
<path d="M96.9478 191.233V200.788L197.719 303.819L199.192 295.729L96.9478 191.233Z" fill="#02A4FF" stroke="#2E353A" stroke-width="1.13593" stroke-linecap="round" stroke-linejoin="round"/>
<path d="M98.4443 198.73L158.283 258.53" stroke="#2E353A" stroke-width="0.567964" stroke-linecap="round" stroke-linejoin="round"/>
<path d="M126.712 224.41L189.109 288.248" stroke="#2E353A" stroke-width="0.567964" stroke-linecap="round" stroke-linejoin="round"/>
<path d="M96.9478 191.233L199.192 295.728L299.583 257.809L195.533 158.143L96.9478 191.233Z" fill="white" stroke="#2E353A" stroke-width="1.13593" stroke-linecap="round" stroke-linejoin="round"/>
<path d="M95.696 189.587L1 101.249L98.0009 71.0161L194.788 156.568L95.696 189.587Z" fill="#02A4FF" stroke="#2E353A" stroke-width="1.13593" stroke-linecap="round" stroke-linejoin="round"/>
<path d="M15.4944 101.834L43.2157 93.2053" stroke="#2E353A" stroke-width="1.21052" stroke-linecap="round" stroke-linejoin="round"/>
<path d="M19.5891 105.016L47.3104 96.3877" stroke="#2E353A" stroke-width="1.21052" stroke-linecap="round" stroke-linejoin="round"/>
<path d="M113.802 191.977C113.501 191.979 113.206 191.891 112.955 191.724C112.62 191.493 112.388 191.142 112.305 190.744C112.223 190.346 112.296 189.932 112.511 189.587C113.302 188.358 113.607 186.879 113.366 185.439C113.232 184.346 112.775 183.319 112.055 182.487C111.334 181.655 110.382 181.057 109.319 180.768C108.936 180.663 108.607 180.414 108.403 180.073C108.198 179.733 108.133 179.326 108.221 178.938C108.308 178.551 108.542 178.212 108.874 177.992C109.205 177.773 109.609 177.689 110 177.76C111.667 178.187 113.169 179.101 114.313 180.386C115.458 181.67 116.192 183.267 116.424 184.971C116.786 187.174 116.311 189.433 115.093 191.305C114.947 191.512 114.754 191.681 114.53 191.798C114.305 191.915 114.055 191.977 113.802 191.977Z" fill="#2E353A"/>
<path d="M128.257 186.681C127.955 186.683 127.66 186.595 127.409 186.428C127.239 186.317 127.093 186.173 126.98 186.005C126.866 185.837 126.786 185.649 126.746 185.45C126.705 185.251 126.704 185.046 126.744 184.847C126.783 184.648 126.861 184.459 126.974 184.29C127.761 183.061 128.066 181.583 127.829 180.142C127.695 179.05 127.238 178.023 126.517 177.191C125.796 176.359 124.844 175.761 123.782 175.472C123.574 175.437 123.376 175.361 123.199 175.248C123.023 175.134 122.871 174.986 122.753 174.812C122.636 174.638 122.555 174.441 122.516 174.235C122.477 174.029 122.481 173.817 122.527 173.612C122.573 173.407 122.66 173.213 122.783 173.043C122.906 172.873 123.063 172.73 123.243 172.623C123.424 172.515 123.624 172.446 123.833 172.418C124.041 172.391 124.253 172.406 124.455 172.463C126.122 172.89 127.624 173.805 128.768 175.089C129.912 176.374 130.647 177.971 130.878 179.675C131.24 181.878 130.766 184.137 129.548 186.008C129.402 186.215 129.209 186.385 128.984 186.502C128.759 186.619 128.51 186.68 128.257 186.681V186.681Z" fill="#2E353A"/>
<path d="M185.766 166.938C185.495 166.925 185.232 166.841 185.002 166.697C184.773 166.552 184.584 166.351 184.454 166.113C184.325 165.874 184.259 165.607 184.262 165.335C184.266 165.064 184.339 164.798 184.475 164.563C185.268 163.338 185.573 161.861 185.331 160.423C185.198 159.329 184.742 158.3 184.021 157.467C183.3 156.634 182.347 156.034 181.284 155.744C181.086 155.701 180.899 155.62 180.733 155.504C180.567 155.388 180.426 155.24 180.317 155.069C180.209 154.898 180.136 154.708 180.102 154.508C180.068 154.309 180.074 154.105 180.119 153.908C180.217 153.513 180.464 153.171 180.807 152.953C181.151 152.735 181.565 152.657 181.965 152.736C183.632 153.163 185.133 154.078 186.278 155.362C187.422 156.647 188.157 158.244 188.388 159.948C188.751 162.152 188.273 164.412 187.05 166.281C186.906 166.488 186.714 166.656 186.49 166.77C186.267 166.885 186.018 166.943 185.766 166.938V166.938Z" fill="#2E353A"/>
<path d="M171.146 171.426C170.844 171.428 170.549 171.34 170.298 171.173C170.128 171.062 169.982 170.918 169.868 170.751C169.755 170.583 169.675 170.394 169.635 170.195C169.594 169.996 169.593 169.792 169.632 169.593C169.672 169.394 169.75 169.204 169.862 169.036C170.651 167.806 170.956 166.329 170.718 164.888C170.583 163.795 170.127 162.768 169.406 161.936C168.685 161.104 167.733 160.506 166.67 160.217C166.463 160.183 166.265 160.106 166.088 159.993C165.912 159.88 165.76 159.731 165.642 159.557C165.525 159.383 165.444 159.187 165.405 158.98C165.366 158.774 165.37 158.562 165.416 158.357C165.462 158.152 165.549 157.959 165.672 157.789C165.795 157.619 165.952 157.475 166.132 157.368C166.313 157.26 166.513 157.191 166.722 157.164C166.93 157.136 167.142 157.152 167.344 157.209C169.012 157.634 170.515 158.548 171.659 159.833C172.804 161.118 173.538 162.715 173.767 164.421C174.129 166.624 173.655 168.882 172.437 170.754C172.291 170.961 172.098 171.13 171.873 171.247C171.648 171.364 171.399 171.426 171.146 171.426V171.426Z" fill="#2E353A"/>
<path d="M157.792 176.572C157.49 176.571 157.195 176.48 156.945 176.311C156.61 176.08 156.378 175.729 156.295 175.331C156.213 174.933 156.286 174.519 156.501 174.173C157.296 172.947 157.604 171.467 157.364 170.025C157.23 168.933 156.773 167.906 156.052 167.074C155.332 166.242 154.379 165.644 153.317 165.355C153.11 165.32 152.912 165.244 152.735 165.131C152.558 165.017 152.406 164.869 152.289 164.695C152.171 164.521 152.091 164.325 152.052 164.118C152.013 163.912 152.016 163.7 152.062 163.495C152.108 163.29 152.195 163.096 152.318 162.926C152.442 162.756 152.598 162.613 152.779 162.506C152.959 162.398 153.16 162.329 153.368 162.301C153.576 162.274 153.788 162.289 153.99 162.347C155.657 162.773 157.159 163.688 158.303 164.973C159.447 166.257 160.182 167.854 160.414 169.558C160.776 171.761 160.301 174.02 159.083 175.891C158.938 176.1 158.745 176.271 158.521 176.389C158.296 176.508 158.046 176.57 157.792 176.572V176.572Z" fill="#2E353A"/>
<path d="M143.195 180.744C142.894 180.742 142.6 180.654 142.347 180.491C142.177 180.38 142.031 180.236 141.917 180.068C141.804 179.9 141.724 179.712 141.684 179.513C141.643 179.314 141.642 179.109 141.681 178.91C141.721 178.711 141.799 178.522 141.911 178.353C142.699 177.124 143.004 175.646 142.767 174.205C142.632 173.113 142.176 172.086 141.455 171.254C140.734 170.422 139.782 169.824 138.719 169.535C138.482 169.535 138.248 169.482 138.034 169.379C137.82 169.276 137.631 169.127 137.483 168.942C137.334 168.757 137.23 168.541 137.176 168.31C137.122 168.078 137.121 167.838 137.173 167.607C137.224 167.375 137.328 167.158 137.474 166.972C137.621 166.785 137.808 166.634 138.021 166.53C138.234 166.425 138.468 166.37 138.706 166.368C138.943 166.366 139.178 166.418 139.393 166.519C141.061 166.943 142.565 167.856 143.709 169.141C144.854 170.427 145.588 172.025 145.816 173.73C146.179 175.933 145.704 178.192 144.486 180.063C144.341 180.272 144.148 180.443 143.923 180.561C143.698 180.68 143.449 180.743 143.195 180.744V180.744Z" fill="#2E353A"/>
<path d="M280.257 255.396L284.154 253.962" stroke="#2E353A" stroke-width="0.567964" stroke-linecap="round" stroke-linejoin="round"/>
<path d="M203.326 283.799L276.716 256.709" stroke="#2E353A" stroke-width="0.567964" stroke-linecap="round" stroke-linejoin="round"/>
<path d="M205.385 271.552L275.425 245.697" stroke="#2E353A" stroke-width="0.567964" stroke-linecap="round" stroke-linejoin="round"/>
<path d="M194.598 275.534L200.728 273.27" stroke="#2E353A" stroke-width="0.567964" stroke-linecap="round" stroke-linejoin="round"/>
<path d="M185.87 267.269L266.705 237.433" stroke="#2E353A" stroke-width="0.567964" stroke-linecap="round" stroke-linejoin="round"/>
<path d="M177.149 259.013L257.977 229.176" stroke="#2E353A" stroke-width="0.567964" stroke-linecap="round" stroke-linejoin="round"/>
<path d="M245.859 222.163L249.249 220.912" stroke="#2E353A" stroke-width="0.567964" stroke-linecap="round" stroke-linejoin="round"/>
<path d="M168.421 250.748L241.011 223.951" stroke="#2E353A" stroke-width="0.567964" stroke-linecap="round" stroke-linejoin="round"/>
<path d="M159.693 242.483L240.528 212.647" stroke="#2E353A" stroke-width="0.567964" stroke-linecap="round" stroke-linejoin="round"/>
<path d="M150.965 234.227L231.8 204.39" stroke="#2E353A" stroke-width="0.567964" stroke-linecap="round" stroke-linejoin="round"/>
<path d="M142.244 225.962L223.072 196.125" stroke="#2E353A" stroke-width="0.567964" stroke-linecap="round" stroke-linejoin="round"/>
<path d="M133.516 217.697L214.343 187.861" stroke="#2E353A" stroke-width="0.567964" stroke-linecap="round" stroke-linejoin="round"/>
<path d="M202.756 180.658L205.623 179.596" stroke="#2E353A" stroke-width="0.567964" stroke-linecap="round" stroke-linejoin="round"/>
<path d="M124.788 209.433L200.269 181.575" stroke="#2E353A" stroke-width="0.567964" stroke-linecap="round" stroke-linejoin="round"/>
<path d="M140.193 192.262L196.895 171.34" stroke="#2E353A" stroke-width="0.567964" stroke-linecap="round" stroke-linejoin="round"/>
<path d="M116.067 201.176L131.678 195.413" stroke="#2E353A" stroke-width="0.567964" stroke-linecap="round" stroke-linejoin="round"/>
<g style="mix-blend-mode:multiply">
<path d="M144.105 222.542C152.287 223.611 151.566 209.615 149.491 204.92C147.977 206.655 146.849 208.69 146.182 210.893C145.514 213.096 145.322 215.415 145.618 217.697C145.704 218.763 146.077 219.786 146.695 220.658C147.009 221.09 147.443 221.419 147.943 221.605C148.444 221.791 148.988 221.825 149.507 221.703C150.252 221.387 150.882 220.851 151.313 220.167C152.818 218.172 153.816 215.702 155.4 213.874C157.594 215.354 165.388 217.887 164.263 212.441C163.645 209.433 165.142 209.773 166.75 211.245C167.415 211.847 168.461 211.523 169.284 211.158L177.205 207.675C178.213 207.161 179.304 206.832 180.428 206.702C184.23 206.512 186.717 210.042 190.448 207.549C192.032 206.504 192.396 203.67 194.408 202.593C195.841 201.801 197.528 201.754 199.16 201.532C204.768 200.788 207.635 197.827 212.815 195.152" stroke="#02A4FF" stroke-width="1.13593" stroke-linecap="round" stroke-linejoin="round"/>
</g>
<g style="mix-blend-mode:multiply">
<path d="M150.458 231.289C153.523 231.812 156.144 229.017 158.853 228.123C162.314 226.967 163.819 225.558 167.146 224.125C171.542 222.241 176.706 221.37 175.787 214.729C175.161 217.103 175.09 219.716 174.607 222.202C178.171 223.967 179.129 220.935 179.494 218.243C180.69 218.213 181.872 217.975 182.987 217.539C182.987 218.038 183.145 218.6 183.137 219.075C184.848 219.763 185.513 219.296 185.87 217.784C187.763 217.428 188.436 215.655 190.036 215.219C190.44 219.66 191.572 223.547 191.311 228.091C188.277 228.883 187.802 223.65 188.57 221.481C189.362 219.185 191.643 217.958 192.483 215.56C192.657 215.853 192.523 216.193 192.618 216.51C196.435 214.23 201.33 214.847 205.116 212.179C206.304 211.34 207.152 209.662 208.411 209.076C211.151 207.81 211.967 209.298 214.011 206.313" stroke="#02A4FF" stroke-width="1.13593" stroke-linecap="round" stroke-linejoin="round"/>
</g>
<g style="mix-blend-mode:multiply">
<path d="M178.052 257.374C183.557 255.79 185.972 242.119 184.388 237.1C182.535 231.028 179.985 237.686 179.391 240.947C178.915 243.56 178.155 250.447 180.594 252.434C186.004 256.82 189.307 247.803 189.972 243.726C190.21 246.275 188.673 249.418 189.299 252.165C193.679 252.679 195.849 249.038 195.572 245.278C196.116 245.798 196.484 246.474 196.626 247.213C196.768 247.953 196.676 248.717 196.364 249.402C200.546 249.109 199.857 242.056 200.324 239.214C200.087 241.201 200.269 243.528 201.607 245.135C202.724 246.465 204.855 247.051 206.256 246.022C207.658 244.993 207.381 242.285 205.678 241.929V259.068C205.732 259.563 205.633 260.063 205.393 260.501C204.831 261.292 203.453 261.126 202.811 260.366C202.246 259.537 201.981 258.54 202.059 257.54C201.979 251.927 203.714 244.241 208.062 240.409C208.286 240.955 208.359 241.551 208.276 242.135C208.692 241.973 209.069 241.722 209.379 241.401C209.689 241.08 209.926 240.696 210.074 240.274C210.359 241.533 211.104 243.116 212.379 242.895C212.802 242.784 213.189 242.566 213.504 242.261C215.595 240.536 217.86 239.396 219.262 236.942C219.46 237.559 219.666 238.177 219.872 238.802C220.204 237.607 221.345 236.823 222.462 236.285C224.165 235.484 226.007 235.019 227.887 234.915C229.471 234.836 231.198 235.002 232.639 234.321C233.278 233.98 233.889 233.591 234.469 233.158C236.11 232.077 238.011 231.454 239.974 231.353" stroke="#02A4FF" stroke-width="1.13593" stroke-linecap="round" stroke-linejoin="round"/>
</g>
<path d="M112.796 107.034C112.796 107.034 125.429 91.1227 129.706 85.4309C133.983 79.7391 137.08 75.3613 137.08 75.3613C137.08 75.3613 139.361 77.1583 138.664 79.2007C137.967 81.2431 122.942 101.754 119.6 106.963C116.258 112.172 116.725 118.766 116.97 121.038C117.216 123.31 110.587 115.885 112.796 107.034Z" fill="white" stroke="#2E353A" stroke-width="1.27267" stroke-linecap="round" stroke-linejoin="round"/>
<path d="M137.08 75.3616C137.08 75.3616 144.945 64.4291 150.782 55.3254C156.62 46.2216 165.142 32.5501 167.17 30.7294C169.197 28.9086 169.688 33.6584 169.031 36.8408C168.374 40.0231 161.396 48.9052 156.683 56.1882C151.97 63.4713 149.056 68.7119 145.001 73.4933C140.945 78.2748 141.183 78.5043 138.664 79.201C136.146 79.8976 136.637 77.404 137.08 75.3616Z" fill="#2E353A" stroke="#2E353A" stroke-width="1.27267" stroke-linecap="round" stroke-linejoin="round"/>
<path d="M110.079 108.634C110.951 102.736 112.923 91.8432 117.43 88.4154C121.936 84.9876 135.575 87.6238 136.708 87.8296C137.84 88.0354 155.788 92.0094 161.261 95.3738C166.734 98.7383 170.409 108.459 171.811 114.088C173.213 119.716 176.223 129.248 176.674 129.921C176.674 129.921 181.228 131.923 183.723 131.686C186.218 131.448 189.537 119.859 196.522 113.011C203.508 106.164 207.136 105.23 214.85 105.887C222.565 106.544 251.87 114.484 254.84 117.405C257.81 120.326 259.664 126.905 259.022 131.654C258.381 136.404 259.315 141.629 259.315 142.531C259.315 143.434 262.064 146.371 261.398 148.864C260.733 151.358 260.321 156.781 258.286 157.501C256.25 158.221 241.273 157.841 230.152 156.329C219.032 154.817 203.564 148.112 193.323 143.426C183.082 138.739 178.084 136.721 170.599 136.776C163.114 136.832 148.604 137.148 135.203 134.061C121.802 130.973 112.693 125.353 110.174 122.891C107.656 120.429 109.216 114.539 110.079 108.634ZM190.329 136.436C193.996 141.858 208.775 147.202 216.727 149.411C224.679 151.619 243.752 155.577 248.726 152.83C253.7 150.083 256.313 133.736 255.854 128.068C255.395 122.4 253.074 119.249 253.074 119.249C243.276 113.193 212.617 106.821 206.28 109.362C199.944 111.903 193.885 120.096 191.659 126.683C189.434 133.269 190.329 136.436 190.329 136.436V136.436ZM126.308 127.118C136.098 132.945 151.535 134.655 157.657 134.845C163.78 135.035 169.657 131.821 169.839 124.791C170.021 117.761 166.314 105.998 164.928 102.625C163.542 99.2528 158.996 97.2262 158.996 97.2262C152.857 94.321 127.409 87.9167 123.101 88.6291C118.792 89.3416 115.022 95.8805 114.143 105.435C113.263 114.99 116.519 121.292 126.308 127.118Z" fill="#2E353A" stroke="#2E353A" stroke-width="1.27267" stroke-linecap="round" stroke-linejoin="round"/>
<path d="M258.634 142.334C258.634 142.334 261.153 146.173 262.951 143.442C264.749 140.711 287.939 114.714 287.939 114.714C287.939 114.714 288.842 114.476 288.628 116.297C288.415 118.118 264.139 150.693 263.236 152.285C262.333 153.876 258.484 154.359 257.581 153.686C256.678 153.013 258.634 142.334 258.634 142.334Z" fill="white" stroke="#2E353A" stroke-width="1.27267" stroke-linecap="round" stroke-linejoin="round"/>
<path d="M286.355 115.624C287.681 113.266 288.876 110.837 289.935 108.349C292.391 102.895 293.896 92.2315 294.292 81.1169C294.688 70.0024 295.084 63.4319 297.135 65.4585C299.186 67.4851 297.428 78.3858 297.048 86.9909C296.668 95.5959 293.991 104.24 293.341 108.784C292.85 112.212 290.221 117.643 288.407 117.651C286.593 117.659 286.823 117.207 286.355 115.624Z" fill="#2E353A" stroke="#2E353A" stroke-width="1.27267" stroke-linecap="round" stroke-linejoin="round"/>
<path d="M136.708 257.722L146.68 269.003L131.853 265.663L26.3533 201.152L31.2164 193.212L136.708 257.722Z" fill="white" stroke="#2E353A" stroke-width="1.4364" stroke-linecap="round" stroke-linejoin="round"/>
<g style="mix-blend-mode:multiply" opacity="0.5">
<path d="M136.708 257.722L146.68 269.003L131.853 265.663L26.3533 201.152L31.2164 193.212L136.708 257.722Z" fill="#02A4FF"/>
<path d="M136.708 257.722L146.68 269.003L131.853 265.663L26.3533 201.152L31.2164 193.212L136.708 257.722Z" stroke="#2E353A" stroke-width="1.4364" stroke-linecap="round" stroke-linejoin="round"/>
</g>
<path d="M30.1121 195.02L27.4624 199.348L132.959 263.862L135.609 259.534L30.1121 195.02Z" stroke="#2E353A" stroke-width="0.718198" stroke-linecap="round" stroke-linejoin="round"/>
<path d="M136.732 257.746L131.876 265.67L146.68 269.003L136.732 257.746Z" fill="white" stroke="#2E353A" stroke-width="1.4364" stroke-linecap="round" stroke-linejoin="round"/>
<path d="M139.274 267.333L146.68 269.003L141.706 263.375L139.274 267.333Z" fill="#02A4FF" stroke="#2E353A" stroke-width="1.4364" stroke-linecap="round" stroke-linejoin="round"/>
<path d="M16.9753 189.959C16.6554 190.479 16.4413 191.058 16.3454 191.661C16.2495 192.265 16.2736 192.881 16.4163 193.475C16.559 194.069 16.8176 194.63 17.1772 195.124C17.5368 195.618 17.9903 196.036 18.5119 196.355L26.353 201.152L31.2162 193.236L23.375 188.439C22.3243 187.794 21.0605 187.591 19.8608 187.876C18.6611 188.161 17.6234 188.91 16.9753 189.959V189.959Z" fill="white" stroke="#2E353A" stroke-width="1.4364" stroke-linecap="round" stroke-linejoin="round"/>
<path d="M16.9753 189.959C16.6554 190.479 16.4413 191.058 16.3454 191.661C16.2495 192.265 16.2736 192.881 16.4163 193.475C16.559 194.069 16.8176 194.63 17.1772 195.124C17.5368 195.618 17.9903 196.036 18.5119 196.355L22.2661 198.651L27.1292 190.734L23.375 188.439C22.3243 187.794 21.0605 187.591 19.8608 187.876C18.6611 188.161 17.6234 188.91 16.9753 189.959V189.959Z" fill="#2E353A" stroke="#2E353A" stroke-width="1.4364" stroke-linecap="round" stroke-linejoin="round"/>
<path d="M229.867 152.158L227.087 150.203C226.657 149.901 226.165 149.701 225.646 149.616C225.128 149.531 224.597 149.564 224.093 149.712C221.155 150.567 215.611 152.744 214.026 154.462C211.967 156.583 211.318 160.423 212.308 162.228C213.298 164.033 217.361 166.336 217.361 166.336L234.382 155.982L229.867 152.158Z" fill="white" stroke="#2E353A" stroke-width="0.9473" stroke-miterlimit="10"/>
<g style="mix-blend-mode:multiply" opacity="0.5">
<path d="M229.867 152.158L227.087 150.203C226.657 149.901 226.165 149.701 225.646 149.616C225.128 149.531 224.597 149.564 224.093 149.712C221.155 150.567 215.611 152.744 214.026 154.462C211.967 156.583 211.318 160.423 212.308 162.228C213.298 164.033 217.361 166.336 217.361 166.336L234.382 155.982L229.867 152.158Z" fill="#02A4FF"/>
<path d="M229.867 152.158L227.087 150.203C226.657 149.901 226.165 149.701 225.646 149.616C225.128 149.531 224.597 149.564 224.093 149.712C221.155 150.567 215.611 152.744 214.026 154.462C211.967 156.583 211.318 160.423 212.308 162.228C213.298 164.033 217.361 166.336 217.361 166.336L234.382 155.982L229.867 152.158Z" stroke="#2E353A" stroke-width="0.9473" stroke-miterlimit="10"/>
</g>
<path d="M231.602 151.359L218.137 157.51C218.137 157.51 213.583 160.082 215.025 167.959L293.872 225.986C293.872 225.986 296.612 227.981 301.563 226.295C306.513 224.608 311.582 218.774 312.651 213.842C313.72 208.91 310.275 207.359 309.634 206.813C308.992 206.266 234.263 151.945 234.263 151.945C233.473 151.441 232.53 151.233 231.602 151.359V151.359Z" fill="white" stroke="#2E353A" stroke-width="0.9473" stroke-miterlimit="10"/>
<g style="mix-blend-mode:multiply" opacity="0.5">
<path d="M231.602 151.359L218.137 157.51C218.137 157.51 213.583 160.082 215.025 167.959L293.872 225.986C293.872 225.986 296.612 227.981 301.563 226.295C306.513 224.608 311.582 218.774 312.651 213.842C313.72 208.91 310.275 207.359 309.634 206.813C308.992 206.266 234.263 151.945 234.263 151.945C233.473 151.441 232.53 151.233 231.602 151.359V151.359Z" fill="#02A4FF"/>
<path d="M231.602 151.359L218.137 157.51C218.137 157.51 213.583 160.082 215.025 167.959L293.872 225.986C293.872 225.986 296.612 227.981 301.563 226.295C306.513 224.608 311.582 218.774 312.651 213.842C313.72 208.91 310.275 207.359 309.634 206.813C308.992 206.266 234.263 151.945 234.263 151.945C233.473 151.441 232.53 151.233 231.602 151.359V151.359Z" stroke="#2E353A" stroke-width="0.9473" stroke-miterlimit="10"/>
</g>
<path d="M307.344 222.202C302.378 226.833 296.367 228.464 293.88 225.836C291.393 223.207 293.444 217.31 298.41 212.671C303.376 208.032 309.388 206.409 311.875 209.037C314.362 211.665 312.303 217.563 307.344 222.202Z" fill="white" stroke="#2E353A" stroke-width="0.9473" stroke-miterlimit="10"/>
<g style="mix-blend-mode:multiply">
<path d="M307.344 222.202C302.378 226.833 296.367 228.464 293.88 225.836C291.393 223.207 293.444 217.31 298.41 212.671C303.376 208.032 309.388 206.409 311.875 209.037C314.362 211.665 312.303 217.563 307.344 222.202Z" fill="#02A4FF"/>
<path d="M307.344 222.202C302.378 226.833 296.367 228.464 293.88 225.836C291.393 223.207 293.444 217.31 298.41 212.671C303.376 208.032 309.388 206.409 311.875 209.037C314.362 211.665 312.303 217.563 307.344 222.202Z" stroke="#2E353A" stroke-width="0.9473" stroke-miterlimit="10"/>
</g>
<path d="M234.255 151.945C233.468 151.443 232.528 151.235 231.602 151.359L218.137 157.51C218.137 157.51 213.583 160.083 215.025 167.959L269.549 208.087C269.16 206.235 269.232 203.527 271.315 200.313C273.247 197.313 281.928 192.476 286.617 190.022C264.424 173.881 234.255 151.945 234.255 151.945Z" fill="#2E353A" stroke="#2E353A" stroke-width="1.27267" stroke-linecap="round" stroke-linejoin="round"/>
<path d="M296.818 212.528L268.02 191.669C267.589 191.357 267.243 190.942 267.015 190.462C266.787 189.981 266.684 189.451 266.714 188.92C266.745 188.39 266.909 187.875 267.191 187.424C267.473 186.974 267.864 186.601 268.329 186.341L272.788 183.911C273.311 183.628 273.904 183.497 274.498 183.535C275.092 183.573 275.663 183.777 276.146 184.125L306.592 206.164" fill="white"/>
<path d="M296.818 212.528L268.02 191.669C267.589 191.357 267.243 190.942 267.015 190.462C266.787 189.981 266.684 189.451 266.714 188.92C266.745 188.39 266.909 187.875 267.191 187.424C267.473 186.974 267.864 186.601 268.329 186.341L272.788 183.911C273.311 183.628 273.904 183.497 274.498 183.535C275.092 183.573 275.663 183.777 276.146 184.125L306.592 206.164" stroke="#2E353A" stroke-width="0.9473" stroke-miterlimit="10"/>
<g style="mix-blend-mode:multiply" opacity="0.5">
<path d="M296.818 212.528L268.02 191.669C267.589 191.357 267.243 190.942 267.015 190.462C266.787 189.981 266.684 189.451 266.714 188.92C266.745 188.39 266.909 187.875 267.191 187.424C267.473 186.974 267.864 186.601 268.329 186.341L272.788 183.911C273.311 183.628 273.904 183.497 274.498 183.535C275.092 183.573 275.663 183.777 276.146 184.125L306.592 206.164" fill="#02A4FF"/>
<path d="M296.818 212.528L268.02 191.669C267.589 191.357 267.243 190.942 267.015 190.462C266.787 189.981 266.684 189.451 266.714 188.92C266.745 188.39 266.909 187.875 267.191 187.424C267.473 186.974 267.864 186.601 268.329 186.341L272.788 183.911C273.311 183.628 273.904 183.497 274.498 183.535C275.092 183.573 275.663 183.777 276.146 184.125L306.592 206.164" stroke="#2E353A" stroke-width="0.9473" stroke-miterlimit="10"/>
</g>
</svg>
