<svg width="464" height="439" viewBox="0 0 464 439" fill="none" xmlns="http://www.w3.org/2000/svg">
<path d="M64.2005 371.579L53.422 364.157C53.422 364.157 47.1962 373.212 37.6852 366.905C35.8303 365.722 34.3896 363.991 33.5629 361.953C32.7362 359.914 32.5645 357.669 33.0716 355.528C33.4737 353.724 34.2969 352.04 35.4741 350.614C36.6513 349.188 38.149 348.061 39.8449 347.325C43.7386 345.571 49.6297 345.591 56.0177 351.868L72.728 327.532L62.0711 320.201L52.2863 334.397C52.2863 334.397 34.6838 327.979 23.3476 344.445C12.5083 360.203 24.1182 373.587 30.1716 377.744C34.7953 380.999 51.2724 390.723 64.2005 371.579Z" fill="#EBEBEB"/>
<path d="M65.3379 315.146L76.1472 322.583L83.096 312.484L72.2867 305.046L65.3379 315.146Z" fill="#EBEBEB"/>
<path d="M110.093 401.38L115.812 399.869C115.642 399.219 115.603 398.541 115.698 397.875C115.792 397.209 116.018 396.569 116.363 395.992C116.707 395.414 117.163 394.911 117.704 394.511C118.245 394.112 118.86 393.823 119.513 393.664C120.465 393.374 121.485 393.389 122.428 393.707C123.372 394.026 124.192 394.631 124.775 395.438C125.276 396.107 125.612 396.884 125.754 397.707C125.897 398.53 125.843 399.375 125.596 400.173C125.049 402.029 123.305 404.047 119.269 404.381L122.666 417.289L128.324 415.799L126.296 408.234C128.435 406.937 130.09 404.974 131.006 402.646C131.922 400.318 132.048 397.754 131.366 395.347C129.156 386.982 121.135 387.012 117.931 387.864C115.528 388.513 107.325 391.311 110.093 401.38Z" fill="#EBEBEB"/>
<path d="M129.122 418.419L123.376 419.935L124.791 425.297L130.537 423.782L129.122 418.419Z" fill="#EBEBEB"/>
<path d="M205.142 40.0821C208.035 38.3195 211.152 36.9552 214.41 36.0262L216.316 26.9005L231.82 26.6267L234.051 35.7524C237.339 36.558 240.504 37.8028 243.46 39.4534L251.298 34.3126L262.452 45.081L257.595 53.0913C259.351 55.9909 260.715 59.1108 261.651 62.3692L270.827 64.2754L271.091 79.779L261.965 82.0098C261.155 85.2968 259.911 88.4612 258.264 91.4194L263.395 99.2574L252.627 110.411L244.616 105.554C241.72 107.317 238.599 108.681 235.338 109.61L233.432 118.797L217.929 119.06L215.698 109.935C212.408 109.133 209.242 107.888 206.288 106.233L198.45 111.374L187.296 100.606L192.153 92.5956C190.391 89.6993 189.026 86.5786 188.098 83.3178L178.972 81.4115L178.698 65.9079L187.824 63.6772C188.614 60.3692 189.849 57.1835 191.494 54.2067L186.353 46.3687L197.122 35.215L205.142 40.0821ZM213.406 60.7367C211.125 63.106 209.598 66.0986 209.018 69.3359C208.438 72.5731 208.83 75.9098 210.147 78.9238C211.463 81.9379 213.643 84.494 216.412 86.269C219.18 88.0439 222.413 88.958 225.702 88.8956C228.99 88.8332 232.186 87.7972 234.885 85.9185C237.585 84.0397 239.667 81.4028 240.867 78.3409C242.068 75.2791 242.334 71.93 241.631 68.7171C240.929 65.5041 239.289 62.5717 236.92 60.2905C233.742 57.2339 229.48 55.5639 225.071 55.6476C220.662 55.7312 216.466 57.5616 213.406 60.7367Z" fill="#F5F5F5"/>
<path d="M140.248 7.75687C141.919 6.75327 143.716 5.97587 145.592 5.44502L146.687 0.152093L155.62 0L156.908 5.24222C158.8 5.70501 160.622 6.42126 162.322 7.37156L166.835 4.41077L173.223 10.6061L170.424 15.2197C171.433 16.8892 172.214 18.6864 172.746 20.5633L178.029 21.6584L178.181 30.5915L172.939 31.8995C172.478 33.7926 171.761 35.6141 170.809 37.3141L173.77 41.8263L167.565 48.2548L162.951 45.4563C161.282 46.4655 159.484 47.2464 157.607 47.7783L156.472 53.0509L147.539 53.2132L146.332 47.9709C144.441 47.5001 142.62 46.7806 140.918 45.8314L136.405 48.7922L129.977 42.5867L132.735 37.9833C131.724 36.3183 130.943 34.5242 130.413 32.6498L125.13 31.5446L124.968 22.6115L130.22 21.3339C130.681 19.4376 131.397 17.6127 132.349 15.9092L129.389 11.397L135.594 4.97859L140.248 7.75687ZM145.004 19.6609C143.681 21.022 142.792 22.7456 142.449 24.6128C142.107 26.48 142.327 28.4068 143.082 30.1487C143.836 31.8906 145.091 33.3692 146.688 34.3967C148.284 35.4243 150.149 35.9546 152.047 35.9204C153.945 35.8862 155.79 35.289 157.348 34.2045C158.906 33.12 160.107 31.5972 160.799 29.8293C161.49 28.0613 161.64 26.1278 161.231 24.2741C160.822 22.4204 159.871 20.7301 158.5 19.4175C156.671 17.6569 154.219 16.6937 151.681 16.7393C149.143 16.7849 146.727 17.8357 144.963 19.6609H145.004Z" fill="#EBEBEB"/>
<path d="M425.245 173.561C426.912 172.555 428.706 171.774 430.578 171.239L431.684 165.957L440.606 165.804L441.894 171.047C443.791 171.508 445.615 172.224 447.319 173.176L451.831 170.215L458.25 176.421L455.451 181.034C456.46 182.704 457.241 184.501 457.773 186.378L463.066 187.473L463.218 196.406L457.976 197.694C457.504 199.583 456.788 201.404 455.846 203.108L458.797 207.621L452.602 214.049L447.988 211.251C446.319 212.26 444.521 213.041 442.645 213.573L441.539 218.855L432.616 219.018L431.329 213.765C429.436 213.304 427.614 212.588 425.914 211.636L421.392 214.597L414.973 208.391L417.772 203.778C416.761 202.109 415.98 200.312 415.45 198.434L410.167 197.339L410.005 188.406L415.247 187.118C415.719 185.228 416.435 183.408 417.376 181.704L414.426 177.191L420.621 170.763L425.245 173.561ZM430 185.455C428.683 186.818 427.8 188.541 427.462 190.406C427.124 192.271 427.347 194.194 428.102 195.932C428.857 197.671 430.111 199.146 431.704 200.172C433.298 201.197 435.16 201.727 437.055 201.695C438.95 201.662 440.793 201.068 442.351 199.988C443.908 198.908 445.11 197.391 445.805 195.627C446.5 193.864 446.656 191.934 446.254 190.082C445.852 188.23 444.91 186.539 443.547 185.222C441.718 183.459 439.265 182.494 436.725 182.538C434.186 182.582 431.767 183.631 430 185.455Z" fill="#EBEBEB"/>
<path d="M449.286 437.802C449.286 437.954 353.131 438.066 234.558 438.066C115.984 438.066 19.8091 437.954 19.8091 437.802C19.8091 437.65 115.933 437.539 234.558 437.539C353.182 437.539 449.286 437.66 449.286 437.802Z" fill="#263238"/>
<path d="M402.522 437.062L258.538 436.981C250.221 436.976 242.247 433.668 236.368 427.785C230.489 421.902 227.186 413.926 227.186 405.609L227.257 44.6353C227.276 36.311 230.596 28.3341 236.489 22.4546C242.381 16.5751 250.366 13.2732 258.69 13.2732L402.674 13.3645C410.991 13.3698 418.965 16.6775 424.844 22.5603C430.723 28.4432 434.026 36.4198 434.026 44.7367L433.955 405.71C433.955 409.834 433.141 413.918 431.561 417.727C429.98 421.536 427.663 424.996 424.743 427.908C421.823 430.82 418.358 433.128 414.545 434.699C410.731 436.27 406.646 437.073 402.522 437.062Z" fill="#455A64"/>
<path d="M402.471 26.0896H374.556C372.716 26.1322 370.967 26.9036 369.696 28.2345C368.424 29.5654 367.732 31.3469 367.773 33.1874V38.2572C367.814 40.0978 367.122 41.8792 365.85 43.2101C364.578 44.541 362.83 45.3125 360.989 45.355H306.57C304.731 45.3098 302.985 44.5372 301.715 43.2066C300.446 41.876 299.755 40.0961 299.796 38.2572V33.1874C299.837 31.3469 299.145 29.5654 297.874 28.2345C296.602 26.9036 294.853 26.1322 293.013 26.0896H258.761C252.947 26.0842 247.367 28.3846 243.247 32.4864C239.126 36.5883 236.799 42.1568 236.778 47.9711L236.707 400.346C236.718 406.165 239.036 411.742 243.153 415.853C247.271 419.965 252.851 422.275 258.67 422.278L402.38 422.359C405.265 422.361 408.123 421.794 410.789 420.691C413.455 419.588 415.878 417.97 417.92 415.931C419.961 413.891 421.581 411.47 422.686 408.805C423.791 406.139 424.361 403.282 424.362 400.397L424.423 48.0218C424.415 42.204 422.099 36.627 417.983 32.5151C413.868 28.4032 408.289 26.0923 402.471 26.0896Z" fill="white"/>
<path d="M424.413 100.15V47.6568C424.31 41.9042 421.953 36.422 417.85 32.389C413.746 28.3559 408.224 26.094 402.471 26.0896H374.556C373.645 26.1094 372.746 26.3087 371.911 26.6763C371.077 27.0438 370.323 27.5724 369.693 28.2316C369.062 28.8909 368.569 29.668 368.239 30.5183C367.91 31.3687 367.751 32.2757 367.773 33.1874V38.2572C367.814 40.0978 367.122 41.8792 365.85 43.2101C364.578 44.541 362.83 45.3125 360.989 45.355H306.57C304.731 45.3098 302.985 44.5372 301.715 43.2066C300.446 41.876 299.755 40.0961 299.796 38.2572V33.1874C299.837 31.3469 299.146 29.5654 297.874 28.2345C296.602 26.9036 294.853 26.1322 293.013 26.0896H258.761C252.947 26.0842 247.367 28.3846 243.247 32.4864C239.126 36.5883 236.8 42.1568 236.778 47.9711V100.312H424.413V100.15Z" fill="#EBEBEB"/>
<path d="M275.045 171.351C287.606 171.351 297.788 161.191 297.788 148.658C297.788 136.126 287.606 125.966 275.045 125.966C262.484 125.966 252.302 136.126 252.302 148.658C252.302 161.191 262.484 171.351 275.045 171.351Z" fill="#E0E0E0"/>
<path d="M264.419 154.336L270.381 153.829L284.921 156.283L286.635 167.224L286.392 168.501C283.116 170.35 279.436 171.363 275.675 171.449C271.915 171.536 268.192 170.694 264.835 168.998L264.419 154.336Z" fill="#455A64"/>
<path d="M281.808 156.111C283.25 155.9 284.722 156.099 286.056 156.686C287.39 157.272 288.532 158.222 289.352 159.427C290.338 160.802 291.242 162.234 292.06 163.716C289.687 166.291 287.76 168.248 284.475 169.394L281.808 156.111Z" fill="#455A64"/>
<path d="M264.419 154.337C264.419 154.337 260.485 154.823 258.964 158.18C257.443 161.536 257.088 162.58 257.088 162.58C259.116 165.034 261.712 167.934 264.885 169.019C264.885 169.019 265.605 160.562 265.696 158.18C265.808 155.604 265.909 154.266 264.419 154.337Z" fill="#455A64"/>
<path d="M268.008 132.84C268.999 131.571 270.263 130.54 271.705 129.824C273.148 129.108 274.733 128.725 276.343 128.703C277.728 128.703 279.101 128.95 280.399 129.433C281.765 129.757 282.973 130.555 283.806 131.684C284.84 133.013 285.517 134.584 285.773 136.247C286.011 137.95 286.093 139.671 286.017 141.388C285.933 143.118 285.376 144.791 284.404 146.225L280.034 146.975C277.625 147.167 275.2 147.038 272.825 146.59C270.423 146.129 268.302 144.736 266.923 142.716C265.169 139.867 265.899 135.436 268.008 132.84Z" fill="#263238"/>
<path d="M263.79 145.464C263.835 144.97 263.991 144.492 264.248 144.067C264.504 143.642 264.854 143.281 265.271 143.01C265.697 142.754 266.194 142.64 266.689 142.683C267.185 142.727 267.654 142.927 268.029 143.254L268.718 144.065C269.25 144.311 269.692 144.716 269.983 145.225C270.274 145.734 270.399 146.321 270.34 146.904C270.265 147.488 270.022 148.037 269.64 148.485C269.258 148.933 268.755 149.261 268.191 149.429C267.627 149.589 267.031 149.601 266.461 149.464C265.891 149.328 265.366 149.047 264.936 148.648C264.514 148.241 264.191 147.741 263.993 147.189C263.794 146.637 263.725 146.047 263.79 145.464Z" fill="#263238"/>
<path d="M264.652 148.445C264.488 148.189 264.407 147.888 264.419 147.583C264.565 146.845 264.916 146.164 265.433 145.616C265.922 145.042 266.518 144.567 267.187 144.217C267.694 143.943 268.049 143.842 268.039 143.812C267.715 143.835 267.4 143.929 267.116 144.085C266.401 144.403 265.77 144.882 265.271 145.485C264.991 145.79 264.752 146.131 264.561 146.499C264.395 146.812 264.298 147.158 264.277 147.513C264.273 147.756 264.34 147.996 264.47 148.202C264.561 148.405 264.652 148.506 264.652 148.445Z" fill="#455A64"/>
<path d="M279.993 155.33V151.274C279.993 151.274 283.552 150.879 284.546 146.316C285.013 143.298 285.197 140.243 285.094 137.19C285.094 134.422 282.711 130.65 279.284 130.64L277.763 130.458L271.932 132.769C271.527 132.792 271.145 132.964 270.86 133.253C270.575 133.541 270.408 133.926 270.391 134.331L270.219 153.809L272.885 157.551C273.374 158.212 274.057 158.703 274.838 158.956C275.62 159.209 276.461 159.211 277.244 158.962C278.027 158.712 278.712 158.224 279.203 157.565C279.695 156.907 279.967 156.111 279.983 155.29L279.993 155.33Z" fill="#FFBE9D"/>
<path d="M277.672 145.261C277.703 145.027 277.823 144.813 278.006 144.663C278.173 144.523 278.38 144.441 278.598 144.428C278.815 144.415 279.031 144.473 279.213 144.592C279.399 144.737 279.544 144.929 279.633 145.148C279.722 145.367 279.752 145.605 279.72 145.839C279.618 145.98 279.488 146.098 279.338 146.186C279.187 146.273 279.021 146.328 278.848 146.346H278.685C278.551 146.35 278.417 146.327 278.292 146.278C278.167 146.229 278.052 146.156 277.955 146.062C277.853 145.957 277.775 145.831 277.726 145.693C277.676 145.555 277.658 145.408 277.672 145.261Z" fill="#EB996E"/>
<path d="M282.975 140.395C282.969 140.549 282.904 140.695 282.792 140.801C282.68 140.907 282.531 140.965 282.376 140.962C282.301 140.964 282.225 140.95 282.154 140.922C282.084 140.895 282.019 140.853 281.965 140.8C281.91 140.748 281.866 140.685 281.836 140.615C281.806 140.545 281.79 140.47 281.788 140.395C281.796 140.239 281.864 140.094 281.978 139.988C282.091 139.882 282.241 139.824 282.397 139.827C282.472 139.825 282.547 139.839 282.617 139.867C282.687 139.895 282.751 139.937 282.805 139.989C282.859 140.042 282.901 140.105 282.931 140.175C282.96 140.244 282.975 140.319 282.975 140.395Z" fill="#263238"/>
<path d="M283.948 138.934C283.867 139.005 283.431 138.65 282.802 138.62C282.174 138.59 281.677 138.884 281.616 138.803C281.555 138.721 281.667 138.63 281.879 138.488C282.167 138.317 282.499 138.236 282.833 138.255C283.163 138.268 283.48 138.389 283.735 138.6C283.918 138.762 283.978 138.904 283.948 138.934Z" fill="#263238"/>
<path d="M279.943 143.741C280.275 143.663 280.615 143.622 280.957 143.619C281.119 143.619 281.281 143.619 281.312 143.477C281.334 143.31 281.306 143.141 281.231 142.99L280.815 141.733C280.427 140.66 280.126 139.558 279.912 138.438C280.386 139.476 280.776 140.551 281.078 141.652C281.22 142.088 281.342 142.514 281.474 142.919C281.559 143.121 281.577 143.345 281.525 143.558C281.463 143.667 281.361 143.747 281.241 143.781C281.15 143.79 281.058 143.79 280.967 143.781C280.625 143.814 280.281 143.8 279.943 143.741Z" fill="#263238"/>
<path d="M279.973 151.285C277.796 151.187 275.69 150.484 273.889 149.257C273.889 149.257 275.36 152.532 279.973 152.359V151.285Z" fill="#EB996E"/>
<path d="M278.047 144.085C278.158 144.085 278.118 144.775 278.685 145.292C279.253 145.809 279.983 145.779 279.983 145.87C279.983 145.961 279.811 146.002 279.507 145.992C279.101 145.973 278.714 145.816 278.412 145.546C278.126 145.282 277.952 144.919 277.925 144.532C277.915 144.238 278.006 144.075 278.047 144.085Z" fill="#263238"/>
<path d="M283.816 136.541C283.705 136.693 283.218 136.541 282.65 136.541C282.082 136.541 281.636 136.683 281.484 136.541C281.332 136.399 281.484 136.318 281.707 136.176C281.987 136 282.31 135.906 282.64 135.902C282.972 135.894 283.3 135.982 283.583 136.156C283.796 136.338 283.867 136.47 283.816 136.541Z" fill="#263238"/>
<path d="M275.999 140.394C275.996 140.55 276.053 140.7 276.159 140.813C276.265 140.927 276.411 140.995 276.566 141.003C276.642 141.01 276.718 141.001 276.79 140.979C276.862 140.956 276.929 140.919 276.987 140.869C277.044 140.82 277.092 140.76 277.126 140.692C277.16 140.625 277.18 140.551 277.185 140.475C277.185 140.322 277.126 140.174 277.021 140.063C276.915 139.952 276.77 139.885 276.617 139.877C276.542 139.869 276.466 139.876 276.394 139.897C276.322 139.919 276.255 139.955 276.197 140.004C276.14 140.052 276.092 140.111 276.058 140.179C276.024 140.246 276.004 140.319 275.999 140.394Z" fill="#263238"/>
<path d="M275.228 138.711C275.299 138.792 275.755 138.468 276.394 138.478C277.033 138.488 277.489 138.813 277.56 138.742C277.631 138.671 277.56 138.569 277.317 138.417C277.046 138.219 276.719 138.112 276.384 138.113C276.055 138.103 275.731 138.199 275.461 138.387C275.258 138.539 275.187 138.671 275.228 138.711Z" fill="#263238"/>
<path d="M274.863 137.352C274.984 137.505 275.481 137.352 276.069 137.352C276.657 137.352 277.154 137.474 277.276 137.352C277.398 137.231 277.276 137.129 277.033 136.987C276.737 136.815 276.401 136.723 276.059 136.723C275.717 136.723 275.381 136.815 275.086 136.987C274.873 137.129 274.802 137.271 274.863 137.352Z" fill="#263238"/>
<path d="M271.162 142.108C271.162 141.763 270.837 140.932 270.493 140.861C269.6 140.668 267.968 140.658 267.826 142.95C267.633 146.083 270.868 145.627 270.868 145.535C270.868 145.444 271.101 143.284 271.162 142.108Z" fill="#FFBE9D"/>
<path d="M270.036 144.339C270.036 144.339 269.986 144.339 269.884 144.41C269.82 144.437 269.751 144.451 269.682 144.451C269.612 144.451 269.543 144.437 269.479 144.41C269.282 144.269 269.127 144.078 269.029 143.857C268.931 143.636 268.894 143.393 268.921 143.153C268.933 142.884 269.002 142.621 269.124 142.382C269.16 142.286 269.219 142.201 269.294 142.132C269.37 142.063 269.461 142.013 269.56 141.987C269.624 141.973 269.691 141.982 269.749 142.014C269.807 142.046 269.851 142.097 269.874 142.159C269.881 142.209 269.881 142.261 269.874 142.311C269.874 142.311 269.945 142.311 269.925 142.139C269.912 142.06 269.873 141.989 269.813 141.936C269.775 141.898 269.728 141.87 269.678 141.852C269.627 141.835 269.573 141.829 269.519 141.834C269.39 141.851 269.266 141.901 269.162 141.979C269.057 142.057 268.974 142.161 268.921 142.281C268.771 142.544 268.687 142.84 268.678 143.142C268.643 143.421 268.692 143.704 268.819 143.955C268.945 144.206 269.143 144.414 269.387 144.552C269.471 144.58 269.559 144.59 269.646 144.581C269.734 144.572 269.818 144.545 269.894 144.501C270.036 144.45 270.036 144.349 270.036 144.339Z" fill="#EB996E"/>
<path d="M270.371 140.871L271.162 141.692C274.609 138.407 281.352 130.164 280.977 130.65C279.403 130.07 277.71 129.888 276.049 130.123C273.484 130.559 268.627 131.837 268.698 134.848C268.849 136.947 269.418 138.995 270.371 140.871Z" fill="#263238"/>
<path d="M265.808 140.181C265.808 140.181 265.808 140.11 265.808 139.999C265.868 139.829 265.939 139.663 266.021 139.502C266.347 138.921 266.797 138.419 267.339 138.032C268.143 137.459 269.037 137.027 269.986 136.754C271 136.42 272.216 136.156 273.382 135.659C275.378 134.817 277.179 133.574 278.675 132.009C279.126 131.533 279.549 131.032 279.943 130.508L280.257 130.072C280.291 130.02 280.332 129.972 280.379 129.93L280.288 130.092C280.217 130.194 280.125 130.356 279.994 130.549C279.615 131.089 279.202 131.604 278.757 132.09C278.09 132.807 277.357 133.459 276.566 134.037C275.599 134.747 274.551 135.34 273.443 135.801C272.326 136.23 271.185 136.595 270.026 136.896C269.092 137.157 268.208 137.571 267.41 138.123C266.872 138.493 266.42 138.974 266.082 139.532C265.975 139.742 265.883 139.959 265.808 140.181Z" fill="#455A64"/>
<path d="M266.721 140.668C266.713 140.436 266.754 140.204 266.842 139.989C267.077 139.389 267.486 138.873 268.019 138.509C268.817 137.999 269.71 137.654 270.645 137.495C271.765 137.281 272.856 136.941 273.9 136.481C274.937 136.009 275.911 135.41 276.799 134.696C277.536 134.11 278.216 133.455 278.827 132.739C279.23 132.258 279.599 131.75 279.933 131.218C280.044 131.046 280.135 130.894 280.196 130.782C280.228 130.728 280.265 130.677 280.308 130.63C280.286 130.687 280.259 130.741 280.227 130.792L279.983 131.249C279.672 131.8 279.312 132.322 278.909 132.81C278.309 133.559 277.629 134.239 276.881 134.838C275.984 135.566 274.999 136.18 273.95 136.663C272.895 137.127 271.789 137.468 270.655 137.677C269.737 137.849 268.859 138.193 268.069 138.691C267.544 139.034 267.131 139.524 266.883 140.101C266.812 140.285 266.758 140.475 266.721 140.668Z" fill="#455A64"/>
<path d="M264.885 168.998C264.737 167 264.737 164.994 264.885 162.996C265.021 164.994 265.021 167 264.885 168.998Z" fill="#263238"/>
<path d="M286.402 168.573C286.375 168.235 286.375 167.896 286.402 167.559C286.463 166.713 286.432 165.863 286.311 165.024C286.153 164.186 285.908 163.367 285.581 162.58C285.427 162.255 285.305 161.915 285.216 161.566C285.414 161.862 285.58 162.178 285.712 162.509C286.088 163.291 286.357 164.12 286.513 164.973C286.634 165.831 286.634 166.701 286.513 167.559C286.519 167.9 286.482 168.241 286.402 168.573Z" fill="#263238"/>
<path d="M395.85 177.476H318.332C316.485 177.473 314.715 176.738 313.409 175.432C312.103 174.127 311.368 172.356 311.366 170.51V137.961L302.818 130.377H395.85C396.77 130.37 397.682 130.546 398.533 130.893C399.385 131.241 400.159 131.754 400.812 132.403C401.464 133.051 401.982 133.822 402.334 134.672C402.687 135.522 402.868 136.433 402.866 137.353V170.51C402.865 171.428 402.682 172.338 402.329 173.186C401.975 174.033 401.457 174.803 400.805 175.45C400.153 176.098 399.38 176.61 398.529 176.957C397.679 177.305 396.768 177.481 395.85 177.476Z" fill="#EBEBEB"/>
<path d="M390.536 182.748C387.787 183.009 385.023 183.097 382.262 183.012C379.505 183.097 376.745 183.009 373.999 182.748C376.745 182.487 379.505 182.399 382.262 182.484C385.023 182.399 387.787 182.487 390.536 182.748Z" fill="#E0E0E0"/>
<path d="M393.954 183.397C393.919 183.396 393.886 183.389 393.854 183.375C393.823 183.361 393.795 183.341 393.771 183.316L392.169 181.643C392.123 181.595 392.097 181.532 392.097 181.465C392.097 181.399 392.123 181.335 392.169 181.288C392.192 181.264 392.219 181.244 392.25 181.231C392.28 181.218 392.313 181.211 392.347 181.211C392.38 181.211 392.413 181.218 392.443 181.231C392.474 181.244 392.501 181.264 392.524 181.288L393.944 182.768L397.056 179.605C397.079 179.58 397.107 179.561 397.137 179.548C397.168 179.535 397.201 179.528 397.234 179.528C397.267 179.528 397.3 179.535 397.331 179.548C397.361 179.561 397.389 179.58 397.411 179.605C397.458 179.652 397.484 179.716 397.484 179.782C397.484 179.848 397.458 179.912 397.411 179.96L394.116 183.316C394.072 183.359 394.015 183.388 393.954 183.397Z" fill="#02A4FF"/>
<path d="M396.235 183.346H395.941C395.874 183.346 395.809 183.32 395.762 183.272C395.714 183.224 395.688 183.16 395.688 183.093C395.695 183.026 395.725 182.964 395.773 182.918C395.821 182.872 395.884 182.844 395.951 182.839H396.134L399.348 179.564C399.372 179.54 399.4 179.52 399.431 179.507C399.463 179.493 399.496 179.487 399.53 179.487C399.564 179.487 399.598 179.493 399.63 179.507C399.661 179.52 399.689 179.54 399.713 179.564C399.759 179.612 399.785 179.675 399.785 179.742C399.785 179.808 399.759 179.872 399.713 179.919L396.418 183.265C396.395 183.291 396.367 183.312 396.335 183.326C396.304 183.34 396.27 183.347 396.235 183.346Z" fill="#02A4FF"/>
<path d="M390.536 310.174C387.787 310.435 385.023 310.523 382.262 310.437C379.505 310.523 376.745 310.435 373.999 310.174C376.745 309.913 379.505 309.825 382.262 309.91C385.023 309.824 387.787 309.913 390.536 310.174Z" fill="#E0E0E0"/>
<path d="M393.954 310.823C393.914 310.827 393.874 310.821 393.837 310.807C393.8 310.793 393.767 310.771 393.741 310.741L392.139 309.068C392.11 309.046 392.087 309.017 392.071 308.985C392.054 308.953 392.045 308.917 392.044 308.881C392.042 308.845 392.049 308.809 392.062 308.775C392.076 308.741 392.097 308.711 392.123 308.686C392.149 308.661 392.181 308.642 392.215 308.631C392.249 308.619 392.286 308.615 392.322 308.618C392.358 308.622 392.393 308.633 392.424 308.651C392.455 308.669 392.483 308.694 392.504 308.724L393.923 310.204L397.036 307.04C397.059 307.016 397.086 306.997 397.117 306.984C397.147 306.97 397.18 306.964 397.213 306.964C397.247 306.964 397.28 306.97 397.31 306.984C397.341 306.997 397.368 307.016 397.391 307.04C397.437 307.088 397.463 307.152 397.463 307.218C397.463 307.284 397.437 307.348 397.391 307.395L394.136 310.741C394.087 310.789 394.022 310.818 393.954 310.823Z" fill="#02A4FF"/>
<path d="M396.235 310.742H395.941C395.873 310.739 395.808 310.71 395.761 310.661C395.714 310.612 395.687 310.546 395.688 310.478C395.687 310.444 395.694 310.411 395.708 310.38C395.721 310.349 395.741 310.321 395.766 310.298C395.791 310.275 395.82 310.258 395.852 310.247C395.884 310.236 395.917 310.232 395.951 310.235H396.134L399.348 306.959C399.372 306.935 399.4 306.915 399.431 306.902C399.463 306.889 399.496 306.882 399.53 306.882C399.564 306.882 399.598 306.889 399.63 306.902C399.661 306.915 399.689 306.935 399.713 306.959C399.759 307.007 399.785 307.071 399.785 307.137C399.785 307.203 399.759 307.267 399.713 307.314L396.418 310.66C396.395 310.687 396.367 310.707 396.335 310.722C396.304 310.736 396.27 310.742 396.235 310.742Z" fill="#02A4FF"/>
<path d="M394.856 139.695C394.856 139.837 377.933 139.958 357.055 139.958C336.177 139.958 319.264 139.837 319.264 139.695C319.264 139.553 336.177 139.431 357.055 139.431C377.933 139.431 394.856 139.543 394.856 139.695Z" fill="white"/>
<path d="M394.856 145.241C394.856 145.393 377.933 145.505 357.055 145.505C336.177 145.505 319.264 145.393 319.264 145.241C319.264 145.089 336.177 144.978 357.055 144.978C377.933 144.978 394.856 145.099 394.856 145.241Z" fill="white"/>
<path d="M394.856 150.798C394.856 150.94 377.933 151.061 357.055 151.061C336.177 151.061 319.264 150.94 319.264 150.798C319.264 150.656 336.177 150.534 357.055 150.534C377.933 150.534 394.856 150.656 394.856 150.798Z" fill="white"/>
<path d="M275.045 312.871C287.606 312.871 297.788 302.711 297.788 290.178C297.788 277.645 287.606 267.486 275.045 267.486C262.484 267.486 252.302 277.645 252.302 290.178C252.302 302.711 262.484 312.871 275.045 312.871Z" fill="#E0E0E0"/>
<path d="M264.419 295.856L270.381 295.349L284.921 297.803L286.635 308.713L286.392 309.981C283.117 311.832 279.436 312.846 275.676 312.933C271.915 313.019 268.191 312.176 264.835 310.478L264.419 295.826" fill="#455A64"/>
<path d="M281.808 297.621C283.25 297.413 284.721 297.613 286.055 298.199C287.388 298.785 288.531 299.733 289.352 300.936C290.339 302.314 291.243 303.75 292.06 305.236C289.687 307.811 287.76 309.768 284.475 310.904L281.808 297.621Z" fill="#455A64"/>
<path d="M264.419 295.856C264.419 295.856 260.485 296.333 258.964 299.689C257.443 303.045 257.088 304.1 257.088 304.1C259.116 306.544 261.712 309.444 264.885 310.529C264.885 310.529 265.605 302.082 265.696 299.689C265.808 297.073 265.909 295.775 264.419 295.856Z" fill="#455A64"/>
<path d="M268.008 274.36C268.998 273.089 270.261 272.057 271.704 271.341C273.147 270.625 274.732 270.243 276.343 270.223C277.728 270.215 279.102 270.459 280.399 270.943C281.762 271.274 282.967 272.07 283.806 273.194C284.838 274.524 285.515 276.094 285.773 277.757C286.011 279.463 286.092 281.187 286.017 282.908C285.935 284.635 285.377 286.306 284.404 287.735L280.034 288.495C277.624 288.682 275.201 288.553 272.825 288.11C270.423 287.649 268.302 286.256 266.923 284.236C265.169 281.336 265.899 276.946 268.008 274.36Z" fill="#263238"/>
<path d="M263.79 287.025C263.833 286.53 263.989 286.051 264.246 285.626C264.502 285.201 264.853 284.84 265.271 284.571C265.695 284.312 266.192 284.195 266.688 284.237C267.184 284.279 267.653 284.477 268.029 284.804L268.718 285.625C269.251 285.87 269.694 286.275 269.985 286.785C270.276 287.294 270.4 287.881 270.34 288.465C270.258 289.046 270.012 289.591 269.631 290.038C269.251 290.485 268.751 290.815 268.191 290.989C267.626 291.147 267.03 291.157 266.46 291.019C265.89 290.88 265.366 290.598 264.936 290.198C264.514 289.793 264.192 289.296 263.993 288.745C263.794 288.195 263.725 287.606 263.79 287.025Z" fill="#263238"/>
<path d="M264.652 289.965C264.49 289.704 264.409 289.401 264.419 289.093C264.565 288.358 264.917 287.68 265.433 287.136C265.919 286.559 266.516 286.083 267.187 285.737C267.694 285.463 268.049 285.362 268.039 285.321C267.716 285.351 267.403 285.444 267.116 285.595C266.405 285.919 265.775 286.397 265.271 286.994C264.989 287.321 264.751 287.682 264.561 288.069C264.394 288.383 264.297 288.729 264.277 289.083C264.274 289.327 264.34 289.566 264.47 289.773C264.561 289.925 264.652 289.975 264.652 289.965Z" fill="#455A64"/>
<path d="M280.014 297.215V293.159C280.014 293.159 283.573 292.764 284.567 288.211C285.033 285.193 285.216 282.138 285.114 279.085C285.114 276.317 282.731 272.545 279.304 272.535L277.783 272.363L271.953 274.674C271.547 274.694 271.164 274.866 270.878 275.155C270.593 275.444 270.426 275.83 270.412 276.236L270.239 295.704L272.906 299.446C273.394 300.107 274.077 300.598 274.859 300.851C275.64 301.104 276.482 301.106 277.265 300.857C278.047 300.607 278.732 300.119 279.224 299.46C279.715 298.802 279.988 298.006 280.004 297.185L280.014 297.215Z" fill="#FFBE9D"/>
<path d="M277.671 286.781C277.703 286.547 277.823 286.333 278.006 286.183C278.173 286.043 278.38 285.961 278.598 285.948C278.815 285.935 279.031 285.993 279.213 286.112C279.399 286.257 279.544 286.449 279.633 286.668C279.722 286.887 279.752 287.125 279.72 287.359C279.618 287.499 279.487 287.615 279.337 287.701C279.187 287.786 279.02 287.839 278.848 287.856H278.685C278.414 287.85 278.155 287.745 277.955 287.562C277.852 287.462 277.772 287.34 277.723 287.205C277.674 287.069 277.656 286.924 277.671 286.781Z" fill="#EB996E"/>
<path d="M282.975 282.35C282.956 282.494 282.885 282.627 282.776 282.722C282.667 282.818 282.527 282.871 282.381 282.871C282.236 282.871 282.096 282.818 281.987 282.722C281.878 282.627 281.807 282.494 281.788 282.35C281.796 282.195 281.864 282.049 281.978 281.943C282.091 281.837 282.241 281.78 282.397 281.783C282.472 281.781 282.547 281.795 282.617 281.823C282.687 281.851 282.751 281.892 282.805 281.945C282.859 281.998 282.901 282.061 282.931 282.131C282.96 282.2 282.975 282.275 282.975 282.35Z" fill="#263238"/>
<path d="M283.948 280.839C283.867 280.91 283.431 280.555 282.802 280.525C282.174 280.495 281.677 280.779 281.616 280.697C281.555 280.616 281.667 280.525 281.879 280.393C282.163 280.213 282.498 280.131 282.833 280.16C283.163 280.173 283.48 280.294 283.735 280.505C283.918 280.667 283.978 280.809 283.948 280.839Z" fill="#263238"/>
<path d="M279.943 285.646C280.275 285.567 280.615 285.523 280.957 285.514C281.119 285.514 281.281 285.514 281.312 285.372C281.334 285.205 281.306 285.036 281.231 284.885C281.099 284.49 280.957 284.074 280.815 283.628C280.43 282.558 280.128 281.46 279.912 280.343C280.387 281.377 280.777 282.449 281.078 283.547C281.22 283.993 281.342 284.409 281.474 284.814C281.559 285.016 281.577 285.24 281.525 285.453C281.497 285.509 281.457 285.559 281.408 285.597C281.359 285.636 281.302 285.663 281.241 285.676C281.15 285.69 281.058 285.69 280.967 285.676C280.626 285.713 280.281 285.702 279.943 285.646Z" fill="#263238"/>
<path d="M279.973 293.18C277.802 293.095 275.696 292.41 273.889 291.202C273.889 291.202 275.36 294.478 279.973 294.305V293.18Z" fill="#EB996E"/>
<path d="M278.047 285.98C278.158 285.98 278.118 286.67 278.685 287.197C279.253 287.725 279.983 287.684 279.983 287.775C279.983 287.866 279.811 287.897 279.507 287.897C279.099 287.879 278.711 287.717 278.412 287.441C278.122 287.18 277.947 286.815 277.925 286.427C277.915 286.143 278.006 285.98 278.047 285.98Z" fill="#263238"/>
<path d="M283.816 278.446C283.705 278.598 283.218 278.446 282.65 278.446C282.082 278.446 281.636 278.588 281.484 278.446C281.332 278.304 281.484 278.223 281.707 278.081C281.985 277.901 282.309 277.806 282.64 277.808C282.973 277.794 283.302 277.882 283.583 278.061C283.796 278.223 283.867 278.375 283.816 278.446Z" fill="#263238"/>
<path d="M275.999 282.269C275.996 282.424 276.054 282.573 276.16 282.685C276.266 282.797 276.412 282.862 276.566 282.868C276.641 282.876 276.717 282.869 276.789 282.847C276.861 282.826 276.928 282.79 276.986 282.741C277.044 282.693 277.091 282.633 277.126 282.566C277.16 282.499 277.18 282.426 277.185 282.351C277.188 282.195 277.13 282.045 277.024 281.931C276.918 281.818 276.772 281.75 276.617 281.742C276.542 281.735 276.466 281.743 276.394 281.766C276.321 281.789 276.254 281.826 276.197 281.875C276.139 281.925 276.092 281.985 276.058 282.052C276.024 282.12 276.004 282.194 275.999 282.269Z" fill="#263238"/>
<path d="M275.228 280.606C275.299 280.687 275.755 280.363 276.394 280.383C277.033 280.404 277.489 280.718 277.56 280.637C277.631 280.556 277.56 280.464 277.317 280.312C277.044 280.118 276.718 280.012 276.384 280.008C276.054 280.006 275.732 280.105 275.461 280.292C275.258 280.434 275.187 280.576 275.228 280.606Z" fill="#263238"/>
<path d="M274.863 279.248C274.984 279.39 275.481 279.248 276.069 279.248C276.657 279.248 277.154 279.359 277.276 279.248C277.398 279.136 277.276 279.035 277.033 278.893C276.737 278.72 276.401 278.629 276.059 278.629C275.717 278.629 275.381 278.72 275.086 278.893C274.873 279.024 274.802 279.177 274.863 279.248Z" fill="#263238"/>
<path d="M271.162 283.618C271.162 283.273 270.837 282.452 270.493 282.381C269.6 282.188 267.968 282.168 267.826 284.459C267.633 287.593 270.868 287.146 270.868 287.055C270.868 286.964 271.101 284.804 271.162 283.618Z" fill="#FFBE9D"/>
<path d="M270.036 285.859C270.036 285.859 269.986 285.859 269.884 285.93C269.754 285.98 269.609 285.98 269.479 285.93C269.283 285.79 269.128 285.601 269.03 285.382C268.932 285.163 268.895 284.921 268.921 284.682C268.932 284.414 269.001 284.151 269.124 283.912C269.16 283.816 269.219 283.731 269.295 283.662C269.37 283.593 269.461 283.543 269.56 283.516C269.623 283.504 269.688 283.513 269.745 283.543C269.803 283.572 269.848 283.62 269.874 283.679C269.883 283.732 269.883 283.787 269.874 283.841C269.874 283.841 269.945 283.79 269.925 283.658C269.91 283.581 269.871 283.51 269.813 283.455C269.773 283.421 269.726 283.396 269.676 283.38C269.625 283.364 269.572 283.359 269.519 283.364C269.389 283.379 269.265 283.428 269.16 283.506C269.055 283.585 268.972 283.69 268.921 283.81C268.77 284.073 268.686 284.369 268.678 284.672C268.644 284.95 268.694 285.231 268.82 285.48C268.946 285.729 269.144 285.935 269.388 286.072C269.466 286.11 269.553 286.13 269.641 286.13C269.729 286.13 269.816 286.11 269.895 286.072C270.036 285.93 270.036 285.859 270.036 285.859Z" fill="#EB996E"/>
<path d="M270.371 282.35L271.162 283.182C274.609 279.887 281.352 271.643 280.977 272.14C279.405 271.551 277.711 271.367 276.049 271.602C273.484 272.038 268.627 273.316 268.698 276.338C268.85 278.433 269.419 280.477 270.371 282.35Z" fill="#263238"/>
<path d="M265.808 281.691C265.808 281.691 265.808 281.63 265.808 281.509C265.87 281.343 265.941 281.18 266.021 281.022C266.349 280.439 266.798 279.934 267.339 279.541C268.16 278.974 269.072 278.552 270.036 278.294C271.05 277.95 272.267 277.686 273.433 277.189C274.531 276.733 275.572 276.151 276.536 275.455C277.322 274.888 278.056 274.25 278.726 273.549C279.294 272.941 279.74 272.413 279.994 272.048C280.115 271.866 280.227 271.724 280.308 271.612C280.389 271.501 280.419 271.46 280.43 271.47L280.338 271.632L280.044 272.079C279.671 272.623 279.258 273.138 278.807 273.62C278.141 274.34 277.408 274.996 276.617 275.577C275.644 276.267 274.592 276.839 273.484 277.28C272.308 277.777 271.111 278.041 270.067 278.375C269.133 278.633 268.249 279.044 267.451 279.592C266.912 279.966 266.46 280.45 266.122 281.012C266.004 281.231 265.899 281.458 265.808 281.691Z" fill="#455A64"/>
<path d="M266.721 282.188C266.713 281.952 266.754 281.718 266.842 281.499C267.074 280.9 267.485 280.386 268.018 280.028C268.817 279.518 269.71 279.174 270.645 279.014C271.763 278.796 272.855 278.456 273.9 278C274.937 277.529 275.911 276.929 276.799 276.216C278.021 275.238 279.07 274.062 279.902 272.738C280.014 272.555 280.105 272.414 280.166 272.292C280.199 272.241 280.236 272.194 280.277 272.15C280.256 272.207 280.229 272.261 280.196 272.312L279.953 272.768C279.642 273.32 279.282 273.842 278.878 274.33C278.279 275.079 277.599 275.759 276.85 276.358C275.955 277.086 274.971 277.696 273.92 278.173C272.862 278.632 271.757 278.972 270.624 279.187C269.704 279.349 268.825 279.694 268.039 280.201C267.507 280.537 267.093 281.029 266.852 281.61C266.79 281.798 266.746 281.992 266.721 282.188Z" fill="#455A64"/>
<path d="M264.885 310.508C264.737 308.513 264.737 306.51 264.885 304.516C265.021 306.511 265.021 308.513 264.885 310.508Z" fill="#263238"/>
<path d="M286.402 310.093C286.373 309.738 286.373 309.382 286.402 309.028C286.463 308.179 286.432 307.326 286.311 306.483C286.152 305.649 285.907 304.833 285.581 304.049C285.429 303.723 285.307 303.384 285.216 303.035C285.414 303.331 285.58 303.647 285.712 303.978C286.089 304.76 286.359 305.589 286.513 306.442C286.634 307.3 286.634 308.17 286.513 309.028C286.522 309.386 286.485 309.744 286.402 310.093Z" fill="#263238"/>
<path d="M395.85 303.522H318.332C316.483 303.519 314.711 302.783 313.405 301.475C312.099 300.167 311.366 298.394 311.366 296.546V279.471L302.818 271.886H395.85C397.696 271.889 399.467 272.624 400.772 273.929C402.078 275.235 402.813 277.006 402.816 278.852V296.546C402.816 298.394 402.082 300.167 400.776 301.475C399.47 302.783 397.698 303.519 395.85 303.522Z" fill="#EBEBEB"/>
<path d="M394.856 281.205C394.856 281.357 377.933 281.468 357.055 281.468C336.177 281.468 319.264 281.357 319.264 281.205C319.264 281.052 336.177 280.941 357.055 280.941C377.933 280.941 394.856 281.063 394.856 281.205Z" fill="white"/>
<path d="M394.856 286.761C394.856 286.903 377.933 287.025 357.055 287.025C336.177 287.025 319.264 286.903 319.264 286.761C319.264 286.619 336.177 286.497 357.055 286.497C377.933 286.497 394.856 286.619 394.856 286.761Z" fill="white"/>
<path d="M394.856 292.318C394.856 292.46 377.933 292.581 357.055 292.581C336.177 292.581 319.264 292.46 319.264 292.318C319.264 292.176 336.177 292.054 357.055 292.054C377.933 292.054 394.856 292.165 394.856 292.318Z" fill="white"/>
<path d="M394.856 156.354C394.856 156.496 377.933 156.618 357.055 156.618C336.177 156.618 319.264 156.496 319.264 156.354C319.264 156.213 336.177 156.091 357.055 156.091C377.933 156.091 394.856 156.202 394.856 156.354Z" fill="white"/>
<path d="M394.856 161.901C394.856 162.053 377.933 162.164 357.055 162.164C336.177 162.164 319.264 162.053 319.264 161.901C319.264 161.749 336.177 161.637 357.055 161.637C377.933 161.637 394.856 161.759 394.856 161.901Z" fill="white"/>
<path d="M394.856 168.573C394.856 168.725 377.933 168.836 357.055 168.836C336.177 168.836 319.264 168.725 319.264 168.573C319.264 168.421 336.177 168.309 357.055 168.309C377.933 168.309 394.856 168.431 394.856 168.573Z" fill="white"/>
<path d="M319.721 72.0833C319.775 71.2954 320.058 70.5405 320.535 69.9111C321.012 69.2818 321.663 68.8055 322.407 68.5406C323.151 68.2757 323.956 68.2338 324.724 68.42C325.491 68.6063 326.188 69.0125 326.727 69.5889L325.643 70.6029C325.418 70.3313 325.136 70.113 324.817 69.9639C324.498 69.8148 324.149 69.7387 323.797 69.741C323.173 69.741 322.575 69.9889 322.134 70.43C321.693 70.8712 321.445 71.4695 321.445 72.0934C321.445 72.7173 321.693 73.3157 322.134 73.7569C322.575 74.198 323.173 74.4459 323.797 74.4459C324.15 74.4484 324.5 74.3714 324.819 74.2204C325.139 74.0695 325.42 73.8485 325.643 73.5738L326.727 74.5878C326.188 75.1638 325.493 75.57 324.726 75.7567C323.959 75.9433 323.155 75.9023 322.411 75.6386C321.668 75.375 321.017 74.9001 320.539 74.2722C320.061 73.6443 319.777 72.8906 319.721 72.1036V72.0833Z" fill="#263238"/>
<path d="M333.47 72.5194V75.754H331.888V72.7729C331.888 71.8603 331.463 71.4446 330.743 71.4446C330.023 71.4446 329.394 71.9313 329.394 72.9655V75.754H327.751V67.9768H329.394V70.7044C329.632 70.4759 329.914 70.2979 330.222 70.1812C330.53 70.0644 330.859 70.0113 331.189 70.025C331.511 70.012 331.831 70.0694 332.128 70.1932C332.426 70.317 332.692 70.5042 332.909 70.7418C333.127 70.9794 333.289 71.2616 333.386 71.5686C333.483 71.8756 333.512 72.2001 333.47 72.5194Z" fill="#263238"/>
<path d="M339.939 72.5397V75.7539H338.408V75.0543C338.218 75.3279 337.958 75.545 337.654 75.6824C337.351 75.8199 337.016 75.8726 336.685 75.8351C335.366 75.8351 334.586 75.105 334.586 74.1316C334.586 73.1582 335.285 72.4383 337.009 72.4383H338.307C338.307 71.7386 337.881 71.333 337.009 71.333C336.424 71.3271 335.852 71.5083 335.377 71.8502L334.788 70.7145C335.512 70.2459 336.36 70.0056 337.222 70.025C338.986 70.025 339.939 70.8261 339.939 72.5397ZM338.307 73.9694V73.3914H337.181C336.421 73.3914 336.167 73.6753 336.167 74.0606C336.167 74.4459 336.512 74.74 337.09 74.74C337.349 74.7594 337.607 74.6949 337.826 74.5561C338.045 74.4173 338.214 74.2115 338.307 73.9694Z" fill="#263238"/>
<path d="M345.07 75.5005C344.67 75.7516 344.203 75.8753 343.732 75.8554C343.453 75.8937 343.17 75.8683 342.902 75.781C342.635 75.6938 342.391 75.5469 342.189 75.3516C341.987 75.1563 341.832 74.9176 341.736 74.6536C341.639 74.3896 341.604 74.1071 341.633 73.8275V71.5055H340.761V70.2481H341.633V68.8691H343.265V70.2481H344.675V71.5055H343.265V73.8072C343.253 73.9038 343.262 74.0019 343.293 74.0945C343.323 74.1871 343.373 74.2718 343.44 74.3426C343.507 74.4134 343.589 74.4685 343.68 74.5039C343.77 74.5393 343.868 74.5541 343.965 74.5474C344.203 74.556 344.436 74.4806 344.624 74.3344L345.07 75.5005Z" fill="#263238"/>
<path d="M373.999 83.3993C373.999 83.5412 356.761 83.6629 335.397 83.6629C314.033 83.6629 296.805 83.5412 296.805 83.3993C296.805 83.2573 314.043 83.1255 335.397 83.1255C356.751 83.1255 373.999 83.2472 373.999 83.3993Z" fill="#263238"/>
<path d="M408.2 72.0831C409.191 72.0831 409.995 71.2796 409.995 70.2884C409.995 69.2972 409.191 68.4937 408.2 68.4937C407.209 68.4937 406.405 69.2972 406.405 70.2884C406.405 71.2796 407.209 72.0831 408.2 72.0831Z" fill="#263238"/>
<path d="M409.964 75.5006C409.966 75.8584 409.862 76.2087 409.664 76.5071C409.467 76.8054 409.185 77.0384 408.855 77.1762C408.525 77.3141 408.161 77.3507 407.81 77.2814C407.459 77.212 407.136 77.0399 406.883 76.7869C406.63 76.5339 406.458 76.2114 406.389 75.8603C406.319 75.5093 406.356 75.1455 406.494 74.8153C406.632 74.4851 406.865 74.2033 407.163 74.0058C407.461 73.8082 407.812 73.7038 408.169 73.7058C408.645 73.7085 409.1 73.8984 409.436 74.2344C409.772 74.5704 409.962 75.0254 409.964 75.5006Z" fill="#263238"/>
<path d="M409.964 80.7628C409.966 81.1206 409.862 81.4709 409.664 81.7693C409.467 82.0677 409.185 82.3006 408.855 82.4384C408.525 82.5763 408.161 82.6129 407.81 82.5436C407.459 82.4742 407.136 82.3021 406.883 82.0491C406.63 81.7961 406.458 81.4736 406.389 81.1225C406.319 80.7715 406.356 80.4077 406.494 80.0775C406.632 79.7473 406.865 79.4655 407.163 79.268C407.461 79.0704 407.812 78.966 408.169 78.968C408.645 78.968 409.102 79.1571 409.439 79.4937C409.775 79.8303 409.964 80.2868 409.964 80.7628Z" fill="#263238"/>
<path d="M262.249 76.3723C262.139 76.3746 262.031 76.3388 261.945 76.2709L257.189 72.7828C257.124 72.7346 257.071 72.6719 257.034 72.5998C256.997 72.5277 256.977 72.4481 256.976 72.3671C256.977 72.2874 256.996 72.2089 257.033 72.1383C257.07 72.0677 257.124 72.0071 257.189 71.9615L261.945 68.5343C261.999 68.4954 262.061 68.4677 262.126 68.4527C262.191 68.4378 262.259 68.4359 262.325 68.4472C262.391 68.4585 262.454 68.4828 262.511 68.5186C262.567 68.5545 262.616 68.6012 262.655 68.656C262.731 68.7641 262.762 68.8978 262.741 69.0285C262.72 69.1593 262.649 69.2767 262.543 69.3556L258.345 72.3975L262.543 75.4394C262.65 75.5202 262.721 75.6394 262.742 75.7718C262.763 75.9042 262.732 76.0395 262.655 76.1492C262.61 76.2165 262.55 76.272 262.479 76.3109C262.409 76.3497 262.33 76.3708 262.249 76.3723Z" fill="#263238"/>
<path d="M386.349 246.861C398.91 246.861 409.092 236.702 409.092 224.169C409.092 211.636 398.91 201.476 386.349 201.476C373.788 201.476 363.605 211.636 363.605 224.169C363.605 236.702 373.788 246.861 386.349 246.861Z" fill="#E0E0E0"/>
<path d="M392.574 237.584H380.61C380.201 237.584 379.809 237.421 379.52 237.132C379.231 236.843 379.068 236.451 379.068 236.042C379.068 235.633 379.23 235.24 379.519 234.949C379.808 234.658 380.2 234.494 380.61 234.491H392.574C392.984 234.494 393.376 234.658 393.665 234.949C393.954 235.24 394.116 235.633 394.116 236.042C394.116 236.451 393.953 236.843 393.664 237.132C393.375 237.421 392.983 237.584 392.574 237.584Z" fill="#263238"/>
<path d="M387.272 209.416H386.217V214.729H387.272V209.416Z" fill="#263238"/>
<path d="M371.241 230.658C372.943 230.658 374.323 229.278 374.323 227.576C374.323 225.873 372.943 224.493 371.241 224.493C369.538 224.493 368.158 225.873 368.158 227.576C368.158 229.278 369.538 230.658 371.241 230.658Z" fill="#02A4FF"/>
<path d="M402.41 230.455C404.113 230.455 405.493 229.075 405.493 227.373C405.493 225.67 404.113 224.29 402.41 224.29C400.708 224.29 399.328 225.67 399.328 227.373C399.328 229.075 400.708 230.455 402.41 230.455Z" fill="#02A4FF"/>
<path d="M387.201 213.613C387.201 213.613 399.754 213.461 401.741 224.341C403.728 235.221 393.112 235.414 390.06 235.617C388.681 235.708 385.72 235.718 383.104 235.677C377.314 235.576 373.228 234.461 371.839 229.087C371.673 228.456 371.567 227.811 371.525 227.16C371.16 221.279 375.134 213.329 387.201 213.613Z" fill="#02A4FF"/>
<path d="M378.095 230.171L396.347 230.455C397.265 230.469 398.151 230.118 398.81 229.479C399.47 228.841 399.849 227.966 399.865 227.048C399.876 226.13 399.522 225.246 398.882 224.588C398.241 223.93 397.366 223.553 396.448 223.54L378.197 223.256C377.742 223.248 377.29 223.33 376.866 223.497C376.443 223.664 376.057 223.913 375.73 224.229C375.403 224.546 375.142 224.924 374.962 225.341C374.781 225.759 374.685 226.208 374.678 226.663C374.671 227.118 374.755 227.57 374.923 227.992C375.091 228.415 375.341 228.801 375.658 229.127C375.976 229.452 376.355 229.713 376.773 229.892C377.191 230.071 377.64 230.166 378.095 230.171Z" fill="#263238"/>
<path d="M392.554 226.673C392.581 226.817 392.636 226.953 392.716 227.075C392.796 227.198 392.899 227.303 393.02 227.385C393.14 227.467 393.276 227.524 393.419 227.553C393.562 227.583 393.709 227.583 393.852 227.555C394.007 227.54 394.156 227.492 394.291 227.416C394.426 227.339 394.543 227.235 394.636 227.111C394.728 226.986 394.794 226.843 394.828 226.692C394.862 226.541 394.865 226.384 394.835 226.232C394.805 226.08 394.744 225.935 394.655 225.808C394.567 225.681 394.452 225.573 394.32 225.493C394.187 225.412 394.039 225.36 393.886 225.34C393.732 225.32 393.575 225.332 393.426 225.375C393.284 225.403 393.148 225.459 393.027 225.539C392.906 225.62 392.803 225.723 392.722 225.844C392.641 225.964 392.584 226.099 392.555 226.242C392.527 226.384 392.526 226.531 392.554 226.673Z" fill="white"/>
<path d="M379.809 226.471C379.824 226.625 379.872 226.774 379.949 226.909C380.025 227.044 380.129 227.162 380.254 227.254C380.378 227.347 380.521 227.412 380.672 227.446C380.823 227.481 380.98 227.483 381.132 227.453C381.285 227.423 381.429 227.362 381.556 227.274C381.684 227.185 381.791 227.071 381.872 226.938C381.952 226.805 382.004 226.658 382.024 226.504C382.045 226.35 382.033 226.194 381.989 226.045C381.911 225.778 381.736 225.55 381.498 225.406C381.261 225.261 380.978 225.211 380.705 225.264C380.432 225.317 380.189 225.47 380.023 225.694C379.857 225.917 379.781 226.194 379.809 226.471Z" fill="white"/>
<path d="M388.478 209.345C388.48 209.688 388.38 210.024 388.191 210.311C388.001 210.597 387.731 210.821 387.415 210.954C387.098 211.087 386.749 211.122 386.412 211.057C386.075 210.991 385.765 210.826 385.522 210.584C385.278 210.342 385.112 210.033 385.044 209.697C384.977 209.36 385.01 209.011 385.141 208.694C385.272 208.376 385.494 208.105 385.78 207.914C386.065 207.723 386.401 207.621 386.744 207.621C387.202 207.621 387.642 207.802 387.967 208.125C388.291 208.448 388.475 208.886 388.478 209.345Z" fill="#02A4FF"/>
<path d="M389.36 226.166C389.36 226.166 389.431 226.247 389.472 226.43C389.503 226.689 389.479 226.952 389.401 227.2C389.289 227.586 389.08 227.935 388.792 228.214C388.441 228.566 387.979 228.784 387.484 228.833C386.99 228.874 386.496 228.745 386.085 228.468C385.76 228.247 385.492 227.952 385.304 227.606C385.184 227.373 385.115 227.117 385.102 226.856C385.102 226.673 385.102 226.572 385.162 226.572C385.223 226.572 385.264 226.957 385.598 227.434C385.794 227.698 386.038 227.922 386.318 228.093C386.657 228.294 387.05 228.387 387.444 228.356C387.821 228.308 388.175 228.145 388.458 227.89C388.713 227.678 388.918 227.411 389.056 227.109C389.32 226.582 389.279 226.166 389.36 226.166Z" fill="white"/>
<path d="M401.721 223.986C401.759 224.071 401.789 224.159 401.812 224.25C401.852 224.356 401.885 224.464 401.913 224.574C401.913 224.696 401.984 224.838 402.015 225.01C402.092 225.388 402.146 225.771 402.177 226.156C402.212 226.629 402.212 227.103 402.177 227.576C402.135 228.047 402.057 228.515 401.944 228.975C401.848 229.348 401.726 229.714 401.579 230.07C401.529 230.211 401.471 230.35 401.406 230.486C401.362 230.587 401.311 230.685 401.254 230.78L401.112 231.033C401.135 230.94 401.172 230.851 401.224 230.77L401.356 230.455C401.406 230.334 401.467 230.202 401.518 230.05C401.654 229.693 401.766 229.327 401.853 228.955C401.961 228.497 402.039 228.033 402.086 227.565C402.116 227.096 402.116 226.625 402.086 226.156C402.06 225.775 402.013 225.396 401.944 225.02C401.922 224.863 401.892 224.707 401.853 224.554C401.853 224.422 401.802 224.321 401.782 224.229C401.75 224.151 401.73 224.07 401.721 223.986Z" fill="#263238"/>
<path d="M371.981 224.047C371.938 224.134 371.904 224.226 371.88 224.321C371.88 224.402 371.819 224.513 371.778 224.635C371.738 224.757 371.707 224.909 371.677 225.071C371.599 225.449 371.548 225.832 371.525 226.217C371.489 226.689 371.489 227.164 371.525 227.636C371.565 228.108 371.643 228.576 371.758 229.036C371.852 229.413 371.974 229.782 372.123 230.141C372.174 230.293 372.245 230.425 372.295 230.546C372.346 230.668 372.407 230.769 372.448 230.851L372.589 231.094C372.563 231.002 372.525 230.913 372.478 230.83C372.478 230.749 372.397 230.648 372.346 230.526C372.295 230.404 372.235 230.273 372.184 230.121C372.048 229.76 371.936 229.391 371.849 229.015C371.74 228.558 371.662 228.094 371.616 227.626C371.586 227.16 371.586 226.693 371.616 226.227C371.641 225.843 371.689 225.46 371.758 225.081C371.779 224.937 371.81 224.795 371.849 224.655C371.849 224.523 371.9 224.412 371.92 224.331C371.941 224.25 371.981 224.047 371.981 224.047Z" fill="#263238"/>
<path d="M374.688 243.657C374.688 243.657 378.42 240.017 386.217 240.017C394.014 240.017 398.01 243.657 398.01 243.657C394.491 245.78 390.459 246.903 386.349 246.903C382.239 246.903 378.207 245.78 374.688 243.657Z" fill="#02A4FF"/>
<path d="M261.924 247.308H339.432C340.348 247.309 341.254 247.13 342.1 246.78C342.945 246.431 343.714 245.917 344.361 245.27C345.008 244.623 345.521 243.855 345.871 243.009C346.22 242.163 346.4 241.257 346.398 240.342V217.852L354.946 210.267H261.924C261.01 210.267 260.104 210.448 259.259 210.798C258.414 211.148 257.646 211.661 256.999 212.308C256.352 212.954 255.839 213.722 255.489 214.568C255.139 215.413 254.959 216.319 254.959 217.233V240.342C254.957 241.257 255.136 242.163 255.486 243.009C255.836 243.855 256.349 244.623 256.996 245.27C257.643 245.917 258.411 246.431 259.257 246.78C260.103 247.13 261.009 247.309 261.924 247.308Z" fill="#EBEBEB"/>
<path d="M335.944 221.258C335.944 221.411 319.985 221.522 300.293 221.522C280.602 221.522 264.642 221.411 264.642 221.258C264.642 221.106 280.602 220.995 300.293 220.995C319.985 220.995 335.944 221.117 335.944 221.258Z" fill="white"/>
<path d="M335.944 227.282C335.944 227.434 319.985 227.545 300.293 227.545C280.602 227.545 264.642 227.434 264.642 227.282C264.642 227.13 280.602 227.018 300.293 227.018C319.985 227.018 335.944 227.14 335.944 227.282Z" fill="white"/>
<path d="M335.944 233.305C335.944 233.447 319.985 233.568 300.293 233.568C280.602 233.568 264.642 233.447 264.642 233.305C264.642 233.163 280.602 233.041 300.293 233.041C319.985 233.041 335.944 233.163 335.944 233.305Z" fill="white"/>
<path d="M335.944 239.328C335.944 239.47 319.985 239.591 300.293 239.591C280.602 239.591 264.642 239.47 264.642 239.328C264.642 239.186 280.602 239.064 300.293 239.064C319.985 239.064 335.944 239.176 335.944 239.328Z" fill="white"/>
<path d="M386.349 372.878C398.91 372.878 409.092 362.718 409.092 350.185C409.092 337.652 398.91 327.492 386.349 327.492C373.788 327.492 363.605 337.652 363.605 350.185C363.605 362.718 373.788 372.878 386.349 372.878Z" fill="#E0E0E0"/>
<path d="M392.574 363.6H380.61C380.406 363.6 380.205 363.559 380.017 363.481C379.83 363.403 379.659 363.289 379.516 363.145C379.373 363.001 379.26 362.829 379.183 362.641C379.106 362.453 379.067 362.252 379.068 362.048C379.068 361.64 379.231 361.248 379.52 360.959C379.809 360.669 380.201 360.507 380.61 360.507H392.574C392.983 360.507 393.375 360.669 393.664 360.959C393.953 361.248 394.116 361.64 394.116 362.048C394.117 362.252 394.078 362.453 394.001 362.641C393.924 362.829 393.811 363.001 393.668 363.145C393.525 363.289 393.354 363.403 393.167 363.481C392.979 363.559 392.778 363.6 392.574 363.6Z" fill="#263238"/>
<path d="M387.272 335.432H386.217V340.745H387.272V335.432Z" fill="#263238"/>
<path d="M371.241 356.674C372.943 356.674 374.323 355.294 374.323 353.592C374.323 351.89 372.943 350.51 371.241 350.51C369.538 350.51 368.158 351.89 368.158 353.592C368.158 355.294 369.538 356.674 371.241 356.674Z" fill="#02A4FF"/>
<path d="M402.41 356.461C404.113 356.461 405.493 355.081 405.493 353.379C405.493 351.676 404.113 350.296 402.41 350.296C400.708 350.296 399.328 351.676 399.328 353.379C399.328 355.081 400.708 356.461 402.41 356.461Z" fill="#02A4FF"/>
<path d="M387.201 339.629C387.201 339.629 399.754 339.477 401.741 350.347C403.728 361.217 393.112 361.43 390.06 361.632C388.681 361.724 385.72 361.734 383.104 361.693C377.314 361.592 373.228 360.466 371.839 355.102C371.673 354.472 371.567 353.827 371.525 353.176C371.16 347.295 375.134 339.335 387.201 339.629Z" fill="#02A4FF"/>
<path d="M378.095 356.188L396.347 356.471C397.265 356.485 398.151 356.134 398.81 355.495C399.47 354.857 399.849 353.982 399.865 353.064C399.876 352.146 399.522 351.262 398.882 350.604C398.241 349.946 397.366 349.57 396.448 349.556L378.197 349.262C377.279 349.249 376.393 349.6 375.733 350.238C375.073 350.877 374.694 351.751 374.678 352.669C374.671 353.124 374.754 353.577 374.923 354C375.091 354.423 375.341 354.809 375.658 355.136C375.975 355.463 376.354 355.724 376.772 355.904C377.19 356.085 377.64 356.181 378.095 356.188Z" fill="#263238"/>
<path d="M392.554 352.69C392.579 352.834 392.632 352.972 392.71 353.096C392.788 353.22 392.89 353.328 393.009 353.413C393.129 353.497 393.264 353.558 393.407 353.59C393.55 353.623 393.698 353.627 393.842 353.602C393.987 353.577 394.125 353.525 394.249 353.447C394.373 353.369 394.48 353.267 394.565 353.147C394.65 353.028 394.71 352.893 394.743 352.75C394.775 352.607 394.779 352.459 394.755 352.314C394.739 352.16 394.691 352.011 394.615 351.876C394.538 351.741 394.434 351.623 394.31 351.531C394.185 351.438 394.043 351.373 393.891 351.339C393.74 351.304 393.583 351.302 393.431 351.332C393.279 351.361 393.134 351.423 393.007 351.511C392.88 351.6 392.773 351.714 392.692 351.847C392.611 351.979 392.559 352.127 392.539 352.281C392.519 352.435 392.531 352.591 392.575 352.74L392.554 352.69Z" fill="white"/>
<path d="M379.809 352.487C379.851 352.703 379.956 352.902 380.111 353.059C380.267 353.216 380.465 353.323 380.681 353.367C380.897 353.411 381.122 353.389 381.326 353.306C381.53 353.222 381.705 353.08 381.828 352.897C381.951 352.714 382.018 352.499 382.019 352.278C382.02 352.058 381.955 351.842 381.834 351.658C381.712 351.474 381.538 351.33 381.335 351.245C381.131 351.16 380.907 351.137 380.691 351.179C380.547 351.207 380.41 351.263 380.288 351.343C380.166 351.424 380.061 351.528 379.979 351.65C379.897 351.771 379.84 351.908 379.81 352.051C379.781 352.195 379.781 352.343 379.809 352.487Z" fill="white"/>
<path d="M388.478 335.32C388.478 335.663 388.376 335.998 388.186 336.283C387.995 336.568 387.725 336.79 387.408 336.922C387.091 337.053 386.742 337.087 386.406 337.02C386.07 336.953 385.761 336.788 385.518 336.546C385.276 336.303 385.11 335.994 385.044 335.658C384.977 335.322 385.011 334.973 385.142 334.656C385.273 334.339 385.496 334.069 385.781 333.878C386.066 333.688 386.401 333.586 386.744 333.586C387.204 333.586 387.645 333.769 387.97 334.094C388.295 334.419 388.478 334.86 388.478 335.32Z" fill="#02A4FF"/>
<path d="M389.36 352.172C389.36 352.172 389.431 352.264 389.472 352.446C389.503 352.705 389.479 352.968 389.401 353.217C389.287 353.601 389.078 353.95 388.792 354.231C388.441 354.582 387.979 354.8 387.484 354.849C386.99 354.89 386.496 354.762 386.085 354.484C385.76 354.264 385.492 353.968 385.304 353.622C385.185 353.389 385.116 353.133 385.102 352.872C385.102 352.689 385.102 352.588 385.162 352.588C385.223 352.588 385.264 352.973 385.598 353.44C385.79 353.71 386.035 353.937 386.318 354.109C386.66 354.304 387.051 354.396 387.444 354.373C387.821 354.324 388.175 354.162 388.458 353.906C388.709 353.69 388.913 353.424 389.056 353.125C389.32 352.578 389.279 352.183 389.36 352.172Z" fill="white"/>
<path d="M401.721 349.992C401.721 349.992 401.721 350.094 401.812 350.266C401.853 350.372 401.887 350.48 401.913 350.59C401.913 350.712 401.984 350.854 402.015 351.016C402.091 351.395 402.145 351.777 402.177 352.162C402.212 352.635 402.212 353.109 402.177 353.582C402.136 354.054 402.058 354.521 401.944 354.981C401.85 355.358 401.728 355.727 401.579 356.086C401.529 356.224 401.471 356.36 401.406 356.492C401.364 356.597 401.313 356.699 401.254 356.796L401.112 357.039C401.139 356.947 401.176 356.859 401.224 356.776C401.224 356.695 401.305 356.593 401.356 356.471C401.406 356.35 401.467 356.218 401.518 356.066C401.656 355.706 401.767 355.337 401.853 354.961C401.962 354.507 402.039 354.046 402.086 353.582C402.116 353.112 402.116 352.642 402.086 352.172C402.061 351.791 402.014 351.412 401.944 351.037C401.922 350.89 401.892 350.744 401.853 350.601C401.853 350.469 401.802 350.367 401.782 350.276C401.747 350.185 401.726 350.089 401.721 349.992Z" fill="#263238"/>
<path d="M371.981 350.063C371.938 350.151 371.904 350.242 371.88 350.337C371.88 350.418 371.819 350.53 371.778 350.651C371.738 350.773 371.707 350.925 371.677 351.087C371.599 351.465 371.548 351.848 371.525 352.233C371.489 352.706 371.489 353.18 371.525 353.653C371.566 354.124 371.644 354.592 371.758 355.052C371.852 355.429 371.974 355.798 372.123 356.157C372.174 356.309 372.245 356.441 372.295 356.563C372.346 356.684 372.407 356.786 372.448 356.867L372.589 357.11C372.565 357.018 372.527 356.929 372.478 356.847C372.478 356.766 372.397 356.664 372.346 356.543C372.295 356.421 372.235 356.289 372.184 356.127C372.047 355.77 371.936 355.404 371.849 355.032C371.74 354.574 371.662 354.11 371.616 353.643C371.586 353.177 371.586 352.709 371.616 352.243C371.641 351.859 371.689 351.476 371.758 351.097C371.779 350.954 371.81 350.811 371.849 350.672C371.849 350.54 371.9 350.428 371.92 350.347C371.941 350.266 371.981 350.063 371.981 350.063Z" fill="#263238"/>
<path d="M374.688 369.673C374.688 369.673 378.42 366.033 386.217 366.033C394.014 366.033 398.01 369.673 398.01 369.673C394.491 371.797 390.459 372.919 386.349 372.919C382.239 372.919 378.207 371.797 374.688 369.673Z" fill="#02A4FF"/>
<path d="M261.924 373.324H339.432C340.348 373.325 341.254 373.146 342.1 372.796C342.945 372.447 343.714 371.934 344.361 371.286C345.008 370.639 345.521 369.871 345.871 369.025C346.22 368.179 346.4 367.273 346.398 366.358V343.868L354.946 336.283H261.924C261.01 336.283 260.104 336.464 259.259 336.814C258.414 337.164 257.646 337.677 256.999 338.324C256.352 338.971 255.839 339.739 255.489 340.584C255.139 341.429 254.959 342.335 254.959 343.249V366.358C254.957 367.273 255.136 368.179 255.486 369.025C255.836 369.871 256.349 370.639 256.996 371.286C257.643 371.934 258.411 372.447 259.257 372.796C260.103 373.146 261.009 373.325 261.924 373.324Z" fill="#EBEBEB"/>
<path d="M261.924 408.498H339.432C340.348 408.498 341.255 408.318 342.1 407.967C342.946 407.616 343.715 407.102 344.362 406.455C345.009 405.807 345.521 405.037 345.871 404.191C346.22 403.345 346.4 402.438 346.398 401.522V394.07L354.946 386.485H261.924C261.01 386.485 260.104 386.665 259.259 387.015C258.414 387.365 257.646 387.879 256.999 388.525C256.352 389.172 255.839 389.94 255.489 390.785C255.139 391.63 254.958 392.536 254.958 393.451V401.563C254.967 403.405 255.704 405.169 257.009 406.469C258.315 407.769 260.082 408.498 261.924 408.498Z" fill="#EBEBEB"/>
<path d="M335.944 347.244C335.944 347.396 319.985 347.508 300.293 347.508C280.602 347.508 264.642 347.396 264.642 347.244C264.642 347.092 280.602 346.981 300.293 346.981C319.985 346.981 335.944 347.133 335.944 347.244Z" fill="white"/>
<path d="M335.944 353.328C335.944 353.47 319.985 353.592 300.293 353.592C280.602 353.592 264.642 353.47 264.642 353.328C264.642 353.186 280.602 353.065 300.293 353.065C319.985 353.065 335.944 353.156 335.944 353.328Z" fill="white"/>
<path d="M335.944 359.321C335.944 359.463 319.985 359.584 300.293 359.584C280.602 359.584 264.642 359.463 264.642 359.321C264.642 359.179 280.602 359.057 300.293 359.057C319.985 359.057 335.944 359.169 335.944 359.321Z" fill="white"/>
<path d="M335.944 365.344C335.944 365.486 319.985 365.607 300.293 365.607C280.602 365.607 264.642 365.486 264.642 365.344C264.642 365.202 280.602 365.08 300.293 365.08C319.985 365.08 335.944 365.192 335.944 365.344Z" fill="white"/>
<path d="M336.188 397.811C336.188 397.953 320.39 398.075 300.912 398.075C281.433 398.075 265.625 397.953 265.625 397.811C265.625 397.669 281.423 397.547 300.912 397.547C320.4 397.547 336.188 397.659 336.188 397.811Z" fill="white"/>
<path d="M76.8144 383.129C78.1801 383.458 79.4653 384.059 80.5927 384.897C81.72 385.735 82.6664 386.793 83.3748 388.006C84.7763 390.448 85.6049 393.177 85.7982 395.986C86.3153 401.38 84.4395 407.332 82.1073 412.209C76.8448 409.269 74.4012 402.729 73.3669 399.332C71.7344 393.968 72.0386 383.271 76.8144 383.108" fill="#455A64"/>
<path d="M89.1036 419.834C88.4753 418.397 88.2381 416.82 88.4162 415.262C88.5942 413.704 89.1812 412.22 90.1176 410.962C91.0813 409.724 92.2827 408.69 93.6513 407.922C95.0199 407.154 96.5281 406.667 98.0874 406.49C98.7872 406.339 99.5114 406.339 100.211 406.492C100.911 406.644 101.57 406.944 102.143 407.373C102.61 407.868 102.935 408.479 103.084 409.142C103.234 409.806 103.203 410.497 102.995 411.145C102.564 412.434 101.802 413.588 100.785 414.491C97.4486 417.715 93.6259 420.22 89.0022 419.834" fill="#455A64"/>
<path d="M86.8326 437.204C86.7727 436.835 86.7489 436.462 86.7616 436.088C86.7616 435.298 86.7616 434.273 86.6805 433.047C86.4739 429.684 86.8163 426.311 87.6944 423.059C88.6372 419.798 90.4328 416.847 92.8961 414.511C93.6504 413.817 94.4843 413.214 95.3803 412.716C95.6195 412.58 95.8666 412.458 96.1205 412.351C96.2044 412.3 96.2973 412.266 96.3943 412.25C95.2133 412.959 94.106 413.785 93.0887 414.714C90.7086 417.057 88.9639 419.967 88.0189 423.17C87.1464 426.387 86.7602 429.716 86.8731 433.047C86.8731 434.334 86.8731 435.369 86.8731 436.088C86.8869 436.461 86.8733 436.834 86.8326 437.204Z" fill="#263238"/>
<path d="M77.3011 391.301C77.366 391.448 77.4169 391.601 77.4532 391.758C77.5546 392.102 77.6763 392.548 77.8182 393.096C78.1326 394.262 78.5686 395.955 79.0756 398.054C80.0895 402.252 81.4482 408.072 82.7867 414.521C84.1251 420.97 85.1999 426.851 85.9198 431.11C86.2747 433.239 86.5485 434.963 86.731 436.18C86.8121 436.747 86.873 437.194 86.9237 437.559C86.9398 437.72 86.9398 437.883 86.9237 438.045C86.8712 437.89 86.8306 437.73 86.802 437.569C86.731 437.214 86.6499 436.768 86.5384 436.2C86.3052 434.973 85.9908 433.259 85.6055 431.181C84.8146 426.932 83.6993 421.041 82.3608 414.623C81.0224 408.204 79.7245 402.354 78.7714 398.146C78.2948 396.118 77.9095 394.384 77.6357 393.157C77.514 392.599 77.4126 392.143 77.3417 391.798C77.3089 391.635 77.2953 391.468 77.3011 391.301Z" fill="#263238"/>
<path d="M82.1072 424.671C80.8877 421.598 78.9555 418.86 76.4697 416.681C73.984 414.502 71.0159 412.945 67.8102 412.138C66.1777 411.743 64.1498 411.692 63.1561 413.051C62.1624 414.41 62.862 416.336 63.7847 417.745C65.7574 420.644 68.5416 422.895 71.7885 424.217C75.0353 425.539 78.6002 425.873 82.0362 425.178" fill="#455A64"/>
<path d="M69.5949 416.934C69.9382 416.977 70.2774 417.048 70.6089 417.147C71.0103 417.241 71.4063 417.356 71.7953 417.492C72.2414 417.654 72.8092 417.796 73.3264 418.05C73.8435 418.303 74.5026 418.547 75.1211 418.891C75.8001 419.235 76.4571 419.621 77.0882 420.047C78.542 421.012 79.8792 422.141 81.0731 423.414C82.2438 424.703 83.2644 426.122 84.115 427.642C84.4898 428.299 84.8283 428.976 85.129 429.67C85.3887 430.279 85.6154 430.902 85.8083 431.535C86.0111 432.103 86.0922 432.651 86.2139 433.117C86.311 433.518 86.3855 433.925 86.437 434.334C86.4991 434.669 86.533 435.008 86.5384 435.348C86.4471 435.348 86.2849 433.868 85.5244 431.586C85.3236 430.969 85.0901 430.363 84.8248 429.771C84.5241 429.077 84.1856 428.4 83.8108 427.743C82.9507 426.257 81.9307 424.87 80.7689 423.606C79.5906 422.362 78.2857 421.244 76.8753 420.27C76.206 419.844 75.5774 419.429 74.9487 419.114C74.3807 418.791 73.795 418.5 73.1945 418.242C71.0348 417.35 69.5645 417.015 69.5949 416.934Z" fill="#263238"/>
<path d="M101.819 119.811L98.0676 108.1C103.404 99.4408 105.308 89.0988 103.406 79.107C101.504 69.1152 95.9328 60.1962 87.7884 54.1033C79.6439 48.0104 69.515 45.1844 59.3926 46.1806C49.2703 47.1769 39.8866 51.9234 33.0863 59.4872C26.286 67.0509 22.5609 76.8848 22.6432 87.0558C22.7255 97.2267 26.6093 106.999 33.5312 114.452C40.453 121.904 49.9123 126.498 60.0494 127.331C70.1866 128.163 80.2685 125.173 88.3132 118.949L101.819 119.811Z" fill="#FAFAFA"/>
<path d="M101.819 119.811H100.967L98.3914 119.679L88.2517 119.121C88.2361 119.122 88.2207 119.118 88.2065 119.112C88.1923 119.106 88.1795 119.097 88.169 119.085C88.1585 119.074 88.1505 119.06 88.1455 119.046C88.1405 119.031 88.1387 119.015 88.1401 119C88.1357 118.98 88.1357 118.959 88.1401 118.939L88.3024 119.101C81.2567 124.605 72.5926 127.63 63.6527 127.71C61.3949 127.698 59.1411 127.518 56.9098 127.172C46.5424 125.55 37.2046 119.98 30.8508 111.628C27.3122 106.927 24.8196 101.523 23.5401 95.7799C22.1497 89.6731 22.2052 83.326 23.7023 77.2445C23.895 76.4739 24.0978 75.6932 24.3006 74.9225C24.5034 74.1519 24.838 73.4016 25.1016 72.6411C25.3585 71.872 25.6564 71.1172 25.9939 70.3799C26.3386 69.6499 26.6935 68.9198 27.0079 68.1796C27.3568 67.4397 27.7566 66.7248 28.2044 66.0402L29.4921 63.9311L30.9725 61.9032L31.7228 60.8892C31.9763 60.5647 32.2704 60.2707 32.5441 59.9563C36.929 54.9148 42.4915 51.0346 48.7372 48.6607C54.6831 46.3952 61.0679 45.5177 67.4044 46.0954C73.3586 46.6874 79.109 48.5846 84.2465 51.6519C93.3764 57.0743 100.036 65.8393 102.812 76.0886C103.399 78.2846 103.819 80.5217 104.07 82.7808C104.232 84.8926 104.269 87.0121 104.181 89.1283C103.793 95.8723 101.722 102.412 98.1581 108.15V108.059C99.3546 111.872 100.267 114.812 100.896 116.82C101.2 117.834 101.423 118.533 101.585 119.051L101.808 119.801C101.808 119.801 101.707 119.527 101.535 119.02L100.794 116.779C100.146 114.751 99.1823 111.892 97.9452 108.13C97.9343 108.101 97.9343 108.068 97.9452 108.039C101.442 102.313 103.459 95.8075 103.816 89.108C103.894 87.0115 103.846 84.9122 103.674 82.8214C103.421 80.5819 102.997 78.365 102.407 76.19C100.232 68.2999 95.7209 61.2524 89.4665 55.9735C83.2122 50.6946 75.5072 47.4313 67.3639 46.6125C61.1071 46.0399 54.8023 46.9034 48.9299 49.1373C42.7791 51.4909 37.3016 55.3213 32.9801 60.2909C32.7165 60.6053 32.4225 60.8892 32.169 61.2137L31.4288 62.2276L29.9687 64.1846L28.7113 66.2734C28.2652 66.9555 27.8655 67.6669 27.5149 68.4027C27.1701 69.1226 26.8254 69.8527 26.5009 70.5726C26.1701 71.2999 25.879 72.0445 25.6289 72.8033C25.3652 73.5537 25.0509 74.2939 24.8278 75.0543C24.6048 75.8148 24.4324 76.5854 24.2397 77.3459C22.7695 83.3339 22.707 89.5812 24.0572 95.5974C25.8142 103.498 29.9038 110.688 35.7959 116.237C41.688 121.786 49.1109 125.436 57.1025 126.716C59.3134 127.063 61.5466 127.25 63.7846 127.274C65.8735 127.265 67.9586 127.092 70.0205 126.757C76.6641 125.674 82.9353 122.96 88.2719 118.858C88.2824 118.847 88.2949 118.838 88.3089 118.832C88.3228 118.826 88.3379 118.823 88.3531 118.823C88.3682 118.823 88.3833 118.826 88.3972 118.832C88.4112 118.838 88.4238 118.847 88.4342 118.858C88.449 118.879 88.457 118.903 88.457 118.929C88.457 118.954 88.449 118.979 88.4342 119L88.3531 118.817L98.3711 119.507L100.967 119.689L101.819 119.811Z" fill="#263238"/>
<path d="M51.972 86.7963C51.972 87.6125 51.7299 88.4104 51.2765 89.089C50.823 89.7677 50.1785 90.2967 49.4244 90.609C48.6703 90.9214 47.8405 91.0031 47.04 90.8439C46.2395 90.6846 45.5041 90.2916 44.927 89.7144C44.3498 89.1373 43.9568 88.4019 43.7976 87.6014C43.6383 86.8009 43.72 85.9711 44.0324 85.217C44.3448 84.4629 44.8737 83.8184 45.5524 83.3649C46.231 82.9115 47.0289 82.6694 47.8451 82.6694C48.9388 82.6721 49.9869 83.1078 50.7603 83.8811C51.5337 84.6545 51.9693 85.7026 51.972 86.7963Z" fill="#263238"/>
<path d="M68.4998 86.7963C68.4998 87.6125 68.2578 88.4104 67.8043 89.089C67.3508 89.7677 66.7063 90.2967 65.9522 90.609C65.1981 90.9214 64.3684 91.0031 63.5678 90.8439C62.7673 90.6846 62.032 90.2916 61.4548 89.7144C60.8777 89.1373 60.4846 88.4019 60.3254 87.6014C60.1662 86.8009 60.2479 85.9711 60.5602 85.217C60.8726 84.4629 61.4015 83.8184 62.0802 83.3649C62.7588 82.9115 63.5567 82.6694 64.3729 82.6694C65.4666 82.6721 66.5148 83.1078 67.2881 83.8811C68.0615 84.6545 68.4971 85.7026 68.4998 86.7963Z" fill="#263238"/>
<path d="M84.9868 84.7378C85.3936 85.4447 85.5819 86.2563 85.5278 87.0701C85.4738 87.8839 85.1798 88.6635 84.683 89.3103C84.1862 89.9571 83.5089 90.4423 82.7365 90.7044C81.9642 90.9666 81.1315 90.994 80.3436 90.7832C79.5557 90.5725 78.8479 90.1329 78.3096 89.5202C77.7714 88.9075 77.4267 88.1489 77.3192 87.3405C77.2117 86.532 77.3462 85.7098 77.7057 84.9776C78.0651 84.2455 78.6335 83.6364 79.3389 83.227C79.8087 82.9544 80.3277 82.7773 80.8662 82.7057C81.4046 82.6341 81.9518 82.6695 82.4765 82.8099C83.0012 82.9502 83.4931 83.1928 83.9238 83.5236C84.3546 83.8545 84.7158 84.2671 84.9868 84.7378Z" fill="#263238"/>
<path d="M86.6296 269.169L43.9212 264.748L25.8319 223.692L11.7783 227.353C11.7783 227.353 22.1614 270.741 33.7815 277.463C45.4016 284.186 85.0985 285.392 85.0985 285.392L86.6296 269.169Z" fill="#02A4FF"/>
<path d="M109.334 290.051C116.283 282.232 115.578 270.26 107.759 263.31C99.9404 256.361 87.9684 257.066 81.0191 264.885C74.0698 272.704 74.7748 284.676 82.5937 291.625C90.4126 298.575 102.385 297.87 109.334 290.051Z" fill="#263238"/>
<path d="M95.1772 296.424C90.788 296.424 86.5347 294.903 83.1419 292.118C79.749 289.334 77.4266 285.459 76.5704 281.154C75.7141 276.849 76.377 272.381 78.446 268.51C80.515 264.639 83.8622 261.605 87.9172 259.926C91.9723 258.246 96.4842 258.025 100.684 259.299C104.885 260.573 108.513 263.264 110.951 266.913C113.39 270.563 114.487 274.945 114.057 279.313C113.627 283.681 111.696 287.764 108.592 290.868C106.834 292.635 104.744 294.036 102.441 294.99C100.138 295.943 97.6695 296.431 95.1772 296.424ZM95.1772 258.543C90.7998 258.538 86.5563 260.051 83.1697 262.825C79.7831 265.598 77.4629 269.46 76.6044 273.753C75.7459 278.045 76.4023 282.502 78.4617 286.365C80.5211 290.227 83.856 293.256 87.8984 294.936C91.9407 296.615 96.4403 296.841 100.631 295.575C104.821 294.309 108.442 291.629 110.878 287.992C113.314 284.355 114.414 279.986 113.989 275.629C113.565 271.273 111.643 267.198 108.551 264.099C106.8 262.335 104.717 260.935 102.421 259.981C100.125 259.027 97.6631 258.538 95.1772 258.543Z" fill="#263238"/>
<path d="M40.0927 280.707C47.7215 278.875 52.4212 271.206 50.5897 263.577C48.7581 255.948 41.089 251.249 33.4602 253.08C25.8314 254.912 21.1317 262.581 22.9632 270.21C24.7948 277.839 32.4639 282.538 40.0927 280.707Z" fill="#263238"/>
<path d="M25.989 227.012C30.523 222.478 30.523 215.127 25.989 210.593C21.4551 206.059 14.104 206.059 9.57008 210.593C5.03611 215.127 5.0361 222.478 9.57007 227.012C14.104 231.546 21.4551 231.546 25.989 227.012Z" fill="#263238"/>
<path d="M35.8754 212.519L26.3157 220.592L22.868 216.51L32.4278 208.437C32.9311 208.012 33.5828 207.804 34.2393 207.859C34.8958 207.915 35.5035 208.228 35.9286 208.732L36.1641 209.011C36.3761 209.26 36.5369 209.548 36.6372 209.86C36.7375 210.171 36.7753 210.499 36.7485 210.825C36.7217 211.151 36.6307 211.468 36.4809 211.759C36.3311 212.05 36.1253 212.308 35.8754 212.519Z" fill="#263238"/>
<path d="M23.7329 197.735V209.903C23.7329 209.997 23.6955 210.087 23.629 210.154C23.5624 210.22 23.4722 210.257 23.378 210.257H18.7543C18.6602 210.257 18.5699 210.22 18.5034 210.154C18.4368 210.087 18.3994 209.997 18.3994 209.903V197.735C18.3994 197.076 18.6612 196.444 19.127 195.978C19.5929 195.512 20.2248 195.251 20.8837 195.251H21.2487C21.9075 195.251 22.5394 195.512 23.0053 195.978C23.4712 196.444 23.7329 197.076 23.7329 197.735Z" fill="#263238"/>
<path d="M15.1232 197.781L17.7795 209.655C17.8001 209.747 17.7833 209.843 17.7329 209.922C17.6824 210.002 17.6025 210.058 17.5107 210.079L12.9985 211.088C12.9066 211.109 12.8104 211.092 12.7309 211.041C12.6514 210.991 12.5952 210.911 12.5747 210.819L9.91833 198.945C9.77449 198.302 9.89196 197.628 10.2449 197.072C10.5978 196.516 11.1573 196.122 11.8003 195.978L12.1565 195.899C12.7995 195.755 13.4732 195.872 14.0296 196.225C14.5859 196.578 14.9793 197.138 15.1232 197.781Z" fill="#263238"/>
<path d="M5.86101 200.756L11.9448 211.294C11.9919 211.375 12.0046 211.472 11.9803 211.563C11.9559 211.654 11.8964 211.732 11.8149 211.779L7.81068 214.091C7.72917 214.138 7.63231 214.15 7.54139 214.126C7.45047 214.102 7.37295 214.042 7.32589 213.961L1.24207 203.423C0.91264 202.853 0.823371 202.174 0.993895 201.538C1.16442 200.902 1.58078 200.359 2.15137 200.03L2.4675 199.847C3.03808 199.518 3.71616 199.428 4.35257 199.599C4.98898 199.769 5.53158 200.186 5.86101 200.756Z" fill="#263238"/>
<path d="M272.245 375.525L285.029 370.088L248.142 283.357L235.359 288.794L272.245 375.525Z" fill="#02A4FF"/>
<path d="M249.975 291.645C256.736 283.663 255.747 271.711 247.766 264.95C239.784 258.188 227.832 259.177 221.07 267.159C214.309 275.14 215.298 287.092 223.279 293.854C231.261 300.616 243.213 299.627 249.975 291.645Z" fill="#263238"/>
<path d="M235.561 298.412C232.59 298.413 229.659 297.717 227.006 296.379C224.353 295.041 222.051 293.099 220.285 290.709C218.519 288.319 217.339 285.548 216.84 282.618C216.341 279.689 216.537 276.683 217.411 273.843C218.448 270.493 220.394 267.497 223.032 265.187C225.67 262.876 228.896 261.343 232.354 260.756C235.811 260.17 239.363 260.554 242.615 261.865C245.867 263.176 248.692 265.363 250.776 268.184C252.859 271.004 254.12 274.347 254.417 277.841C254.715 281.335 254.038 284.843 252.462 287.975C250.885 291.107 248.471 293.741 245.487 295.583C242.504 297.426 239.068 298.405 235.561 298.412ZM235.561 260.509C232.061 260.513 228.63 261.488 225.65 263.325C222.67 265.162 220.259 267.79 218.684 270.916C217.109 274.043 216.432 277.544 216.728 281.032C217.024 284.521 218.283 287.858 220.363 290.673C222.443 293.489 225.264 295.672 228.511 296.98C231.758 298.288 235.304 298.67 238.755 298.083C242.206 297.495 245.426 295.962 248.058 293.654C250.689 291.345 252.629 288.352 253.661 285.007C255.134 280.213 254.644 275.031 252.301 270.598C249.957 266.165 245.949 262.843 241.159 261.361C239.326 260.794 237.419 260.507 235.501 260.509H235.561Z" fill="#263238"/>
<path d="M273.873 336.034C275.974 328.475 271.549 320.644 263.989 318.543C256.43 316.443 248.599 320.868 246.499 328.427C244.398 335.986 248.823 343.817 256.382 345.917C263.942 348.018 271.772 343.593 273.873 336.034Z" fill="#263238"/>
<path d="M281.606 388.057C288.018 388.057 293.216 382.859 293.216 376.447C293.216 370.035 288.018 364.837 281.606 364.837C275.194 364.837 269.996 370.035 269.996 376.447C269.996 382.859 275.194 388.057 281.606 388.057Z" fill="#263238"/>
<path d="M266.421 388.139L272.922 377.472L277.485 380.253L270.984 390.92C270.641 391.483 270.089 391.886 269.449 392.041C268.808 392.197 268.132 392.091 267.57 391.749L267.258 391.559C266.978 391.389 266.734 391.167 266.541 390.903C266.347 390.64 266.207 390.34 266.129 390.023C266.052 389.705 266.037 389.375 266.087 389.052C266.137 388.729 266.251 388.418 266.421 388.139Z" fill="#263238"/>
<path d="M282.608 398.313L278.755 386.771C278.725 386.682 278.732 386.585 278.774 386.5C278.816 386.416 278.89 386.352 278.979 386.322L283.365 384.858C283.454 384.828 283.552 384.835 283.636 384.877C283.72 384.919 283.784 384.993 283.814 385.083L287.667 396.624C287.766 396.935 287.804 397.262 287.777 397.587C287.75 397.912 287.659 398.229 287.51 398.519C287.36 398.809 287.155 399.067 286.906 399.278C286.657 399.489 286.369 399.648 286.058 399.748L285.712 399.863C285.095 400.061 284.424 400.01 283.844 399.72C283.264 399.43 282.82 398.925 282.608 398.313Z" fill="#263238"/>
<path d="M290.768 395.547L284.489 385.125C284.465 385.085 284.449 385.041 284.442 384.995C284.435 384.949 284.437 384.902 284.448 384.856C284.46 384.811 284.48 384.769 284.507 384.731C284.535 384.694 284.57 384.662 284.61 384.638L288.57 382.252C288.61 382.228 288.654 382.212 288.7 382.205C288.746 382.198 288.793 382.2 288.839 382.211C288.884 382.222 288.927 382.242 288.964 382.27C289.001 382.298 289.033 382.332 289.057 382.372L295.337 392.794C295.677 393.359 295.779 394.035 295.62 394.675C295.461 395.314 295.055 395.864 294.491 396.204L294.178 396.393C293.614 396.733 292.938 396.835 292.298 396.676C291.659 396.517 291.108 396.111 290.768 395.547Z" fill="#263238"/>
<path d="M298.607 389.801L289.499 381.732C289.429 381.669 289.386 381.581 289.381 381.487C289.375 381.394 289.407 381.301 289.469 381.231L292.529 377.778C292.591 377.707 292.679 377.664 292.773 377.659C292.867 377.653 292.959 377.685 293.03 377.747L302.137 385.816C302.63 386.253 302.93 386.868 302.969 387.526C303.009 388.183 302.786 388.83 302.349 389.323L302.107 389.596C301.669 390.086 301.055 390.383 300.399 390.421C299.743 390.459 299.099 390.236 298.607 389.801Z" fill="#263238"/>
<path d="M89.5498 257.752C89.5498 257.752 90.9187 390.724 165.537 393.32C240.155 395.915 243.288 258.705 243.288 257.752C243.288 257.752 234.477 237.929 166.419 238.699C98.3612 239.47 89.5498 257.752 89.5498 257.752Z" fill="#02A4FF"/>
<path d="M131.447 234.349H194.516C198.632 234.349 201.969 231.012 201.969 226.896V225.812C201.969 221.696 198.632 218.359 194.516 218.359H131.447C127.331 218.359 123.994 221.696 123.994 225.812V226.896C123.994 231.012 127.331 234.349 131.447 234.349Z" fill="#263238"/>
<path d="M160.264 116.11H165.709V88.5808H160.264V116.11Z" fill="#263238"/>
<path d="M246.243 198.066C254.84 196.023 260.153 187.397 258.11 178.8C256.066 170.202 247.44 164.889 238.843 166.933C230.246 168.976 224.933 177.602 226.976 186.199C229.019 194.797 237.645 200.11 246.243 198.066Z" fill="#02A4FF"/>
<path d="M84.5674 197.027C93.1853 195.072 98.5869 186.502 96.6321 177.884C94.6773 169.266 86.1065 163.864 77.4886 165.819C68.8707 167.774 63.4692 176.345 65.424 184.962C67.3787 193.58 75.9496 198.982 84.5674 197.027Z" fill="#02A4FF"/>
<path d="M159.818 110.138C159.818 110.138 94.7615 109.357 84.4798 165.744C74.1982 222.131 129.196 223.145 145.024 224.21C152.193 224.696 167.544 224.747 181.091 224.504C211.084 223.987 232.276 218.187 239.485 190.363C240.344 187.101 240.884 183.763 241.098 180.396C242.994 149.855 222.38 108.637 159.818 110.138Z" fill="#02A4FF"/>
<path d="M207.008 195.96L112.496 197.431C110.138 197.472 107.794 197.048 105.6 196.183C103.406 195.318 101.404 194.029 99.7088 192.389C98.0136 190.75 96.6583 188.792 95.7206 186.628C94.783 184.463 94.2813 182.136 94.2443 179.777C94.204 177.419 94.6292 175.075 95.4953 172.881C96.3615 170.687 97.6517 168.685 99.2923 166.99C100.933 165.295 102.891 163.94 105.056 163.002C107.221 162.065 109.549 161.563 111.908 161.526L206.42 160.056C208.778 160.013 211.122 160.436 213.317 161.3C215.512 162.165 217.514 163.454 219.21 165.094C220.905 166.734 222.26 168.692 223.198 170.857C224.135 173.022 224.636 175.35 224.671 177.709C224.713 180.068 224.289 182.412 223.423 184.607C222.557 186.802 221.267 188.804 219.626 190.499C217.986 192.195 216.026 193.55 213.861 194.487C211.696 195.424 209.367 195.925 207.008 195.96Z" fill="#263238"/>
<path d="M132.137 177.82C131.917 178.938 131.37 179.965 130.567 180.772C129.763 181.579 128.738 182.13 127.622 182.355C126.505 182.58 125.347 182.468 124.294 182.035C123.241 181.602 122.339 180.866 121.704 179.92C121.069 178.975 120.729 177.862 120.726 176.723C120.723 175.584 121.058 174.47 121.689 173.521C122.319 172.573 123.216 171.832 124.268 171.394C125.319 170.955 126.476 170.838 127.594 171.057C128.336 171.203 129.043 171.493 129.673 171.912C130.303 172.331 130.845 172.87 131.266 173.498C131.688 174.126 131.982 174.831 132.132 175.572C132.281 176.314 132.283 177.078 132.137 177.82Z" fill="white"/>
<path d="M198.136 176.766C197.918 177.884 197.373 178.913 196.57 179.722C195.767 180.53 194.743 181.083 193.626 181.309C192.509 181.535 191.35 181.425 190.296 180.992C189.242 180.56 188.34 179.824 187.704 178.879C187.068 177.933 186.727 176.82 186.723 175.681C186.72 174.541 187.055 173.427 187.685 172.477C188.316 171.528 189.214 170.787 190.265 170.349C191.317 169.91 192.475 169.793 193.593 170.013C195.09 170.307 196.41 171.183 197.262 172.45C198.113 173.716 198.428 175.268 198.136 176.766Z" fill="white"/>
<path d="M188.635 310.559C188.265 315.633 186.398 320.484 183.271 324.497C180.144 328.51 175.897 331.506 171.068 333.106C166.238 334.706 161.043 334.837 156.138 333.485C151.234 332.132 146.841 329.355 143.514 325.505C140.188 321.656 138.078 316.906 137.451 311.858C136.823 306.809 137.707 301.687 139.991 297.141C142.274 292.594 145.854 288.827 150.279 286.315C154.703 283.804 159.773 282.66 164.847 283.03C171.652 283.528 177.979 286.708 182.44 291.87C186.901 297.032 189.129 303.755 188.635 310.559Z" fill="#263238"/>
<path d="M181.669 310.052C181.398 313.751 180.037 317.286 177.757 320.21C175.478 323.135 172.382 325.318 168.862 326.483C165.341 327.648 161.555 327.743 157.98 326.756C154.406 325.769 151.204 323.744 148.781 320.938C146.357 318.131 144.82 314.669 144.364 310.989C143.909 307.309 144.554 303.577 146.22 300.264C147.885 296.951 150.495 294.206 153.721 292.376C156.946 290.547 160.642 289.715 164.34 289.986C166.796 290.164 169.192 290.825 171.393 291.931C173.593 293.036 175.554 294.564 177.163 296.428C178.773 298.291 179.999 300.454 180.772 302.792C181.545 305.129 181.85 307.597 181.669 310.052Z" fill="white"/>
<path d="M172.634 313.459C172.491 312.435 172.434 311.4 172.462 310.366C172.411 308.43 172.371 305.662 172.371 302.255L172.574 302.63L162.931 297.002H163.468L153.734 302.468C153.47 302.914 154.089 301.869 154.028 301.981V303.421V304.871C154.028 305.824 154.028 306.777 153.977 307.71C153.977 309.576 153.906 311.38 153.876 313.124L153.612 312.658L163.144 318.478H162.718C165.689 316.876 168.143 315.598 169.816 314.726C170.716 314.214 171.655 313.773 172.624 313.408C171.868 314.024 171.053 314.564 170.191 315.021C168.548 316.034 166.135 317.464 163.093 319.218L162.88 319.34L162.667 319.218L153.014 313.591L152.75 313.439V313.114C152.75 311.37 152.771 309.565 152.811 307.7C152.811 306.767 152.811 305.824 152.811 304.861V303.421V302.021C152.75 302.133 153.369 301.099 153.105 301.535L162.87 296.12L163.154 295.968L163.417 296.13L172.939 301.95L173.152 302.082V302.326C173.04 305.834 172.928 308.653 172.827 310.569C172.853 311.536 172.789 312.504 172.634 313.459Z" fill="#02A4FF"/>
<path d="M169.338 94.3685C172.842 90.8641 172.842 85.1823 169.338 81.6779C165.833 78.1735 160.151 78.1735 156.647 81.6779C153.143 85.1823 153.143 90.8641 156.647 94.3685C160.151 97.8729 165.833 97.8729 169.338 94.3685Z" fill="#02A4FF"/>
<path d="M148.654 175.164C149.08 175.214 148.867 177.192 150.124 179.899C150.837 181.453 151.874 182.836 153.166 183.955C154.681 185.288 156.566 186.126 158.571 186.358C160.585 186.488 162.593 186.007 164.33 184.979C165.8 184.124 167.072 182.966 168.061 181.582C169.785 179.179 169.937 177.161 170.363 177.192C170.535 177.192 170.708 177.699 170.708 178.652C170.669 180.01 170.323 181.341 169.694 182.545C168.749 184.366 167.353 185.912 165.638 187.037C163.518 188.531 160.936 189.222 158.354 188.986C155.772 188.75 153.358 187.603 151.544 185.75C150.063 184.334 148.974 182.559 148.38 180.599C147.958 179.29 147.846 177.902 148.056 176.543C148.228 175.6 148.492 175.133 148.654 175.164Z" fill="white"/>
<path d="M235.278 201.436C235.176 201.436 236.342 199.611 237.468 196.417C238.868 192.234 239.753 187.896 240.104 183.499C240.51 179.117 240.612 174.713 240.408 170.317C240.337 168.624 240.256 167.275 240.175 166.261C240.107 165.771 240.09 165.275 240.124 164.781C240.254 165.258 240.339 165.747 240.378 166.241C240.52 167.184 240.662 168.553 240.784 170.297C241.102 174.728 241.051 179.177 240.631 183.6C240.275 188.038 239.33 192.41 237.823 196.599C237.345 197.863 236.769 199.087 236.099 200.26C235.859 200.674 235.585 201.068 235.278 201.436Z" fill="#263238"/>
<path d="M84.6016 163.858C84.5442 164.35 84.439 164.836 84.2873 165.308C84.1555 165.764 84.0135 166.322 83.8817 166.991C83.7499 167.66 83.5471 168.39 83.4254 169.232C83.0699 171.186 82.8329 173.16 82.7157 175.143C82.5793 177.57 82.6131 180.002 82.817 182.424C83.0436 184.841 83.4366 187.24 83.9933 189.603C84.4588 191.536 85.0412 193.439 85.7373 195.301C86.0111 196.102 86.3254 196.802 86.5789 197.43C86.8324 198.059 87.0757 198.586 87.2785 199.012C87.5097 199.45 87.6998 199.908 87.8463 200.381C87.5578 199.979 87.3066 199.551 87.096 199.104C86.8093 198.597 86.5487 198.075 86.3152 197.542C86.0313 196.934 85.6866 196.234 85.3925 195.433C84.6397 193.575 84.0163 191.668 83.5268 189.724C82.9334 187.339 82.5199 184.912 82.2898 182.464C82.0831 180.019 82.0628 177.561 82.2289 175.113C82.3704 173.112 82.6482 171.124 83.0604 169.161C83.2125 168.319 83.4254 167.579 83.5978 166.92C83.7702 166.261 83.9324 165.703 84.0845 165.247C84.2189 164.771 84.3919 164.306 84.6016 163.858Z" fill="#263238"/>
<path d="M89.2048 257.64L89.5901 257.752L90.7258 258.137L95.0453 259.658L98.1683 260.773C99.3141 261.159 100.582 261.524 101.93 261.939C104.637 262.74 107.69 263.785 111.157 264.596L116.562 265.985C118.448 266.462 120.435 266.817 122.483 267.263C126.539 268.196 130.991 268.834 135.665 269.585C145.774 270.972 155.962 271.7 166.165 271.765C176.369 271.705 186.557 270.977 196.665 269.585C201.309 268.834 205.73 268.206 209.847 267.263C211.875 266.827 213.903 266.472 215.769 265.995L221.183 264.606C224.641 263.795 227.693 262.751 230.4 261.95C231.749 261.534 233.016 261.169 234.162 260.783L237.285 259.668L241.605 258.147L242.74 257.762C242.868 257.711 243 257.674 243.136 257.65L242.76 257.812L241.645 258.249L237.356 259.861L234.162 261.057C233.026 261.453 231.759 261.828 230.41 262.264C227.703 263.095 224.661 264.16 221.193 265.002L215.779 266.421C213.903 266.908 211.905 267.273 209.857 267.729C205.801 268.682 201.34 269.331 196.676 270.102C186.546 271.523 176.333 272.265 166.104 272.322C155.879 272.258 145.67 271.512 135.543 270.092C130.889 269.331 126.418 268.672 122.362 267.719C120.334 267.263 118.306 266.898 116.44 266.411L111.025 264.991C107.558 264.15 104.516 263.085 101.808 262.254C100.46 261.818 99.2026 261.443 98.0568 261.047L94.9439 259.881L90.6548 258.269L89.5394 257.833C89.422 257.779 89.31 257.715 89.2048 257.64Z" fill="#263238"/>
<g opacity="0.3">
<path opacity="0.3" d="M89.5498 257.752C89.5498 257.752 98.3612 239.5 166.419 238.699C234.477 237.898 243.288 257.752 243.288 257.752C243.288 257.752 174.602 291.608 89.5498 257.752Z" fill="black"/>
</g>
<path d="M151.574 114.356C151.497 114.363 151.419 114.363 151.341 114.356L150.662 114.427C150.053 114.488 149.161 114.508 148.015 114.64C144.782 114.954 141.574 115.486 138.413 116.232C122.062 119.976 107.641 129.56 97.8543 143.183C93.1262 149.73 89.5466 157.033 87.2684 164.781C86.9135 165.876 86.7209 166.748 86.5485 167.326L86.3559 167.995C86.3376 168.072 86.3104 168.147 86.2747 168.218C86.2613 168.141 86.2613 168.062 86.2747 167.985C86.2747 167.802 86.3559 167.579 86.4167 167.306C86.5586 166.717 86.7107 165.835 87.0352 164.72C87.8815 161.57 88.9662 158.489 90.2799 155.503C94.614 145.581 101.212 136.813 109.545 129.9C117.914 123.04 127.773 118.234 138.332 115.867C141.512 115.144 144.742 114.666 147.995 114.437C149.151 114.336 150.023 114.346 150.652 114.315H151.341C151.503 114.336 151.574 114.346 151.574 114.356Z" fill="white"/>
<path d="M87.9274 192.411C87.5211 191.784 87.2069 191.101 86.9946 190.383C85.7918 186.995 85.2313 183.412 85.3418 179.818C85.3129 179.072 85.4018 178.326 85.6054 177.607C85.7677 177.607 85.5446 180.994 86.1935 185.091C86.8425 189.187 88.0795 192.351 87.9274 192.411Z" fill="white"/>
<path d="M70.8623 187.169C70.8623 187.169 70.6291 187.007 70.3148 186.622C69.8667 186.076 69.4823 185.48 69.169 184.847C68.0862 182.751 67.6719 180.374 67.9819 178.035C68.2919 175.696 69.3114 173.509 70.9029 171.767C71.369 171.234 71.8966 170.757 72.4746 170.347C72.673 170.18 72.8996 170.05 73.1438 169.962C73.2046 170.043 72.292 170.662 71.1868 171.99C69.7363 173.727 68.8081 175.84 68.5102 178.084C68.2123 180.327 68.5568 182.609 69.5036 184.665C70.2134 186.277 70.9333 187.108 70.8623 187.169Z" fill="white"/>
<path d="M163.569 81.767C162.778 81.6799 161.981 81.663 161.187 81.7163C160.241 81.7993 159.327 82.0978 158.514 82.5889C157.702 83.0801 157.013 83.7508 156.5 84.5496C155.987 85.3484 155.664 86.2541 155.555 87.1973C155.447 88.1404 155.555 89.0958 155.873 89.9903C156.147 90.7322 156.486 91.4482 156.887 92.1298C156.887 92.1298 156.685 92.0081 156.401 91.6837C156.011 91.2143 155.703 90.6831 155.488 90.112C155.101 89.1652 154.948 88.139 155.042 87.1205C155.136 86.102 155.473 85.121 156.026 84.2606C156.579 83.4002 157.331 82.6857 158.219 82.1775C159.107 81.6693 160.104 81.3825 161.126 81.3412C161.733 81.299 162.343 81.3573 162.931 81.5135C163.387 81.5845 163.569 81.7366 163.569 81.767Z" fill="white"/>
<path d="M251.947 174.87C251.836 174.991 250.264 173.481 247.891 172.345C245.519 171.209 243.359 170.875 243.379 170.712C245.032 170.671 246.666 171.07 248.114 171.868C249.639 172.506 250.963 173.543 251.947 174.87Z" fill="white"/>
<path d="M112.871 352.385C112.825 352.325 112.784 352.261 112.749 352.193L112.415 351.595C112.111 351.017 111.705 350.246 111.178 349.262C110.914 348.755 110.63 348.188 110.306 347.579L109.352 345.551C108.663 344.081 107.892 342.408 107.132 340.481C106.747 339.538 106.341 338.545 105.915 337.521C105.489 336.497 105.124 335.381 104.709 334.256C103.836 332.015 103.096 329.551 102.234 326.996C100.642 321.824 99.081 316.095 97.7121 310.012C96.3433 303.928 95.3496 298.057 94.5384 292.713C93.7272 287.37 93.2 282.574 92.8755 278.457C92.6828 276.429 92.5612 274.584 92.4598 272.961C92.3584 271.339 92.2671 269.919 92.2367 268.804C92.2063 267.689 92.1758 266.827 92.1454 266.178V265.498C92.1345 265.421 92.1345 265.342 92.1454 265.265C92.1571 265.342 92.1571 265.421 92.1454 265.498L92.2063 266.178C92.2063 266.817 92.3178 267.699 92.3888 268.794C92.4598 269.889 92.5612 271.329 92.7031 272.941C92.8451 274.553 92.9769 276.399 93.2 278.426C93.565 282.482 94.2139 287.309 94.9744 292.622C95.7349 297.935 96.8401 303.776 98.1786 309.86C99.517 315.943 101.089 321.662 102.64 326.823C103.502 329.378 104.222 331.832 105.074 334.073C105.479 335.209 105.864 336.294 106.25 337.338L107.426 340.319C108.156 342.215 108.906 343.899 109.576 345.389L110.488 347.417C110.782 348.036 111.066 348.603 111.32 349.12L112.455 351.493L112.739 352.112C112.801 352.193 112.845 352.286 112.871 352.385Z" fill="white"/>
<path d="M73.1943 269.717C70.7205 269.81 68.2431 269.722 65.7822 269.453C63.3097 269.366 60.8464 269.105 58.4106 268.672C60.8845 268.579 63.3618 268.667 65.8228 268.936C68.2953 269.022 70.7587 269.283 73.1943 269.717Z" fill="white"/>
<path d="M35.049 248.068C33.6109 245.974 32.32 243.782 31.1857 241.508C29.9002 239.318 28.7686 237.041 27.7991 234.694C29.2328 236.793 30.5202 238.989 31.6522 241.265C32.9443 243.449 34.0794 245.723 35.049 248.068Z" fill="white"/>
<path d="M148.867 384.356C148.468 384.349 148.07 384.301 147.681 384.214C146.608 384.023 145.548 383.766 144.507 383.444C142.961 382.973 141.449 382.393 139.985 381.71C138.2 380.849 136.485 379.853 134.854 378.729C133.241 377.576 131.722 376.298 130.311 374.906C129.169 373.761 128.111 372.534 127.148 371.235C126.488 370.369 125.888 369.457 125.353 368.508C125.134 368.174 124.954 367.817 124.816 367.443C124.897 367.392 125.749 368.863 127.442 371.012C128.437 372.262 129.511 373.447 130.656 374.561C133.463 377.288 136.683 379.553 140.198 381.274C141.633 381.967 143.11 382.573 144.619 383.089C147.214 383.961 148.887 384.255 148.867 384.356Z" fill="white"/>
<path d="M164.421 337.45C164.187 337.491 163.949 337.514 163.711 337.521C163.037 337.578 162.36 337.598 161.683 337.582C159.162 337.526 156.661 337.12 154.251 336.375C152.586 335.856 150.965 335.205 149.404 334.428C147.614 333.507 145.917 332.418 144.334 331.173C140.669 328.358 137.78 324.656 135.939 320.417C134.098 316.178 133.365 311.54 133.809 306.939C133.975 304.943 134.331 302.967 134.874 301.038C135.36 299.365 135.987 297.737 136.75 296.171C137.85 293.9 139.263 291.794 140.948 289.915C141.4 289.401 141.88 288.914 142.388 288.455C142.555 288.287 142.735 288.131 142.925 287.988C142.925 287.988 142.256 288.708 141.1 290.016C139.477 291.924 138.113 294.038 137.044 296.303C135.449 299.64 134.5 303.249 134.245 306.939C133.834 311.458 134.566 316.008 136.373 320.17C138.181 324.332 141.005 327.973 144.588 330.758C146.123 331.993 147.774 333.08 149.516 334.002C151.043 334.808 152.633 335.486 154.271 336.03C156.645 336.8 159.11 337.253 161.602 337.379C163.438 337.45 164.421 337.389 164.421 337.45Z" fill="white"/>
<path d="M41.66 257.6C41.66 257.681 40.8793 257.306 39.6321 257.011C37.9632 256.646 36.2332 256.663 34.572 257.062C32.9107 257.461 31.3613 258.23 30.0399 259.313C29.0259 260.155 28.5392 260.824 28.4683 260.773C28.7465 260.102 29.1769 259.505 29.7256 259.029C31.0416 257.822 32.644 256.97 34.3811 256.555C36.1182 256.14 37.9326 256.175 39.6524 256.657C40.3852 256.812 41.0723 257.135 41.66 257.6Z" fill="white"/>
<path d="M191.393 156.78C191.393 156.922 178.941 157.044 163.59 157.044C148.238 157.044 135.777 156.922 135.777 156.78C135.777 156.639 148.228 156.517 163.59 156.517C178.951 156.517 191.393 156.618 191.393 156.78Z" fill="white"/>
<path d="M143.939 220.184C143.787 220.227 143.631 220.251 143.473 220.255L142.114 220.377C141.526 220.427 140.806 220.468 139.964 220.488C139.123 220.508 138.17 220.549 137.115 220.488C134.996 220.488 132.481 220.336 129.693 220.042C126.675 219.691 123.68 219.173 120.719 218.491C117.766 217.782 114.855 216.909 111.999 215.875C109.673 215.023 107.392 214.051 105.165 212.964C104.151 212.518 103.37 212.052 102.63 211.656C101.89 211.261 101.261 210.906 100.754 210.642L99.5882 209.933C99.45 209.856 99.3207 209.764 99.2029 209.659C99.2029 209.659 99.3651 209.659 99.6389 209.841L100.856 210.46C101.373 210.744 102.012 211.079 102.762 211.474C103.512 211.869 104.364 212.275 105.327 212.701C107.234 213.593 109.556 214.546 112.172 215.489C117.857 217.528 123.756 218.916 129.754 219.626C132.512 219.951 135.016 220.133 137.115 220.184C138.129 220.245 139.143 220.184 139.964 220.184C140.786 220.184 141.516 220.184 142.104 220.184H143.463C143.62 220.158 143.781 220.158 143.939 220.184Z" fill="white"/>
<path d="M224.884 265.874C224.81 265.923 224.727 265.961 224.641 265.985L223.911 266.259L221.092 267.273C219.865 267.719 218.365 268.236 216.59 268.753C214.816 269.27 212.818 269.94 210.557 270.507L207.028 271.44C205.801 271.755 204.504 272.018 203.175 272.333C200.519 272.971 197.639 273.478 194.617 274.056C181.456 276.349 168.081 277.168 154.738 276.5C151.696 276.307 148.745 276.155 146.028 275.841C144.669 275.699 143.351 275.598 142.094 275.425L138.474 274.928C136.162 274.655 134.094 274.239 132.279 273.914C130.464 273.59 128.892 273.286 127.624 272.992L124.704 272.343L123.944 272.16C123.856 272.146 123.77 272.118 123.69 272.079C123.781 272.071 123.873 272.071 123.964 272.079L124.724 272.211L127.665 272.769C128.943 273.022 130.504 273.316 132.329 273.59C134.154 273.864 136.213 274.259 138.525 274.513L142.134 274.969C143.392 275.131 144.71 275.222 146.069 275.354C148.776 275.648 151.696 275.78 154.758 275.963C160.893 276.216 167.636 276.226 174.713 275.81C181.791 275.395 188.473 274.513 194.526 273.519C197.568 272.961 200.427 272.505 203.084 271.856C204.412 271.552 205.71 271.298 206.937 270.994L210.466 270.092C212.727 269.554 214.724 268.926 216.499 268.419C218.273 267.912 219.794 267.405 221.021 267.029L223.87 266.117L224.621 265.894L224.884 265.874Z" fill="white"/>
</svg>
