<svg width="362" height="226" viewBox="0 0 362 226" fill="none" xmlns="http://www.w3.org/2000/svg">
<path d="M99.8181 55.9951H30.8813V9.2074H99.8181V55.9951ZM31.4257 55.455H99.2738V9.74742H31.4257V55.455Z" fill="#EBEBEB"/>
<path d="M36.2755 12.2208C36.2755 12.49 36.1951 12.7531 36.0443 12.9769C35.8936 13.2007 35.6794 13.3751 35.4287 13.4781C35.178 13.5811 34.9022 13.6081 34.6361 13.5556C34.37 13.503 34.1256 13.3734 33.9338 13.1831C33.7419 12.9928 33.6113 12.7503 33.5583 12.4863C33.5054 12.2224 33.5326 11.9487 33.6364 11.7001C33.7402 11.4514 33.9161 11.2389 34.1416 11.0893C34.3672 10.9398 34.6324 10.86 34.9038 10.86C35.2676 10.86 35.6165 11.0034 35.8737 11.2586C36.131 11.5138 36.2755 11.8599 36.2755 12.2208Z" fill="#A6A6A6"/>
<path d="M41.8771 12.2208C41.8771 12.49 41.7966 12.7531 41.6459 12.9769C41.4952 13.2007 41.2809 13.3751 41.0303 13.4781C40.7796 13.5811 40.5038 13.6081 40.2377 13.5556C39.9716 13.503 39.7272 13.3734 39.5353 13.1831C39.3435 12.9928 39.2128 12.7503 39.1599 12.4863C39.107 12.2224 39.1341 11.9487 39.238 11.7001C39.3418 11.4514 39.5176 11.2389 39.7432 11.0893C39.9688 10.9398 40.234 10.86 40.5053 10.86C40.8691 10.86 41.218 11.0034 41.4753 11.2586C41.7326 11.5138 41.8771 11.8599 41.8771 12.2208Z" fill="#EBEBEB"/>
<path d="M47.4784 12.2208C47.4784 12.49 47.398 12.7531 47.2472 12.9769C47.0965 13.2007 46.8822 13.3751 46.6316 13.4781C46.3809 13.5811 46.1051 13.6081 45.839 13.5556C45.5729 13.503 45.3285 13.3734 45.1366 13.1831C44.9448 12.9928 44.8142 12.7503 44.7612 12.4863C44.7083 12.2224 44.7355 11.9487 44.8393 11.7001C44.9431 11.4514 45.1189 11.2389 45.3445 11.0893C45.5701 10.9398 45.8353 10.86 46.1066 10.86C46.4704 10.86 46.8194 11.0034 47.0766 11.2586C47.3339 11.5138 47.4784 11.8599 47.4784 12.2208Z" fill="#02A4FF"/>
<path d="M99.5458 14.6185H31.1533V15.1586H99.5458V14.6185Z" fill="#EBEBEB"/>
<path d="M354.46 89.4334L357.666 84.3085L356.082 83.3365C355.855 83.1971 355.672 82.9972 355.553 82.7594C355.435 82.5217 355.386 82.2557 355.413 81.9918C355.413 81.6894 355.446 81.387 355.413 81.09C355.404 80.8254 355.47 80.5636 355.603 80.3338C355.735 80.1041 355.93 79.9153 356.164 79.7886L357.797 78.9137L354.923 73.5999L353.29 74.4693C353.054 74.5924 352.788 74.6485 352.522 74.6313C352.256 74.6142 352 74.5245 351.782 74.3721C351.533 74.2005 351.275 74.0418 351.009 73.8969C350.773 73.7711 350.577 73.5829 350.442 73.3531C350.308 73.1233 350.24 72.8611 350.247 72.5954L350.307 70.754L344.232 70.5649L344.172 72.4172C344.162 72.6823 344.077 72.9393 343.928 73.1596C343.779 73.3799 343.572 73.5548 343.328 73.6647L342.925 73.8645L342.539 74.0859C342.311 74.2221 342.051 74.2941 341.785 74.2941C341.519 74.2941 341.259 74.2221 341.031 74.0859L339.452 73.1301L336.246 78.2549L337.83 79.2323C338.058 79.373 338.241 79.574 338.359 79.8126C338.477 80.0512 338.526 80.3178 338.5 80.5824C338.484 80.881 338.484 81.1802 338.5 81.4788C338.508 81.7441 338.442 82.0065 338.308 82.2365C338.175 82.4664 337.979 82.6547 337.743 82.7803L336.11 83.6551L338.984 88.969L340.617 88.0995C340.853 87.9744 341.118 87.9168 341.384 87.933C341.651 87.9492 341.907 88.0387 342.125 88.1913C342.374 88.363 342.632 88.5216 342.898 88.6665C343.134 88.7923 343.33 88.9806 343.465 89.2103C343.599 89.4401 343.667 89.7024 343.66 89.968L343.606 91.8149L349.681 92.0039L349.741 90.1516C349.751 89.8873 349.836 89.6312 349.985 89.4118C350.134 89.1925 350.342 89.0186 350.584 88.9096L350.987 88.7097L351.374 88.4883C351.602 88.3494 351.865 88.2759 352.133 88.2759C352.401 88.2759 352.664 88.3494 352.893 88.4883L354.46 89.4334ZM349.316 85.6532C348.448 86.1149 347.461 86.3108 346.481 86.2163C345.5 86.1217 344.57 85.7408 343.808 85.1219C343.046 84.5029 342.486 83.6736 342.198 82.7389C341.911 81.8041 341.91 80.8059 342.195 79.8703C342.479 78.9348 343.037 78.104 343.798 77.483C344.558 76.862 345.487 76.4787 346.467 76.3815C347.448 76.2843 348.435 76.4776 349.304 76.937C350.174 77.3964 350.886 78.1012 351.352 78.9623C351.97 80.1153 352.102 81.4639 351.721 82.7136C351.339 83.9633 350.475 85.0123 349.316 85.6316V85.6532Z" fill="#EBEBEB"/>
<path d="M322.774 124.432L320.645 120.776L319.518 121.424C319.352 121.521 319.161 121.569 318.969 121.562C318.776 121.556 318.589 121.495 318.43 121.387C318.25 121.273 318.065 121.165 317.885 121.068C317.721 120.983 317.584 120.855 317.488 120.698C317.392 120.541 317.341 120.361 317.341 120.177V118.886H313.084V120.177C313.086 120.361 313.035 120.542 312.939 120.699C312.843 120.856 312.705 120.984 312.54 121.068C312.353 121.165 312.171 121.271 311.996 121.387C311.839 121.489 311.657 121.547 311.47 121.554C311.283 121.56 311.097 121.516 310.934 121.424L309.802 120.776L307.652 124.432L308.789 125.08C308.95 125.177 309.081 125.314 309.168 125.479C309.255 125.644 309.296 125.829 309.285 126.015C309.285 126.117 309.285 126.22 309.285 126.328C309.285 126.436 309.285 126.533 309.285 126.636C309.296 126.821 309.256 127.005 309.168 127.169C309.081 127.333 308.95 127.47 308.789 127.565L307.652 128.213L309.78 131.869L310.912 131.22C311.076 131.129 311.261 131.084 311.448 131.091C311.636 131.098 311.817 131.156 311.974 131.258C312.149 131.375 312.331 131.481 312.518 131.577C312.683 131.661 312.821 131.789 312.917 131.946C313.013 132.104 313.063 132.284 313.062 132.468V133.764H317.319V132.468C317.32 132.284 317.371 132.104 317.467 131.947C317.563 131.79 317.7 131.662 317.864 131.577C318.052 131.482 318.234 131.376 318.408 131.258C318.567 131.15 318.754 131.089 318.947 131.083C319.14 131.076 319.33 131.124 319.497 131.22L320.629 131.869L322.757 128.213L321.625 127.565C321.465 127.47 321.333 127.333 321.246 127.169C321.159 127.005 321.118 126.821 321.13 126.636C321.13 126.528 321.13 126.425 321.13 126.322C321.13 126.22 321.13 126.112 321.13 126.009C321.118 125.823 321.158 125.638 321.245 125.473C321.333 125.308 321.464 125.171 321.625 125.075L322.774 124.432ZM318.702 126.328C318.701 127.012 318.495 127.681 318.111 128.25C317.727 128.818 317.182 129.261 316.544 129.522C315.907 129.783 315.205 129.851 314.529 129.717C313.852 129.583 313.231 129.253 312.743 128.768C312.256 128.284 311.924 127.667 311.79 126.996C311.656 126.324 311.725 125.629 311.989 124.997C312.254 124.364 312.701 123.824 313.275 123.444C313.848 123.064 314.523 122.861 315.213 122.861C316.134 122.861 317.019 123.223 317.672 123.867C318.326 124.512 318.696 125.387 318.702 126.301V126.328Z" fill="#EBEBEB"/>
<path d="M321.636 29.2585C318.356 29.2585 315.149 30.2236 312.421 32.0316C309.693 33.8397 307.568 36.4095 306.312 39.4162C305.057 42.4229 304.728 45.7313 305.368 48.9232C306.008 52.1151 307.588 55.047 309.908 57.3482C312.227 59.6494 315.183 61.2165 318.4 61.8514C321.618 62.4863 324.953 62.1605 327.983 60.9151C331.014 59.6697 333.605 57.5606 335.427 54.8547C337.25 52.1488 338.222 48.9675 338.222 45.7131C338.222 41.3491 336.475 37.1638 333.364 34.078C330.254 30.9921 326.035 29.2585 321.636 29.2585ZM321.636 53.3922C320.104 53.3911 318.607 52.9394 317.333 52.0941C316.06 51.2489 315.068 50.048 314.483 48.6434C313.898 47.2389 313.745 45.6936 314.045 44.2032C314.345 42.7128 315.084 41.344 316.168 40.2701C317.252 39.1961 318.633 38.4652 320.136 38.1697C321.638 37.8743 323.196 38.0275 324.611 38.6102C326.026 39.1928 327.235 40.1786 328.085 41.4429C328.935 42.7072 329.389 44.1932 329.388 45.7131C329.388 46.7224 329.187 47.7219 328.797 48.6542C328.408 49.5866 327.836 50.4336 327.117 51.1469C326.397 51.8601 325.542 52.4255 324.602 52.8108C323.661 53.1961 322.653 53.3936 321.636 53.3922Z" fill="#EBEBEB"/>
<path d="M324.826 29.939H318.447L318.8 25.4568H324.473L324.826 29.939Z" fill="#EBEBEB"/>
<path d="M312.687 32.072L308.174 36.5434L305.235 33.1305L309.241 29.1505L312.687 32.072Z" fill="#EBEBEB"/>
<path d="M305.621 42.0949V48.424L301.103 48.073V42.4459L305.621 42.0949Z" fill="#EBEBEB"/>
<path d="M307.772 54.1428L312.279 58.6142L308.839 61.5358L304.827 57.5558L307.772 54.1428Z" fill="#EBEBEB"/>
<path d="M317.875 61.147H324.254L323.9 65.6292H318.228L317.875 61.147Z" fill="#EBEBEB"/>
<path d="M330.014 59.0193L334.526 54.5425L337.471 57.9554L333.459 61.9354L330.014 59.0193Z" fill="#EBEBEB"/>
<path d="M337.079 48.991V42.6619L341.597 43.0129V48.6454L337.079 48.991Z" fill="#EBEBEB"/>
<path d="M334.935 36.9485L330.422 32.4717L333.862 29.5555L337.874 33.5355L334.935 36.9485Z" fill="#EBEBEB"/>
<path d="M353.807 137.512L346.666 137.663L343.04 137.722C341.826 137.749 340.607 137.722 339.393 137.755H339.154V137.512L339.121 131.453V131.183H339.393L346.6 131.215C349.006 131.215 351.407 131.274 353.807 131.301H353.96V131.453C353.96 132.479 353.916 133.499 353.889 134.509L353.807 137.512ZM353.807 137.512L353.731 134.461C353.704 133.456 353.671 132.462 353.66 131.469L353.807 131.62C351.407 131.647 349.006 131.706 346.6 131.706L339.393 131.739L339.665 131.469V137.512L339.42 137.274C340.607 137.274 341.794 137.274 342.986 137.301L346.529 137.393L353.807 137.512Z" fill="#EBEBEB"/>
<path d="M345.767 145.131L338.625 145.283L334.995 145.342C333.786 145.342 332.567 145.342 331.353 145.374H331.113V145.131V139.089V138.819H331.385L338.593 138.856C340.993 138.856 343.399 138.916 345.8 138.943H345.952V139.089C345.952 140.115 345.909 141.135 345.882 142.145L345.767 145.131ZM345.767 145.131L345.691 142.08C345.664 141.076 345.631 140.082 345.62 139.089L345.767 139.24C343.367 139.267 340.961 139.326 338.56 139.326L331.353 139.359L331.625 139.089V145.131L331.38 144.894C332.567 144.894 333.753 144.894 334.946 144.921L338.522 144.986L345.767 145.131Z" fill="#EBEBEB"/>
<path d="M361.848 145.131L354.706 145.283L351.08 145.342C349.866 145.342 348.647 145.342 347.433 145.374H347.194V145.131L347.161 139.089V138.819H347.433L354.64 138.856C357.046 138.856 359.447 138.916 361.848 138.943H362V139.089C362 140.115 361.951 141.135 361.929 142.145L361.848 145.131ZM361.848 145.131L361.771 142.08C361.771 141.076 361.711 140.082 361.701 139.089L361.848 139.24C359.447 139.267 357.046 139.326 354.64 139.326L347.433 139.359L347.705 139.089V145.131L347.46 144.894C348.652 144.894 349.834 144.894 351.026 144.921L354.608 144.986L361.848 145.131Z" fill="#EBEBEB"/>
<path d="M148.271 65.6076L141.129 65.7588L137.503 65.8182C136.289 65.8182 135.07 65.8182 133.856 65.8182H133.617V65.5752L133.584 59.5323V59.2623H133.856L141.063 59.2947C143.469 59.2947 145.87 59.3541 148.271 59.3811H148.423V59.5269C148.423 60.553 148.374 61.5682 148.347 62.5781L148.271 65.6076ZM148.271 65.6076L148.194 62.5511C148.194 61.5466 148.135 60.553 148.124 59.5647L148.271 59.7105C145.87 59.7105 143.469 59.7969 141.063 59.7969L133.856 59.8348L134.128 59.5647L134.101 65.6076L133.856 65.3646C135.043 65.3646 136.23 65.3646 137.422 65.397L141.004 65.4564L148.271 65.6076Z" fill="#EBEBEB"/>
<path d="M140.22 73.2273L133.078 73.3785L129.447 73.4379C128.239 73.4379 127.019 73.4379 125.805 73.4649H125.566V73.2219L125.522 67.1898V66.9198H125.794L133.002 66.9522C135.402 66.9522 137.808 67.0116 140.209 67.0386H140.361V67.1898C140.361 68.2159 140.318 69.2311 140.291 70.2409L140.22 73.2273ZM140.22 73.2273L140.144 70.1707C140.116 69.1663 140.084 68.1727 140.073 67.1844L140.22 67.3302C137.819 67.3572 135.413 67.4166 133.013 67.4166L125.805 67.4544L126.077 67.1844L126.067 73.2273L125.822 72.9843C127.008 72.9843 128.195 72.9843 129.387 73.0167L132.964 73.0761L140.22 73.2273Z" fill="#EBEBEB"/>
<path d="M156.311 73.2273L149.169 73.3785L145.544 73.4379C144.33 73.4379 143.116 73.4379 141.896 73.4649H141.657V73.2219L141.624 67.1898V66.9198H141.896L149.104 66.9522C151.51 66.9522 153.91 67.0116 156.311 67.0386H156.463V67.1898C156.463 68.2159 156.414 69.2311 156.393 70.2409L156.311 73.2273ZM156.311 73.2273L156.235 70.1707C156.235 69.1663 156.175 68.1727 156.164 67.1844L156.311 67.3302C153.91 67.3572 151.51 67.4166 149.104 67.4166L141.896 67.4544L142.169 67.1844L142.141 73.2273L141.896 72.9843C143.089 72.9843 144.27 72.9843 145.462 73.0167L149.044 73.0761L156.311 73.2273Z" fill="#EBEBEB"/>
<path d="M30.7396 105.591L23.5977 105.742L19.9669 105.802C18.7584 105.802 17.5391 105.802 16.3252 105.829H16.1074V105.586V99.5427V99.2726H16.3796L23.5868 99.305C25.9874 99.305 28.3935 99.3644 30.7941 99.3914H30.9465V99.5373C30.9465 100.563 30.9029 101.579 30.8757 102.588L30.7396 105.591ZM30.7396 105.591L30.6634 102.534C30.6634 101.53 30.6035 100.536 30.5926 99.5481L30.7396 99.6939C28.339 99.7209 25.933 99.7803 23.5324 99.7803L16.3252 99.8181L16.5973 99.5481L16.5701 105.591L16.3252 105.348C17.5119 105.348 18.6985 105.348 19.8907 105.38L23.4671 105.44L30.7396 105.591Z" fill="#EBEBEB"/>
<path d="M269.7 65.6022L262.558 65.7534L258.932 65.8128C257.718 65.8398 256.499 65.8128 255.285 65.8398H255.046V65.5968L255.013 59.5539V59.2839H255.285L262.492 59.3163C264.898 59.3163 267.299 59.3811 269.7 59.4081H269.852V59.5539C269.852 60.58 269.808 61.6006 269.781 62.6051L269.7 65.6022ZM269.7 65.6022L269.623 62.5511C269.596 61.5412 269.563 60.5476 269.553 59.5593L269.7 59.7052C267.299 59.7322 264.898 59.7916 262.492 59.797L255.285 59.8294L255.557 59.5593L255.53 65.6022L255.285 65.3592C256.472 65.3592 257.658 65.3592 258.851 65.3916L262.432 65.451L269.7 65.6022Z" fill="#EBEBEB"/>
<path d="M352.974 6.91237L345.832 7.06357L342.202 7.12298C340.993 7.12298 339.774 7.12298 338.56 7.15538H338.32V6.91237V0.869499V0.599487H338.592L345.8 0.631889C348.2 0.631889 350.606 0.696691 353.007 0.723693H353.159V0.869499C353.159 1.89554 353.116 2.91619 353.089 3.92064L352.974 6.91237ZM352.974 6.91237L352.898 3.86123C352.871 2.85139 352.838 1.85774 352.827 0.869499L352.974 1.01531C350.574 1.01531 348.168 1.10171 345.767 1.10711L338.56 1.13951L338.832 0.869499L338.805 6.91237L338.56 6.66936C339.747 6.66936 340.933 6.66936 342.125 6.70176L345.702 6.76116L352.974 6.91237Z" fill="#EBEBEB"/>
<path d="M361.015 14.5321L353.873 14.6833L350.247 14.7427C349.034 14.7697 347.814 14.7427 346.6 14.7751H346.361V14.5321L346.328 8.48925V8.21924H346.6L353.808 8.25164C356.214 8.25164 358.614 8.31644 361.015 8.34344H361.167V8.48925C361.167 9.5153 361.118 10.5359 361.091 11.5404L361.015 14.5321ZM361.015 14.5321L360.939 11.481C360.939 10.4711 360.879 9.47749 360.868 8.48925L361.015 8.63506C358.614 8.63506 356.214 8.72146 353.808 8.72686L346.6 8.75926L346.872 8.48925V14.5321L346.628 14.2891C347.814 14.2891 349.001 14.2891 350.193 14.3215L353.775 14.3809L361.015 14.5321Z" fill="#EBEBEB"/>
<path d="M14.6594 6.91792L7.51206 7.06913L3.88668 7.12853C2.67821 7.12853 1.45887 7.12853 0.244959 7.16093H0V6.91792V0.875053V0.605042H0.277619L7.48485 0.642843C9.88544 0.642843 12.286 0.702246 14.6921 0.729247H14.839V0.875053C14.839 1.9011 14.7901 2.92174 14.7683 3.93159L14.6594 6.91792ZM14.6594 6.91792L14.5778 3.86679C14.5778 2.86234 14.5179 1.8633 14.507 0.875053L14.6594 1.02086C12.2534 1.05326 9.85278 1.10726 7.45219 1.11266L0.244959 1.14507L0.517135 0.875053L0.484473 6.91792L0.244959 6.70731C1.43165 6.70731 2.61289 6.70731 3.80503 6.70731L7.38686 6.76672L14.6594 6.91792Z" fill="#EBEBEB"/>
<path d="M11.2085 56.0005V172.71H128.674L11.2085 56.0005ZM32.7485 108.885L75.5836 151.38H32.803L32.7485 108.885Z" fill="#DBDBDB"/>
<path d="M11.2085 56.0059V172.711H128.68L15.3347 60.1209L14.7903 59.5809L11.2085 56.0059ZM32.7485 108.885L75.5836 151.38H32.803L32.7485 108.885Z" fill="#EBEBEB"/>
<path d="M15.2364 60.931H11.1973V61.4872H15.2364V60.931Z" fill="#C7C7C7"/>
<path d="M13.5761 63.5285H11.1973V64.0847H13.5761V63.5285Z" fill="#C7C7C7"/>
<path d="M13.5761 66.1152H11.1973V66.6714H13.5761V66.1152Z" fill="#C7C7C7"/>
<path d="M13.5761 68.7073H11.1973V69.2635H13.5761V68.7073Z" fill="#C7C7C7"/>
<path d="M13.5761 71.3048H11.1973V71.861H13.5761V71.3048Z" fill="#C7C7C7"/>
<path d="M13.5761 73.8915H11.1973V74.4585H13.5761V73.8915Z" fill="#C7C7C7"/>
<path d="M13.5761 76.4836H11.1973V77.0399H13.5761V76.4836Z" fill="#C7C7C7"/>
<path d="M15.2364 79.0812H11.1973V79.6374H15.2364V79.0812Z" fill="#C7C7C7"/>
<path d="M13.5761 81.6732H11.1973V82.2294H13.5761V81.6732Z" fill="#C7C7C7"/>
<path d="M13.5761 84.2599H11.1973V84.8162H13.5761V84.2599Z" fill="#C7C7C7"/>
<path d="M13.5761 86.8575H11.1973V87.4138H13.5761V86.8575Z" fill="#C7C7C7"/>
<path d="M13.5761 89.4496H11.1973V90.0058H13.5761V89.4496Z" fill="#C7C7C7"/>
<path d="M13.5761 92.0363H11.1973V92.5925H13.5761V92.0363Z" fill="#C7C7C7"/>
<path d="M13.5761 94.6339H11.1973V95.1901H13.5761V94.6339Z" fill="#C7C7C7"/>
<path d="M15.2364 97.2313H11.1973V97.7875H15.2364V97.2313Z" fill="#C7C7C7"/>
<path d="M13.5761 99.8181H11.1973V100.374H13.5761V99.8181Z" fill="#C7C7C7"/>
<path d="M13.5761 102.41H11.1973V102.966H13.5761V102.41Z" fill="#C7C7C7"/>
<path d="M13.5761 105.008H11.1973V105.564H13.5761V105.008Z" fill="#C7C7C7"/>
<path d="M13.5761 107.594H11.1973V108.161H13.5761V107.594Z" fill="#C7C7C7"/>
<path d="M13.5761 110.187H11.1973V110.743H13.5761V110.187Z" fill="#C7C7C7"/>
<path d="M13.5761 112.784H11.1973V113.34H13.5761V112.784Z" fill="#C7C7C7"/>
<path d="M15.2364 115.376H11.1973V115.932H15.2364V115.376Z" fill="#C7C7C7"/>
<path d="M13.5761 117.963H11.1973V118.519H13.5761V117.963Z" fill="#C7C7C7"/>
<path d="M13.5761 120.56H11.1973V121.117H13.5761V120.56Z" fill="#C7C7C7"/>
<path d="M13.5761 123.153H11.1973V123.709H13.5761V123.153Z" fill="#C7C7C7"/>
<path d="M13.5761 125.739H11.1973V126.295H13.5761V125.739Z" fill="#C7C7C7"/>
<path d="M13.5761 128.337H11.1973V128.893H13.5761V128.337Z" fill="#C7C7C7"/>
<path d="M13.5761 130.929H11.1973V131.485H13.5761V130.929Z" fill="#C7C7C7"/>
<path d="M15.2364 133.516H11.1973V134.083H15.2364V133.516Z" fill="#C7C7C7"/>
<path d="M13.5761 136.113H11.1973V136.669H13.5761V136.113Z" fill="#C7C7C7"/>
<path d="M13.5761 138.711H11.1973V139.267H13.5761V138.711Z" fill="#C7C7C7"/>
<path d="M13.5761 141.303H11.1973V141.859H13.5761V141.303Z" fill="#C7C7C7"/>
<path d="M13.5761 143.889H11.1973V144.446H13.5761V143.889Z" fill="#C7C7C7"/>
<path d="M13.5761 146.487H11.1973V147.043H13.5761V146.487Z" fill="#C7C7C7"/>
<path d="M13.5761 149.079H11.1973V149.635H13.5761V149.079Z" fill="#C7C7C7"/>
<path d="M15.2364 151.666H11.1973V152.222H15.2364V151.666Z" fill="#C7C7C7"/>
<path d="M13.5761 154.263H11.1973V154.82H13.5761V154.263Z" fill="#C7C7C7"/>
<path d="M13.5761 156.855H11.1973V157.412H13.5761V156.855Z" fill="#C7C7C7"/>
<path d="M13.5761 159.442H11.1973V159.998H13.5761V159.442Z" fill="#C7C7C7"/>
<path d="M13.5761 162.04H11.1973V162.596H13.5761V162.04Z" fill="#C7C7C7"/>
<path d="M13.5761 164.632H11.1973V165.188H13.5761V164.632Z" fill="#C7C7C7"/>
<path d="M13.5761 167.219H11.1973V167.786H13.5761V167.219Z" fill="#C7C7C7"/>
<path d="M4.52344 172.71L48.6541 172.581L92.7848 172.532L181.046 172.446L269.307 172.532L313.438 172.581L357.569 172.71L313.438 172.845L269.307 172.894L181.046 172.98L92.7848 172.894L48.6541 172.845L4.52344 172.71Z" fill="#263238"/>
<path d="M181.046 226C274.06 226 349.463 220.364 349.463 213.412C349.463 206.46 274.06 200.824 181.046 200.824C88.0319 200.824 12.6289 206.46 12.6289 213.412C12.6289 220.364 88.0319 226 181.046 226Z" fill="#EBEBEB"/>
<path d="M306.999 21.4822H54.1741V189.262H306.999V21.4822Z" fill="#EBEBEB"/>
<path d="M305.164 23.5289H56.0139V187.216H305.164V23.5289Z" fill="#263238"/>
<path d="M339.932 201.839H21.2461V213.353H339.932V201.839Z" fill="#DBDBDB"/>
<path d="M21.2461 201.839L54.174 189.257H307.004L339.932 201.839H21.2461Z" fill="#EBEBEB"/>
<path d="M57.1135 197.379L78.365 189.257H282.813L304.064 197.379H57.1135Z" fill="#263238"/>
<path d="M291.082 35.9602H70.0911V174.773H291.082V35.9602Z" fill="white"/>
<path d="M287.157 41.3065H70.0911V66.5094H287.157V41.3065Z" fill="#02A4FF"/>
<path d="M291.082 35.9602H70.0911V41.301H291.082V35.9602Z" fill="#455A64"/>
<path d="M74.658 38.6334C74.658 38.895 74.5798 39.1508 74.4333 39.3684C74.2867 39.586 74.0785 39.7556 73.8348 39.8557C73.5911 39.9558 73.3229 39.9821 73.0642 39.931C72.8055 39.8799 72.5679 39.7539 72.3813 39.5689C72.1948 39.3839 72.0678 39.1481 72.0163 38.8915C71.9649 38.6348 71.9913 38.3688 72.0922 38.1271C72.1932 37.8853 72.3641 37.6787 72.5834 37.5333C72.8028 37.3879 73.0606 37.3103 73.3244 37.3103C73.6781 37.3103 74.0173 37.4497 74.2674 37.6978C74.5175 37.9459 74.658 38.2825 74.658 38.6334Z" fill="#C7C7C7"/>
<path d="M80.1125 38.6334C80.1136 38.8966 80.0358 39.1542 79.8891 39.3735C79.7424 39.5927 79.5333 39.7638 79.2884 39.8651C79.0435 39.9663 78.7738 39.993 78.5135 39.942C78.2533 39.8909 78.0141 39.7642 77.8265 39.5781C77.6389 39.392 77.5113 39.1548 77.4598 38.8966C77.4083 38.6384 77.4353 38.3709 77.5373 38.1279C77.6393 37.8849 77.8118 37.6775 78.0329 37.5319C78.2539 37.3864 78.5136 37.3092 78.7789 37.3103C79.1326 37.3103 79.4718 37.4497 79.7219 37.6978C79.972 37.946 80.1125 38.2825 80.1125 38.6334Z" fill="white"/>
<path d="M85.5669 38.6334C85.568 38.8963 85.4903 39.1537 85.3438 39.3729C85.1974 39.5921 84.9886 39.7632 84.744 39.8645C84.4994 39.9659 84.23 39.993 83.9699 39.9424C83.7098 39.8917 83.4706 39.7656 83.2828 39.58C83.095 39.3945 82.9669 39.1578 82.9148 38.8999C82.8627 38.6421 82.8889 38.3747 82.9901 38.1316C83.0913 37.8886 83.2629 37.6808 83.4832 37.5346C83.7036 37.3884 83.9627 37.3103 84.2278 37.3103C84.582 37.3103 84.9218 37.4495 85.1727 37.6975C85.4237 37.9455 85.5654 38.282 85.5669 38.6334Z" fill="#02A4FF"/>
<path d="M291.087 41.3065H287.163V174.779H291.087V41.3065Z" fill="#DBDBDB"/>
<path d="M289.122 87.5757C288.854 87.5757 288.596 87.4699 288.406 87.2815C288.217 87.0932 288.11 86.8377 288.11 86.5713V43.0886C288.11 42.8222 288.217 42.5667 288.406 42.3783C288.596 42.1899 288.854 42.0841 289.122 42.0841C289.391 42.0841 289.648 42.1899 289.838 42.3783C290.028 42.5667 290.135 42.8222 290.135 43.0886V86.5713C290.135 86.8377 290.028 87.0932 289.838 87.2815C289.648 87.4699 289.391 87.5757 289.122 87.5757Z" fill="#A6A6A6"/>
<path d="M125.816 106.72H165.255V76.7051H125.816V106.72Z" fill="#02A4FF"/>
<path opacity="0.6" d="M129.741 83.2663C129.59 84.0139 129.685 84.79 130.013 85.4797C130.34 86.1695 130.883 86.7364 131.56 87.0967C132.238 87.457 133.014 87.5916 133.775 87.4806C134.535 87.3696 135.239 87.0188 135.783 86.4801C136.327 85.9415 136.682 85.2435 136.796 84.4893C136.909 83.7352 136.775 82.9648 136.413 82.2921C136.051 81.6194 135.481 81.08 134.786 80.7537C134.091 80.4273 133.309 80.3313 132.555 80.4798C131.861 80.6165 131.224 80.9541 130.723 81.4501C130.222 81.946 129.88 82.578 129.741 83.2663Z" fill="white"/>
<path d="M138.826 100.25H165.255L152.038 84.098L138.826 100.25Z" fill="#02A4FF"/>
<path opacity="0.2" d="M138.826 100.25H165.255L152.038 84.098L138.826 100.25Z" fill="black"/>
<path d="M125.816 100.266H149.251L137.536 89.7466L125.816 100.266Z" fill="#02A4FF"/>
<path opacity="0.1" d="M125.816 100.266H149.251L137.536 89.7466L125.816 100.266Z" fill="black"/>
<path d="M165.255 100.255H125.816V106.725H165.255V100.255Z" fill="#02A4FF"/>
<path opacity="0.1" d="M165.255 100.255H125.816V106.725H165.255V100.255Z" fill="black"/>
<path d="M178.624 122.92H218.062V76.8022H178.624V122.92Z" fill="#455A64"/>
<path opacity="0.6" d="M182.554 90.1354C182.403 90.8833 182.499 91.6595 182.827 92.3493C183.155 93.0391 183.698 93.6058 184.376 93.9658C185.054 94.3258 185.83 94.4598 186.591 94.3481C187.351 94.2365 188.055 93.885 188.599 93.3457C189.143 92.8064 189.497 92.1078 189.609 91.3533C189.722 90.5989 189.587 89.8285 189.224 89.156C188.861 88.4836 188.29 87.9449 187.595 87.6194C186.899 87.294 186.117 87.1991 185.363 87.3489C184.67 87.4872 184.034 87.8255 183.534 88.3212C183.035 88.817 182.694 89.4481 182.554 90.1354Z" fill="white"/>
<path d="M191.639 107.125H218.062L204.851 90.967L191.639 107.125Z" fill="#263238"/>
<path d="M178.629 107.135H202.064L190.344 96.6157L178.629 107.135Z" fill="#37474F"/>
<path d="M218.068 107.125H178.629V122.92H218.068V107.125Z" fill="#37474F"/>
<path d="M125.816 111.31C128.495 111.229 131.173 111.186 133.851 111.153L141.886 111.11L149.92 111.153C152.599 111.186 155.282 111.223 157.96 111.31C155.282 111.396 152.599 111.434 149.92 111.466L141.886 111.51L133.851 111.472C131.173 111.434 128.495 111.391 125.816 111.31Z" fill="#C7C7C7"/>
<path d="M125.816 114.62C127.831 114.534 129.839 114.496 131.853 114.464C133.867 114.431 135.876 114.431 137.89 114.415L143.927 114.464C145.941 114.496 147.95 114.534 149.964 114.62C147.95 114.701 145.941 114.739 143.927 114.777L137.89 114.82C135.876 114.82 133.867 114.82 131.853 114.771C129.839 114.723 127.831 114.712 125.816 114.62Z" fill="#C7C7C7"/>
<path d="M179.446 165.075H178.423V164.065H178.831V164.67H179.446V165.075Z" fill="#C7C7C7"/>
<path d="M215.602 165.075H213.969V164.67H215.602V165.075ZM212.336 165.075H210.703V164.67H212.336V165.075ZM209.07 165.075H207.437V164.67H209.07V165.075ZM205.803 165.075H204.17V164.67H205.803V165.075ZM202.537 165.075H200.904V164.67H202.537V165.075ZM199.271 165.075H197.638V164.67H199.271V165.075ZM196.005 165.075H194.372V164.67H196.005V165.075ZM192.739 165.075H191.106V164.67H192.739V165.075ZM189.473 165.075H187.84V164.67H189.473V165.075ZM186.207 165.075H184.574V164.67H186.207V165.075ZM182.941 165.075H181.308V164.67H182.941V165.075Z" fill="#C7C7C7"/>
<path d="M218.269 165.075H217.246V164.67H217.861V164.065H218.269V165.075Z" fill="#C7C7C7"/>
<path d="M218.27 162.391H217.861V160.722H218.27V162.391ZM218.27 159.053H217.861V157.374H218.27V159.053ZM218.27 155.71H217.861V154.042H218.27V155.71ZM218.27 152.368H217.861V150.699H218.27V152.368ZM218.27 149.03H217.861V147.362H218.27V149.03ZM218.27 145.688H217.861V144.019H218.27V145.688ZM218.27 142.345H217.861V140.676H218.27V142.345ZM218.27 139.008H217.861V137.339H218.27V139.008Z" fill="#C7C7C7"/>
<path d="M218.269 135.665H217.861V135.06H217.246V134.655H218.269V135.665Z" fill="#C7C7C7"/>
<path d="M215.602 135.06H213.969V134.655H215.602V135.06ZM212.336 135.06H210.703V134.655H212.336V135.06ZM209.07 135.06H207.437V134.655H209.07V135.06ZM205.803 135.06H204.17V134.655H205.803V135.06ZM202.537 135.06H200.904V134.655H202.537V135.06ZM199.271 135.06H197.638V134.655H199.271V135.06ZM196.005 135.06H194.372V134.655H196.005V135.06ZM192.739 135.06H191.106V134.655H192.739V135.06ZM189.473 135.06H187.84V134.655H189.473V135.06ZM186.207 135.06H184.574V134.655H186.207V135.06ZM182.941 135.06H181.308V134.655H182.941V135.06Z" fill="#C7C7C7"/>
<path d="M178.831 135.665H178.423V134.655H179.446V135.06H178.831V135.665Z" fill="#C7C7C7"/>
<path d="M178.831 162.391H178.423V160.722H178.831V162.391ZM178.831 159.053H178.423V157.374H178.831V159.053ZM178.831 155.71H178.423V154.042H178.831V155.71ZM178.831 152.368H178.423V150.699H178.831V152.368ZM178.831 149.03H178.423V147.362H178.831V149.03ZM178.831 145.688H178.423V144.019H178.831V145.688ZM178.831 142.345H178.423V140.676H178.831V142.345ZM178.831 139.008H178.423V137.339H178.831V139.008Z" fill="#C7C7C7"/>
<path d="M232.498 106.682H231.475V105.667H231.883V106.277H232.498V106.682Z" fill="#C7C7C7"/>
<path d="M268.655 106.682H267.022V106.277H268.655V106.682ZM265.388 106.682H263.755V106.277H265.388V106.682ZM262.122 106.682H260.489V106.277H262.122V106.682ZM258.856 106.682H257.223V106.277H258.856V106.682ZM255.59 106.682H253.957V106.277H255.59V106.682ZM252.324 106.682H250.691V106.277H252.324V106.682ZM249.058 106.682H247.425V106.277H249.058V106.682ZM245.792 106.682H244.159V106.277H245.792V106.682ZM242.526 106.682H240.893V106.277H242.526V106.682ZM239.26 106.682H237.626V106.277H239.26V106.682ZM235.993 106.682H234.36V106.277H235.993V106.682Z" fill="#C7C7C7"/>
<path d="M271.322 106.682H270.299V106.277H270.914V105.667H271.322V106.682Z" fill="#C7C7C7"/>
<path d="M271.322 103.998H270.913V102.329H271.322V103.998ZM271.322 100.655H270.913V98.9864H271.322V100.655ZM271.322 97.3177H270.913V95.6436H271.322V97.3177ZM271.322 93.9749H270.913V92.3063H271.322V93.9749ZM271.322 90.6322H270.913V88.9635H271.322V90.6322ZM271.322 87.2948H270.913V85.6208H271.322V87.2948ZM271.322 83.9521H270.913V82.3104H271.322V83.9521ZM271.322 80.6094H270.913V78.9407H271.322V80.6094Z" fill="#C7C7C7"/>
<path d="M271.322 77.2721H270.914V76.6619H270.299V76.2568H271.322V77.2721Z" fill="#C7C7C7"/>
<path d="M268.655 76.6619H267.022V76.2568H268.655V76.6619ZM265.388 76.6619H263.755V76.2568H265.388V76.6619ZM262.122 76.6619H260.489V76.2568H262.122V76.6619ZM258.856 76.6619H257.223V76.2568H258.856V76.6619ZM255.59 76.6619H253.957V76.2568H255.59V76.6619ZM252.324 76.6619H250.691V76.2568H252.324V76.6619ZM249.058 76.6619H247.425V76.2568H249.058V76.6619ZM245.792 76.6619H244.159V76.2568H245.792V76.6619ZM242.526 76.6619H240.893V76.2568H242.526V76.6619ZM239.26 76.6619H237.626V76.2568H239.26V76.6619ZM235.993 76.6619H234.36V76.2568H235.993V76.6619Z" fill="#C7C7C7"/>
<path d="M231.883 77.2721H231.475V76.2568H232.498V76.6619H231.883V77.2721Z" fill="#C7C7C7"/>
<path d="M231.884 103.998H231.475V102.329H231.884V103.998ZM231.884 100.655H231.475V98.9864H231.884V100.655ZM231.884 97.3177H231.475V95.6436H231.884V97.3177ZM231.884 93.9749H231.475V92.3063H231.884V93.9749ZM231.884 90.6322H231.475V88.9635H231.884V90.6322ZM231.884 87.2948H231.475V85.6208H231.884V87.2948ZM231.884 83.9521H231.475V82.3104H231.884V83.9521ZM231.884 80.6094H231.475V78.9407H231.884V80.6094Z" fill="#C7C7C7"/>
<path d="M178.629 169.465C181.308 169.379 183.986 169.341 186.664 169.308L194.699 169.26L202.733 169.308C205.412 169.341 208.09 169.379 210.768 169.465C208.09 169.546 205.412 169.584 202.733 169.616L194.699 169.665L186.664 169.616C183.986 169.584 181.308 169.546 178.629 169.465Z" fill="#C7C7C7"/>
<path d="M178.629 172.77C180.638 172.689 182.652 172.651 184.666 172.619C186.68 172.586 188.689 172.586 190.698 172.57L196.735 172.613C198.749 172.646 200.763 172.689 202.771 172.77C200.763 172.856 198.749 172.894 196.735 172.927L190.698 172.975C188.689 172.975 186.675 172.975 184.666 172.927C182.658 172.878 180.638 172.856 178.629 172.77Z" fill="#C7C7C7"/>
<path d="M178.629 127.51C181.308 127.429 183.986 127.386 186.664 127.354L194.699 127.311L202.733 127.354C205.412 127.386 208.09 127.424 210.768 127.51C208.09 127.597 205.412 127.635 202.733 127.667L194.699 127.71L186.664 127.672C183.986 127.635 181.308 127.591 178.629 127.51Z" fill="#C7C7C7"/>
<path d="M178.629 130.821C180.638 130.734 182.652 130.697 184.666 130.664C186.68 130.632 188.689 130.632 190.698 130.616L196.735 130.664C198.749 130.697 200.763 130.734 202.771 130.821C200.763 130.902 198.749 130.94 196.735 130.977L190.698 131.021C188.689 131.021 186.675 131.021 184.666 130.972C182.658 130.923 180.638 130.913 178.629 130.821Z" fill="#C7C7C7"/>
<path d="M125.816 164.88H165.255V118.762H125.816V164.88Z" fill="#02A4FF"/>
<path opacity="0.2" d="M125.816 164.88H165.255V118.762H125.816V164.88Z" fill="black"/>
<path opacity="0.6" d="M129.741 132.095C129.591 132.843 129.688 133.619 130.016 134.308C130.345 134.997 130.888 135.563 131.566 135.922C132.243 136.282 133.02 136.415 133.78 136.303C134.54 136.192 135.244 135.84 135.787 135.301C136.33 134.762 136.685 134.064 136.797 133.31C136.91 132.556 136.775 131.786 136.413 131.113C136.051 130.441 135.48 129.902 134.786 129.576C134.091 129.25 133.309 129.155 132.555 129.303C131.861 129.441 131.223 129.78 130.722 130.277C130.221 130.773 129.88 131.406 129.741 132.095Z" fill="white"/>
<path d="M138.826 149.079H165.255L152.038 132.927L138.826 149.079Z" fill="#02A4FF"/>
<path opacity="0.4" d="M138.826 149.079H165.255L152.038 132.927L138.826 149.079Z" fill="black"/>
<path d="M125.816 149.095H149.251L137.536 138.576L125.816 149.095Z" fill="#02A4FF"/>
<path opacity="0.3" d="M125.816 149.095H149.251L137.536 138.576L125.816 149.095Z" fill="black"/>
<path opacity="0.1" d="M165.255 149.079H125.816V164.875H165.255V149.079Z" fill="black"/>
<path d="M125.816 169.465C128.495 169.384 131.173 169.346 133.851 169.314L141.886 169.265L149.92 169.308C152.599 169.341 155.282 169.384 157.96 169.465C155.282 169.551 152.599 169.589 149.92 169.621L141.886 169.67L133.851 169.621C131.173 169.589 128.495 169.551 125.816 169.465Z" fill="#C7C7C7"/>
<path d="M125.816 172.775C127.831 172.689 129.839 172.651 131.853 172.619C133.867 172.586 135.876 172.592 137.89 172.575L143.927 172.619C145.941 172.651 147.95 172.689 149.964 172.775C147.95 172.862 145.941 172.899 143.927 172.932L137.89 172.975C135.876 172.975 133.867 172.975 131.853 172.932C129.839 172.889 127.831 172.856 125.816 172.775Z" fill="#C7C7C7"/>
<path d="M271.322 165.08H270.864V164.675H270.903V163.498H271.311L271.322 165.08ZM269.242 165.08H267.609V164.675H269.242V165.08ZM265.976 165.08H264.343V164.675H265.976V165.08ZM262.71 165.08H261.077V164.675H262.71V165.08ZM259.444 165.08H257.811V164.675H259.444V165.08ZM256.178 165.08H254.545V164.675H256.178V165.08ZM252.912 165.08H251.279V164.675H252.912V165.08ZM249.646 165.08H248.013V164.675H249.646V165.08ZM246.379 165.08H244.746V164.675H246.379V165.08ZM243.113 165.08H241.48V164.675H243.113V165.08ZM239.847 165.08H238.214V164.675H239.847V165.08ZM236.581 165.08H234.948V164.675H236.581V165.08ZM233.315 165.08H231.682V164.675H233.315V165.08ZM231.883 164.497H231.475V162.877H231.883V164.497ZM271.322 161.878H270.913V160.258H271.322V161.878ZM231.883 161.257H231.475V159.637H231.883V161.257ZM271.322 158.637H270.913V157.017H271.322V158.637ZM231.883 158.016H231.475V156.396H231.883V158.016ZM271.322 155.397H270.913V153.777H271.322V155.397ZM231.883 154.776H231.475V153.156H231.883V154.776ZM271.322 152.157H270.913V150.537H271.322V152.157ZM231.883 151.536H231.475V149.916H231.883V151.536ZM271.322 148.917H270.913V147.297H271.322V148.917ZM231.883 148.296H231.475V146.676H231.883V148.296ZM271.322 145.677H270.913V144.057H271.322V145.677ZM231.883 145.056H231.475V143.436H231.883V145.056ZM271.322 142.437H270.913V140.817H271.322V142.437ZM231.883 141.816H231.475V140.196H231.883V141.816ZM271.322 139.197H270.913V137.577H271.322V139.197ZM231.883 138.576H231.475V136.956H231.883V138.576ZM271.322 135.956H270.913V134.336H271.322V135.956ZM231.883 135.335H231.475V133.715H231.883V135.335ZM271.322 132.716H270.913V131.096H271.322V132.716ZM231.883 132.095H231.475V130.475H231.883V132.095ZM271.322 129.476H270.913V127.856H271.322V129.476ZM231.883 128.855H231.475V127.235H231.883V128.855ZM271.322 126.236H270.913V124.616H271.322V126.236ZM231.883 125.615H231.475V123.995H231.883V125.615ZM271.322 122.996H270.913V121.376H271.322V122.996ZM231.883 122.375H231.475V120.755H231.883V122.375ZM271.322 119.756H270.913V118.962H270.489V118.557H271.322V119.756ZM231.883 119.135H231.475V118.557H232.929V118.962H231.883V119.135ZM268.856 118.962H267.223V118.557H268.856V118.962ZM265.59 118.962H263.957V118.557H265.59V118.962ZM262.324 118.962H260.69V118.557H262.324V118.962ZM259.057 118.962H257.424V118.557H259.057V118.962ZM255.791 118.962H254.158V118.557H255.791V118.962ZM252.525 118.962H250.892V118.557H252.525V118.962ZM249.259 118.962H247.626V118.557H249.259V118.962ZM245.993 118.962H244.36V118.557H245.993V118.962ZM242.727 118.962H241.094V118.557H242.727V118.962ZM239.461 118.962H237.828V118.557H239.461V118.962ZM236.195 118.962H234.562V118.557H236.195V118.962Z" fill="#C7C7C7"/>
<path d="M231.671 169.465C234.35 169.384 237.028 169.346 239.706 169.314L247.741 169.265L255.775 169.308C258.454 169.341 261.132 169.384 263.81 169.465C261.132 169.551 258.454 169.589 255.775 169.621L247.741 169.67L239.706 169.621C237.039 169.589 234.36 169.551 231.671 169.465Z" fill="#C7C7C7"/>
<path d="M231.671 172.775C233.68 172.689 235.694 172.651 237.708 172.619C239.722 172.586 241.731 172.592 243.745 172.575L249.782 172.619C251.791 172.651 253.805 172.689 255.819 172.775C253.805 172.862 251.791 172.899 249.782 172.932L243.745 172.975C241.731 172.975 239.717 172.975 237.708 172.932C235.7 172.889 233.691 172.856 231.671 172.775Z" fill="#C7C7C7"/>
<path d="M231.437 111.31C234.115 111.229 236.793 111.186 239.471 111.153L247.506 111.11L255.546 111.153C258.224 111.186 260.903 111.223 263.581 111.31C260.903 111.396 258.224 111.434 255.546 111.466L247.506 111.51L239.471 111.472C236.793 111.434 234.115 111.391 231.437 111.31Z" fill="#C7C7C7"/>
<path d="M231.437 114.62C233.451 114.534 235.46 114.496 237.474 114.464C239.488 114.431 241.496 114.431 243.511 114.415L249.547 114.464C251.561 114.496 253.57 114.534 255.584 114.62C253.57 114.701 251.561 114.739 249.547 114.777L243.511 114.82C241.496 114.82 239.488 114.82 237.474 114.771C235.46 114.723 233.451 114.712 231.437 114.62Z" fill="#C7C7C7"/>
<path d="M102.474 89.833H81.1738V92.6249H102.474V89.833Z" fill="#37474F"/>
<path d="M99.4423 94.1424H81.1738V95.4439H99.4423V94.1424Z" fill="#455A64"/>
<path d="M87.3687 100.369C89.3773 100.283 91.3914 100.245 93.4055 100.212C95.4196 100.18 97.4283 100.18 99.4369 100.164L105.474 100.212C107.488 100.245 109.502 100.283 111.511 100.369C109.502 100.45 107.488 100.493 105.474 100.526L99.4369 100.569C97.4283 100.569 95.4142 100.569 93.4055 100.526C91.3969 100.482 89.3773 100.45 87.3687 100.369Z" fill="#C7C7C7"/>
<path d="M87.3687 103.679C89.3773 103.593 91.3914 103.555 93.4055 103.523C95.4196 103.49 97.4283 103.49 99.4369 103.474L105.474 103.523C107.488 103.555 109.502 103.593 111.511 103.679C109.502 103.76 107.488 103.798 105.474 103.83L99.4369 103.879C97.4283 103.879 95.4142 103.879 93.4055 103.83C91.3969 103.782 89.3773 103.76 87.3687 103.679Z" fill="#C7C7C7"/>
<path d="M87.3687 106.984C89.3773 106.903 91.3914 106.86 93.4055 106.828C95.4196 106.795 97.4283 106.801 99.4369 106.784L105.474 106.828C107.488 106.86 109.502 106.903 111.511 106.984C109.502 107.071 107.488 107.108 105.474 107.141L99.4369 107.189C97.4283 107.189 95.4142 107.189 93.4055 107.141C91.3969 107.092 89.3773 107.071 87.3687 106.984Z" fill="#C7C7C7"/>
<path d="M87.3687 110.295C89.3773 110.208 91.3914 110.17 93.4055 110.138C95.4196 110.106 97.4283 110.111 99.4369 110.089L105.474 110.138C107.488 110.17 109.502 110.208 111.511 110.295C109.502 110.376 107.488 110.419 105.474 110.451L99.4369 110.494C97.4283 110.494 95.4142 110.494 93.4055 110.451C91.3969 110.408 89.3773 110.392 87.3687 110.295Z" fill="#C7C7C7"/>
<path d="M87.3687 116.91C89.3773 116.829 91.3914 116.791 93.4055 116.759C95.4196 116.726 97.4283 116.726 99.4369 116.71L105.474 116.753C107.488 116.786 109.502 116.829 111.511 116.91C109.502 116.996 107.488 117.034 105.474 117.066L99.4369 117.115C97.4283 117.115 95.4142 117.115 93.4055 117.066C91.3969 117.018 89.3773 116.996 87.3687 116.91Z" fill="#C7C7C7"/>
<path d="M87.3687 120.22C89.3773 120.134 91.3914 120.096 93.4055 120.064C95.4196 120.031 97.4283 120.037 99.4369 120.015L105.474 120.064C107.488 120.096 109.502 120.134 111.511 120.22C109.502 120.301 107.488 120.344 105.474 120.377L99.4369 120.42C97.4283 120.42 95.4142 120.42 93.4055 120.377C91.3969 120.334 89.3773 120.301 87.3687 120.22Z" fill="#C7C7C7"/>
<path d="M87.3687 123.531C89.3773 123.444 91.3914 123.406 93.4055 123.374C95.4196 123.342 97.4283 123.342 99.4369 123.325L105.474 123.374C107.488 123.406 109.502 123.444 111.511 123.531C109.502 123.612 107.488 123.649 105.474 123.682L99.4369 123.73C97.4283 123.73 95.4142 123.73 93.4055 123.682C91.3969 123.633 89.3773 123.612 87.3687 123.531Z" fill="#C7C7C7"/>
<path d="M87.3687 130.146C89.3773 130.059 91.3914 130.022 93.4055 129.989C95.4196 129.957 97.4283 129.962 99.4369 129.941L105.474 129.989C107.488 130.022 109.502 130.059 111.511 130.146C109.502 130.232 107.488 130.27 105.474 130.302L99.4369 130.346C97.4283 130.346 95.4142 130.346 93.4055 130.302C91.3969 130.259 89.3773 130.227 87.3687 130.146Z" fill="#C7C7C7"/>
<path d="M87.3687 133.456C89.3773 133.37 91.3914 133.332 93.4055 133.299C95.4196 133.267 97.4283 133.267 99.4369 133.251L105.474 133.299C107.488 133.332 109.502 133.37 111.511 133.456C109.502 133.537 107.488 133.575 105.474 133.607L99.4369 133.656C97.4283 133.656 95.4142 133.656 93.4055 133.607C91.3969 133.559 89.3773 133.537 87.3687 133.456Z" fill="#C7C7C7"/>
<path d="M87.3687 136.761C89.3773 136.68 91.3914 136.642 93.4055 136.61C95.4196 136.577 97.4283 136.577 99.4369 136.561L105.474 136.604C107.488 136.637 109.502 136.68 111.511 136.761C109.502 136.847 107.488 136.885 105.474 136.918L99.4369 136.966C97.4283 136.966 95.4142 136.966 93.4055 136.918C91.3969 136.869 89.3773 136.853 87.3687 136.761Z" fill="#C7C7C7"/>
<path d="M81.1738 140.185C83.1825 140.104 85.1966 140.066 87.2107 140.034C89.2248 140.001 91.2335 140.001 93.2476 139.985L99.2844 140.028C101.293 140.061 103.307 140.104 105.321 140.185C103.307 140.271 101.293 140.309 99.2844 140.341L93.2476 140.39C91.2335 140.39 89.2194 140.39 87.2107 140.341C85.202 140.293 83.1825 140.271 81.1738 140.185Z" fill="#C7C7C7"/>
<path d="M81.1738 153.313C83.1825 153.226 85.1966 153.189 87.2107 153.156C89.2248 153.124 91.2335 153.124 93.2476 153.108L99.2844 153.156C101.293 153.189 103.307 153.226 105.321 153.313C103.307 153.394 101.293 153.432 99.2844 153.464L93.2476 153.513C91.2335 153.513 89.2194 153.513 87.2107 153.464C85.202 153.415 83.1825 153.394 81.1738 153.313Z" fill="#C7C7C7"/>
<path d="M81.1738 155.376C82.8069 155.295 84.4073 155.252 86.024 155.219C87.6407 155.187 89.2575 155.192 90.8742 155.176C92.4909 155.16 94.1076 155.176 95.7244 155.219C97.3411 155.262 98.9578 155.289 100.575 155.376C98.9415 155.462 97.3411 155.5 95.7244 155.532C94.1076 155.565 92.4909 155.565 90.8742 155.576C89.2575 155.586 87.6407 155.576 86.024 155.532C84.4073 155.489 82.7906 155.457 81.1738 155.376Z" fill="#C7C7C7"/>
<path d="M93.977 144.953H90.7109C90.6149 144.953 90.5198 144.972 90.4313 145.009C90.3427 145.046 90.2624 145.1 90.1951 145.167C90.1277 145.235 90.0746 145.316 90.0389 145.404C90.0031 145.493 89.9855 145.587 89.9869 145.682V149.003C89.9855 149.099 90.0031 149.193 90.0389 149.282C90.0746 149.37 90.1277 149.45 90.1951 149.518C90.2624 149.586 90.3427 149.64 90.4313 149.677C90.5198 149.714 90.6149 149.732 90.7109 149.732H93.977C94.0725 149.732 94.167 149.712 94.2549 149.675C94.3428 149.638 94.4225 149.584 94.4893 149.516C94.5561 149.449 94.6087 149.368 94.6441 149.28C94.6795 149.192 94.697 149.098 94.6955 149.003V145.682C94.697 145.588 94.6795 145.493 94.6441 145.405C94.6087 145.317 94.5561 145.237 94.4893 145.169C94.4225 145.102 94.3428 145.048 94.2549 145.01C94.167 144.973 94.0725 144.954 93.977 144.953ZM94.2002 146.163C94.2002 146.163 94.2002 146.163 94.2002 146.206C94.1135 146.329 94.0068 146.437 93.8845 146.525C93.8727 146.534 93.8635 146.547 93.8578 146.561C93.8521 146.575 93.85 146.591 93.8518 146.606C93.8574 146.982 93.7676 147.353 93.5905 147.686C93.457 147.959 93.2644 148.2 93.0264 148.392C92.7884 148.583 92.5107 148.72 92.2133 148.793C91.7874 148.902 91.3383 148.883 90.9232 148.739H90.8687L90.651 148.631L90.4931 148.539C90.8841 148.562 91.2705 148.445 91.5818 148.21L91.424 148.177C91.302 148.15 91.1886 148.093 91.0937 148.012C90.9988 147.931 90.9253 147.828 90.8796 147.713C90.8747 147.699 90.8747 147.684 90.8796 147.67C90.8796 147.67 90.8796 147.67 90.9232 147.67C91.013 147.688 91.1056 147.688 91.1954 147.67C91.1641 147.648 91.129 147.634 91.0919 147.626C90.9548 147.573 90.8356 147.482 90.748 147.365C90.6604 147.247 90.6079 147.108 90.5966 146.962C90.5966 146.892 90.5966 146.892 90.6564 146.919C90.746 146.957 90.842 146.979 90.9395 146.984C90.8687 146.932 90.8063 146.87 90.7544 146.8C90.6663 146.684 90.613 146.545 90.6005 146.4C90.588 146.255 90.6168 146.109 90.6837 145.979C90.6837 145.947 90.6837 145.936 90.7381 145.979C91.0601 146.373 91.514 146.64 92.0173 146.73C92.0881 146.73 92.1643 146.73 92.2405 146.762C92.3167 146.795 92.3004 146.762 92.2895 146.708C92.2716 146.607 92.2743 146.503 92.2973 146.403C92.3203 146.303 92.3633 146.209 92.4236 146.125C92.4839 146.042 92.5604 145.971 92.6486 145.917C92.7368 145.863 92.835 145.828 92.9373 145.812C93.0531 145.791 93.1724 145.799 93.2845 145.834C93.3966 145.87 93.498 145.933 93.5796 146.017C93.5796 146.017 93.6232 146.049 93.6558 146.017C93.7793 145.987 93.8996 145.945 94.0151 145.893C94.0423 145.878 94.0663 145.858 94.0859 145.833C94.0746 145.925 94.0368 146.011 93.977 146.082C93.9204 146.15 93.8565 146.211 93.7865 146.266C93.9263 146.245 94.0634 146.209 94.1947 146.158L94.2002 146.163Z" fill="#02A4FF"/>
<path d="M103.487 147.275C103.487 146.892 103.487 146.509 103.487 146.12C103.492 146.028 103.492 145.936 103.487 145.844C103.468 145.659 103.396 145.482 103.281 145.335C103.165 145.188 103.01 145.077 102.834 145.013C102.658 144.957 102.474 144.934 102.29 144.942H100.079C99.9597 144.942 99.8345 144.942 99.7202 144.942C99.526 144.956 99.34 145.025 99.1852 145.142C99.0304 145.26 98.9136 145.419 98.8492 145.601C98.7922 145.775 98.7664 145.958 98.773 146.141C98.773 146.919 98.773 147.697 98.773 148.474C98.7739 148.601 98.783 148.727 98.8002 148.852C98.8243 149.008 98.8865 149.157 98.9814 149.284C99.0762 149.411 99.2009 149.513 99.3446 149.581C99.5308 149.664 99.7339 149.703 99.9379 149.695H102.284C102.401 149.697 102.518 149.686 102.632 149.662C102.806 149.637 102.969 149.564 103.103 149.453C103.238 149.341 103.338 149.195 103.395 149.03C103.456 148.857 103.483 148.674 103.476 148.49V147.275H103.487ZM102.883 147.977C102.888 148.23 102.804 148.477 102.644 148.674C102.485 148.871 102.261 149.007 102.012 149.057C101.936 149.066 101.859 149.066 101.783 149.057H100.482C100.224 149.062 99.9735 148.975 99.7742 148.813C99.5748 148.65 99.4399 148.423 99.3936 148.172C99.3882 148.098 99.3882 148.024 99.3936 147.95V146.627C99.3863 146.381 99.4645 146.139 99.615 145.942C99.7656 145.746 99.9794 145.606 100.221 145.547C100.312 145.526 100.405 145.515 100.499 145.515H101.141C101.391 145.515 101.636 145.515 101.887 145.515C102.119 145.535 102.339 145.629 102.513 145.783C102.687 145.937 102.808 146.142 102.856 146.368C102.867 146.452 102.867 146.538 102.856 146.622L102.883 147.977Z" fill="#02A4FF"/>
<path d="M101.707 147.329C101.7 147.434 101.662 147.535 101.598 147.618C101.533 147.702 101.446 147.765 101.346 147.801C101.246 147.836 101.138 147.841 101.035 147.816C100.932 147.791 100.839 147.737 100.767 147.66C100.694 147.584 100.646 147.487 100.628 147.384C100.61 147.28 100.623 147.174 100.665 147.077C100.707 146.981 100.776 146.898 100.865 146.841C100.953 146.783 101.057 146.752 101.163 146.752C101.238 146.751 101.312 146.767 101.38 146.796C101.449 146.825 101.511 146.869 101.562 146.923C101.613 146.977 101.652 147.041 101.677 147.111C101.702 147.181 101.712 147.255 101.707 147.329Z" fill="#02A4FF"/>
<path d="M101.8 145.861H100.482C100.378 145.861 100.275 145.882 100.179 145.923C100.083 145.963 99.9966 146.022 99.9237 146.096C99.8508 146.169 99.7934 146.257 99.7547 146.353C99.7161 146.449 99.6969 146.551 99.6983 146.654V147.999C99.6976 148.102 99.7173 148.204 99.7563 148.299C99.7953 148.394 99.8529 148.481 99.9256 148.554C99.9984 148.628 100.085 148.686 100.181 148.726C100.276 148.766 100.379 148.787 100.482 148.787H101.81C101.914 148.787 102.016 148.766 102.111 148.726C102.206 148.686 102.293 148.627 102.365 148.554C102.437 148.481 102.494 148.394 102.533 148.299C102.571 148.203 102.59 148.102 102.589 147.999V146.654C102.592 146.55 102.573 146.447 102.535 146.35C102.496 146.253 102.439 146.165 102.365 146.09C102.291 146.016 102.203 145.958 102.106 145.918C102.009 145.879 101.905 145.859 101.8 145.861ZM101.135 148.193C100.959 148.197 100.786 148.148 100.638 148.053C100.49 147.958 100.374 147.822 100.304 147.661C100.234 147.501 100.215 147.323 100.247 147.152C100.279 146.98 100.362 146.821 100.486 146.697C100.609 146.572 100.767 146.487 100.94 146.451C101.112 146.416 101.292 146.432 101.455 146.499C101.618 146.565 101.757 146.677 101.856 146.823C101.954 146.968 102.006 147.138 102.006 147.313C102.008 147.544 101.917 147.767 101.754 147.932C101.591 148.096 101.368 148.191 101.135 148.193ZM102.088 146.573C102.059 146.573 102.031 146.566 102.005 146.555C101.979 146.543 101.955 146.527 101.936 146.506C101.916 146.486 101.9 146.462 101.89 146.435C101.88 146.409 101.875 146.38 101.876 146.352C101.877 146.309 101.891 146.268 101.915 146.233C101.94 146.198 101.975 146.171 102.015 146.156C102.055 146.141 102.099 146.137 102.141 146.147C102.183 146.156 102.221 146.178 102.251 146.209C102.281 146.24 102.301 146.279 102.308 146.321C102.315 146.363 102.31 146.406 102.292 146.445C102.275 146.484 102.246 146.517 102.21 146.54C102.173 146.563 102.131 146.574 102.088 146.573Z" fill="#02A4FF"/>
<path d="M114.728 57.4694C113.999 56.3988 113.605 55.138 113.596 53.8458C113.596 49.2556 118.68 45.5349 124.945 45.5349C131.211 45.5349 136.29 49.2556 136.29 53.8458C136.29 58.436 131.211 62.1622 124.945 62.1622C122.161 62.2061 119.429 61.4033 117.118 59.8617L113.209 60.8499L114.728 57.4694Z" fill="white"/>
<path d="M120.449 52.3121V55.4173H120.079V54.0024H118.353V55.4173H117.956V52.3121H118.353V53.6514H120.079V52.3121H120.449Z" fill="black"/>
<path d="M123.345 55.0663V55.4173H121.222V52.3121H123.307V52.6577H121.614V53.6892H123.084V54.0132H121.614V55.0933L123.345 55.0663Z" fill="black"/>
<path d="M123.889 55.4173V52.3121H124.281V55.0663H126.029V55.4173H123.889Z" fill="black"/>
<path d="M126.442 55.4173V52.3121H126.84V55.0663H128.581V55.4173H126.442Z" fill="black"/>
<path d="M130.188 55.4389C129.98 55.4423 129.774 55.396 129.589 55.3039C129.409 55.2199 129.249 55.0983 129.121 54.9475C128.99 54.8001 128.888 54.6298 128.821 54.4452C128.752 54.2586 128.717 54.061 128.718 53.862C128.719 53.4631 128.868 53.0785 129.137 52.782C129.27 52.6354 129.431 52.5162 129.611 52.4309C129.794 52.3455 129.995 52.303 130.198 52.3067C130.406 52.3033 130.611 52.3496 130.797 52.4417C130.974 52.531 131.131 52.6539 131.26 52.8036C131.39 52.9516 131.491 53.1218 131.559 53.3058C131.63 53.4904 131.667 53.6861 131.668 53.8836C131.668 54.087 131.629 54.2885 131.554 54.4776C131.481 54.6617 131.376 54.8317 131.244 54.9799C131.113 55.1258 130.954 55.2435 130.775 55.3255C130.591 55.4072 130.39 55.446 130.188 55.4389ZM129.099 53.862C129.098 54.0186 129.126 54.174 129.181 54.321C129.227 54.4635 129.301 54.5956 129.398 54.7098C129.491 54.8233 129.606 54.917 129.736 54.9853C129.873 55.0515 130.024 55.0848 130.177 55.0825C130.334 55.0864 130.49 55.0492 130.628 54.9745C130.76 54.9054 130.875 54.8097 130.966 54.6936C131.06 54.5789 131.131 54.4467 131.173 54.3048C131.222 54.1623 131.248 54.0127 131.249 53.862C131.248 53.706 131.222 53.5511 131.173 53.403C131.123 53.2611 131.047 53.1294 130.95 53.0142C130.856 52.9046 130.741 52.8146 130.612 52.7496C130.478 52.6797 130.328 52.6444 130.177 52.647C130.02 52.6437 129.865 52.679 129.725 52.7496C129.595 52.8178 129.48 52.9115 129.387 53.025C129.293 53.1428 129.222 53.2763 129.175 53.4192C129.131 53.5626 129.111 53.7122 129.115 53.862H129.099Z" fill="black"/>
<path d="M132.223 54.3642V52.2797H132.599V54.3642H132.223ZM132.223 55.4173V54.8772H132.599V55.4173H132.223Z" fill="black"/>
<path d="M107.075 77.1794C113.026 71.2823 113.026 61.7213 107.075 55.8243C101.123 49.9272 91.4729 49.9272 85.5211 55.8243C79.5693 61.7213 79.5693 71.2823 85.5211 77.1794C91.4729 83.0764 101.123 83.0765 107.075 77.1794Z" fill="#455A64"/>
<path d="M98.4678 74.2911L98.4242 74.3613L98.0214 75.031C97.5424 75.8194 96.7368 77.1587 95.844 78.6491L95.0384 79.983L94.9404 80.1396L94.1511 81.4627C92.7269 81.269 91.3387 80.8706 90.0303 80.28C89.8888 80.226 89.7527 80.1612 89.6112 80.091C89.3771 79.9776 89.143 79.8588 88.9144 79.7346L88.7457 79.632C88.7152 79.6219 88.6873 79.6053 88.664 79.5834C88.6495 79.6001 88.6368 79.6182 88.6259 79.6374C88.6404 79.6207 88.6532 79.6026 88.664 79.5834C88.5769 79.5402 88.4898 79.4862 88.4027 79.4322C86.7668 78.4458 85.3321 77.1635 84.1731 75.652C84.5402 75.0958 85.0048 74.6093 85.5449 74.2155C87.2596 73.0761 90.444 72.8061 93.34 73.0653C94.0704 73.1277 94.7971 73.2268 95.5174 73.3623C96.5401 73.5322 97.5335 73.8449 98.4678 74.2911Z" fill="#C7C7C7"/>
<path d="M103.122 80.0045C101.045 81.0522 98.751 81.6068 96.421 81.6246H96.0399C95.4076 81.6201 94.7764 81.5714 94.151 81.4788C92.7268 81.2852 91.3387 80.8868 90.0303 80.2962C89.8887 80.2422 89.7527 80.1774 89.6111 80.1072C89.3771 79.9938 89.143 79.8749 88.9144 79.7507L88.7456 79.6481C89.143 79.1081 89.5785 78.5033 90.0629 77.9147C90.9688 76.8266 91.9453 75.7984 92.9861 74.8365C93.0954 74.7343 93.2138 74.6421 93.3399 74.5611C94.1585 74.0738 95.1102 73.8529 96.0617 73.9293C96.8672 73.9622 97.6633 74.1132 98.4242 74.3775C99.037 74.5744 99.6195 74.8543 100.155 75.2091C100.469 75.4129 100.749 75.6623 100.988 75.949L101.075 76.057C101.91 77.2891 102.597 78.614 103.122 80.0045Z" fill="#C7C7C7"/>
<path d="M90.2917 77.5312C90.2155 77.6555 90.1447 77.7743 90.0631 77.8985C89.6874 78.5141 89.301 79.1243 88.9145 79.7345L88.7457 79.6319C88.7152 79.6219 88.6873 79.6053 88.6641 79.5833C89.1866 78.8813 89.7201 78.1955 90.2917 77.5312Z" fill="#263238"/>
<path d="M88.9967 78.1686C88.9722 78.5658 88.8877 78.9572 88.746 79.3296C88.7133 79.4106 88.686 79.497 88.6478 79.578C88.5606 79.5348 88.4734 79.4808 88.3862 79.4268C88.3862 79.3566 88.4353 79.2918 88.4571 79.2216C88.5861 78.8472 88.7678 78.4927 88.9967 78.1686Z" fill="#263238"/>
<path d="M96.0402 81.6085C95.4079 81.604 94.7767 81.5552 94.1513 81.4627C92.7271 81.2691 91.3389 80.8707 90.0305 80.2801C90.9614 78.66 92.8557 77.8175 94.9297 80.1396C95.1693 80.4058 95.3912 80.6872 95.5938 80.9821L96.0402 81.6085Z" fill="#D3766A"/>
<path d="M96.4209 81.6085H96.0399C95.4076 81.6039 94.7764 81.5552 94.151 81.4627C92.7268 81.2691 91.3386 80.8707 90.0302 80.28C89.8887 80.226 89.7526 80.1612 89.6111 80.091C90.3351 77.7257 92.2403 77.0993 95.0546 79.983C95.5425 80.4972 95.9988 81.04 96.4209 81.6085Z" fill="#C7C7C7"/>
<path d="M99.5999 80.2314C98.2064 80.5014 94.8967 78.3359 93.4269 76.3162C93.329 76.1758 93.3616 74.5828 93.3126 72.6387C93.2745 71.4614 93.2092 70.1546 93.0568 68.9611C93.0241 68.7181 93.9223 69.0637 93.9223 69.0637L95.5227 69.2419L100.819 69.8467C100.575 71.3898 100.522 72.9567 100.661 74.5126C100.686 74.6756 100.724 74.8364 100.776 74.9932C100.777 75.0202 100.777 75.0472 100.776 75.0742C101.064 75.9868 101.777 79.8102 99.5999 80.2314Z" fill="#D3766A"/>
<path d="M100.776 74.9931C100.777 75.0201 100.777 75.0472 100.776 75.0741C100.524 75.1411 100.267 75.1863 100.008 75.2091C94.9184 75.7492 93.4758 69.4039 93.4758 69.4039L95.4899 69.2419L100.786 69.8467C100.542 71.3898 100.489 72.9567 100.629 74.5125C100.664 74.6765 100.713 74.8373 100.776 74.9931Z" fill="#263238"/>
<path d="M91.6577 58.8788C90.8412 61.552 92.2837 69.2581 94.2053 70.9754C96.9869 73.4595 101.527 73.6755 103.655 70.376C105.718 67.1358 103.655 57.1454 101.516 55.5901C98.3642 53.295 92.8607 54.9313 91.6577 58.8788Z" fill="#D3766A"/>
<path d="M98.7239 63.3718C98.7239 63.3718 98.6912 63.4042 98.6967 63.4258C98.8329 63.9389 98.8984 64.5437 98.4678 64.8245C98.4678 64.8245 98.4678 64.8569 98.4678 64.8245C99.0346 64.6409 98.9365 63.8362 98.7239 63.3718Z" fill="#263238"/>
<path d="M98.141 62.9398C97.2919 63.064 97.5967 64.7381 98.3915 64.6247C99.1862 64.5113 98.8487 62.8318 98.141 62.9398Z" fill="#263238"/>
<path d="M101.832 62.713C101.832 62.713 101.875 62.713 101.881 62.7508C101.963 63.2908 102.142 63.8579 102.648 63.9443C102.055 63.9983 101.821 63.2206 101.832 62.713Z" fill="#263238"/>
<path d="M102.197 62.0812C103.03 61.8652 103.405 63.5285 102.638 63.7283C101.87 63.9281 101.5 62.2648 102.197 62.0812Z" fill="#263238"/>
<path d="M97.33 62.2918C97.5391 62.1871 97.7426 62.0718 97.9397 61.9462C98.1705 61.8541 98.3627 61.6864 98.484 61.471C98.5131 61.3967 98.5155 61.3148 98.4907 61.239C98.4659 61.1632 98.4155 61.0983 98.348 61.0551C98.2039 60.9853 98.0436 60.9549 97.8838 60.9673C97.7239 60.9796 97.5703 61.0342 97.4389 61.1253C97.144 61.2706 96.9134 61.5186 96.7911 61.822C96.7654 61.8942 96.7621 61.9723 96.7816 62.0464C96.801 62.1205 96.8424 62.1871 96.9004 62.2377C96.9584 62.2882 97.0303 62.3204 97.1068 62.33C97.1834 62.3397 97.2611 62.3264 97.33 62.2918Z" fill="#263238"/>
<path d="M102.659 61.3198C102.424 61.317 102.19 61.3008 101.957 61.2712C101.707 61.2889 101.458 61.2244 101.249 61.0875C101.192 61.0314 101.155 60.9581 101.144 60.879C101.133 60.7998 101.149 60.7194 101.189 60.6501C101.288 60.525 101.419 60.4285 101.569 60.3706C101.718 60.3126 101.88 60.2954 102.038 60.3207C102.368 60.3255 102.684 60.4505 102.926 60.6717C102.977 60.7252 103.012 60.7924 103.026 60.8651C103.04 60.9378 103.032 61.013 103.004 61.0815C102.976 61.15 102.928 61.209 102.867 61.2512C102.806 61.2935 102.734 61.3173 102.659 61.3198Z" fill="#263238"/>
<path d="M99.4314 66.6498C99.6036 66.8302 99.8113 66.9736 100.042 67.0712C100.272 67.1687 100.52 67.2183 100.77 67.2168C100.988 67.2199 101.204 67.1908 101.413 67.1304C101.454 67.1218 101.494 67.1092 101.533 67.0926L101.647 67.0548C101.674 67.0443 101.696 67.0254 101.711 67.001C101.726 66.9766 101.732 66.948 101.729 66.9198C101.73 66.9018 101.73 66.8837 101.729 66.8658V66.8172C101.669 66.4175 101.516 65.8181 101.516 65.8181C101.674 65.8613 102.491 66.0611 102.436 65.8505C102.054 64.0575 101.488 62.3078 100.749 60.6285C100.744 60.6163 100.735 60.6063 100.724 60.6008C100.712 60.5952 100.698 60.5945 100.686 60.5988C100.674 60.6031 100.664 60.612 100.658 60.6237C100.653 60.6353 100.652 60.6487 100.656 60.6609C100.999 62.3188 101.636 63.901 102.006 65.5697C101.717 65.4944 101.418 65.4616 101.119 65.4725C101.064 65.4725 101.435 66.6281 101.451 66.8064C101.126 66.9005 100.786 66.9289 100.451 66.89C100.115 66.851 99.7905 66.7454 99.4967 66.5795C99.4259 66.5579 99.3933 66.6012 99.4314 66.6498Z" fill="#263238"/>
<path d="M101.141 66.9576C100.971 67.2848 100.72 67.5637 100.411 67.7676C100.248 67.868 100.058 67.917 99.8668 67.908C99.4259 67.8756 99.3224 67.4976 99.3605 67.1574C99.3693 66.9743 99.4004 66.793 99.4531 66.6174C99.9657 66.9036 100.556 67.0226 101.141 66.9576Z" fill="#263238"/>
<path d="M100.411 67.7676C100.248 67.868 100.058 67.917 99.8668 67.908C99.4259 67.8756 99.3224 67.4976 99.3605 67.1574C99.5791 67.1286 99.8012 67.173 99.9915 67.2836C100.182 67.3941 100.329 67.5644 100.411 67.7676Z" fill="#FF9BBC"/>
<path d="M92.0337 66.2826C93.449 65.7102 93.6667 60.7636 93.6667 60.7636C93.6667 60.7636 93.8845 62.8264 94.2655 62.7346C94.6466 62.6428 95.9367 59.6673 95.8986 57.6422C97.1333 58.2709 98.4454 58.7374 99.8016 59.0301C101.712 59.3757 103.743 59.0301 103.71 58.7169C103.607 57.788 102.485 55.4497 101.119 54.7315C100.112 54.1359 98.9649 53.8148 97.793 53.8005C96.6211 53.7863 95.4661 54.0795 94.4451 54.6505C91.5546 56.1301 90.9722 58.1444 90.6946 59.6835C90.4169 61.2226 91.5111 66.4932 92.0337 66.2826Z" fill="#263238"/>
<path d="M100.324 63.2638C100.307 63.194 100.285 63.1254 100.259 63.0586C100.242 63.0105 100.222 62.9636 100.199 62.9182C99.9468 62.339 99.4813 61.8771 98.8974 61.6272C98.3135 61.3772 97.6554 61.358 97.0578 61.5736C97.0039 61.5919 96.9511 61.6135 96.8999 61.6384C96.4857 61.8189 96.1286 62.1077 95.8669 62.4739C95.6051 62.8401 95.4486 63.2699 95.4138 63.7175C95.4057 63.8271 95.4057 63.9372 95.4138 64.0469C95.4241 64.2867 95.4718 64.5236 95.5554 64.7489C95.7466 65.2658 96.1053 65.7052 96.5751 65.9983C97.0449 66.2915 97.5995 66.4218 98.1519 66.369C98.358 66.3478 98.5608 66.3025 98.7562 66.234C99.2374 66.0577 99.6523 65.7387 99.9445 65.3204C100.237 64.902 100.392 64.4046 100.389 63.8957C100.397 63.6831 100.375 63.4704 100.324 63.2638ZM98.6473 65.9208C98.1456 66.0788 97.6032 66.0512 97.1204 65.843C96.6376 65.6349 96.2472 65.2603 96.0214 64.7885C95.7956 64.3168 95.7497 63.7799 95.8922 63.2772C96.0347 62.7745 96.356 62.34 96.7965 62.0542C96.9151 61.9819 97.041 61.9222 97.1721 61.876C97.3481 61.816 97.531 61.7779 97.7164 61.7626C98.1948 61.7177 98.6747 61.8311 99.0814 62.0851C99.488 62.339 99.7986 62.7193 99.9646 63.1666C100.157 63.7052 100.126 64.2974 99.8792 64.8136C99.6323 65.3297 99.1894 65.7278 98.6473 65.9208Z" fill="#02A4FF"/>
<path d="M105.201 62.281C105.069 61.6766 104.752 61.1275 104.292 60.7095C104.123 60.556 103.928 60.4335 103.715 60.3477C103.436 60.2285 103.126 60.1983 102.828 60.2613C102.693 60.2899 102.564 60.341 102.447 60.4125C102.108 60.6061 101.844 60.9064 101.696 61.2658C101.525 61.6623 101.452 62.0938 101.483 62.524C101.485 62.6494 101.499 62.7743 101.527 62.8966C101.533 62.9493 101.543 63.0015 101.554 63.0532C101.626 63.3841 101.751 63.7014 101.924 63.9929C102.089 64.33 102.347 64.6136 102.668 64.8107C102.989 65.0077 103.36 65.1099 103.737 65.1053L103.9 65.0783C104.098 65.0349 104.283 64.9502 104.445 64.8299C104.797 64.5166 105.054 64.1123 105.188 63.6621C105.322 63.2119 105.326 62.7337 105.201 62.281ZM104.428 64.4411C104.273 64.6087 104.07 64.7255 103.846 64.7759C103.504 64.8025 103.162 64.7212 102.868 64.5438C102.575 64.3664 102.346 64.1018 102.213 63.7877C102.143 63.6722 102.086 63.5489 102.044 63.4205C102.042 63.4145 102.04 63.408 102.04 63.4016C102.04 63.3951 102.042 63.3886 102.044 63.3827C101.999 63.2612 101.963 63.1367 101.935 63.01C101.914 62.9155 101.898 62.82 101.886 62.7238C101.884 62.7005 101.884 62.677 101.886 62.6536V62.6158C101.844 62.2045 101.904 61.7893 102.061 61.4062C102.078 61.3673 102.098 61.3294 102.12 61.2928C102.195 61.133 102.302 60.99 102.434 60.8721C102.565 60.7542 102.72 60.664 102.888 60.6069H102.964H103.089C103.37 60.5834 103.651 60.6559 103.884 60.8121C103.974 60.8649 104.057 60.9264 104.135 60.9957C104.538 61.3725 104.812 61.8655 104.918 62.4052C105.004 62.7589 105.004 63.1276 104.919 63.4813C104.834 63.8351 104.666 64.1639 104.428 64.4411Z" fill="#02A4FF"/>
<path d="M100.237 63.3557L99.9756 63.1505C100.275 62.7616 101.064 62.1622 101.777 62.6644L101.587 62.9398C100.928 62.4862 100.27 63.3179 100.237 63.3557Z" fill="#02A4FF"/>
<path d="M89.4914 66.3312L89.1648 66.2448C89.2083 66.099 89.5839 64.7813 90.2862 64.5059C90.9884 64.2305 95.414 63.7067 95.599 63.6851L95.6426 64.0145C94.3579 64.1711 90.9176 64.6139 90.4059 64.8137C89.8942 65.0135 89.5948 65.9694 89.4914 66.3312Z" fill="#02A4FF"/>
<path d="M93.3346 65.1593C93.3346 65.1593 91.522 62.7076 90.3951 63.3556C89.2683 64.0037 90.6728 67.584 92.0282 68.0484C92.1972 68.1199 92.3789 68.1566 92.5626 68.1565C92.7462 68.1564 92.928 68.1194 93.0968 68.0477C93.2657 67.9761 93.4182 67.8713 93.5451 67.7396C93.6721 67.6079 93.7708 67.4521 93.8355 67.2816L93.3346 65.1593Z" fill="#D3766A"/>
<path d="M90.8252 64.3709C90.8252 64.3709 90.8252 64.3979 90.8252 64.4087C91.26 64.6119 91.647 64.9035 91.9611 65.2644C92.2753 65.6253 92.5095 66.0476 92.6488 66.504C92.5927 66.4116 92.517 66.3325 92.4269 66.2722C92.3368 66.2118 92.2345 66.1718 92.1272 66.1548C92.0198 66.1378 91.91 66.1443 91.8055 66.1739C91.701 66.2034 91.6042 66.2553 91.522 66.3258C91.522 66.3258 91.522 66.3798 91.5492 66.3744C91.7125 66.3178 91.8897 66.3134 92.0557 66.3618C92.2217 66.4102 92.3682 66.5091 92.4746 66.6444C92.6545 66.8704 92.8096 67.1148 92.9373 67.3734C92.9808 67.4544 93.1332 67.4058 93.0951 67.314C93.0788 66.1098 92.1099 64.4897 90.8252 64.3709Z" fill="#263238"/>
<path d="M99.4202 54.2562C98.4119 53.7932 97.341 53.4785 96.2412 53.322C95.011 53.1654 91.1297 53.4678 90.1989 54.24C89.268 55.0123 89.0231 58.6412 88.9959 59.1705C88.9686 59.6997 89.2136 62.9128 90.3894 63.6851C91.5652 64.4573 91.6686 59.0084 93.514 57.2048C95.3593 55.4011 99.4202 54.2562 99.4202 54.2562Z" fill="#02A4FF"/>
<path opacity="0.1" d="M99.4204 54.2562C99.4204 54.2562 95.365 55.3903 93.5196 57.1994C91.6743 59.0085 91.5599 64.4573 90.3841 63.6797C89.8453 63.262 89.4934 62.6511 89.4043 61.9786C89.6493 60.3909 90.297 57.9176 91.6361 56.2057C92.8882 54.5857 95.0438 53.7864 97.3518 53.5056C98.062 53.696 98.7541 53.9471 99.4204 54.2562Z" fill="black"/>
<path d="M90.7105 66.9198C90.814 65.4671 92.3 61.579 93.8623 59.3595C95.4246 57.14 100.014 55.8223 100.656 55.8601C102.213 55.9465 102.741 56.4001 102.986 56.2759C103.231 56.1517 101.63 54.9799 101.189 54.7152C100.748 54.4506 99.5563 53.8458 98.8921 53.862C98.228 53.8782 94.0365 54.294 92.5232 56.0599C91.0099 57.8258 88.8597 62.7832 89.2571 64.0523C89.3551 64.3547 89.7634 64.5491 89.894 64.9811C90.0627 65.5481 90.1825 66.2016 90.3567 66.6012C90.5309 67.0008 90.6833 67.0494 90.7105 66.9198Z" fill="#02A4FF"/>
<path d="M94.2164 58.3496C93.8585 58.1317 93.5198 57.8842 93.2039 57.6098C92.88 57.3406 92.5894 57.0343 92.3384 56.6971C92.3384 56.6971 92.2785 56.6971 92.2948 56.6971C92.5021 57.0797 92.7684 57.4277 93.0841 57.7286C93.4014 58.0176 93.7708 58.2448 94.1728 58.3982C94.2273 58.4414 94.2599 58.3712 94.2164 58.3496Z" fill="#263238"/>
<path d="M90.6837 65.4726C90.6365 65.3691 90.5838 65.2681 90.5258 65.1702C90.4651 65.0571 90.4176 64.9375 90.3843 64.8137C90.3571 64.5725 90.3023 64.3352 90.221 64.1063C90.1243 63.9344 90.0093 63.7733 89.878 63.6257C89.7139 63.4701 89.6115 63.2612 89.5895 63.0371C89.5895 63.0047 89.5405 63.0047 89.5405 63.0371C89.6024 63.4474 89.7713 63.8346 90.0304 64.1603C90.1192 64.4062 90.1865 64.6591 90.2319 64.9163C90.2918 65.1539 90.4273 65.366 90.6184 65.5212C90.6837 65.5374 90.7109 65.505 90.6837 65.4726Z" fill="#263238"/>
<path d="M91.2278 63.9011C91.0863 63.7337 90.9393 63.5879 90.8141 63.4097C90.6955 63.2377 90.5899 63.0572 90.4984 62.8696C90.4058 62.686 90.3296 62.497 90.2425 62.3296C90.1554 62.1622 90.003 61.903 89.9105 61.6762C89.9105 61.6492 89.856 61.6762 89.8669 61.6762C89.9649 61.9084 90.0193 62.1622 90.1119 62.3944C90.19 62.5988 90.2828 62.7973 90.3895 62.9884C90.4881 63.179 90.6048 63.3598 90.7379 63.5285C90.8662 63.697 91.0272 63.8384 91.2115 63.9443C91.2115 63.9443 91.2278 63.9119 91.2278 63.9011Z" fill="#263238"/>
<path d="M91.7288 62.4808C91.4219 62.2234 91.1543 61.9232 90.9341 61.5897C90.7218 61.2603 90.5258 60.9201 90.3353 60.5799C90.3353 60.5799 90.2808 60.5799 90.2917 60.5799C90.4127 60.9601 90.5829 61.3231 90.798 61.6599C90.903 61.8267 91.0272 61.9807 91.1681 62.119C91.334 62.2612 91.5168 62.3827 91.7125 62.4808C91.7125 62.4808 91.7724 62.497 91.7288 62.4808Z" fill="#263238"/>
<path d="M92.3165 61.12C92.1613 61.0173 92.0281 60.8851 91.9246 60.7312C91.7994 60.5692 91.6742 60.4018 91.5599 60.2344C91.4456 60.0669 91.3258 59.9103 91.2169 59.7483C91.0902 59.5893 90.9993 59.4051 90.9502 59.2083C90.9502 59.2083 90.9012 59.2083 90.9067 59.2083C90.9248 59.3979 90.9823 59.5818 91.0754 59.7483C91.168 59.9489 91.2792 60.1405 91.4075 60.3208C91.5328 60.4965 91.6692 60.6642 91.8157 60.823C91.9341 60.9779 92.1005 61.0898 92.2893 61.1416C92.2955 61.1409 92.3013 61.1385 92.3061 61.1347C92.3109 61.1309 92.3145 61.1258 92.3165 61.12Z" fill="#263238"/>
<path d="M95.343 57.5234C95.196 57.3451 95.0545 57.1669 94.8966 56.9833C94.7388 56.7997 94.5537 56.6593 94.3523 56.5135C94.0029 56.2183 93.6213 55.9629 93.2146 55.7521C93.2146 55.7521 93.1601 55.7521 93.1819 55.7899C93.8787 56.3785 94.5972 56.9401 95.2831 57.5341C95.3266 57.5773 95.3593 57.545 95.343 57.5234Z" fill="#263238"/>
<path d="M96.2251 56.2759C96.0777 56.1035 95.9116 55.9477 95.7297 55.8115C95.3372 55.5363 94.9156 55.3045 94.4723 55.1202L94.4451 55.158C94.8261 55.4119 95.2126 55.6549 95.5773 55.9249C95.7675 56.0558 95.9493 56.1983 96.1217 56.3515C96.285 56.5027 96.4156 56.6863 96.5735 56.8483H96.6007C96.5165 56.6339 96.3886 56.4391 96.2251 56.2759Z" fill="#263238"/>
<path d="M97.4444 55.7089C97.3076 55.5381 97.1544 55.3807 96.9872 55.2391C96.661 54.9743 96.2932 54.7645 95.8985 54.618C95.8712 54.618 95.8549 54.6504 95.8985 54.6612C96.2557 54.874 96.5944 55.1161 96.911 55.3849C97.0688 55.5199 97.2212 55.6657 97.3682 55.8061C97.5152 55.9465 97.6513 56.1247 97.8146 56.2489C97.7114 56.056 97.5873 55.875 97.4444 55.7089Z" fill="#263238"/>
<path d="M98.3046 54.9799C98.1468 54.8557 97.9889 54.7423 97.8256 54.6289C97.6729 54.5078 97.5021 54.4113 97.3193 54.3427V54.3858L98.2121 55.1095C98.468 55.3516 98.6978 55.6195 98.898 55.9087C98.898 55.9087 98.9306 55.9087 98.898 55.9087C98.7967 55.5479 98.5903 55.2247 98.3046 54.9799Z" fill="#263238"/>
<path d="M99.4257 54.7693C99.1408 54.5077 98.8083 54.3024 98.4459 54.1644C98.4459 54.1644 98.4023 54.1968 98.4459 54.2076C98.7757 54.3828 99.0767 54.6068 99.3386 54.8719C99.6022 55.135 99.8375 55.4246 100.041 55.7359C100.041 55.7359 100.079 55.7359 100.041 55.7359C99.9147 55.3704 99.704 55.0394 99.4257 54.7693Z" fill="#263238"/>
<path d="M100.863 55.3956C100.827 55.319 100.785 55.245 100.738 55.1742C100.641 55.0332 100.532 54.9013 100.411 54.78C100.157 54.5412 99.8774 54.3295 99.5784 54.1482C99.5784 54.1482 99.5294 54.1482 99.5784 54.186C99.861 54.3752 100.122 54.5943 100.357 54.8394C100.472 54.9593 100.576 55.0895 100.667 55.2282C100.716 55.2933 100.759 55.3619 100.798 55.4334C100.832 55.5048 100.872 55.5734 100.918 55.6387H100.961C100.947 55.5514 100.914 55.4684 100.863 55.3956Z" fill="#263238"/>
<path d="M316.095 176.928L324.26 193.059C325.844 196.131 327.172 198.853 327.728 200.327C327.899 200.662 327.988 201.032 327.989 201.407V201.434C327.385 202.514 302.992 215.777 301.985 215.956C300.978 216.134 300.385 213.299 300.896 212.035C301.408 210.771 308.485 201.548 308.485 201.548L300.456 185.347L316.095 176.928Z" fill="#D3766A"/>
<path d="M322.605 189.775L324.287 193.086C325.871 196.158 327.199 198.88 327.755 200.354C327.882 200.704 327.97 201.066 328.016 201.434V201.461C327.412 202.541 303.019 215.804 302.012 215.983C301.005 216.161 300.412 213.326 300.923 212.062C301.435 210.798 308.512 201.575 308.512 201.575L306.792 198.227L322.605 189.775Z" fill="white"/>
<path d="M307.02 202.342C308.528 201.262 310.684 200.506 312.524 201.062C312.594 201.062 312.562 201.186 312.524 201.197C310.689 201.454 308.888 201.907 307.151 202.547C307.137 202.555 307.122 202.561 307.106 202.564C307.09 202.566 307.074 202.566 307.059 202.563C307.043 202.559 307.028 202.553 307.015 202.543C307.002 202.534 306.991 202.522 306.982 202.509C306.973 202.496 306.968 202.481 306.965 202.465C306.962 202.449 306.963 202.433 306.966 202.417C306.97 202.402 306.976 202.387 306.986 202.374C306.995 202.361 307.007 202.35 307.02 202.342Z" fill="#263238"/>
<path d="M306.177 203.638C307.684 202.531 309.835 201.802 311.68 202.358C311.751 202.358 311.718 202.482 311.68 202.487C309.845 202.747 308.044 203.201 306.307 203.843C306.28 203.86 306.247 203.866 306.215 203.859C306.183 203.852 306.156 203.832 306.139 203.805C306.121 203.778 306.115 203.745 306.123 203.714C306.13 203.682 306.149 203.655 306.177 203.638Z" fill="#263238"/>
<path d="M305.333 204.934C306.841 203.821 308.991 203.092 310.836 203.654C310.907 203.654 310.874 203.773 310.836 203.783C309.002 204.043 307.2 204.497 305.464 205.139C305.45 205.147 305.435 205.153 305.419 205.156C305.403 205.159 305.387 205.158 305.371 205.155C305.356 205.151 305.341 205.145 305.328 205.135C305.315 205.126 305.303 205.115 305.295 205.101C305.286 205.088 305.28 205.073 305.278 205.057C305.275 205.041 305.275 205.025 305.279 205.01C305.282 204.994 305.289 204.979 305.298 204.966C305.308 204.953 305.319 204.942 305.333 204.934Z" fill="#263238"/>
<path d="M302.012 215.966C303.019 215.788 327.412 202.536 328.016 201.445C328.255 201.035 326.514 197.395 324.287 193.059L324.216 192.924L308.381 201.299L308.534 201.564C308.534 201.564 301.457 210.782 300.945 212.046C300.434 213.309 301 216.15 302.012 215.966Z" fill="#02A4FF"/>
<path d="M301.767 214.881C305.823 212.543 322.409 203.508 326.601 201.505C326.633 201.505 326.644 201.505 326.601 201.505C322.632 203.908 305.975 212.807 301.794 214.919C301.718 214.989 301.68 214.93 301.767 214.881Z" fill="#263238"/>
<path d="M305.213 197.076C305.017 196.985 293.879 176.361 289.884 166.295C285.888 156.229 280.788 134.693 279.792 130.265C279.792 130.265 277.168 120.485 276.226 112.163H297.641C297.641 112.163 300.722 120.744 299.911 132.684C299.862 133.424 306.269 158.033 308.076 161.305C310.852 166.322 322.774 187.491 323.133 187.674L305.213 197.076Z" fill="#37474F"/>
<path d="M284.147 118.703C285.279 123.563 286.264 128.423 287.298 133.283C288.333 138.144 289.389 143.058 290.428 147.945C290.946 150.359 291.441 152.773 291.98 155.176C292.485 157.55 293.19 159.879 294.086 162.137C294.996 164.362 296.046 166.533 297.075 168.703C298.104 170.874 299.165 173.067 300.232 175.238C302.381 179.594 304.589 183.923 306.857 188.225C307.135 188.765 307.401 189.305 307.701 189.808C307.704 189.816 307.705 189.826 307.702 189.834C307.699 189.843 307.693 189.85 307.685 189.855C307.677 189.86 307.667 189.861 307.658 189.86C307.649 189.858 307.641 189.853 307.635 189.845C305.246 185.617 302.927 181.345 300.717 177.02C298.507 172.694 296.335 168.379 294.359 163.93C293.371 161.744 292.58 159.476 291.996 157.152C291.408 154.782 290.946 152.384 290.445 149.992C289.41 145.077 288.378 140.163 287.347 135.249C286.324 130.356 285.29 125.464 284.288 120.571C284.161 119.966 284.041 119.361 283.929 118.757C283.927 118.73 283.935 118.704 283.951 118.683C283.967 118.662 283.99 118.647 284.015 118.641C284.041 118.634 284.068 118.637 284.092 118.648C284.116 118.66 284.135 118.679 284.147 118.703Z" fill="#455A64"/>
<path d="M304.565 193.053C305.798 192.27 307.069 191.549 308.375 190.893C309.638 190.205 310.908 189.525 312.186 188.852C314.755 187.502 317.308 186.076 319.959 184.888C319.971 184.883 319.985 184.883 319.997 184.887C320.009 184.892 320.019 184.9 320.026 184.911C320.032 184.922 320.035 184.935 320.032 184.948C320.03 184.96 320.024 184.972 320.014 184.98C317.575 186.6 314.951 187.961 312.393 189.338C311.097 190.034 309.791 190.704 308.479 191.363C307.23 192.038 305.943 192.642 304.625 193.172C304.543 193.183 304.516 193.091 304.565 193.053Z" fill="#455A64"/>
<path d="M284.582 189.014C284.582 189.014 284.43 207.061 284.43 207.072C284.43 210.528 284.348 213.552 284.163 215.113C284.165 215.122 284.165 215.131 284.163 215.14C284.164 215.515 284.076 215.885 283.907 216.22C282.867 216.911 255.056 217.63 254.082 217.333C253.108 217.036 253.886 214.244 254.942 213.358C255.998 212.472 266.51 207.488 266.51 207.488L266.836 189.446L284.582 189.014Z" fill="#D3766A"/>
<path d="M284.473 203.368C284.473 203.368 284.441 207.061 284.441 207.072C284.441 210.528 284.359 213.553 284.174 215.113C284.177 215.122 284.177 215.131 284.174 215.14C284.135 215.509 284.049 215.872 283.918 216.22C282.878 216.911 255.067 217.63 254.093 217.333C253.119 217.036 253.897 214.244 254.953 213.358C256.009 212.472 266.51 207.488 266.51 207.488V203.708L284.473 203.368Z" fill="white"/>
<path d="M264.794 207.493C266.645 207.191 268.899 207.52 270.282 208.854C270.331 208.908 270.282 208.984 270.2 208.962C268.45 208.359 266.639 207.945 264.8 207.726C264.773 207.721 264.749 207.706 264.731 207.686C264.713 207.665 264.703 207.639 264.703 207.612C264.702 207.585 264.711 207.558 264.727 207.537C264.744 207.515 264.768 207.5 264.794 207.493Z" fill="#263238"/>
<path d="M263.45 208.266C265.301 207.963 267.549 208.266 268.932 209.621C268.986 209.675 268.932 209.751 268.85 209.729C267.099 209.129 265.289 208.714 263.45 208.492C263.42 208.492 263.391 208.48 263.369 208.459C263.348 208.438 263.336 208.409 263.336 208.379C263.336 208.349 263.348 208.32 263.369 208.299C263.391 208.278 263.42 208.266 263.45 208.266Z" fill="#263238"/>
<path d="M262.1 209.032C263.951 208.73 266.199 209.032 267.582 210.393C267.637 210.442 267.582 210.518 267.5 210.496C265.75 209.895 263.94 209.482 262.1 209.265C262.074 209.259 262.05 209.244 262.033 209.223C262.015 209.202 262.006 209.176 262.006 209.149C262.006 209.121 262.015 209.095 262.033 209.074C262.05 209.053 262.074 209.038 262.1 209.032Z" fill="#263238"/>
<path d="M254.055 217.316C255.035 217.613 282.84 216.901 283.88 216.204C284.283 215.945 284.424 211.922 284.424 207.024V206.872L266.461 207.137V207.439C266.461 207.439 255.944 212.435 254.877 213.32C253.81 214.206 253.075 217.041 254.055 217.316Z" fill="#02A4FF"/>
<path d="M254.343 216.236C259.024 216.004 277.941 215.491 282.589 215.615C282.628 215.615 282.628 215.642 282.589 215.642C277.952 215.977 259.035 216.334 254.343 216.312C254.245 216.334 254.245 216.263 254.343 216.236Z" fill="#263238"/>
<path d="M287.875 131.269C287.875 131.269 284.811 161.122 284.762 161.829C284.762 162.104 285.213 201.915 285.213 201.915L266.161 201.98C266.161 201.98 265.998 165.172 266.308 160.938C266.346 160.447 268.192 129.325 274.092 112.141H296.623C296.623 112.141 296.427 122.24 291.8 129.536C290.461 130.042 289.151 130.621 287.875 131.269Z" fill="#37474F"/>
<path d="M271.164 165.172C271.251 159.647 271.48 154.134 271.921 148.631C272.361 143.128 273.009 137.76 273.929 132.365C274.789 126.937 275.983 121.566 277.506 116.283C277.707 115.619 277.903 114.96 278.11 114.301C278.113 114.293 278.117 114.284 278.123 114.277C278.129 114.27 278.137 114.264 278.145 114.26C278.153 114.256 278.163 114.253 278.172 114.252C278.181 114.252 278.191 114.253 278.2 114.256C278.209 114.258 278.217 114.263 278.224 114.269C278.231 114.275 278.237 114.282 278.241 114.291C278.246 114.299 278.248 114.308 278.249 114.317C278.25 114.326 278.249 114.336 278.246 114.345C276.814 119.632 275.573 124.967 274.637 130.362C273.701 135.757 273.08 141.259 272.612 146.741C272.144 152.222 271.877 157.752 271.735 163.271C271.594 168.79 271.583 174.287 271.637 179.796C271.692 185.304 271.91 187.448 271.926 192.951C271.926 193.642 271.926 194.328 271.926 195.019C271.926 195.029 271.922 195.038 271.915 195.046C271.908 195.053 271.898 195.057 271.888 195.057C271.878 195.057 271.868 195.053 271.861 195.046C271.854 195.038 271.85 195.029 271.85 195.019C271.752 192.254 271.578 189.494 271.491 186.729C271.403 183.965 271.316 184.569 271.251 181.783C271.142 176.275 271.077 170.707 271.164 165.172Z" fill="#455A64"/>
<path d="M284.865 132.641C285.954 132.041 287.108 131.501 288.267 131.021C289.427 130.54 290.619 130.086 291.778 129.568C291.822 129.568 291.86 129.617 291.816 129.638C290.679 130.221 289.563 130.842 288.409 131.393C287.279 131.935 286.113 132.399 284.919 132.781C284.901 132.788 284.88 132.788 284.861 132.78C284.843 132.772 284.829 132.757 284.821 132.738C284.814 132.719 284.815 132.699 284.823 132.68C284.831 132.662 284.846 132.648 284.865 132.641Z" fill="#455A64"/>
<path d="M286.27 144.548C286.547 141.729 286.852 138.916 287.201 136.108C287.299 135.319 287.407 134.525 287.511 133.732C287.587 132.968 287.712 132.211 287.886 131.463C287.889 131.456 287.894 131.45 287.9 131.446C287.907 131.442 287.914 131.44 287.922 131.44C287.929 131.44 287.937 131.442 287.943 131.446C287.949 131.45 287.954 131.456 287.957 131.463C287.954 132.186 287.907 132.907 287.816 133.624L287.62 135.659C287.484 137.058 287.358 138.451 287.217 139.85C286.928 142.642 286.673 145.445 286.389 148.237C286.226 149.824 286.079 151.417 285.845 153C285.845 153.113 285.655 153.118 285.655 153C285.714 150.175 285.987 147.351 286.27 144.548Z" fill="#455A64"/>
<path d="M266.923 197.168C268.389 197.07 269.859 197.045 271.327 197.093C272.779 197.093 274.22 197.107 275.649 197.136C278.556 197.179 281.49 197.136 284.386 197.395C284.401 197.395 284.414 197.401 284.425 197.411C284.435 197.421 284.441 197.435 284.441 197.449C284.441 197.463 284.435 197.477 284.425 197.487C284.414 197.497 284.401 197.503 284.386 197.503C281.463 197.741 278.502 197.676 275.573 197.649C274.122 197.649 272.652 197.615 271.164 197.546C269.741 197.535 268.32 197.445 266.907 197.276C266.842 197.265 266.864 197.174 266.923 197.168Z" fill="#455A64"/>
<path d="M286.449 91.1615C284.402 93.8184 276.177 101.066 270.891 100.455C266.15 99.9153 258.306 85.6748 257 79.5456C256.537 77.3855 266.101 78.5843 267.718 79.767C269.106 80.7822 273.238 90.2326 273.929 90.2326C275.088 90.2326 278.251 89.0662 283.346 87.3057C288.137 85.6532 287.892 89.293 286.449 91.1615Z" fill="#D3766A"/>
<path d="M269.476 81.4302L256.956 81.8245C256.956 81.8245 264.033 99.7965 270.826 100.898C272.388 101.152 280.624 98.7002 286.177 92.0741C287.892 90.022 289.639 85.0538 282.584 87.3651C275.529 89.6764 274.147 89.9032 273.945 89.806C273.744 89.7088 269.476 81.4302 269.476 81.4302Z" fill="#C7C7C7"/>
<path d="M258.584 84.2383C259.553 84.0763 260.554 84.0493 261.534 83.9845C262.514 83.9197 263.472 83.8603 264.441 83.8063C266.395 83.7037 268.36 83.5525 270.315 83.5741C270.322 83.5769 270.328 83.5818 270.332 83.588C270.336 83.5943 270.338 83.6017 270.338 83.6092C270.338 83.6168 270.336 83.6241 270.332 83.6304C270.328 83.6367 270.322 83.6415 270.315 83.6443C268.36 83.9413 266.373 84.0385 264.403 84.1573C263.418 84.2167 262.427 84.2599 261.436 84.2977C260.481 84.3518 259.523 84.3518 258.567 84.2977C258.535 84.3139 258.54 84.2491 258.584 84.2383Z" fill="#263238"/>
<path d="M239.684 108.372H279.122V78.3575H239.684V108.372Z" fill="#02A4FF"/>
<path opacity="0.6" d="M243.609 84.9188C243.459 85.6667 243.556 86.4426 243.885 87.1317C244.214 87.8208 244.758 88.3867 245.436 88.7457C246.114 89.1047 246.89 89.2378 247.651 89.1253C248.411 89.0128 249.114 88.6607 249.657 88.121C250.2 87.5813 250.554 86.8827 250.666 86.1283C250.778 85.3739 250.642 84.6038 250.279 83.9318C249.916 83.2598 249.344 82.7215 248.649 82.3965C247.954 82.0714 247.171 81.9769 246.418 82.1269C245.724 82.2649 245.087 82.6038 244.587 83.1007C244.087 83.5976 243.747 84.2302 243.609 84.9188Z" fill="white"/>
<path d="M252.694 101.903H279.116L265.905 85.7504L252.694 101.903Z" fill="#02A4FF"/>
<path opacity="0.2" d="M252.694 101.903H279.116L265.905 85.7504L252.694 101.903Z" fill="black"/>
<path d="M239.678 101.919H263.118L251.398 91.399L239.678 101.919Z" fill="#02A4FF"/>
<path opacity="0.1" d="M239.678 101.919H263.118L251.398 91.399L239.678 101.919Z" fill="black"/>
<path d="M279.117 101.903H239.678V108.372H279.117V101.903Z" fill="#02A4FF"/>
<path opacity="0.1" d="M279.117 101.903H239.678V108.372H279.117V101.903Z" fill="black"/>
<path d="M272.497 80.1503C270.94 78.9515 269.231 76.408 267.843 75.9274C267.505 75.7971 267.133 75.7794 266.783 75.8768C266.434 75.9741 266.126 76.1814 265.905 76.4674C265.905 76.4674 265.508 74.9013 264.18 74.6691C263.494 74.5503 262.699 75.5331 262.699 75.5331C262.59 75.1831 262.386 74.8695 262.11 74.6266C261.833 74.3837 261.495 74.221 261.131 74.1561C260.179 74.0535 259.498 75.0525 259.498 75.0525C259.498 75.0525 258.584 74.0265 257.577 74.2263C255.535 74.6313 253.766 82.6129 256.444 84.4867C257.696 85.367 258.028 83.4067 258.028 83.4067C258.028 83.4067 258.246 86.3552 259.896 86.7602C261.545 87.1653 261.812 84.6001 261.812 84.6001C261.812 84.6001 262.051 87.4569 263.804 87.7053C265.557 87.9537 265.437 85.3346 265.437 85.3346C265.437 85.3346 266.259 87.3705 267.615 87.2571C269.901 87.0681 267.957 83.1205 268.769 81.4572L271.899 81.1278L272.497 80.1503Z" fill="#D3766A"/>
<path d="M270.32 78.0173C271.898 79.0271 274.495 77.38 276.144 78.1307C278.376 79.1459 275.497 81.2628 271.964 81.0954L269.242 80.4906L270.32 78.0173Z" fill="#D3766A"/>
<path d="M262.699 75.4899C262.697 75.4841 262.692 75.4792 262.687 75.4757C262.682 75.4723 262.676 75.4705 262.669 75.4705C262.663 75.4705 262.657 75.4723 262.651 75.4757C262.646 75.4792 262.642 75.4841 262.639 75.4899C261.247 78.3463 260.932 81.6034 261.752 84.6703C261.785 84.7783 261.921 84.8377 261.894 84.7135C261.431 82.5858 261.899 77.9902 262.699 75.4899Z" fill="#263238"/>
<path d="M265.617 85.5074C264.844 82.4995 265.121 79.5671 265.845 76.57C265.845 76.5322 265.802 76.5214 265.785 76.57C265.029 77.9309 264.768 79.8857 264.697 81.4302C264.602 82.8543 264.883 84.2783 265.513 85.5614C265.535 85.583 265.633 85.5506 265.617 85.5074Z" fill="#263238"/>
<path d="M281.506 89.9626C282.704 90.1948 285.54 88.3425 286.803 86.5983C286.89 86.4794 286.857 85.1078 286.906 83.4445C286.906 82.4293 286.993 81.2844 287.119 80.28C287.151 80.0748 286.378 80.3718 286.378 80.3718L285.007 80.523L280.456 81.063C280.666 82.3863 280.712 83.7302 280.592 85.0646C280.572 85.2059 280.539 85.345 280.494 85.4804V85.5506C280.244 86.312 279.634 89.5954 281.506 89.9626Z" fill="#D3766A"/>
<path d="M280.494 85.4642V85.5344C280.71 85.5919 280.93 85.6299 281.153 85.6478C285.507 86.0906 286.754 80.6634 286.754 80.6634L285.023 80.5229L280.472 81.063C280.683 82.3863 280.728 83.7302 280.608 85.0646C280.582 85.2009 280.544 85.3346 280.494 85.4642Z" fill="#263238"/>
<path d="M288.322 71.6234C289.024 73.9185 287.777 80.5392 286.144 82.0135C283.755 84.1736 279.852 84.341 278.028 81.4734C276.253 78.7139 278.028 70.1329 279.862 68.7775C282.568 66.828 287.287 68.2375 288.322 71.6234Z" fill="#D3766A"/>
<path d="M281.419 75.4305C281.419 75.4305 281.452 75.4629 281.447 75.4792C281.332 75.9166 281.272 76.4404 281.643 76.678C281.643 76.678 281.643 76.7104 281.643 76.705C281.158 76.5214 281.239 75.8302 281.419 75.4305Z" fill="#263238"/>
<path d="M281.926 75.058C282.655 75.166 282.383 76.6078 281.708 76.5052C281.033 76.4026 281.311 74.9716 281.926 75.058Z" fill="#263238"/>
<path d="M279.03 74.9175C279.03 74.9175 278.991 74.9175 278.991 74.9499C278.921 75.3982 278.768 75.9004 278.333 75.9706V75.9976C278.85 76.0192 279.03 75.3496 279.03 74.9175Z" fill="#263238"/>
<path d="M278.73 74.3775C278.017 74.1885 277.691 75.6196 278.349 75.7924C279.008 75.9652 279.324 74.5341 278.73 74.3775Z" fill="#263238"/>
<path d="M282.617 74.5071C282.432 74.4207 282.269 74.3127 282.073 74.2101C281.872 74.1289 281.704 73.9848 281.594 73.7997C281.571 73.7355 281.571 73.6657 281.592 73.6012C281.614 73.5368 281.657 73.4812 281.713 73.4432C281.837 73.3837 281.974 73.3578 282.111 73.3683C282.248 73.3787 282.379 73.4251 282.492 73.5026C282.741 73.6291 282.935 73.8426 283.036 74.1021C283.053 74.1593 283.053 74.2199 283.038 74.2775C283.023 74.335 282.992 74.3874 282.949 74.4289C282.906 74.4705 282.852 74.4997 282.794 74.5135C282.735 74.5272 282.674 74.525 282.617 74.5071Z" fill="#263238"/>
<path d="M278.327 73.7241C278.529 73.7204 278.731 73.706 278.932 73.6809C279.147 73.6942 279.361 73.6374 279.541 73.5189C279.592 73.4683 279.623 73.4015 279.629 73.3304C279.635 73.2592 279.616 73.1882 279.574 73.13C279.489 73.0226 279.376 72.9399 279.248 72.8905C279.12 72.8411 278.98 72.8268 278.844 72.8492C278.562 72.8499 278.29 72.9559 278.082 73.1462C278.033 73.193 277.998 73.2538 277.984 73.3205C277.97 73.3872 277.977 73.4565 278.003 73.5193C278.03 73.5821 278.075 73.6353 278.133 73.6719C278.191 73.7085 278.259 73.7267 278.327 73.7241Z" fill="#263238"/>
<path d="M281.327 79.7075C281.202 79.7939 281.066 79.9182 280.902 79.902C280.736 79.8682 280.578 79.8002 280.44 79.7021C280.44 79.7021 280.407 79.7021 280.412 79.7021C280.462 79.8044 280.539 79.8912 280.635 79.9531C280.731 80.015 280.842 80.0496 280.957 80.0532C281.053 80.0462 281.144 80.0111 281.22 79.9524C281.295 79.8938 281.352 79.8142 281.381 79.7238C281.381 79.713 281.349 79.6967 281.327 79.7075Z" fill="#263238"/>
<path d="M281.104 78.2873C280.956 78.443 280.778 78.567 280.581 78.6516C280.383 78.7361 280.17 78.7794 279.955 78.7787C279.771 78.7773 279.587 78.75 279.411 78.6977L279.307 78.6707L279.215 78.6383C279.192 78.6283 279.173 78.6114 279.16 78.5901C279.147 78.5688 279.142 78.5441 279.144 78.5195C279.141 78.5052 279.141 78.4906 279.144 78.4763V78.4385C279.198 78.0929 279.329 77.5799 279.329 77.5799C279.187 77.6177 278.491 77.7851 278.534 77.6123C278.862 76.0707 279.349 74.5669 279.988 73.1247C279.991 73.1146 279.999 73.1064 280.008 73.1019C280.018 73.0973 280.029 73.0968 280.039 73.1004C280.049 73.1039 280.058 73.1114 280.062 73.121C280.067 73.1306 280.067 73.1416 280.064 73.1517C279.77 74.5773 279.226 75.9382 278.904 77.3638C279.153 77.3013 279.41 77.274 279.666 77.2828C279.715 77.2828 279.394 78.2765 279.383 78.4331C279.662 78.5122 279.954 78.5353 280.242 78.501C280.53 78.4667 280.808 78.3757 281.06 78.2333C281.109 78.2225 281.136 78.2549 281.104 78.2873Z" fill="#263238"/>
<path d="M279.639 78.5627C279.781 78.843 279.995 79.0814 280.26 79.2539C280.405 79.3464 280.577 79.39 280.75 79.3781C281.125 79.3781 281.196 79.0271 281.185 78.7355C281.176 78.5798 281.149 78.4257 281.103 78.2765C280.659 78.5242 280.146 78.6244 279.639 78.5627Z" fill="#263238"/>
<path d="M280.26 79.254C280.406 79.3464 280.577 79.39 280.75 79.3782C281.126 79.3782 281.196 79.0271 281.185 78.7355C280.995 78.7066 280.8 78.742 280.632 78.836C280.465 78.93 280.333 79.0772 280.26 79.254Z" fill="#FF9BBC"/>
<path d="M288.001 77.9903C286.787 77.4988 286.613 73.2542 286.613 73.2542C286.613 73.2542 286.427 75.0255 286.095 74.9499C285.763 74.8743 284.664 72.3146 284.702 70.5703C283.641 71.1114 282.514 71.5127 281.349 71.7638C279.716 72.0608 277.963 71.7638 277.99 71.4938C278.083 70.6945 279.046 68.691 280.222 68.0754C281.086 67.5645 282.07 67.2889 283.076 67.2766C284.081 67.2643 285.072 67.5156 285.948 68.0052C286.815 68.3893 287.567 68.9888 288.131 69.7456C288.696 70.5025 289.054 71.3911 289.171 72.3254C289.416 73.6701 288.447 78.1631 288.001 77.9903Z" fill="#263238"/>
<path d="M281.751 77.9903C281.209 77.824 280.754 77.4544 280.483 76.9602C280.211 76.4659 280.145 75.8861 280.298 75.3441C280.411 74.9609 280.631 74.617 280.932 74.3515C281.233 74.086 281.602 73.9096 281.999 73.8424C282.396 73.7752 282.804 73.8199 283.177 73.9715C283.549 74.123 283.871 74.3752 284.107 74.6994C284.342 75.0237 284.48 75.4069 284.507 75.8055C284.533 76.204 284.446 76.6019 284.256 76.9539C284.065 77.3058 283.779 77.5976 283.43 77.7961C283.08 77.9946 282.682 78.0918 282.279 78.0767C282.1 78.0717 281.923 78.0426 281.751 77.9903ZM280.576 75.4251C280.471 75.7754 280.474 76.1485 280.583 76.4973C280.693 76.8461 280.904 77.1548 281.19 77.3846C281.476 77.6143 281.825 77.7546 282.191 77.7879C282.558 77.8211 282.926 77.7458 283.25 77.5714C283.573 77.3969 283.838 77.1313 284.009 76.8079C284.18 76.4846 284.251 76.1182 284.212 75.7549C284.174 75.3917 284.027 75.048 283.792 74.7672C283.556 74.4865 283.242 74.2813 282.889 74.1777C282.74 74.1368 282.586 74.1115 282.432 74.1021C282.015 74.081 281.602 74.1993 281.261 74.4382C280.919 74.6771 280.668 75.0227 280.548 75.4197L280.576 75.4251Z" fill="#02A4FF"/>
<path d="M277.244 77.2829C276.373 77.1479 275.812 76.0894 275.997 74.9284C276.071 74.403 276.309 73.9138 276.678 73.5297C276.826 73.3545 277.016 73.2202 277.232 73.1398C277.447 73.0594 277.68 73.0358 277.908 73.0711C278.135 73.1065 278.349 73.1996 278.53 73.3415C278.71 73.4833 278.85 73.6691 278.937 73.8807C279.171 74.3582 279.247 74.8968 279.155 75.4198C278.986 76.4999 278.208 77.3261 277.386 77.2937L277.244 77.2829ZM276.879 73.7295C276.552 74.0724 276.343 74.509 276.281 74.977C276.123 75.9814 276.574 76.8887 277.288 76.9967C278.001 77.1047 278.714 76.381 278.872 75.3766C278.955 74.9132 278.891 74.4354 278.687 74.0103C278.612 73.8438 278.499 73.6972 278.356 73.5826C278.213 73.4681 278.044 73.3889 277.865 73.3515H277.756C277.591 73.3508 277.428 73.3841 277.278 73.4491C277.127 73.5142 276.991 73.6097 276.879 73.7295Z" fill="#02A4FF"/>
<path d="M280.303 75.5926L280.521 75.409C280.244 75.0903 279.558 74.6151 278.948 75.0849L279.128 75.3063C279.667 74.8851 280.282 75.5656 280.303 75.5926Z" fill="#02A4FF"/>
<path d="M289.677 77.6015L289.949 77.5097C289.906 77.3855 289.514 76.273 288.899 76.0732C288.284 75.8734 284.462 75.652 284.299 75.6412V75.9274C285.388 75.9922 288.382 76.1974 288.828 76.3432C289.274 76.489 289.574 77.2937 289.677 77.6015Z" fill="#02A4FF"/>
<path d="M286.885 77.0183C286.885 77.0183 288.441 74.9122 289.405 75.4684C290.368 76.0246 289.171 79.1028 288.011 79.5024C287.866 79.5635 287.71 79.5948 287.552 79.5946C287.394 79.5944 287.237 79.5625 287.092 79.501C286.947 79.4396 286.815 79.3496 286.706 79.2367C286.596 79.1237 286.511 78.99 286.455 78.8436L286.885 77.0183Z" fill="#D3766A"/>
<path d="M281.659 67.6542C282.523 67.2583 283.439 66.9873 284.381 66.8496C285.442 66.72 288.774 66.9792 289.574 67.6434C290.374 68.3077 290.581 71.4236 290.603 71.8772C290.624 72.3308 290.418 75.0904 289.411 75.7546C288.403 76.4188 288.322 71.7368 286.721 70.1815C285.121 68.6263 281.659 67.6542 281.659 67.6542Z" fill="#02A4FF"/>
<path opacity="0.1" d="M281.659 67.6596C281.659 67.6596 285.143 68.6263 286.727 70.1815C288.311 71.7368 288.409 76.4188 289.416 75.7546C289.881 75.3966 290.185 74.8704 290.26 74.2911C290.047 72.9249 289.492 70.8026 288.344 69.3337C287.255 67.9566 285.415 67.2546 283.444 67.0332C282.831 67.1884 282.234 67.3981 281.659 67.6596Z" fill="black"/>
<path d="M289.138 78.5303C289.046 77.2828 287.772 73.9455 286.417 72.05C285.061 70.1545 281.136 69.0151 280.581 69.0475C279.242 69.1177 278.79 69.5227 278.578 69.4039C278.366 69.2851 279.743 68.286 280.124 68.0646C280.721 67.6845 281.393 67.4342 282.095 67.3302C282.677 67.3302 286.264 67.6974 287.565 69.2149C288.866 70.7324 290.712 74.9877 290.374 76.0786C290.293 76.3378 289.939 76.5106 289.83 76.8778C289.683 77.3638 289.579 77.9255 289.427 78.2657C289.275 78.6059 289.144 78.6383 289.138 78.5303Z" fill="#02A4FF"/>
<path d="M288.719 75.9382C288.839 75.7924 288.964 75.6682 289.073 75.5116C289.173 75.3636 289.263 75.2084 289.34 75.0472C289.421 74.8906 289.487 74.7232 289.563 74.5666C289.639 74.4099 289.77 74.1993 289.846 74.0265C289.846 73.9995 289.895 74.0265 289.884 74.0265C289.802 74.2263 289.753 74.4369 289.677 74.6422C289.607 74.8164 289.525 74.986 289.432 75.1498C289.35 75.3086 289.251 75.4588 289.138 75.598C289.029 75.7442 288.89 75.8657 288.73 75.9544C288.73 75.9544 288.708 75.949 288.719 75.9382Z" fill="#263238"/>
<path d="M288.284 74.7177C288.549 74.4965 288.78 74.2382 288.97 73.9509C289.149 73.6701 289.318 73.3785 289.481 73.0869C289.481 73.0869 289.525 73.0869 289.519 73.0869C289.416 73.4209 289.269 73.7403 289.084 74.0373C288.992 74.1805 288.885 74.3127 288.763 74.4315C288.624 74.5499 288.472 74.6531 288.311 74.7393C288.311 74.7393 288.24 74.7501 288.284 74.7177Z" fill="#263238"/>
<path d="M285.159 70.4569C285.284 70.3057 285.404 70.1545 285.546 70.0141C285.687 69.8737 285.834 69.7387 285.992 69.6091C286.293 69.3595 286.619 69.1423 286.966 68.9611C286.966 68.9611 287.015 68.9611 286.966 68.9935C286.373 69.4957 285.753 69.9763 285.165 70.4893L285.159 70.4569Z" fill="#263238"/>
<path d="M284.402 69.3931C284.527 69.2421 284.67 69.1061 284.827 68.9881C285.167 68.7519 285.532 68.5528 285.916 68.394C285.916 68.394 285.965 68.394 285.916 68.4318C285.589 68.6479 285.262 68.8531 284.947 69.0907C284.791 69.2023 284.642 69.3232 284.5 69.4525C284.359 69.5875 284.25 69.7441 284.114 69.8791C284.114 69.8791 284.081 69.8791 284.087 69.8791C284.156 69.6967 284.263 69.531 284.402 69.3931Z" fill="#263238"/>
<path d="M283.385 68.9017C283.5 68.7542 283.631 68.6202 283.776 68.5021C284.048 68.269 284.36 68.0862 284.696 67.962C284.696 67.962 284.735 67.989 284.696 67.9998C284.389 68.1797 284.099 68.3876 283.831 68.6209L283.434 68.9827C283.303 69.1015 283.194 69.2527 283.052 69.3607C283.147 69.1966 283.258 69.0427 283.385 68.9017Z" fill="#263238"/>
<path d="M282.601 68.2698C282.731 68.1618 282.868 68.0646 283.009 67.962C283.141 67.8593 283.288 67.7774 283.445 67.719C283.445 67.719 283.477 67.746 283.445 67.7568C283.189 67.962 282.933 68.1672 282.682 68.3778C282.46 68.5846 282.261 68.8145 282.089 69.0637C282.089 69.0637 282.089 69.0637 282.089 69.0637C282.177 68.7546 282.355 68.4783 282.601 68.2698Z" fill="#263238"/>
<path d="M281.654 68.0754C281.9 67.8467 282.186 67.6638 282.497 67.5354C282.497 67.5354 282.535 67.5354 282.497 67.5732C282.214 67.7245 281.955 67.9175 281.73 68.1456C281.505 68.3713 281.305 68.6192 281.131 68.8855C281.131 68.8855 281.098 68.8855 281.131 68.8855C281.242 68.5799 281.42 68.303 281.654 68.0754Z" fill="#263238"/>
<path d="M280.418 68.6371C280.45 68.5669 280.488 68.5075 280.527 68.4427C280.61 68.3227 280.705 68.2106 280.81 68.1079C281.027 67.9028 281.266 67.7218 281.523 67.5679C281.523 67.5679 281.566 67.5679 281.523 67.6003C281.28 67.7553 281.056 67.9364 280.853 68.1403C280.757 68.2452 280.666 68.3552 280.581 68.4697C280.543 68.5291 280.505 68.5885 280.472 68.6479C280.444 68.7108 280.41 68.7706 280.369 68.8261H280.331C280.347 68.7581 280.377 68.6939 280.418 68.6371Z" fill="#263238"/>
<path d="M279.661 68.7019C279.733 68.6033 279.811 68.5095 279.895 68.4211C279.977 68.3328 280.064 68.2499 280.156 68.1727L280.439 67.9351C280.439 67.9351 280.488 67.9351 280.439 67.9675C280.343 68.0455 280.253 68.1323 280.173 68.2267L279.939 68.4859L279.699 68.7505C279.623 68.8369 279.552 68.9395 279.465 69.0205H279.438C279.501 68.9069 279.576 68.8002 279.661 68.7019Z" fill="#263238"/>
<path d="M300.412 121.408C300.346 121.484 271.474 122.035 271.207 121.743C270.837 121.338 275.562 92.6303 280.14 86.3714C281.289 84.8054 285.382 83.7361 287.086 85.3238C292.029 89.9248 293.074 93.7914 294.353 96.9505C295.604 100.365 296.655 103.849 297.499 107.384C299.22 114.129 300.64 121.138 300.412 121.408Z" fill="#C7C7C7"/>
<path d="M284.075 90.2002C283.618 94.1694 280.091 109.387 275.246 111.574C269.373 114.226 261.376 115.657 257.184 115.792C254.963 115.868 256.88 103.83 258.888 103.841C262.056 103.841 267.756 102.507 268.883 102.221C270.009 101.935 275.573 93.1865 278.79 88.6017C281.686 84.4706 284.342 87.8565 284.075 90.2002Z" fill="#D3766A"/>
<path d="M259.77 115.517C255.339 115.976 249.847 116.807 245.274 114.733C244.761 114.518 244.335 114.138 244.066 113.653C242.003 112.762 241.807 111.526 241.807 111.526C240.136 110.105 240.114 108.826 240.114 108.826C240.114 108.826 237.697 107.746 238.111 106.196C238.568 104.451 241.872 106.304 244.311 106.196C249.912 106.007 258.638 104.149 260.249 103.933L259.77 115.517Z" fill="#D3766A"/>
<path d="M250.315 110.084C248.681 110.156 247.045 110.119 245.416 109.976C243.637 109.706 241.881 109.303 240.163 108.772C240.152 108.767 240.14 108.767 240.129 108.772C240.118 108.777 240.11 108.785 240.106 108.796C240.101 108.807 240.102 108.819 240.106 108.829C240.111 108.84 240.119 108.848 240.13 108.853C243.341 110.205 246.863 110.657 250.315 110.159C250.391 110.143 250.397 110.084 250.315 110.084Z" fill="#263238"/>
<path d="M250.919 113.416C249.313 113.351 246.493 113.221 241.817 111.461C241.817 111.461 241.785 111.461 241.817 111.488C244.608 112.983 247.764 113.677 250.93 113.491C251.017 113.491 251.028 113.421 250.919 113.416Z" fill="#263238"/>
<path d="M251.213 115.214C248.771 115.014 246.368 114.481 244.071 113.632C244.071 113.632 244.071 113.632 244.071 113.659C247.06 114.998 248.295 115.144 251.23 115.311C251.317 115.317 251.317 115.252 251.213 115.214Z" fill="#263238"/>
<path d="M251.044 105.532C251.763 105.224 251.589 104.846 250.255 104.495C248.921 104.144 243.265 103.901 243.516 101.957C243.766 100.012 251.627 100.839 253.924 101.222C256.331 101.666 258.603 102.652 260.565 104.106C258.997 104.343 254.109 105.083 251.044 105.532Z" fill="#D3766A"/>
<path d="M261.213 103.118L260.897 115.862C260.897 115.862 272.497 114.539 276.259 111.472C280.02 108.404 282.938 98.0684 283.989 92.2307C285.039 86.393 282.214 82.7101 277.092 90.5296C271.969 98.3492 269.307 101.579 268.85 101.87C268.393 102.162 261.213 103.118 261.213 103.118Z" fill="#C7C7C7"/>
<path d="M272.377 113.313C272.416 113.248 276.819 111.099 277.663 109.711C278.322 108.631 281.746 101.255 283.885 93.1487C283.885 93.1487 283.929 93.1487 283.923 93.1487C283.704 94.4712 283.417 95.7815 283.063 97.0747L283.177 96.8857C283.523 96.3495 283.841 95.7962 284.13 95.2278C284.13 95.1846 284.212 95.2278 284.19 95.2656C283.901 95.8057 283.646 96.4105 283.395 96.9775C283.259 97.2529 283.128 97.5175 282.971 97.7929C282.916 97.8901 282.851 97.9982 282.785 98.1008C282.671 98.5004 282.557 98.9 282.432 99.2996C282.127 100.304 279.225 108.302 277.712 110.208C276.754 111.407 272.813 113.286 272.367 113.373C272.318 113.394 272.35 113.356 272.377 113.313Z" fill="#263238"/>
<path d="M263.358 115.058C263.295 114.078 263.284 113.095 263.325 112.114C263.325 111.153 263.341 110.192 263.374 109.231C263.418 107.292 263.418 105.332 263.587 103.398C263.587 103.355 263.657 103.35 263.657 103.398C263.81 105.348 263.756 107.324 263.723 109.285C263.723 110.262 263.674 111.245 263.63 112.222C263.62 113.172 263.553 114.121 263.429 115.063C263.423 115.112 263.358 115.095 263.358 115.058Z" fill="#263238"/>
<path d="M281.37 85.3778C283.657 84.1573 289.949 83.6227 292.481 85.313C295.681 87.4407 298.626 99.7802 297.32 100.509C294.995 101.811 286.934 94.6446 285.175 91.7015C283.417 88.7583 281.37 85.3778 281.37 85.3778Z" fill="#C7C7C7"/>
<path d="M282.998 89.0662C283.406 89.4928 283.831 89.914 284.239 90.346C283.695 89.4928 283.15 88.645 282.606 87.7755C282.606 87.7431 282.606 87.7107 282.655 87.7377C283.37 88.6238 284.036 89.5467 284.653 90.5026C285.317 91.4531 285.981 92.4035 286.694 93.3216C287.391 94.2452 288.155 95.1169 288.98 95.9299C289.87 96.7634 290.821 97.5289 291.827 98.2196C292.372 98.6192 292.96 99.008 293.537 99.3806C294.159 99.7823 294.812 100.134 295.491 100.434C295.616 100.482 295.534 100.52 295.491 100.509C294.911 100.295 294.351 100.03 293.82 99.7154C293.275 99.4022 292.731 99.0836 292.159 98.7596C291.099 98.1539 290.092 97.4602 289.149 96.6859C287.39 95.097 285.901 93.237 284.74 91.1777L284.664 91.0643C284.419 90.8051 284.185 90.5242 283.956 90.2596C283.624 89.8654 283.281 89.4874 282.916 89.1148C282.911 89.0824 282.965 89.0338 282.998 89.0662Z" fill="#263238"/>
</svg>
